<?xml version="1.0" encoding="utf-8" standalone="no"?>
<!DOCTYPE svg PUBLIC "-//W3C//DTD SVG 1.1//EN"
  "http://www.w3.org/Graphics/SVG/1.1/DTD/svg11.dtd">
<svg xmlns:xlink="http://www.w3.org/1999/xlink" width="1509.552073pt" height="1387.440241pt" viewBox="0 0 1509.552073 1387.440241" xmlns="http://www.w3.org/2000/svg" version="1.1">
 <metadata>
  <rdf:RDF xmlns:dc="http://purl.org/dc/elements/1.1/" xmlns:cc="http://creativecommons.org/ns#" xmlns:rdf="http://www.w3.org/1999/02/22-rdf-syntax-ns#">
   <cc:Work>
    <dc:type rdf:resource="http://purl.org/dc/dcmitype/StillImage"/>
    <dc:date>2025-11-05T14:51:29.437172</dc:date>
    <dc:format>image/svg+xml</dc:format>
    <dc:creator>
     <cc:Agent>
      <dc:title>Matplotlib v3.10.6, https://matplotlib.org/</dc:title>
     </cc:Agent>
    </dc:creator>
   </cc:Work>
  </rdf:RDF>
 </metadata>
 <defs>
  <style type="text/css">*{stroke-linejoin: round; stroke-linecap: butt}</style>
 </defs>
 <g id="figure_1">
  <g id="patch_1">
   <path d="M 0 1387.440241 
L 1509.552073 1387.440241 
L 1509.552073 0 
L 0 0 
z
" style="fill: #ffffff"/>
  </g>
  <g id="axes_1">
   <g id="patch_2">
    <path d="M 1405.323929 705.680746 
C 1405.323929 619.890057 1388.425034 534.933575 1355.594359 455.673314 
C 1322.763684 376.413053 1274.639703 304.390425 1213.976525 243.727248 
C 1153.313348 183.06407 1081.29072 134.940089 1002.030459 102.109414 
C 922.770198 69.278739 837.813715 52.379844 752.023027 52.379844 
C 666.232339 52.379844 581.275857 69.278739 502.015596 102.109414 
C 422.755334 134.940089 350.732707 183.06407 290.069529 243.727248 
C 229.406352 304.390425 181.28237 376.413053 148.451695 455.673314 
C 115.62102 534.933575 98.722125 619.890057 98.722125 705.680746 
C 98.722125 791.471434 115.62102 876.427916 148.451695 955.688177 
C 181.28237 1034.948438 229.406352 1106.971066 290.069529 1167.634244 
C 350.732707 1228.297421 422.755334 1276.421403 502.015596 1309.252078 
C 581.275857 1342.082753 666.232339 1358.981648 752.023027 1358.981648 
C 837.813715 1358.981648 922.770198 1342.082753 1002.030459 1309.252078 
C 1081.29072 1276.421403 1153.313348 1228.297421 1213.976525 1167.634244 
C 1274.639703 1106.971066 1322.763684 1034.948438 1355.594359 955.688177 
C 1388.425034 876.427916 1405.323929 791.471434 1405.323929 705.680746 
M 752.023027 705.680746 
C 752.023027 705.680746 752.023027 705.680746 752.023027 705.680746 
C 752.023027 705.680746 752.023027 705.680746 752.023027 705.680746 
C 752.023027 705.680746 752.023027 705.680746 752.023027 705.680746 
C 752.023027 705.680746 752.023027 705.680746 752.023027 705.680746 
C 752.023027 705.680746 752.023027 705.680746 752.023027 705.680746 
C 752.023027 705.680746 752.023027 705.680746 752.023027 705.680746 
C 752.023027 705.680746 752.023027 705.680746 752.023027 705.680746 
C 752.023027 705.680746 752.023027 705.680746 752.023027 705.680746 
C 752.023027 705.680746 752.023027 705.680746 752.023027 705.680746 
C 752.023027 705.680746 752.023027 705.680746 752.023027 705.680746 
C 752.023027 705.680746 752.023027 705.680746 752.023027 705.680746 
C 752.023027 705.680746 752.023027 705.680746 752.023027 705.680746 
C 752.023027 705.680746 752.023027 705.680746 752.023027 705.680746 
C 752.023027 705.680746 752.023027 705.680746 752.023027 705.680746 
C 752.023027 705.680746 752.023027 705.680746 752.023027 705.680746 
C 752.023027 705.680746 752.023027 705.680746 752.023027 705.680746 
z
" style="fill: #ffffff"/>
   </g>
   <g id="patch_3">
    <path d="M 752.023027 260.271471 
L 840.228466 347.817214 
L 967.97825 294.212446 
L 1012.79429 411.330838 
L 1092.360121 470.763011 
L 1237.589676 521.529606 
L 1222.05206 648.608888 
L 1238.092186 764.700227 
L 1212.103237 880.166154 
L 1021.497784 891.68574 
L 1148.613032 1153.338321 
L 973.537363 1127.74105 
L 890.689563 1268.272996 
L 752.023027 1083.509307 
L 627.957212 1209.035544 
L 596.637162 1001.743777 
L 393.15082 1110.763729 
L 250.319828 1051.98146 
L 411.507407 834.821286 
L 214.221561 770.981666 
L 426.378748 666.140372 
L 342.462593 550.354961 
L 419.572572 476.206765 
L 515.767509 439.003394 
L 562.032021 343.683128 
L 658.932618 327.998109 
z
" clip-path="url(#pe0e6bacc56)" style="fill: #1f77b4; opacity: 0.25; stroke: #1f77b4; stroke-linejoin: miter"/>
   </g>
   <g id="patch_4">
    <path d="M 752.023027 462.776272 
L 810.284901 469.303031 
L 900.353631 423.060393 
L 842.721483 603.303352 
L 939.082155 576.563153 
L 954.256812 628.983588 
L 889.438353 688.995504 
L 998.60996 735.62182 
L 822.532806 732.421578 
L 822.923265 754.619647 
L 920.001403 895.289136 
L 844.449486 881.784651 
L 784.454402 837.260007 
L 752.023027 804.135291 
L 689.372175 959.865246 
L 714.94016 776.336245 
L 652.445431 818.080616 
L 528.895165 859.694789 
L 697.459274 726.374048 
L 668.755716 715.791228 
L 725.687624 702.483049 
L 672.480429 675.514217 
L 690.599595 663.283212 
L 749.571439 702.913475 
L 615.756402 446.046385 
L 703.542902 508.989147 
z
" clip-path="url(#pe0e6bacc56)" style="fill: #ff7f0e; opacity: 0.25; stroke: #ff7f0e; stroke-linejoin: miter"/>
   </g>
   <g id="patch_5">
    <path d="M 752.023027 411.77634 
L 807.72549 479.686972 
L 931.769025 363.203361 
L 875.41088 566.404651 
L 978.667026 549.239689 
L 1079.700397 581.409111 
L 1067.379589 667.389527 
L 1107.440642 748.836257 
L 968.994169 787.967046 
L 832.477836 761.214691 
L 969.592056 951.265411 
L 872.371638 934.985866 
L 792.18893 868.640218 
L 752.023027 743.293096 
L 679.276892 1000.823419 
L 721.169595 764.467048 
L 669.080385 799.303635 
L 408.12291 943.057857 
L 708.66085 722.12585 
L 632.289814 720.21899 
L 748.460572 705.248185 
L 519.494605 617.494347 
L 652.233605 636.801081 
L 752.023027 705.680746 
L 591.924572 400.638626 
L 684.932113 433.482206 
z
" clip-path="url(#pe0e6bacc56)" style="fill: #2ca02c; opacity: 0.25; stroke: #2ca02c; stroke-linejoin: miter"/>
   </g>
   <g id="patch_6">
    <path d="M 752.023027 267.978692 
L 856.609551 281.356538 
L 962.63696 304.389423 
L 1022.902975 399.920492 
L 1106.532992 460.980185 
L 1158.300472 551.600035 
L 1174.500284 654.382719 
L 1200.252558 760.105664 
L 1048.706525 818.197955 
L 1169.536902 993.869765 
L 1060.588452 1053.97911 
L 945.042541 1073.448702 
L 837.986048 1054.44643 
L 752.023027 1033.225199 
L 645.138221 1139.329451 
L 588.840209 1016.599629 
L 511.172165 977.545169 
L 389.156333 956.14954 
L 443.001459 822.877168 
L 409.292325 747.295787 
L 434.828727 667.166385 
L 369.542918 560.625174 
L 418.845491 475.704897 
L 546.762915 473.989974 
L 545.157567 311.531541 
L 651.059165 296.054254 
z
" clip-path="url(#pe0e6bacc56)" style="fill: #d62728; opacity: 0.25; stroke: #d62728; stroke-linejoin: miter"/>
   </g>
   <g id="patch_7">
    <path d="M 752.023027 445.647057 
L 800.525403 508.898871 
L 884.045361 454.133205 
L 841.344186 604.858 
L 960.298614 561.918488 
L 1074.832318 583.25533 
L 973.223355 678.822163 
L 1071.841278 744.513712 
L 752.023027 705.680746 
L 1000.873678 877.449948 
L 959.469528 939.83944 
L 855.383136 902.616979 
L 782.609526 829.775048 
L 752.023027 725.836686 
L 685.557903 975.340353 
L 741.397605 725.925796 
L 693.511431 771.726685 
L 416.818494 937.055729 
L 715.06844 719.695772 
L 621.253629 721.559025 
L 750.690654 705.518966 
L 621.879172 656.323692 
L 676.205332 653.347569 
L 752.023027 705.680746 
L 594.21056 404.994211 
L 685.028524 433.873361 
z
" clip-path="url(#pe0e6bacc56)" style="fill: #9467bd; opacity: 0.25; stroke: #9467bd; stroke-linejoin: miter"/>
   </g>
   <g id="patch_8">
    <path d="M 752.023027 296.468231 
L 851.139679 303.548683 
L 950.541162 327.436041 
L 1002.02969 423.48156 
L 1088.591727 473.364146 
L 1130.861506 562.006262 
L 1145.67591 657.882632 
L 1166.445766 756.000777 
L 1036.899247 813.720045 
L 1078.18417 930.813527 
L 1037.404369 1027.809689 
L 930.869364 1046.443971 
L 829.53366 1020.153746 
L 752.023027 993.860874 
L 652.177824 1110.768658 
L 604.89653 986.006864 
L 533.473832 952.371791 
L 410.191763 941.629831 
L 482.37909 807.943202 
L 429.192371 744.879484 
L 474.050972 671.928828 
L 401.739733 572.835815 
L 467.9536 509.601778 
L 582.307834 514.111894 
L 562.658284 344.876373 
L 658.952554 328.078993 
z
" clip-path="url(#pe0e6bacc56)" style="fill: #8c564b; opacity: 0.25; stroke: #8c564b; stroke-linejoin: miter"/>
   </g>
   <g id="patch_9">
    <path d="M 752.023027 385.890492 
L 820.229195 428.957445 
L 907.226914 409.964447 
L 910.433736 526.872019 
L 1018.552362 521.708829 
L 1059.435955 589.0944 
L 1001.400641 675.400821 
L 1060.78183 743.170852 
L 1107.077904 840.335299 
L 906.576921 812.361596 
L 951.766568 931.144595 
L 819.228868 833.730778 
L 781.472532 825.162083 
L 752.023027 844.592347 
L 683.844476 982.292 
L 734.429313 739.202767 
L 627.504365 846.233261 
L 495.17594 882.969489 
L 704.372847 723.752075 
L 544.957647 730.823035 
L 671.687011 695.926187 
L 599.067519 647.672373 
L 727.50402 688.756497 
L 732.781448 683.961493 
L 594.342466 405.245537 
L 676.559517 399.513248 
z
" clip-path="url(#pe0e6bacc56)" style="fill: #e377c2; opacity: 0.25; stroke: #e377c2; stroke-linejoin: miter"/>
   </g>
   <g id="patch_10">
    <path d="M 752.023027 286.379074 
L 852.638508 297.467692 
L 957.147864 314.848022 
L 999.363768 426.490763 
L 1093.029115 470.301239 
L 1136.204794 559.97982 
L 1149.557438 657.411329 
L 1175.555782 757.106933 
L 1106.650663 840.173268 
L 1095.234475 942.582503 
L 1040.884051 1031.737439 
L 926.020301 1037.204853 
L 824.027675 997.815087 
L 752.023027 966.728707 
L 649.607301 1121.19768 
L 622.202959 953.032219 
L 550.348123 933.324653 
L 406.545719 944.146513 
L 507.358633 798.469711 
L 459.539752 741.194645 
L 509.255864 676.203475 
L 404.007326 573.6958 
L 489.248349 524.300482 
L 599.941531 534.016224 
L 556.066861 332.317465 
L 655.661414 314.726313 
z
" clip-path="url(#pe0e6bacc56)" style="fill: #7f7f7f; opacity: 0.25; stroke: #7f7f7f; stroke-linejoin: miter"/>
   </g>
   <g id="matplotlib.axis_1">
    <g id="xtick_1">
     <g id="line2d_1">
      <path d="M 752.023027 705.680746 
L 752.023027 52.379844 
" clip-path="url(#pe0e6bacc56)" style="fill: none; stroke: #b0b0b0; stroke-width: 0.8; stroke-linecap: square"/>
     </g>
     <g id="text_1">
      <!-- 1.1 Cooperative -->
      <g transform="translate(692.163652 42.518906) scale(0.15 -0.15)">
       <defs>
        <path id="DejaVuSans-31" d="M 794 531 
L 1825 531 
L 1825 4091 
L 703 3866 
L 703 4441 
L 1819 4666 
L 2450 4666 
L 2450 531 
L 3481 531 
L 3481 0 
L 794 0 
L 794 531 
z
" transform="scale(0.015625)"/>
        <path id="DejaVuSans-2e" d="M 684 794 
L 1344 794 
L 1344 0 
L 684 0 
L 684 794 
z
" transform="scale(0.015625)"/>
        <path id="DejaVuSans-20" transform="scale(0.015625)"/>
        <path id="DejaVuSans-43" d="M 4122 4306 
L 4122 3641 
Q 3803 3938 3442 4084 
Q 3081 4231 2675 4231 
Q 1875 4231 1450 3742 
Q 1025 3253 1025 2328 
Q 1025 1406 1450 917 
Q 1875 428 2675 428 
Q 3081 428 3442 575 
Q 3803 722 4122 1019 
L 4122 359 
Q 3791 134 3420 21 
Q 3050 -91 2638 -91 
Q 1578 -91 968 557 
Q 359 1206 359 2328 
Q 359 3453 968 4101 
Q 1578 4750 2638 4750 
Q 3056 4750 3426 4639 
Q 3797 4528 4122 4306 
z
" transform="scale(0.015625)"/>
        <path id="DejaVuSans-6f" d="M 1959 3097 
Q 1497 3097 1228 2736 
Q 959 2375 959 1747 
Q 959 1119 1226 758 
Q 1494 397 1959 397 
Q 2419 397 2687 759 
Q 2956 1122 2956 1747 
Q 2956 2369 2687 2733 
Q 2419 3097 1959 3097 
z
M 1959 3584 
Q 2709 3584 3137 3096 
Q 3566 2609 3566 1747 
Q 3566 888 3137 398 
Q 2709 -91 1959 -91 
Q 1206 -91 779 398 
Q 353 888 353 1747 
Q 353 2609 779 3096 
Q 1206 3584 1959 3584 
z
" transform="scale(0.015625)"/>
        <path id="DejaVuSans-70" d="M 1159 525 
L 1159 -1331 
L 581 -1331 
L 581 3500 
L 1159 3500 
L 1159 2969 
Q 1341 3281 1617 3432 
Q 1894 3584 2278 3584 
Q 2916 3584 3314 3078 
Q 3713 2572 3713 1747 
Q 3713 922 3314 415 
Q 2916 -91 2278 -91 
Q 1894 -91 1617 61 
Q 1341 213 1159 525 
z
M 3116 1747 
Q 3116 2381 2855 2742 
Q 2594 3103 2138 3103 
Q 1681 3103 1420 2742 
Q 1159 2381 1159 1747 
Q 1159 1113 1420 752 
Q 1681 391 2138 391 
Q 2594 391 2855 752 
Q 3116 1113 3116 1747 
z
" transform="scale(0.015625)"/>
        <path id="DejaVuSans-65" d="M 3597 1894 
L 3597 1613 
L 953 1613 
Q 991 1019 1311 708 
Q 1631 397 2203 397 
Q 2534 397 2845 478 
Q 3156 559 3463 722 
L 3463 178 
Q 3153 47 2828 -22 
Q 2503 -91 2169 -91 
Q 1331 -91 842 396 
Q 353 884 353 1716 
Q 353 2575 817 3079 
Q 1281 3584 2069 3584 
Q 2775 3584 3186 3129 
Q 3597 2675 3597 1894 
z
M 3022 2063 
Q 3016 2534 2758 2815 
Q 2500 3097 2075 3097 
Q 1594 3097 1305 2825 
Q 1016 2553 972 2059 
L 3022 2063 
z
" transform="scale(0.015625)"/>
        <path id="DejaVuSans-72" d="M 2631 2963 
Q 2534 3019 2420 3045 
Q 2306 3072 2169 3072 
Q 1681 3072 1420 2755 
Q 1159 2438 1159 1844 
L 1159 0 
L 581 0 
L 581 3500 
L 1159 3500 
L 1159 2956 
Q 1341 3275 1631 3429 
Q 1922 3584 2338 3584 
Q 2397 3584 2469 3576 
Q 2541 3569 2628 3553 
L 2631 2963 
z
" transform="scale(0.015625)"/>
        <path id="DejaVuSans-61" d="M 2194 1759 
Q 1497 1759 1228 1600 
Q 959 1441 959 1056 
Q 959 750 1161 570 
Q 1363 391 1709 391 
Q 2188 391 2477 730 
Q 2766 1069 2766 1631 
L 2766 1759 
L 2194 1759 
z
M 3341 1997 
L 3341 0 
L 2766 0 
L 2766 531 
Q 2569 213 2275 61 
Q 1981 -91 1556 -91 
Q 1019 -91 701 211 
Q 384 513 384 1019 
Q 384 1609 779 1909 
Q 1175 2209 1959 2209 
L 2766 2209 
L 2766 2266 
Q 2766 2663 2505 2880 
Q 2244 3097 1772 3097 
Q 1472 3097 1187 3025 
Q 903 2953 641 2809 
L 641 3341 
Q 956 3463 1253 3523 
Q 1550 3584 1831 3584 
Q 2591 3584 2966 3190 
Q 3341 2797 3341 1997 
z
" transform="scale(0.015625)"/>
        <path id="DejaVuSans-74" d="M 1172 4494 
L 1172 3500 
L 2356 3500 
L 2356 3053 
L 1172 3053 
L 1172 1153 
Q 1172 725 1289 603 
Q 1406 481 1766 481 
L 2356 481 
L 2356 0 
L 1766 0 
Q 1100 0 847 248 
Q 594 497 594 1153 
L 594 3053 
L 172 3053 
L 172 3500 
L 594 3500 
L 594 4494 
L 1172 4494 
z
" transform="scale(0.015625)"/>
        <path id="DejaVuSans-69" d="M 603 3500 
L 1178 3500 
L 1178 0 
L 603 0 
L 603 3500 
z
M 603 4863 
L 1178 4863 
L 1178 4134 
L 603 4134 
L 603 4863 
z
" transform="scale(0.015625)"/>
        <path id="DejaVuSans-76" d="M 191 3500 
L 800 3500 
L 1894 563 
L 2988 3500 
L 3597 3500 
L 2284 0 
L 1503 0 
L 191 3500 
z
" transform="scale(0.015625)"/>
       </defs>
       <use xlink:href="#DejaVuSans-31"/>
       <use xlink:href="#DejaVuSans-2e" transform="translate(63.623047 0)"/>
       <use xlink:href="#DejaVuSans-31" transform="translate(95.410156 0)"/>
       <use xlink:href="#DejaVuSans-20" transform="translate(159.033203 0)"/>
       <use xlink:href="#DejaVuSans-43" transform="translate(190.820312 0)"/>
       <use xlink:href="#DejaVuSans-6f" transform="translate(260.644531 0)"/>
       <use xlink:href="#DejaVuSans-6f" transform="translate(321.826172 0)"/>
       <use xlink:href="#DejaVuSans-70" transform="translate(383.007812 0)"/>
       <use xlink:href="#DejaVuSans-65" transform="translate(446.484375 0)"/>
       <use xlink:href="#DejaVuSans-72" transform="translate(508.007812 0)"/>
       <use xlink:href="#DejaVuSans-61" transform="translate(549.121094 0)"/>
       <use xlink:href="#DejaVuSans-74" transform="translate(610.400391 0)"/>
       <use xlink:href="#DejaVuSans-69" transform="translate(649.609375 0)"/>
       <use xlink:href="#DejaVuSans-76" transform="translate(677.392578 0)"/>
       <use xlink:href="#DejaVuSans-65" transform="translate(736.572266 0)"/>
      </g>
     </g>
    </g>
    <g id="xtick_2">
     <g id="line2d_2">
      <path d="M 752.023027 705.680746 
L 908.368166 71.363581 
" clip-path="url(#pe0e6bacc56)" style="fill: none; stroke: #b0b0b0; stroke-width: 0.8; stroke-linecap: square"/>
     </g>
     <g id="text_2">
      <!-- 1.2 Competitive -->
      <g transform="translate(851.798273 61.909458) scale(0.15 -0.15)">
       <defs>
        <path id="DejaVuSans-32" d="M 1228 531 
L 3431 531 
L 3431 0 
L 469 0 
L 469 531 
Q 828 903 1448 1529 
Q 2069 2156 2228 2338 
Q 2531 2678 2651 2914 
Q 2772 3150 2772 3378 
Q 2772 3750 2511 3984 
Q 2250 4219 1831 4219 
Q 1534 4219 1204 4116 
Q 875 4013 500 3803 
L 500 4441 
Q 881 4594 1212 4672 
Q 1544 4750 1819 4750 
Q 2544 4750 2975 4387 
Q 3406 4025 3406 3419 
Q 3406 3131 3298 2873 
Q 3191 2616 2906 2266 
Q 2828 2175 2409 1742 
Q 1991 1309 1228 531 
z
" transform="scale(0.015625)"/>
        <path id="DejaVuSans-6d" d="M 3328 2828 
Q 3544 3216 3844 3400 
Q 4144 3584 4550 3584 
Q 5097 3584 5394 3201 
Q 5691 2819 5691 2113 
L 5691 0 
L 5113 0 
L 5113 2094 
Q 5113 2597 4934 2840 
Q 4756 3084 4391 3084 
Q 3944 3084 3684 2787 
Q 3425 2491 3425 1978 
L 3425 0 
L 2847 0 
L 2847 2094 
Q 2847 2600 2669 2842 
Q 2491 3084 2119 3084 
Q 1678 3084 1418 2786 
Q 1159 2488 1159 1978 
L 1159 0 
L 581 0 
L 581 3500 
L 1159 3500 
L 1159 2956 
Q 1356 3278 1631 3431 
Q 1906 3584 2284 3584 
Q 2666 3584 2933 3390 
Q 3200 3197 3328 2828 
z
" transform="scale(0.015625)"/>
       </defs>
       <use xlink:href="#DejaVuSans-31"/>
       <use xlink:href="#DejaVuSans-2e" transform="translate(63.623047 0)"/>
       <use xlink:href="#DejaVuSans-32" transform="translate(95.410156 0)"/>
       <use xlink:href="#DejaVuSans-20" transform="translate(159.033203 0)"/>
       <use xlink:href="#DejaVuSans-43" transform="translate(190.820312 0)"/>
       <use xlink:href="#DejaVuSans-6f" transform="translate(260.644531 0)"/>
       <use xlink:href="#DejaVuSans-6d" transform="translate(321.826172 0)"/>
       <use xlink:href="#DejaVuSans-70" transform="translate(419.238281 0)"/>
       <use xlink:href="#DejaVuSans-65" transform="translate(482.714844 0)"/>
       <use xlink:href="#DejaVuSans-74" transform="translate(544.238281 0)"/>
       <use xlink:href="#DejaVuSans-69" transform="translate(583.447266 0)"/>
       <use xlink:href="#DejaVuSans-74" transform="translate(611.230469 0)"/>
       <use xlink:href="#DejaVuSans-69" transform="translate(650.439453 0)"/>
       <use xlink:href="#DejaVuSans-76" transform="translate(678.222656 0)"/>
       <use xlink:href="#DejaVuSans-65" transform="translate(737.402344 0)"/>
      </g>
     </g>
    </g>
    <g id="xtick_3">
     <g id="line2d_3">
      <path d="M 752.023027 705.680746 
L 1055.627095 127.211526 
" clip-path="url(#pe0e6bacc56)" style="fill: none; stroke: #b0b0b0; stroke-width: 0.8; stroke-linecap: square"/>
     </g>
     <g id="text_3">
      <!-- 1.3 Affective -->
      <g transform="translate(1014.866813 118.954204) scale(0.15 -0.15)">
       <defs>
        <path id="DejaVuSans-33" d="M 2597 2516 
Q 3050 2419 3304 2112 
Q 3559 1806 3559 1356 
Q 3559 666 3084 287 
Q 2609 -91 1734 -91 
Q 1441 -91 1130 -33 
Q 819 25 488 141 
L 488 750 
Q 750 597 1062 519 
Q 1375 441 1716 441 
Q 2309 441 2620 675 
Q 2931 909 2931 1356 
Q 2931 1769 2642 2001 
Q 2353 2234 1838 2234 
L 1294 2234 
L 1294 2753 
L 1863 2753 
Q 2328 2753 2575 2939 
Q 2822 3125 2822 3475 
Q 2822 3834 2567 4026 
Q 2313 4219 1838 4219 
Q 1578 4219 1281 4162 
Q 984 4106 628 3988 
L 628 4550 
Q 988 4650 1302 4700 
Q 1616 4750 1894 4750 
Q 2613 4750 3031 4423 
Q 3450 4097 3450 3541 
Q 3450 3153 3228 2886 
Q 3006 2619 2597 2516 
z
" transform="scale(0.015625)"/>
        <path id="DejaVuSans-41" d="M 2188 4044 
L 1331 1722 
L 3047 1722 
L 2188 4044 
z
M 1831 4666 
L 2547 4666 
L 4325 0 
L 3669 0 
L 3244 1197 
L 1141 1197 
L 716 0 
L 50 0 
L 1831 4666 
z
" transform="scale(0.015625)"/>
        <path id="DejaVuSans-66" d="M 2375 4863 
L 2375 4384 
L 1825 4384 
Q 1516 4384 1395 4259 
Q 1275 4134 1275 3809 
L 1275 3500 
L 2222 3500 
L 2222 3053 
L 1275 3053 
L 1275 0 
L 697 0 
L 697 3053 
L 147 3053 
L 147 3500 
L 697 3500 
L 697 3744 
Q 697 4328 969 4595 
Q 1241 4863 1831 4863 
L 2375 4863 
z
" transform="scale(0.015625)"/>
        <path id="DejaVuSans-63" d="M 3122 3366 
L 3122 2828 
Q 2878 2963 2633 3030 
Q 2388 3097 2138 3097 
Q 1578 3097 1268 2742 
Q 959 2388 959 1747 
Q 959 1106 1268 751 
Q 1578 397 2138 397 
Q 2388 397 2633 464 
Q 2878 531 3122 666 
L 3122 134 
Q 2881 22 2623 -34 
Q 2366 -91 2075 -91 
Q 1284 -91 818 406 
Q 353 903 353 1747 
Q 353 2603 823 3093 
Q 1294 3584 2113 3584 
Q 2378 3584 2631 3529 
Q 2884 3475 3122 3366 
z
" transform="scale(0.015625)"/>
       </defs>
       <use xlink:href="#DejaVuSans-31"/>
       <use xlink:href="#DejaVuSans-2e" transform="translate(63.623047 0)"/>
       <use xlink:href="#DejaVuSans-33" transform="translate(95.410156 0)"/>
       <use xlink:href="#DejaVuSans-20" transform="translate(159.033203 0)"/>
       <use xlink:href="#DejaVuSans-41" transform="translate(190.820312 0)"/>
       <use xlink:href="#DejaVuSans-66" transform="translate(255.603516 0)"/>
       <use xlink:href="#DejaVuSans-66" transform="translate(290.808594 0)"/>
       <use xlink:href="#DejaVuSans-65" transform="translate(326.013672 0)"/>
       <use xlink:href="#DejaVuSans-63" transform="translate(387.537109 0)"/>
       <use xlink:href="#DejaVuSans-74" transform="translate(442.517578 0)"/>
       <use xlink:href="#DejaVuSans-69" transform="translate(481.726562 0)"/>
       <use xlink:href="#DejaVuSans-76" transform="translate(509.509766 0)"/>
       <use xlink:href="#DejaVuSans-65" transform="translate(568.689453 0)"/>
      </g>
     </g>
    </g>
    <g id="xtick_4">
     <g id="line2d_4">
      <path d="M 752.023027 705.680746 
L 1185.241658 216.677999 
" clip-path="url(#pe0e6bacc56)" style="fill: none; stroke: #b0b0b0; stroke-width: 0.8; stroke-linecap: square"/>
     </g>
     <g id="text_4">
      <!-- 1.4 Proximity -->
      <g transform="translate(1145.263266 210.337911) scale(0.15 -0.15)">
       <defs>
        <path id="DejaVuSans-34" d="M 2419 4116 
L 825 1625 
L 2419 1625 
L 2419 4116 
z
M 2253 4666 
L 3047 4666 
L 3047 1625 
L 3713 1625 
L 3713 1100 
L 3047 1100 
L 3047 0 
L 2419 0 
L 2419 1100 
L 313 1100 
L 313 1709 
L 2253 4666 
z
" transform="scale(0.015625)"/>
        <path id="DejaVuSans-50" d="M 1259 4147 
L 1259 2394 
L 2053 2394 
Q 2494 2394 2734 2622 
Q 2975 2850 2975 3272 
Q 2975 3691 2734 3919 
Q 2494 4147 2053 4147 
L 1259 4147 
z
M 628 4666 
L 2053 4666 
Q 2838 4666 3239 4311 
Q 3641 3956 3641 3272 
Q 3641 2581 3239 2228 
Q 2838 1875 2053 1875 
L 1259 1875 
L 1259 0 
L 628 0 
L 628 4666 
z
" transform="scale(0.015625)"/>
        <path id="DejaVuSans-78" d="M 3513 3500 
L 2247 1797 
L 3578 0 
L 2900 0 
L 1881 1375 
L 863 0 
L 184 0 
L 1544 1831 
L 300 3500 
L 978 3500 
L 1906 2253 
L 2834 3500 
L 3513 3500 
z
" transform="scale(0.015625)"/>
        <path id="DejaVuSans-79" d="M 2059 -325 
Q 1816 -950 1584 -1140 
Q 1353 -1331 966 -1331 
L 506 -1331 
L 506 -850 
L 844 -850 
Q 1081 -850 1212 -737 
Q 1344 -625 1503 -206 
L 1606 56 
L 191 3500 
L 800 3500 
L 1894 763 
L 2988 3500 
L 3597 3500 
L 2059 -325 
z
" transform="scale(0.015625)"/>
       </defs>
       <use xlink:href="#DejaVuSans-31"/>
       <use xlink:href="#DejaVuSans-2e" transform="translate(63.623047 0)"/>
       <use xlink:href="#DejaVuSans-34" transform="translate(95.410156 0)"/>
       <use xlink:href="#DejaVuSans-20" transform="translate(159.033203 0)"/>
       <use xlink:href="#DejaVuSans-50" transform="translate(190.820312 0)"/>
       <use xlink:href="#DejaVuSans-72" transform="translate(249.373047 0)"/>
       <use xlink:href="#DejaVuSans-6f" transform="translate(288.236328 0)"/>
       <use xlink:href="#DejaVuSans-78" transform="translate(346.292969 0)"/>
       <use xlink:href="#DejaVuSans-69" transform="translate(405.472656 0)"/>
       <use xlink:href="#DejaVuSans-6d" transform="translate(433.255859 0)"/>
       <use xlink:href="#DejaVuSans-69" transform="translate(530.667969 0)"/>
       <use xlink:href="#DejaVuSans-74" transform="translate(558.451172 0)"/>
       <use xlink:href="#DejaVuSans-79" transform="translate(597.660156 0)"/>
      </g>
     </g>
    </g>
    <g id="xtick_5">
     <g id="line2d_5">
      <path d="M 752.023027 705.680746 
L 1289.679129 334.563534 
" clip-path="url(#pe0e6bacc56)" style="fill: none; stroke: #b0b0b0; stroke-width: 0.8; stroke-linecap: square"/>
     </g>
     <g id="text_5">
      <!-- 1.5 Observation -->
      <g transform="translate(1241.218481 330.74969) scale(0.15 -0.15)">
       <defs>
        <path id="DejaVuSans-35" d="M 691 4666 
L 3169 4666 
L 3169 4134 
L 1269 4134 
L 1269 2991 
Q 1406 3038 1543 3061 
Q 1681 3084 1819 3084 
Q 2600 3084 3056 2656 
Q 3513 2228 3513 1497 
Q 3513 744 3044 326 
Q 2575 -91 1722 -91 
Q 1428 -91 1123 -41 
Q 819 9 494 109 
L 494 744 
Q 775 591 1075 516 
Q 1375 441 1709 441 
Q 2250 441 2565 725 
Q 2881 1009 2881 1497 
Q 2881 1984 2565 2268 
Q 2250 2553 1709 2553 
Q 1456 2553 1204 2497 
Q 953 2441 691 2322 
L 691 4666 
z
" transform="scale(0.015625)"/>
        <path id="DejaVuSans-4f" d="M 2522 4238 
Q 1834 4238 1429 3725 
Q 1025 3213 1025 2328 
Q 1025 1447 1429 934 
Q 1834 422 2522 422 
Q 3209 422 3611 934 
Q 4013 1447 4013 2328 
Q 4013 3213 3611 3725 
Q 3209 4238 2522 4238 
z
M 2522 4750 
Q 3503 4750 4090 4092 
Q 4678 3434 4678 2328 
Q 4678 1225 4090 567 
Q 3503 -91 2522 -91 
Q 1538 -91 948 565 
Q 359 1222 359 2328 
Q 359 3434 948 4092 
Q 1538 4750 2522 4750 
z
" transform="scale(0.015625)"/>
        <path id="DejaVuSans-62" d="M 3116 1747 
Q 3116 2381 2855 2742 
Q 2594 3103 2138 3103 
Q 1681 3103 1420 2742 
Q 1159 2381 1159 1747 
Q 1159 1113 1420 752 
Q 1681 391 2138 391 
Q 2594 391 2855 752 
Q 3116 1113 3116 1747 
z
M 1159 2969 
Q 1341 3281 1617 3432 
Q 1894 3584 2278 3584 
Q 2916 3584 3314 3078 
Q 3713 2572 3713 1747 
Q 3713 922 3314 415 
Q 2916 -91 2278 -91 
Q 1894 -91 1617 61 
Q 1341 213 1159 525 
L 1159 0 
L 581 0 
L 581 4863 
L 1159 4863 
L 1159 2969 
z
" transform="scale(0.015625)"/>
        <path id="DejaVuSans-73" d="M 2834 3397 
L 2834 2853 
Q 2591 2978 2328 3040 
Q 2066 3103 1784 3103 
Q 1356 3103 1142 2972 
Q 928 2841 928 2578 
Q 928 2378 1081 2264 
Q 1234 2150 1697 2047 
L 1894 2003 
Q 2506 1872 2764 1633 
Q 3022 1394 3022 966 
Q 3022 478 2636 193 
Q 2250 -91 1575 -91 
Q 1294 -91 989 -36 
Q 684 19 347 128 
L 347 722 
Q 666 556 975 473 
Q 1284 391 1588 391 
Q 1994 391 2212 530 
Q 2431 669 2431 922 
Q 2431 1156 2273 1281 
Q 2116 1406 1581 1522 
L 1381 1569 
Q 847 1681 609 1914 
Q 372 2147 372 2553 
Q 372 3047 722 3315 
Q 1072 3584 1716 3584 
Q 2034 3584 2315 3537 
Q 2597 3491 2834 3397 
z
" transform="scale(0.015625)"/>
        <path id="DejaVuSans-6e" d="M 3513 2113 
L 3513 0 
L 2938 0 
L 2938 2094 
Q 2938 2591 2744 2837 
Q 2550 3084 2163 3084 
Q 1697 3084 1428 2787 
Q 1159 2491 1159 1978 
L 1159 0 
L 581 0 
L 581 3500 
L 1159 3500 
L 1159 2956 
Q 1366 3272 1645 3428 
Q 1925 3584 2291 3584 
Q 2894 3584 3203 3211 
Q 3513 2838 3513 2113 
z
" transform="scale(0.015625)"/>
       </defs>
       <use xlink:href="#DejaVuSans-31"/>
       <use xlink:href="#DejaVuSans-2e" transform="translate(63.623047 0)"/>
       <use xlink:href="#DejaVuSans-35" transform="translate(95.410156 0)"/>
       <use xlink:href="#DejaVuSans-20" transform="translate(159.033203 0)"/>
       <use xlink:href="#DejaVuSans-4f" transform="translate(190.820312 0)"/>
       <use xlink:href="#DejaVuSans-62" transform="translate(269.53125 0)"/>
       <use xlink:href="#DejaVuSans-73" transform="translate(333.007812 0)"/>
       <use xlink:href="#DejaVuSans-65" transform="translate(385.107422 0)"/>
       <use xlink:href="#DejaVuSans-72" transform="translate(446.630859 0)"/>
       <use xlink:href="#DejaVuSans-76" transform="translate(487.744141 0)"/>
       <use xlink:href="#DejaVuSans-61" transform="translate(546.923828 0)"/>
       <use xlink:href="#DejaVuSans-74" transform="translate(608.203125 0)"/>
       <use xlink:href="#DejaVuSans-69" transform="translate(647.412109 0)"/>
       <use xlink:href="#DejaVuSans-6f" transform="translate(675.195312 0)"/>
       <use xlink:href="#DejaVuSans-6e" transform="translate(736.376953 0)"/>
      </g>
     </g>
    </g>
    <g id="xtick_6">
     <g id="line2d_6">
      <path d="M 752.023027 705.680746 
L 1362.869982 474.017053 
" clip-path="url(#pe0e6bacc56)" style="fill: none; stroke: #b0b0b0; stroke-width: 0.8; stroke-linecap: square"/>
     </g>
     <g id="text_6">
      <!-- 2.1 Active Manipulation -->
      <g transform="translate(1287.600834 473.191647) scale(0.15 -0.15)">
       <defs>
        <path id="DejaVuSans-4d" d="M 628 4666 
L 1569 4666 
L 2759 1491 
L 3956 4666 
L 4897 4666 
L 4897 0 
L 4281 0 
L 4281 4097 
L 3078 897 
L 2444 897 
L 1241 4097 
L 1241 0 
L 628 0 
L 628 4666 
z
" transform="scale(0.015625)"/>
        <path id="DejaVuSans-75" d="M 544 1381 
L 544 3500 
L 1119 3500 
L 1119 1403 
Q 1119 906 1312 657 
Q 1506 409 1894 409 
Q 2359 409 2629 706 
Q 2900 1003 2900 1516 
L 2900 3500 
L 3475 3500 
L 3475 0 
L 2900 0 
L 2900 538 
Q 2691 219 2414 64 
Q 2138 -91 1772 -91 
Q 1169 -91 856 284 
Q 544 659 544 1381 
z
M 1991 3584 
L 1991 3584 
z
" transform="scale(0.015625)"/>
        <path id="DejaVuSans-6c" d="M 603 4863 
L 1178 4863 
L 1178 0 
L 603 0 
L 603 4863 
z
" transform="scale(0.015625)"/>
       </defs>
       <use xlink:href="#DejaVuSans-32"/>
       <use xlink:href="#DejaVuSans-2e" transform="translate(63.623047 0)"/>
       <use xlink:href="#DejaVuSans-31" transform="translate(95.410156 0)"/>
       <use xlink:href="#DejaVuSans-20" transform="translate(159.033203 0)"/>
       <use xlink:href="#DejaVuSans-41" transform="translate(190.820312 0)"/>
       <use xlink:href="#DejaVuSans-63" transform="translate(257.478516 0)"/>
       <use xlink:href="#DejaVuSans-74" transform="translate(312.458984 0)"/>
       <use xlink:href="#DejaVuSans-69" transform="translate(351.667969 0)"/>
       <use xlink:href="#DejaVuSans-76" transform="translate(379.451172 0)"/>
       <use xlink:href="#DejaVuSans-65" transform="translate(438.630859 0)"/>
       <use xlink:href="#DejaVuSans-20" transform="translate(500.154297 0)"/>
       <use xlink:href="#DejaVuSans-4d" transform="translate(531.941406 0)"/>
       <use xlink:href="#DejaVuSans-61" transform="translate(618.220703 0)"/>
       <use xlink:href="#DejaVuSans-6e" transform="translate(679.5 0)"/>
       <use xlink:href="#DejaVuSans-69" transform="translate(742.878906 0)"/>
       <use xlink:href="#DejaVuSans-70" transform="translate(770.662109 0)"/>
       <use xlink:href="#DejaVuSans-75" transform="translate(834.138672 0)"/>
       <use xlink:href="#DejaVuSans-6c" transform="translate(897.517578 0)"/>
       <use xlink:href="#DejaVuSans-61" transform="translate(925.300781 0)"/>
       <use xlink:href="#DejaVuSans-74" transform="translate(986.580078 0)"/>
       <use xlink:href="#DejaVuSans-69" transform="translate(1025.789062 0)"/>
       <use xlink:href="#DejaVuSans-6f" transform="translate(1053.572266 0)"/>
       <use xlink:href="#DejaVuSans-6e" transform="translate(1114.753906 0)"/>
      </g>
     </g>
    </g>
    <g id="xtick_7">
     <g id="line2d_7">
      <path d="M 752.023027 705.680746 
L 1400.56063 626.934024 
" clip-path="url(#pe0e6bacc56)" style="fill: none; stroke: #b0b0b0; stroke-width: 0.8; stroke-linecap: square"/>
     </g>
     <g id="text_7">
      <!-- 2.2 Proximity -->
      <g transform="translate(1365.196445 629.385573) scale(0.15 -0.15)">
       <use xlink:href="#DejaVuSans-32"/>
       <use xlink:href="#DejaVuSans-2e" transform="translate(63.623047 0)"/>
       <use xlink:href="#DejaVuSans-32" transform="translate(95.410156 0)"/>
       <use xlink:href="#DejaVuSans-20" transform="translate(159.033203 0)"/>
       <use xlink:href="#DejaVuSans-50" transform="translate(190.820312 0)"/>
       <use xlink:href="#DejaVuSans-72" transform="translate(249.373047 0)"/>
       <use xlink:href="#DejaVuSans-6f" transform="translate(288.236328 0)"/>
       <use xlink:href="#DejaVuSans-78" transform="translate(346.292969 0)"/>
       <use xlink:href="#DejaVuSans-69" transform="translate(405.472656 0)"/>
       <use xlink:href="#DejaVuSans-6d" transform="translate(433.255859 0)"/>
       <use xlink:href="#DejaVuSans-69" transform="translate(530.667969 0)"/>
       <use xlink:href="#DejaVuSans-74" transform="translate(558.451172 0)"/>
       <use xlink:href="#DejaVuSans-79" transform="translate(597.660156 0)"/>
      </g>
     </g>
    </g>
    <g id="xtick_8">
     <g id="line2d_8">
      <path d="M 752.023027 705.680746 
L 1400.56063 784.427468 
" clip-path="url(#pe0e6bacc56)" style="fill: none; stroke: #b0b0b0; stroke-width: 0.8; stroke-linecap: square"/>
     </g>
     <g id="text_8">
      <!-- 2.3 Passive -->
      <g transform="translate(1372.415195 790.254044) scale(0.15 -0.15)">
       <use xlink:href="#DejaVuSans-32"/>
       <use xlink:href="#DejaVuSans-2e" transform="translate(63.623047 0)"/>
       <use xlink:href="#DejaVuSans-33" transform="translate(95.410156 0)"/>
       <use xlink:href="#DejaVuSans-20" transform="translate(159.033203 0)"/>
       <use xlink:href="#DejaVuSans-50" transform="translate(190.820312 0)"/>
       <use xlink:href="#DejaVuSans-61" transform="translate(246.623047 0)"/>
       <use xlink:href="#DejaVuSans-73" transform="translate(307.902344 0)"/>
       <use xlink:href="#DejaVuSans-73" transform="translate(360.001953 0)"/>
       <use xlink:href="#DejaVuSans-69" transform="translate(412.101562 0)"/>
       <use xlink:href="#DejaVuSans-76" transform="translate(439.884766 0)"/>
       <use xlink:href="#DejaVuSans-65" transform="translate(499.064453 0)"/>
      </g>
     </g>
    </g>
    <g id="xtick_9">
     <g id="line2d_9">
      <path d="M 752.023027 705.680746 
L 1362.869982 937.344438 
" clip-path="url(#pe0e6bacc56)" style="fill: none; stroke: #b0b0b0; stroke-width: 0.8; stroke-linecap: square"/>
     </g>
     <g id="text_9">
      <!-- 2.4 Proximity -->
      <g transform="translate(1326.6981 946.447969) scale(0.15 -0.15)">
       <use xlink:href="#DejaVuSans-32"/>
       <use xlink:href="#DejaVuSans-2e" transform="translate(63.623047 0)"/>
       <use xlink:href="#DejaVuSans-34" transform="translate(95.410156 0)"/>
       <use xlink:href="#DejaVuSans-20" transform="translate(159.033203 0)"/>
       <use xlink:href="#DejaVuSans-50" transform="translate(190.820312 0)"/>
       <use xlink:href="#DejaVuSans-72" transform="translate(249.373047 0)"/>
       <use xlink:href="#DejaVuSans-6f" transform="translate(288.236328 0)"/>
       <use xlink:href="#DejaVuSans-78" transform="translate(346.292969 0)"/>
       <use xlink:href="#DejaVuSans-69" transform="translate(405.472656 0)"/>
       <use xlink:href="#DejaVuSans-6d" transform="translate(433.255859 0)"/>
       <use xlink:href="#DejaVuSans-69" transform="translate(530.667969 0)"/>
       <use xlink:href="#DejaVuSans-74" transform="translate(558.451172 0)"/>
       <use xlink:href="#DejaVuSans-79" transform="translate(597.660156 0)"/>
      </g>
     </g>
    </g>
    <g id="xtick_10">
     <g id="line2d_10">
      <path d="M 752.023027 705.680746 
L 1289.679129 1076.797957 
" clip-path="url(#pe0e6bacc56)" style="fill: none; stroke: #b0b0b0; stroke-width: 0.8; stroke-linecap: square"/>
     </g>
     <g id="text_10">
      <!-- 2.5 Observation -->
      <g transform="translate(1241.218481 1088.889926) scale(0.15 -0.15)">
       <use xlink:href="#DejaVuSans-32"/>
       <use xlink:href="#DejaVuSans-2e" transform="translate(63.623047 0)"/>
       <use xlink:href="#DejaVuSans-35" transform="translate(95.410156 0)"/>
       <use xlink:href="#DejaVuSans-20" transform="translate(159.033203 0)"/>
       <use xlink:href="#DejaVuSans-4f" transform="translate(190.820312 0)"/>
       <use xlink:href="#DejaVuSans-62" transform="translate(269.53125 0)"/>
       <use xlink:href="#DejaVuSans-73" transform="translate(333.007812 0)"/>
       <use xlink:href="#DejaVuSans-65" transform="translate(385.107422 0)"/>
       <use xlink:href="#DejaVuSans-72" transform="translate(446.630859 0)"/>
       <use xlink:href="#DejaVuSans-76" transform="translate(487.744141 0)"/>
       <use xlink:href="#DejaVuSans-61" transform="translate(546.923828 0)"/>
       <use xlink:href="#DejaVuSans-74" transform="translate(608.203125 0)"/>
       <use xlink:href="#DejaVuSans-69" transform="translate(647.412109 0)"/>
       <use xlink:href="#DejaVuSans-6f" transform="translate(675.195312 0)"/>
       <use xlink:href="#DejaVuSans-6e" transform="translate(736.376953 0)"/>
      </g>
     </g>
    </g>
    <g id="xtick_11">
     <g id="line2d_11">
      <path d="M 752.023027 705.680746 
L 1185.241658 1194.683493 
" clip-path="url(#pe0e6bacc56)" style="fill: none; stroke: #b0b0b0; stroke-width: 0.8; stroke-linecap: square"/>
     </g>
     <g id="text_11">
      <!-- 3.1 Direct Interaction -->
      <g transform="translate(1114.689047 1209.301706) scale(0.15 -0.15)">
       <defs>
        <path id="DejaVuSans-44" d="M 1259 4147 
L 1259 519 
L 2022 519 
Q 2988 519 3436 956 
Q 3884 1394 3884 2338 
Q 3884 3275 3436 3711 
Q 2988 4147 2022 4147 
L 1259 4147 
z
M 628 4666 
L 1925 4666 
Q 3281 4666 3915 4102 
Q 4550 3538 4550 2338 
Q 4550 1131 3912 565 
Q 3275 0 1925 0 
L 628 0 
L 628 4666 
z
" transform="scale(0.015625)"/>
        <path id="DejaVuSans-49" d="M 628 4666 
L 1259 4666 
L 1259 0 
L 628 0 
L 628 4666 
z
" transform="scale(0.015625)"/>
       </defs>
       <use xlink:href="#DejaVuSans-33"/>
       <use xlink:href="#DejaVuSans-2e" transform="translate(63.623047 0)"/>
       <use xlink:href="#DejaVuSans-31" transform="translate(95.410156 0)"/>
       <use xlink:href="#DejaVuSans-20" transform="translate(159.033203 0)"/>
       <use xlink:href="#DejaVuSans-44" transform="translate(190.820312 0)"/>
       <use xlink:href="#DejaVuSans-69" transform="translate(267.822266 0)"/>
       <use xlink:href="#DejaVuSans-72" transform="translate(295.605469 0)"/>
       <use xlink:href="#DejaVuSans-65" transform="translate(334.46875 0)"/>
       <use xlink:href="#DejaVuSans-63" transform="translate(395.992188 0)"/>
       <use xlink:href="#DejaVuSans-74" transform="translate(450.972656 0)"/>
       <use xlink:href="#DejaVuSans-20" transform="translate(490.181641 0)"/>
       <use xlink:href="#DejaVuSans-49" transform="translate(521.96875 0)"/>
       <use xlink:href="#DejaVuSans-6e" transform="translate(551.460938 0)"/>
       <use xlink:href="#DejaVuSans-74" transform="translate(614.839844 0)"/>
       <use xlink:href="#DejaVuSans-65" transform="translate(654.048828 0)"/>
       <use xlink:href="#DejaVuSans-72" transform="translate(715.572266 0)"/>
       <use xlink:href="#DejaVuSans-61" transform="translate(756.685547 0)"/>
       <use xlink:href="#DejaVuSans-63" transform="translate(817.964844 0)"/>
       <use xlink:href="#DejaVuSans-74" transform="translate(872.945312 0)"/>
       <use xlink:href="#DejaVuSans-69" transform="translate(912.154297 0)"/>
       <use xlink:href="#DejaVuSans-6f" transform="translate(939.9375 0)"/>
       <use xlink:href="#DejaVuSans-6e" transform="translate(1001.119141 0)"/>
      </g>
     </g>
    </g>
    <g id="xtick_12">
     <g id="line2d_12">
      <path d="M 752.023027 705.680746 
L 1055.627095 1284.149966 
" clip-path="url(#pe0e6bacc56)" style="fill: none; stroke: #b0b0b0; stroke-width: 0.8; stroke-linecap: square"/>
     </g>
     <g id="text_12">
      <!-- 3.2 Observation -->
      <g transform="translate(1002.150797 1300.685413) scale(0.15 -0.15)">
       <use xlink:href="#DejaVuSans-33"/>
       <use xlink:href="#DejaVuSans-2e" transform="translate(63.623047 0)"/>
       <use xlink:href="#DejaVuSans-32" transform="translate(95.410156 0)"/>
       <use xlink:href="#DejaVuSans-20" transform="translate(159.033203 0)"/>
       <use xlink:href="#DejaVuSans-4f" transform="translate(190.820312 0)"/>
       <use xlink:href="#DejaVuSans-62" transform="translate(269.53125 0)"/>
       <use xlink:href="#DejaVuSans-73" transform="translate(333.007812 0)"/>
       <use xlink:href="#DejaVuSans-65" transform="translate(385.107422 0)"/>
       <use xlink:href="#DejaVuSans-72" transform="translate(446.630859 0)"/>
       <use xlink:href="#DejaVuSans-76" transform="translate(487.744141 0)"/>
       <use xlink:href="#DejaVuSans-61" transform="translate(546.923828 0)"/>
       <use xlink:href="#DejaVuSans-74" transform="translate(608.203125 0)"/>
       <use xlink:href="#DejaVuSans-69" transform="translate(647.412109 0)"/>
       <use xlink:href="#DejaVuSans-6f" transform="translate(675.195312 0)"/>
       <use xlink:href="#DejaVuSans-6e" transform="translate(736.376953 0)"/>
      </g>
     </g>
    </g>
    <g id="xtick_13">
     <g id="line2d_13">
      <path d="M 752.023027 705.680746 
L 908.368166 1339.997911 
" clip-path="url(#pe0e6bacc56)" style="fill: none; stroke: #b0b0b0; stroke-width: 0.8; stroke-linecap: square"/>
     </g>
     <g id="text_13">
      <!-- 3.3 Proximity -->
      <g transform="translate(862.456476 1357.730159) scale(0.15 -0.15)">
       <use xlink:href="#DejaVuSans-33"/>
       <use xlink:href="#DejaVuSans-2e" transform="translate(63.623047 0)"/>
       <use xlink:href="#DejaVuSans-33" transform="translate(95.410156 0)"/>
       <use xlink:href="#DejaVuSans-20" transform="translate(159.033203 0)"/>
       <use xlink:href="#DejaVuSans-50" transform="translate(190.820312 0)"/>
       <use xlink:href="#DejaVuSans-72" transform="translate(249.373047 0)"/>
       <use xlink:href="#DejaVuSans-6f" transform="translate(288.236328 0)"/>
       <use xlink:href="#DejaVuSans-78" transform="translate(346.292969 0)"/>
       <use xlink:href="#DejaVuSans-69" transform="translate(405.472656 0)"/>
       <use xlink:href="#DejaVuSans-6d" transform="translate(433.255859 0)"/>
       <use xlink:href="#DejaVuSans-69" transform="translate(530.667969 0)"/>
       <use xlink:href="#DejaVuSans-74" transform="translate(558.451172 0)"/>
       <use xlink:href="#DejaVuSans-79" transform="translate(597.660156 0)"/>
      </g>
     </g>
    </g>
    <g id="xtick_14">
     <g id="line2d_14">
      <path d="M 752.023027 705.680746 
L 752.023027 1358.981648 
" clip-path="url(#pe0e6bacc56)" style="fill: none; stroke: #b0b0b0; stroke-width: 0.8; stroke-linecap: square"/>
     </g>
     <g id="text_14">
      <!-- 4.1 Proximity -->
      <g transform="translate(702.760918 1377.12071) scale(0.15 -0.15)">
       <use xlink:href="#DejaVuSans-34"/>
       <use xlink:href="#DejaVuSans-2e" transform="translate(63.623047 0)"/>
       <use xlink:href="#DejaVuSans-31" transform="translate(95.410156 0)"/>
       <use xlink:href="#DejaVuSans-20" transform="translate(159.033203 0)"/>
       <use xlink:href="#DejaVuSans-50" transform="translate(190.820312 0)"/>
       <use xlink:href="#DejaVuSans-72" transform="translate(249.373047 0)"/>
       <use xlink:href="#DejaVuSans-6f" transform="translate(288.236328 0)"/>
       <use xlink:href="#DejaVuSans-78" transform="translate(346.292969 0)"/>
       <use xlink:href="#DejaVuSans-69" transform="translate(405.472656 0)"/>
       <use xlink:href="#DejaVuSans-6d" transform="translate(433.255859 0)"/>
       <use xlink:href="#DejaVuSans-69" transform="translate(530.667969 0)"/>
       <use xlink:href="#DejaVuSans-74" transform="translate(558.451172 0)"/>
       <use xlink:href="#DejaVuSans-79" transform="translate(597.660156 0)"/>
      </g>
     </g>
    </g>
    <g id="xtick_15">
     <g id="line2d_15">
      <path d="M 752.023027 705.680746 
L 595.677888 1339.997911 
" clip-path="url(#pe0e6bacc56)" style="fill: none; stroke: #b0b0b0; stroke-width: 0.8; stroke-linecap: square"/>
     </g>
     <g id="text_15">
      <!-- 4.2 Antagonistic -->
      <g transform="translate(531.354812 1357.730159) scale(0.15 -0.15)">
       <defs>
        <path id="DejaVuSans-67" d="M 2906 1791 
Q 2906 2416 2648 2759 
Q 2391 3103 1925 3103 
Q 1463 3103 1205 2759 
Q 947 2416 947 1791 
Q 947 1169 1205 825 
Q 1463 481 1925 481 
Q 2391 481 2648 825 
Q 2906 1169 2906 1791 
z
M 3481 434 
Q 3481 -459 3084 -895 
Q 2688 -1331 1869 -1331 
Q 1566 -1331 1297 -1286 
Q 1028 -1241 775 -1147 
L 775 -588 
Q 1028 -725 1275 -790 
Q 1522 -856 1778 -856 
Q 2344 -856 2625 -561 
Q 2906 -266 2906 331 
L 2906 616 
Q 2728 306 2450 153 
Q 2172 0 1784 0 
Q 1141 0 747 490 
Q 353 981 353 1791 
Q 353 2603 747 3093 
Q 1141 3584 1784 3584 
Q 2172 3584 2450 3431 
Q 2728 3278 2906 2969 
L 2906 3500 
L 3481 3500 
L 3481 434 
z
" transform="scale(0.015625)"/>
       </defs>
       <use xlink:href="#DejaVuSans-34"/>
       <use xlink:href="#DejaVuSans-2e" transform="translate(63.623047 0)"/>
       <use xlink:href="#DejaVuSans-32" transform="translate(95.410156 0)"/>
       <use xlink:href="#DejaVuSans-20" transform="translate(159.033203 0)"/>
       <use xlink:href="#DejaVuSans-41" transform="translate(190.820312 0)"/>
       <use xlink:href="#DejaVuSans-6e" transform="translate(259.228516 0)"/>
       <use xlink:href="#DejaVuSans-74" transform="translate(322.607422 0)"/>
       <use xlink:href="#DejaVuSans-61" transform="translate(361.816406 0)"/>
       <use xlink:href="#DejaVuSans-67" transform="translate(423.095703 0)"/>
       <use xlink:href="#DejaVuSans-6f" transform="translate(486.572266 0)"/>
       <use xlink:href="#DejaVuSans-6e" transform="translate(547.753906 0)"/>
       <use xlink:href="#DejaVuSans-69" transform="translate(611.132812 0)"/>
       <use xlink:href="#DejaVuSans-73" transform="translate(638.916016 0)"/>
       <use xlink:href="#DejaVuSans-74" transform="translate(691.015625 0)"/>
       <use xlink:href="#DejaVuSans-69" transform="translate(730.224609 0)"/>
       <use xlink:href="#DejaVuSans-63" transform="translate(758.007812 0)"/>
      </g>
     </g>
    </g>
    <g id="xtick_16">
     <g id="line2d_16">
      <path d="M 752.023027 705.680746 
L 448.41896 1284.149966 
" clip-path="url(#pe0e6bacc56)" style="fill: none; stroke: #b0b0b0; stroke-width: 0.8; stroke-linecap: square"/>
     </g>
     <g id="text_16">
      <!-- 4.3 Observation -->
      <g transform="translate(381.930413 1300.685413) scale(0.15 -0.15)">
       <use xlink:href="#DejaVuSans-34"/>
       <use xlink:href="#DejaVuSans-2e" transform="translate(63.623047 0)"/>
       <use xlink:href="#DejaVuSans-33" transform="translate(95.410156 0)"/>
       <use xlink:href="#DejaVuSans-20" transform="translate(159.033203 0)"/>
       <use xlink:href="#DejaVuSans-4f" transform="translate(190.820312 0)"/>
       <use xlink:href="#DejaVuSans-62" transform="translate(269.53125 0)"/>
       <use xlink:href="#DejaVuSans-73" transform="translate(333.007812 0)"/>
       <use xlink:href="#DejaVuSans-65" transform="translate(385.107422 0)"/>
       <use xlink:href="#DejaVuSans-72" transform="translate(446.630859 0)"/>
       <use xlink:href="#DejaVuSans-76" transform="translate(487.744141 0)"/>
       <use xlink:href="#DejaVuSans-61" transform="translate(546.923828 0)"/>
       <use xlink:href="#DejaVuSans-74" transform="translate(608.203125 0)"/>
       <use xlink:href="#DejaVuSans-69" transform="translate(647.412109 0)"/>
       <use xlink:href="#DejaVuSans-6f" transform="translate(675.195312 0)"/>
       <use xlink:href="#DejaVuSans-6e" transform="translate(736.376953 0)"/>
      </g>
     </g>
    </g>
    <g id="xtick_17">
     <g id="line2d_17">
      <path d="M 752.023027 705.680746 
L 318.804396 1194.683493 
" clip-path="url(#pe0e6bacc56)" style="fill: none; stroke: #b0b0b0; stroke-width: 0.8; stroke-linecap: square"/>
     </g>
     <g id="text_17">
      <!-- 4.4 Spatial -->
      <g transform="translate(269.387476 1209.301706) scale(0.15 -0.15)">
       <defs>
        <path id="DejaVuSans-53" d="M 3425 4513 
L 3425 3897 
Q 3066 4069 2747 4153 
Q 2428 4238 2131 4238 
Q 1616 4238 1336 4038 
Q 1056 3838 1056 3469 
Q 1056 3159 1242 3001 
Q 1428 2844 1947 2747 
L 2328 2669 
Q 3034 2534 3370 2195 
Q 3706 1856 3706 1288 
Q 3706 609 3251 259 
Q 2797 -91 1919 -91 
Q 1588 -91 1214 -16 
Q 841 59 441 206 
L 441 856 
Q 825 641 1194 531 
Q 1563 422 1919 422 
Q 2459 422 2753 634 
Q 3047 847 3047 1241 
Q 3047 1584 2836 1778 
Q 2625 1972 2144 2069 
L 1759 2144 
Q 1053 2284 737 2584 
Q 422 2884 422 3419 
Q 422 4038 858 4394 
Q 1294 4750 2059 4750 
Q 2388 4750 2728 4690 
Q 3069 4631 3425 4513 
z
" transform="scale(0.015625)"/>
       </defs>
       <use xlink:href="#DejaVuSans-34"/>
       <use xlink:href="#DejaVuSans-2e" transform="translate(63.623047 0)"/>
       <use xlink:href="#DejaVuSans-34" transform="translate(95.410156 0)"/>
       <use xlink:href="#DejaVuSans-20" transform="translate(159.033203 0)"/>
       <use xlink:href="#DejaVuSans-53" transform="translate(190.820312 0)"/>
       <use xlink:href="#DejaVuSans-70" transform="translate(254.296875 0)"/>
       <use xlink:href="#DejaVuSans-61" transform="translate(317.773438 0)"/>
       <use xlink:href="#DejaVuSans-74" transform="translate(379.052734 0)"/>
       <use xlink:href="#DejaVuSans-69" transform="translate(418.261719 0)"/>
       <use xlink:href="#DejaVuSans-61" transform="translate(446.044922 0)"/>
       <use xlink:href="#DejaVuSans-6c" transform="translate(507.324219 0)"/>
      </g>
     </g>
    </g>
    <g id="xtick_18">
     <g id="line2d_18">
      <path d="M 752.023027 705.680746 
L 214.366925 1076.797957 
" clip-path="url(#pe0e6bacc56)" style="fill: none; stroke: #b0b0b0; stroke-width: 0.8; stroke-linecap: square"/>
     </g>
     <g id="text_18">
      <!-- 5.1 Interaction -->
      <g transform="translate(147.84437 1088.889926) scale(0.15 -0.15)">
       <use xlink:href="#DejaVuSans-35"/>
       <use xlink:href="#DejaVuSans-2e" transform="translate(63.623047 0)"/>
       <use xlink:href="#DejaVuSans-31" transform="translate(95.410156 0)"/>
       <use xlink:href="#DejaVuSans-20" transform="translate(159.033203 0)"/>
       <use xlink:href="#DejaVuSans-49" transform="translate(190.820312 0)"/>
       <use xlink:href="#DejaVuSans-6e" transform="translate(220.3125 0)"/>
       <use xlink:href="#DejaVuSans-74" transform="translate(283.691406 0)"/>
       <use xlink:href="#DejaVuSans-65" transform="translate(322.900391 0)"/>
       <use xlink:href="#DejaVuSans-72" transform="translate(384.423828 0)"/>
       <use xlink:href="#DejaVuSans-61" transform="translate(425.537109 0)"/>
       <use xlink:href="#DejaVuSans-63" transform="translate(486.816406 0)"/>
       <use xlink:href="#DejaVuSans-74" transform="translate(541.796875 0)"/>
       <use xlink:href="#DejaVuSans-69" transform="translate(581.005859 0)"/>
       <use xlink:href="#DejaVuSans-6f" transform="translate(608.789062 0)"/>
       <use xlink:href="#DejaVuSans-6e" transform="translate(669.970703 0)"/>
      </g>
     </g>
    </g>
    <g id="xtick_19">
     <g id="line2d_19">
      <path d="M 752.023027 705.680746 
L 141.176072 937.344438 
" clip-path="url(#pe0e6bacc56)" style="fill: none; stroke: #b0b0b0; stroke-width: 0.8; stroke-linecap: square"/>
     </g>
     <g id="text_19">
      <!-- 5.2 Proximity -->
      <g transform="translate(78.823736 946.447969) scale(0.15 -0.15)">
       <use xlink:href="#DejaVuSans-35"/>
       <use xlink:href="#DejaVuSans-2e" transform="translate(63.623047 0)"/>
       <use xlink:href="#DejaVuSans-32" transform="translate(95.410156 0)"/>
       <use xlink:href="#DejaVuSans-20" transform="translate(159.033203 0)"/>
       <use xlink:href="#DejaVuSans-50" transform="translate(190.820312 0)"/>
       <use xlink:href="#DejaVuSans-72" transform="translate(249.373047 0)"/>
       <use xlink:href="#DejaVuSans-6f" transform="translate(288.236328 0)"/>
       <use xlink:href="#DejaVuSans-78" transform="translate(346.292969 0)"/>
       <use xlink:href="#DejaVuSans-69" transform="translate(405.472656 0)"/>
       <use xlink:href="#DejaVuSans-6d" transform="translate(433.255859 0)"/>
       <use xlink:href="#DejaVuSans-69" transform="translate(530.667969 0)"/>
       <use xlink:href="#DejaVuSans-74" transform="translate(558.451172 0)"/>
       <use xlink:href="#DejaVuSans-79" transform="translate(597.660156 0)"/>
      </g>
     </g>
    </g>
    <g id="xtick_20">
     <g id="line2d_20">
      <path d="M 752.023027 705.680746 
L 103.485424 784.427468 
" clip-path="url(#pe0e6bacc56)" style="fill: none; stroke: #b0b0b0; stroke-width: 0.8; stroke-linecap: square"/>
     </g>
     <g id="text_20">
      <!-- 5.3 Spatial -->
      <g transform="translate(49.454297 790.254044) scale(0.15 -0.15)">
       <use xlink:href="#DejaVuSans-35"/>
       <use xlink:href="#DejaVuSans-2e" transform="translate(63.623047 0)"/>
       <use xlink:href="#DejaVuSans-33" transform="translate(95.410156 0)"/>
       <use xlink:href="#DejaVuSans-20" transform="translate(159.033203 0)"/>
       <use xlink:href="#DejaVuSans-53" transform="translate(190.820312 0)"/>
       <use xlink:href="#DejaVuSans-70" transform="translate(254.296875 0)"/>
       <use xlink:href="#DejaVuSans-61" transform="translate(317.773438 0)"/>
       <use xlink:href="#DejaVuSans-74" transform="translate(379.052734 0)"/>
       <use xlink:href="#DejaVuSans-69" transform="translate(418.261719 0)"/>
       <use xlink:href="#DejaVuSans-61" transform="translate(446.044922 0)"/>
       <use xlink:href="#DejaVuSans-6c" transform="translate(507.324219 0)"/>
      </g>
     </g>
    </g>
    <g id="xtick_21">
     <g id="line2d_21">
      <path d="M 752.023027 705.680746 
L 103.485424 626.934024 
" clip-path="url(#pe0e6bacc56)" style="fill: none; stroke: #b0b0b0; stroke-width: 0.8; stroke-linecap: square"/>
     </g>
     <g id="text_21">
      <!-- 6.1 Spatial/Movement -->
      <g transform="translate(7.2 629.385573) scale(0.15 -0.15)">
       <defs>
        <path id="DejaVuSans-36" d="M 2113 2584 
Q 1688 2584 1439 2293 
Q 1191 2003 1191 1497 
Q 1191 994 1439 701 
Q 1688 409 2113 409 
Q 2538 409 2786 701 
Q 3034 994 3034 1497 
Q 3034 2003 2786 2293 
Q 2538 2584 2113 2584 
z
M 3366 4563 
L 3366 3988 
Q 3128 4100 2886 4159 
Q 2644 4219 2406 4219 
Q 1781 4219 1451 3797 
Q 1122 3375 1075 2522 
Q 1259 2794 1537 2939 
Q 1816 3084 2150 3084 
Q 2853 3084 3261 2657 
Q 3669 2231 3669 1497 
Q 3669 778 3244 343 
Q 2819 -91 2113 -91 
Q 1303 -91 875 529 
Q 447 1150 447 2328 
Q 447 3434 972 4092 
Q 1497 4750 2381 4750 
Q 2619 4750 2861 4703 
Q 3103 4656 3366 4563 
z
" transform="scale(0.015625)"/>
        <path id="DejaVuSans-2f" d="M 1625 4666 
L 2156 4666 
L 531 -594 
L 0 -594 
L 1625 4666 
z
" transform="scale(0.015625)"/>
       </defs>
       <use xlink:href="#DejaVuSans-36"/>
       <use xlink:href="#DejaVuSans-2e" transform="translate(63.623047 0)"/>
       <use xlink:href="#DejaVuSans-31" transform="translate(95.410156 0)"/>
       <use xlink:href="#DejaVuSans-20" transform="translate(159.033203 0)"/>
       <use xlink:href="#DejaVuSans-53" transform="translate(190.820312 0)"/>
       <use xlink:href="#DejaVuSans-70" transform="translate(254.296875 0)"/>
       <use xlink:href="#DejaVuSans-61" transform="translate(317.773438 0)"/>
       <use xlink:href="#DejaVuSans-74" transform="translate(379.052734 0)"/>
       <use xlink:href="#DejaVuSans-69" transform="translate(418.261719 0)"/>
       <use xlink:href="#DejaVuSans-61" transform="translate(446.044922 0)"/>
       <use xlink:href="#DejaVuSans-6c" transform="translate(507.324219 0)"/>
       <use xlink:href="#DejaVuSans-2f" transform="translate(535.107422 0)"/>
       <use xlink:href="#DejaVuSans-4d" transform="translate(568.798828 0)"/>
       <use xlink:href="#DejaVuSans-6f" transform="translate(655.078125 0)"/>
       <use xlink:href="#DejaVuSans-76" transform="translate(716.259766 0)"/>
       <use xlink:href="#DejaVuSans-65" transform="translate(775.439453 0)"/>
       <use xlink:href="#DejaVuSans-6d" transform="translate(836.962891 0)"/>
       <use xlink:href="#DejaVuSans-65" transform="translate(934.375 0)"/>
       <use xlink:href="#DejaVuSans-6e" transform="translate(995.898438 0)"/>
       <use xlink:href="#DejaVuSans-74" transform="translate(1059.277344 0)"/>
      </g>
     </g>
    </g>
    <g id="xtick_22">
     <g id="line2d_22">
      <path d="M 752.023027 705.680746 
L 141.176072 474.017053 
" clip-path="url(#pe0e6bacc56)" style="fill: none; stroke: #b0b0b0; stroke-width: 0.8; stroke-linecap: square"/>
     </g>
     <g id="text_22">
      <!-- 6.2 Proximity -->
      <g transform="translate(78.823736 473.191647) scale(0.15 -0.15)">
       <use xlink:href="#DejaVuSans-36"/>
       <use xlink:href="#DejaVuSans-2e" transform="translate(63.623047 0)"/>
       <use xlink:href="#DejaVuSans-32" transform="translate(95.410156 0)"/>
       <use xlink:href="#DejaVuSans-20" transform="translate(159.033203 0)"/>
       <use xlink:href="#DejaVuSans-50" transform="translate(190.820312 0)"/>
       <use xlink:href="#DejaVuSans-72" transform="translate(249.373047 0)"/>
       <use xlink:href="#DejaVuSans-6f" transform="translate(288.236328 0)"/>
       <use xlink:href="#DejaVuSans-78" transform="translate(346.292969 0)"/>
       <use xlink:href="#DejaVuSans-69" transform="translate(405.472656 0)"/>
       <use xlink:href="#DejaVuSans-6d" transform="translate(433.255859 0)"/>
       <use xlink:href="#DejaVuSans-69" transform="translate(530.667969 0)"/>
       <use xlink:href="#DejaVuSans-74" transform="translate(558.451172 0)"/>
       <use xlink:href="#DejaVuSans-79" transform="translate(597.660156 0)"/>
      </g>
     </g>
    </g>
    <g id="xtick_23">
     <g id="line2d_23">
      <path d="M 752.023027 705.680746 
L 214.366925 334.563534 
" clip-path="url(#pe0e6bacc56)" style="fill: none; stroke: #b0b0b0; stroke-width: 0.8; stroke-linecap: square"/>
     </g>
     <g id="text_23">
      <!-- 6.3 Spatial -->
      <g transform="translate(162.711948 330.74969) scale(0.15 -0.15)">
       <use xlink:href="#DejaVuSans-36"/>
       <use xlink:href="#DejaVuSans-2e" transform="translate(63.623047 0)"/>
       <use xlink:href="#DejaVuSans-33" transform="translate(95.410156 0)"/>
       <use xlink:href="#DejaVuSans-20" transform="translate(159.033203 0)"/>
       <use xlink:href="#DejaVuSans-53" transform="translate(190.820312 0)"/>
       <use xlink:href="#DejaVuSans-70" transform="translate(254.296875 0)"/>
       <use xlink:href="#DejaVuSans-61" transform="translate(317.773438 0)"/>
       <use xlink:href="#DejaVuSans-74" transform="translate(379.052734 0)"/>
       <use xlink:href="#DejaVuSans-69" transform="translate(418.261719 0)"/>
       <use xlink:href="#DejaVuSans-61" transform="translate(446.044922 0)"/>
       <use xlink:href="#DejaVuSans-6c" transform="translate(507.324219 0)"/>
      </g>
     </g>
    </g>
    <g id="xtick_24">
     <g id="line2d_24">
      <path d="M 752.023027 705.680746 
L 318.804396 216.677999 
" clip-path="url(#pe0e6bacc56)" style="fill: none; stroke: #b0b0b0; stroke-width: 0.8; stroke-linecap: square"/>
     </g>
     <g id="text_24">
      <!-- 6.4 Spatial -->
      <g transform="translate(269.387476 210.337911) scale(0.15 -0.15)">
       <use xlink:href="#DejaVuSans-36"/>
       <use xlink:href="#DejaVuSans-2e" transform="translate(63.623047 0)"/>
       <use xlink:href="#DejaVuSans-34" transform="translate(95.410156 0)"/>
       <use xlink:href="#DejaVuSans-20" transform="translate(159.033203 0)"/>
       <use xlink:href="#DejaVuSans-53" transform="translate(190.820312 0)"/>
       <use xlink:href="#DejaVuSans-70" transform="translate(254.296875 0)"/>
       <use xlink:href="#DejaVuSans-61" transform="translate(317.773438 0)"/>
       <use xlink:href="#DejaVuSans-74" transform="translate(379.052734 0)"/>
       <use xlink:href="#DejaVuSans-69" transform="translate(418.261719 0)"/>
       <use xlink:href="#DejaVuSans-61" transform="translate(446.044922 0)"/>
       <use xlink:href="#DejaVuSans-6c" transform="translate(507.324219 0)"/>
      </g>
     </g>
    </g>
    <g id="xtick_25">
     <g id="line2d_25">
      <path d="M 752.023027 705.680746 
L 448.41896 127.211526 
" clip-path="url(#pe0e6bacc56)" style="fill: none; stroke: #b0b0b0; stroke-width: 0.8; stroke-linecap: square"/>
     </g>
     <g id="text_25">
      <!-- 7.1 Self-interaction -->
      <g transform="translate(370.647601 118.954204) scale(0.15 -0.15)">
       <defs>
        <path id="DejaVuSans-37" d="M 525 4666 
L 3525 4666 
L 3525 4397 
L 1831 0 
L 1172 0 
L 2766 4134 
L 525 4134 
L 525 4666 
z
" transform="scale(0.015625)"/>
        <path id="DejaVuSans-2d" d="M 313 2009 
L 1997 2009 
L 1997 1497 
L 313 1497 
L 313 2009 
z
" transform="scale(0.015625)"/>
       </defs>
       <use xlink:href="#DejaVuSans-37"/>
       <use xlink:href="#DejaVuSans-2e" transform="translate(63.623047 0)"/>
       <use xlink:href="#DejaVuSans-31" transform="translate(95.410156 0)"/>
       <use xlink:href="#DejaVuSans-20" transform="translate(159.033203 0)"/>
       <use xlink:href="#DejaVuSans-53" transform="translate(190.820312 0)"/>
       <use xlink:href="#DejaVuSans-65" transform="translate(254.296875 0)"/>
       <use xlink:href="#DejaVuSans-6c" transform="translate(315.820312 0)"/>
       <use xlink:href="#DejaVuSans-66" transform="translate(343.603516 0)"/>
       <use xlink:href="#DejaVuSans-2d" transform="translate(373.308594 0)"/>
       <use xlink:href="#DejaVuSans-69" transform="translate(409.392578 0)"/>
       <use xlink:href="#DejaVuSans-6e" transform="translate(437.175781 0)"/>
       <use xlink:href="#DejaVuSans-74" transform="translate(500.554688 0)"/>
       <use xlink:href="#DejaVuSans-65" transform="translate(539.763672 0)"/>
       <use xlink:href="#DejaVuSans-72" transform="translate(601.287109 0)"/>
       <use xlink:href="#DejaVuSans-61" transform="translate(642.400391 0)"/>
       <use xlink:href="#DejaVuSans-63" transform="translate(703.679688 0)"/>
       <use xlink:href="#DejaVuSans-74" transform="translate(758.660156 0)"/>
       <use xlink:href="#DejaVuSans-69" transform="translate(797.869141 0)"/>
       <use xlink:href="#DejaVuSans-6f" transform="translate(825.652344 0)"/>
       <use xlink:href="#DejaVuSans-6e" transform="translate(886.833984 0)"/>
      </g>
     </g>
    </g>
    <g id="xtick_26">
     <g id="line2d_26">
      <path d="M 752.023027 705.680746 
L 595.677888 71.363581 
" clip-path="url(#pe0e6bacc56)" style="fill: none; stroke: #b0b0b0; stroke-width: 0.8; stroke-linecap: square"/>
     </g>
     <g id="text_26">
      <!-- 8.1 No Interaction -->
      <g transform="translate(524.743093 61.909458) scale(0.15 -0.15)">
       <defs>
        <path id="DejaVuSans-38" d="M 2034 2216 
Q 1584 2216 1326 1975 
Q 1069 1734 1069 1313 
Q 1069 891 1326 650 
Q 1584 409 2034 409 
Q 2484 409 2743 651 
Q 3003 894 3003 1313 
Q 3003 1734 2745 1975 
Q 2488 2216 2034 2216 
z
M 1403 2484 
Q 997 2584 770 2862 
Q 544 3141 544 3541 
Q 544 4100 942 4425 
Q 1341 4750 2034 4750 
Q 2731 4750 3128 4425 
Q 3525 4100 3525 3541 
Q 3525 3141 3298 2862 
Q 3072 2584 2669 2484 
Q 3125 2378 3379 2068 
Q 3634 1759 3634 1313 
Q 3634 634 3220 271 
Q 2806 -91 2034 -91 
Q 1263 -91 848 271 
Q 434 634 434 1313 
Q 434 1759 690 2068 
Q 947 2378 1403 2484 
z
M 1172 3481 
Q 1172 3119 1398 2916 
Q 1625 2713 2034 2713 
Q 2441 2713 2670 2916 
Q 2900 3119 2900 3481 
Q 2900 3844 2670 4047 
Q 2441 4250 2034 4250 
Q 1625 4250 1398 4047 
Q 1172 3844 1172 3481 
z
" transform="scale(0.015625)"/>
        <path id="DejaVuSans-4e" d="M 628 4666 
L 1478 4666 
L 3547 763 
L 3547 4666 
L 4159 4666 
L 4159 0 
L 3309 0 
L 1241 3903 
L 1241 0 
L 628 0 
L 628 4666 
z
" transform="scale(0.015625)"/>
       </defs>
       <use xlink:href="#DejaVuSans-38"/>
       <use xlink:href="#DejaVuSans-2e" transform="translate(63.623047 0)"/>
       <use xlink:href="#DejaVuSans-31" transform="translate(95.410156 0)"/>
       <use xlink:href="#DejaVuSans-20" transform="translate(159.033203 0)"/>
       <use xlink:href="#DejaVuSans-4e" transform="translate(190.820312 0)"/>
       <use xlink:href="#DejaVuSans-6f" transform="translate(265.625 0)"/>
       <use xlink:href="#DejaVuSans-20" transform="translate(326.806641 0)"/>
       <use xlink:href="#DejaVuSans-49" transform="translate(358.59375 0)"/>
       <use xlink:href="#DejaVuSans-6e" transform="translate(388.085938 0)"/>
       <use xlink:href="#DejaVuSans-74" transform="translate(451.464844 0)"/>
       <use xlink:href="#DejaVuSans-65" transform="translate(490.673828 0)"/>
       <use xlink:href="#DejaVuSans-72" transform="translate(552.197266 0)"/>
       <use xlink:href="#DejaVuSans-61" transform="translate(593.310547 0)"/>
       <use xlink:href="#DejaVuSans-63" transform="translate(654.589844 0)"/>
       <use xlink:href="#DejaVuSans-74" transform="translate(709.570312 0)"/>
       <use xlink:href="#DejaVuSans-69" transform="translate(748.779297 0)"/>
       <use xlink:href="#DejaVuSans-6f" transform="translate(776.5625 0)"/>
       <use xlink:href="#DejaVuSans-6e" transform="translate(837.744141 0)"/>
      </g>
     </g>
    </g>
   </g>
   <g id="matplotlib.axis_2">
    <g id="ytick_1">
     <g id="line2d_27">
      <path d="M 752.023027 705.680746 
C 752.023027 705.680746 752.023027 705.680746 752.023027 705.680746 
C 752.023027 705.680746 752.023027 705.680746 752.023027 705.680746 
C 752.023027 705.680746 752.023027 705.680746 752.023027 705.680746 
C 752.023027 705.680746 752.023027 705.680746 752.023027 705.680746 
C 752.023027 705.680746 752.023027 705.680746 752.023027 705.680746 
C 752.023027 705.680746 752.023027 705.680746 752.023027 705.680746 
C 752.023027 705.680746 752.023027 705.680746 752.023027 705.680746 
C 752.023027 705.680746 752.023027 705.680746 752.023027 705.680746 
C 752.023027 705.680746 752.023027 705.680746 752.023027 705.680746 
C 752.023027 705.680746 752.023027 705.680746 752.023027 705.680746 
C 752.023027 705.680746 752.023027 705.680746 752.023027 705.680746 
C 752.023027 705.680746 752.023027 705.680746 752.023027 705.680746 
C 752.023027 705.680746 752.023027 705.680746 752.023027 705.680746 
C 752.023027 705.680746 752.023027 705.680746 752.023027 705.680746 
C 752.023027 705.680746 752.023027 705.680746 752.023027 705.680746 
C 752.023027 705.680746 752.023027 705.680746 752.023027 705.680746 
" clip-path="url(#pe0e6bacc56)" style="fill: none; stroke: #b0b0b0; stroke-width: 0.8; stroke-linecap: square"/>
     </g>
     <g id="text_27">
      <!-- 0.00 -->
      <g style="fill: #808080" transform="translate(752.023027 702.561214) scale(0.15 -0.15)">
       <defs>
        <path id="DejaVuSans-30" d="M 2034 4250 
Q 1547 4250 1301 3770 
Q 1056 3291 1056 2328 
Q 1056 1369 1301 889 
Q 1547 409 2034 409 
Q 2525 409 2770 889 
Q 3016 1369 3016 2328 
Q 3016 3291 2770 3770 
Q 2525 4250 2034 4250 
z
M 2034 4750 
Q 2819 4750 3233 4129 
Q 3647 3509 3647 2328 
Q 3647 1150 3233 529 
Q 2819 -91 2034 -91 
Q 1250 -91 836 529 
Q 422 1150 422 2328 
Q 422 3509 836 4129 
Q 1250 4750 2034 4750 
z
" transform="scale(0.015625)"/>
       </defs>
       <use xlink:href="#DejaVuSans-30"/>
       <use xlink:href="#DejaVuSans-2e" transform="translate(63.623047 0)"/>
       <use xlink:href="#DejaVuSans-30" transform="translate(95.410156 0)"/>
       <use xlink:href="#DejaVuSans-30" transform="translate(159.033203 0)"/>
      </g>
     </g>
    </g>
    <g id="ytick_2">
     <g id="line2d_28">
      <path d="M 752.023027 575.020565 
C 769.181165 575.020565 786.172461 578.400344 802.024513 584.966479 
C 817.876566 591.532614 832.281091 601.157411 844.413727 613.290046 
C 856.546362 625.422682 866.171158 639.827207 872.737293 655.679259 
C 879.303428 671.531312 882.683207 688.522608 882.683207 705.680746 
C 882.683207 722.838883 879.303428 739.83018 872.737293 755.682232 
C 866.171158 771.534284 856.546362 785.93881 844.413727 798.071445 
C 832.281091 810.204081 817.876566 819.828877 802.024513 826.395012 
C 786.172461 832.961147 769.181165 836.340926 752.023027 836.340926 
C 734.864889 836.340926 717.873593 832.961147 702.021541 826.395012 
C 686.169489 819.828877 671.764963 810.204081 659.632328 798.071445 
C 647.499692 785.93881 637.874896 771.534284 631.308761 755.682232 
C 624.742626 739.83018 621.362847 722.838883 621.362847 705.680746 
C 621.362847 688.522608 624.742626 671.531312 631.308761 655.679259 
C 637.874896 639.827207 647.499692 625.422682 659.632328 613.290046 
C 671.764963 601.157411 686.169489 591.532614 702.021541 584.966479 
C 717.873593 578.400344 734.864889 575.020565 752.023027 575.020565 
" clip-path="url(#pe0e6bacc56)" style="fill: none; stroke: #b0b0b0; stroke-width: 0.8; stroke-linecap: square"/>
     </g>
     <g id="text_28">
      <!-- 0.15 -->
      <g style="fill: #808080" transform="translate(752.023027 571.901034) scale(0.15 -0.15)">
       <use xlink:href="#DejaVuSans-30"/>
       <use xlink:href="#DejaVuSans-2e" transform="translate(63.623047 0)"/>
       <use xlink:href="#DejaVuSans-31" transform="translate(95.410156 0)"/>
       <use xlink:href="#DejaVuSans-35" transform="translate(159.033203 0)"/>
      </g>
     </g>
    </g>
    <g id="ytick_3">
     <g id="line2d_29">
      <path d="M 752.023027 444.360385 
C 786.339302 444.360385 820.321895 451.119943 852.026 464.252213 
C 883.730104 477.384483 912.539155 496.634076 936.804426 520.899347 
C 961.069697 545.164618 980.31929 573.973669 993.45156 605.677773 
C 1006.58383 637.381878 1013.343388 671.36447 1013.343388 705.680746 
C 1013.343388 739.997021 1006.58383 773.979614 993.45156 805.683718 
C 980.31929 837.387823 961.069697 866.196874 936.804426 890.462145 
C 912.539155 914.727416 883.730104 933.977008 852.026 947.109279 
C 820.321895 960.241549 786.339302 967.001107 752.023027 967.001107 
C 717.706752 967.001107 683.724159 960.241549 652.020054 947.109279 
C 620.31595 933.977008 591.506899 914.727416 567.241628 890.462145 
C 542.976357 866.196874 523.726764 837.387823 510.594494 805.683718 
C 497.462224 773.979614 490.702666 739.997021 490.702666 705.680746 
C 490.702666 671.36447 497.462224 637.381878 510.594494 605.677773 
C 523.726764 573.973669 542.976357 545.164618 567.241628 520.899347 
C 591.506899 496.634076 620.31595 477.384483 652.020054 464.252213 
C 683.724159 451.119943 717.706752 444.360385 752.023027 444.360385 
" clip-path="url(#pe0e6bacc56)" style="fill: none; stroke: #b0b0b0; stroke-width: 0.8; stroke-linecap: square"/>
     </g>
     <g id="text_29">
      <!-- 0.30 -->
      <g style="fill: #808080" transform="translate(752.023027 441.240854) scale(0.15 -0.15)">
       <use xlink:href="#DejaVuSans-30"/>
       <use xlink:href="#DejaVuSans-2e" transform="translate(63.623047 0)"/>
       <use xlink:href="#DejaVuSans-33" transform="translate(95.410156 0)"/>
       <use xlink:href="#DejaVuSans-30" transform="translate(159.033203 0)"/>
      </g>
     </g>
    </g>
    <g id="ytick_4">
     <g id="line2d_30">
      <path d="M 752.023027 313.700205 
C 803.49744 313.700205 854.471329 323.839542 902.027486 343.537947 
C 949.583643 363.236352 992.797219 392.11074 1029.195126 428.508647 
C 1065.593032 464.906553 1094.467421 508.12013 1114.165826 555.676287 
C 1133.864231 603.232443 1144.003568 654.206333 1144.003568 705.680746 
C 1144.003568 757.155159 1133.864231 808.129048 1114.165826 855.685205 
C 1094.467421 903.241361 1065.593032 946.454938 1029.195126 982.852845 
C 992.797219 1019.250751 949.583643 1048.12514 902.027486 1067.823545 
C 854.471329 1087.52195 803.49744 1097.661287 752.023027 1097.661287 
C 700.548614 1097.661287 649.574725 1087.52195 602.018568 1067.823545 
C 554.462412 1048.12514 511.248835 1019.250751 474.850928 982.852845 
C 438.453022 946.454938 409.578633 903.241361 389.880228 855.685205 
C 370.181823 808.129048 360.042486 757.155159 360.042486 705.680746 
C 360.042486 654.206333 370.181823 603.232443 389.880228 555.676287 
C 409.578633 508.12013 438.453022 464.906553 474.850928 428.508647 
C 511.248835 392.11074 554.462412 363.236352 602.018568 343.537947 
C 649.574725 323.839542 700.548614 313.700205 752.023027 313.700205 
" clip-path="url(#pe0e6bacc56)" style="fill: none; stroke: #b0b0b0; stroke-width: 0.8; stroke-linecap: square"/>
     </g>
     <g id="text_30">
      <!-- 0.45 -->
      <g style="fill: #808080" transform="translate(752.023027 310.580673) scale(0.15 -0.15)">
       <use xlink:href="#DejaVuSans-30"/>
       <use xlink:href="#DejaVuSans-2e" transform="translate(63.623047 0)"/>
       <use xlink:href="#DejaVuSans-34" transform="translate(95.410156 0)"/>
       <use xlink:href="#DejaVuSans-35" transform="translate(159.033203 0)"/>
      </g>
     </g>
    </g>
    <g id="ytick_5">
     <g id="line2d_31">
      <path d="M 752.023027 183.040024 
C 820.655578 183.040024 888.620763 196.55914 952.028972 222.82368 
C 1015.437181 249.08822 1073.055283 287.587405 1121.585825 336.117947 
C 1170.116367 384.648489 1208.615553 442.266592 1234.880093 505.674801 
C 1261.144633 569.083009 1274.663749 637.048195 1274.663749 705.680746 
C 1274.663749 774.313296 1261.144633 842.278482 1234.880093 905.686691 
C 1208.615553 969.0949 1170.116367 1026.713002 1121.585825 1075.243544 
C 1073.055283 1123.774086 1015.437181 1162.273271 952.028972 1188.537811 
C 888.620763 1214.802351 820.655578 1228.321467 752.023027 1228.321467 
C 683.390476 1228.321467 615.425291 1214.802351 552.017082 1188.537811 
C 488.608873 1162.273271 430.990771 1123.774086 382.460229 1075.243544 
C 333.929687 1026.713002 295.430502 969.0949 269.165962 905.686691 
C 242.901421 842.278482 229.382306 774.313296 229.382306 705.680746 
C 229.382306 637.048195 242.901421 569.083009 269.165962 505.674801 
C 295.430502 442.266592 333.929687 384.648489 382.460229 336.117947 
C 430.990771 287.587405 488.608873 249.08822 552.017082 222.82368 
C 615.425291 196.55914 683.390476 183.040024 752.023027 183.040024 
" clip-path="url(#pe0e6bacc56)" style="fill: none; stroke: #b0b0b0; stroke-width: 0.8; stroke-linecap: square"/>
     </g>
     <g id="text_31">
      <!-- 0.60 -->
      <g style="fill: #808080" transform="translate(752.023027 179.920493) scale(0.15 -0.15)">
       <use xlink:href="#DejaVuSans-30"/>
       <use xlink:href="#DejaVuSans-2e" transform="translate(63.623047 0)"/>
       <use xlink:href="#DejaVuSans-36" transform="translate(95.410156 0)"/>
       <use xlink:href="#DejaVuSans-30" transform="translate(159.033203 0)"/>
      </g>
     </g>
    </g>
   </g>
   <g id="line2d_32">
    <path d="M 752.023027 260.271471 
L 840.228466 347.817214 
L 967.97825 294.212446 
L 1012.79429 411.330838 
L 1092.360121 470.763011 
L 1237.589676 521.529606 
L 1222.05206 648.608888 
L 1238.092186 764.700227 
L 1212.103237 880.166154 
L 1021.497784 891.68574 
L 1148.613032 1153.338321 
L 973.537363 1127.74105 
L 890.689563 1268.272996 
L 752.023027 1083.509307 
L 627.957212 1209.035544 
L 596.637162 1001.743777 
L 393.15082 1110.763729 
L 250.319828 1051.98146 
L 411.507407 834.821286 
L 214.221561 770.981666 
L 426.378748 666.140372 
L 342.462593 550.354961 
L 419.572572 476.206765 
L 515.767509 439.003394 
L 562.032021 343.683128 
L 658.932618 327.998109 
L 752.023027 260.271471 
" clip-path="url(#pe0e6bacc56)" style="fill: none; stroke: #1f77b4; stroke-width: 2; stroke-linecap: square"/>
   </g>
   <g id="line2d_33">
    <path d="M 752.023027 462.776272 
L 810.284901 469.303031 
L 900.353631 423.060393 
L 842.721483 603.303352 
L 939.082155 576.563153 
L 954.256812 628.983588 
L 889.438353 688.995504 
L 998.60996 735.62182 
L 822.532806 732.421578 
L 822.923265 754.619647 
L 920.001403 895.289136 
L 844.449486 881.784651 
L 784.454402 837.260007 
L 752.023027 804.135291 
L 689.372175 959.865246 
L 714.94016 776.336245 
L 652.445431 818.080616 
L 528.895165 859.694789 
L 697.459274 726.374048 
L 668.755716 715.791228 
L 725.687624 702.483049 
L 672.480429 675.514217 
L 690.599595 663.283212 
L 749.571439 702.913475 
L 615.756402 446.046385 
L 703.542902 508.989147 
L 752.023027 462.776272 
" clip-path="url(#pe0e6bacc56)" style="fill: none; stroke: #ff7f0e; stroke-width: 2; stroke-linecap: square"/>
   </g>
   <g id="line2d_34">
    <path d="M 752.023027 411.77634 
L 807.72549 479.686972 
L 931.769025 363.203361 
L 875.41088 566.404651 
L 978.667026 549.239689 
L 1079.700397 581.409111 
L 1067.379589 667.389527 
L 1107.440642 748.836257 
L 968.994169 787.967046 
L 832.477836 761.214691 
L 969.592056 951.265411 
L 872.371638 934.985866 
L 792.18893 868.640218 
L 752.023027 743.293096 
L 679.276892 1000.823419 
L 721.169595 764.467048 
L 669.080385 799.303635 
L 408.12291 943.057857 
L 708.66085 722.12585 
L 632.289814 720.21899 
L 748.460572 705.248185 
L 519.494605 617.494347 
L 652.233605 636.801081 
L 752.023027 705.680746 
L 591.924572 400.638626 
L 684.932113 433.482206 
L 752.023027 411.77634 
" clip-path="url(#pe0e6bacc56)" style="fill: none; stroke: #2ca02c; stroke-width: 2; stroke-linecap: square"/>
   </g>
   <g id="line2d_35">
    <path d="M 752.023027 267.978692 
L 856.609551 281.356538 
L 962.63696 304.389423 
L 1022.902975 399.920492 
L 1106.532992 460.980185 
L 1158.300472 551.600035 
L 1174.500284 654.382719 
L 1200.252558 760.105664 
L 1048.706525 818.197955 
L 1169.536902 993.869765 
L 1060.588452 1053.97911 
L 945.042541 1073.448702 
L 837.986048 1054.44643 
L 752.023027 1033.225199 
L 645.138221 1139.329451 
L 588.840209 1016.599629 
L 511.172165 977.545169 
L 389.156333 956.14954 
L 443.001459 822.877168 
L 409.292325 747.295787 
L 434.828727 667.166385 
L 369.542918 560.625174 
L 418.845491 475.704897 
L 546.762915 473.989974 
L 545.157567 311.531541 
L 651.059165 296.054254 
L 752.023027 267.978692 
" clip-path="url(#pe0e6bacc56)" style="fill: none; stroke: #d62728; stroke-width: 2; stroke-linecap: square"/>
   </g>
   <g id="line2d_36">
    <path d="M 752.023027 445.647057 
L 800.525403 508.898871 
L 884.045361 454.133205 
L 841.344186 604.858 
L 960.298614 561.918488 
L 1074.832318 583.25533 
L 973.223355 678.822163 
L 1071.841278 744.513712 
L 752.023027 705.680746 
L 1000.873678 877.449948 
L 959.469528 939.83944 
L 855.383136 902.616979 
L 782.609526 829.775048 
L 752.023027 725.836686 
L 685.557903 975.340353 
L 741.397605 725.925796 
L 693.511431 771.726685 
L 416.818494 937.055729 
L 715.06844 719.695772 
L 621.253629 721.559025 
L 750.690654 705.518966 
L 621.879172 656.323692 
L 676.205332 653.347569 
L 752.023027 705.680746 
L 594.21056 404.994211 
L 685.028524 433.873361 
L 752.023027 445.647057 
" clip-path="url(#pe0e6bacc56)" style="fill: none; stroke: #9467bd; stroke-width: 2; stroke-linecap: square"/>
   </g>
   <g id="line2d_37">
    <path d="M 752.023027 296.468231 
L 851.139679 303.548683 
L 950.541162 327.436041 
L 1002.02969 423.48156 
L 1088.591727 473.364146 
L 1130.861506 562.006262 
L 1145.67591 657.882632 
L 1166.445766 756.000777 
L 1036.899247 813.720045 
L 1078.18417 930.813527 
L 1037.404369 1027.809689 
L 930.869364 1046.443971 
L 829.53366 1020.153746 
L 752.023027 993.860874 
L 652.177824 1110.768658 
L 604.89653 986.006864 
L 533.473832 952.371791 
L 410.191763 941.629831 
L 482.37909 807.943202 
L 429.192371 744.879484 
L 474.050972 671.928828 
L 401.739733 572.835815 
L 467.9536 509.601778 
L 582.307834 514.111894 
L 562.658284 344.876373 
L 658.952554 328.078993 
L 752.023027 296.468231 
" clip-path="url(#pe0e6bacc56)" style="fill: none; stroke: #8c564b; stroke-width: 2; stroke-linecap: square"/>
   </g>
   <g id="line2d_38">
    <path d="M 752.023027 385.890492 
L 820.229195 428.957445 
L 907.226914 409.964447 
L 910.433736 526.872019 
L 1018.552362 521.708829 
L 1059.435955 589.0944 
L 1001.400641 675.400821 
L 1060.78183 743.170852 
L 1107.077904 840.335299 
L 906.576921 812.361596 
L 951.766568 931.144595 
L 819.228868 833.730778 
L 781.472532 825.162083 
L 752.023027 844.592347 
L 683.844476 982.292 
L 734.429313 739.202767 
L 627.504365 846.233261 
L 495.17594 882.969489 
L 704.372847 723.752075 
L 544.957647 730.823035 
L 671.687011 695.926187 
L 599.067519 647.672373 
L 727.50402 688.756497 
L 732.781448 683.961493 
L 594.342466 405.245537 
L 676.559517 399.513248 
L 752.023027 385.890492 
" clip-path="url(#pe0e6bacc56)" style="fill: none; stroke: #e377c2; stroke-width: 2; stroke-linecap: square"/>
   </g>
   <g id="line2d_39">
    <path d="M 752.023027 286.379074 
L 852.638508 297.467692 
L 957.147864 314.848022 
L 999.363768 426.490763 
L 1093.029115 470.301239 
L 1136.204794 559.97982 
L 1149.557438 657.411329 
L 1175.555782 757.106933 
L 1106.650663 840.173268 
L 1095.234475 942.582503 
L 1040.884051 1031.737439 
L 926.020301 1037.204853 
L 824.027675 997.815087 
L 752.023027 966.728707 
L 649.607301 1121.19768 
L 622.202959 953.032219 
L 550.348123 933.324653 
L 406.545719 944.146513 
L 507.358633 798.469711 
L 459.539752 741.194645 
L 509.255864 676.203475 
L 404.007326 573.6958 
L 489.248349 524.300482 
L 599.941531 534.016224 
L 556.066861 332.317465 
L 655.661414 314.726313 
L 752.023027 286.379074 
" clip-path="url(#pe0e6bacc56)" style="fill: none; stroke: #7f7f7f; stroke-width: 2; stroke-linecap: square"/>
   </g>
   <g id="patch_11">
    <path d="M 752.023027 52.379844 
C 666.232339 52.379844 581.275857 69.278739 502.015596 102.109414 
C 422.755334 134.940089 350.732707 183.06407 290.069529 243.727248 
C 229.406352 304.390425 181.28237 376.413053 148.451695 455.673314 
C 115.62102 534.933575 98.722125 619.890057 98.722125 705.680746 
C 98.722125 791.471434 115.62102 876.427916 148.451695 955.688177 
C 181.28237 1034.948438 229.406352 1106.971066 290.069529 1167.634244 
C 350.732707 1228.297421 422.755334 1276.421403 502.015596 1309.252078 
C 581.275857 1342.082753 666.232339 1358.981648 752.023027 1358.981648 
C 837.813715 1358.981648 922.770198 1342.082753 1002.030459 1309.252078 
C 1081.29072 1276.421403 1153.313348 1228.297421 1213.976525 1167.634244 
C 1274.639703 1106.971066 1322.763684 1034.948438 1355.594359 955.688177 
C 1388.425034 876.427916 1405.323929 791.471434 1405.323929 705.680746 
C 1405.323929 619.890057 1388.425034 534.933575 1355.594359 455.673314 
C 1322.763684 376.413053 1274.639703 304.390425 1213.976525 243.727248 
C 1153.313348 183.06407 1081.29072 134.940089 1002.030459 102.109414 
C 922.770198 69.278739 837.813715 52.379844 752.023027 52.379844 
" style="fill: none; stroke: #000000; stroke-width: 0.8; stroke-linejoin: miter; stroke-linecap: square"/>
   </g>
   <g id="text_32">
    <!-- Mean mvIoU by fine_category and Model -->
    <g transform="translate(568.172715 20.877187) scale(0.18 -0.18)">
     <defs>
      <path id="DejaVuSans-55" d="M 556 4666 
L 1191 4666 
L 1191 1831 
Q 1191 1081 1462 751 
Q 1734 422 2344 422 
Q 2950 422 3222 751 
Q 3494 1081 3494 1831 
L 3494 4666 
L 4128 4666 
L 4128 1753 
Q 4128 841 3676 375 
Q 3225 -91 2344 -91 
Q 1459 -91 1007 375 
Q 556 841 556 1753 
L 556 4666 
z
" transform="scale(0.015625)"/>
      <path id="DejaVuSans-5f" d="M 3263 -1063 
L 3263 -1509 
L -63 -1509 
L -63 -1063 
L 3263 -1063 
z
" transform="scale(0.015625)"/>
      <path id="DejaVuSans-64" d="M 2906 2969 
L 2906 4863 
L 3481 4863 
L 3481 0 
L 2906 0 
L 2906 525 
Q 2725 213 2448 61 
Q 2172 -91 1784 -91 
Q 1150 -91 751 415 
Q 353 922 353 1747 
Q 353 2572 751 3078 
Q 1150 3584 1784 3584 
Q 2172 3584 2448 3432 
Q 2725 3281 2906 2969 
z
M 947 1747 
Q 947 1113 1208 752 
Q 1469 391 1925 391 
Q 2381 391 2643 752 
Q 2906 1113 2906 1747 
Q 2906 2381 2643 2742 
Q 2381 3103 1925 3103 
Q 1469 3103 1208 2742 
Q 947 2381 947 1747 
z
" transform="scale(0.015625)"/>
     </defs>
     <use xlink:href="#DejaVuSans-4d"/>
     <use xlink:href="#DejaVuSans-65" transform="translate(86.279297 0)"/>
     <use xlink:href="#DejaVuSans-61" transform="translate(147.802734 0)"/>
     <use xlink:href="#DejaVuSans-6e" transform="translate(209.082031 0)"/>
     <use xlink:href="#DejaVuSans-20" transform="translate(272.460938 0)"/>
     <use xlink:href="#DejaVuSans-6d" transform="translate(304.248047 0)"/>
     <use xlink:href="#DejaVuSans-76" transform="translate(401.660156 0)"/>
     <use xlink:href="#DejaVuSans-49" transform="translate(460.839844 0)"/>
     <use xlink:href="#DejaVuSans-6f" transform="translate(490.332031 0)"/>
     <use xlink:href="#DejaVuSans-55" transform="translate(551.513672 0)"/>
     <use xlink:href="#DejaVuSans-20" transform="translate(624.707031 0)"/>
     <use xlink:href="#DejaVuSans-62" transform="translate(656.494141 0)"/>
     <use xlink:href="#DejaVuSans-79" transform="translate(719.970703 0)"/>
     <use xlink:href="#DejaVuSans-20" transform="translate(779.150391 0)"/>
     <use xlink:href="#DejaVuSans-66" transform="translate(810.9375 0)"/>
     <use xlink:href="#DejaVuSans-69" transform="translate(846.142578 0)"/>
     <use xlink:href="#DejaVuSans-6e" transform="translate(873.925781 0)"/>
     <use xlink:href="#DejaVuSans-65" transform="translate(937.304688 0)"/>
     <use xlink:href="#DejaVuSans-5f" transform="translate(998.828125 0)"/>
     <use xlink:href="#DejaVuSans-63" transform="translate(1048.828125 0)"/>
     <use xlink:href="#DejaVuSans-61" transform="translate(1103.808594 0)"/>
     <use xlink:href="#DejaVuSans-74" transform="translate(1165.087891 0)"/>
     <use xlink:href="#DejaVuSans-65" transform="translate(1204.296875 0)"/>
     <use xlink:href="#DejaVuSans-67" transform="translate(1265.820312 0)"/>
     <use xlink:href="#DejaVuSans-6f" transform="translate(1329.296875 0)"/>
     <use xlink:href="#DejaVuSans-72" transform="translate(1390.478516 0)"/>
     <use xlink:href="#DejaVuSans-79" transform="translate(1431.591797 0)"/>
     <use xlink:href="#DejaVuSans-20" transform="translate(1490.771484 0)"/>
     <use xlink:href="#DejaVuSans-61" transform="translate(1522.558594 0)"/>
     <use xlink:href="#DejaVuSans-6e" transform="translate(1583.837891 0)"/>
     <use xlink:href="#DejaVuSans-64" transform="translate(1647.216797 0)"/>
     <use xlink:href="#DejaVuSans-20" transform="translate(1710.693359 0)"/>
     <use xlink:href="#DejaVuSans-4d" transform="translate(1742.480469 0)"/>
     <use xlink:href="#DejaVuSans-6f" transform="translate(1828.759766 0)"/>
     <use xlink:href="#DejaVuSans-64" transform="translate(1889.941406 0)"/>
     <use xlink:href="#DejaVuSans-65" transform="translate(1953.417969 0)"/>
     <use xlink:href="#DejaVuSans-6c" transform="translate(2014.941406 0)"/>
    </g>
   </g>
   <g id="legend_1">
    <g id="patch_12">
     <path d="M 1370.258323 456.106641 
L 1499.352073 456.106641 
Q 1502.352073 456.106641 1502.352073 453.106641 
L 1502.352073 278.469141 
Q 1502.352073 275.469141 1499.352073 275.469141 
L 1370.258323 275.469141 
Q 1367.258323 275.469141 1367.258323 278.469141 
L 1367.258323 453.106641 
Q 1367.258323 456.106641 1370.258323 456.106641 
z
" style="fill: #ffffff; opacity: 0.8; stroke: #cccccc; stroke-linejoin: miter"/>
    </g>
    <g id="line2d_40">
     <path d="M 1373.258323 287.616798 
L 1388.258323 287.616798 
L 1403.258323 287.616798 
" style="fill: none; stroke: #1f77b4; stroke-width: 2; stroke-linecap: square"/>
    </g>
    <g id="text_33">
     <!-- cogvlm -->
     <g transform="translate(1415.258323 292.866798) scale(0.15 -0.15)">
      <use xlink:href="#DejaVuSans-63"/>
      <use xlink:href="#DejaVuSans-6f" transform="translate(54.980469 0)"/>
      <use xlink:href="#DejaVuSans-67" transform="translate(116.162109 0)"/>
      <use xlink:href="#DejaVuSans-76" transform="translate(179.638672 0)"/>
      <use xlink:href="#DejaVuSans-6c" transform="translate(238.818359 0)"/>
      <use xlink:href="#DejaVuSans-6d" transform="translate(266.601562 0)"/>
     </g>
    </g>
    <g id="line2d_41">
     <path d="M 1373.258323 309.633985 
L 1388.258323 309.633985 
L 1403.258323 309.633985 
" style="fill: none; stroke: #ff7f0e; stroke-width: 2; stroke-linecap: square"/>
    </g>
    <g id="text_34">
     <!-- ferret -->
     <g transform="translate(1415.258323 314.883985) scale(0.15 -0.15)">
      <use xlink:href="#DejaVuSans-66"/>
      <use xlink:href="#DejaVuSans-65" transform="translate(35.205078 0)"/>
      <use xlink:href="#DejaVuSans-72" transform="translate(96.728516 0)"/>
      <use xlink:href="#DejaVuSans-72" transform="translate(136.091797 0)"/>
      <use xlink:href="#DejaVuSans-65" transform="translate(174.955078 0)"/>
      <use xlink:href="#DejaVuSans-74" transform="translate(236.478516 0)"/>
     </g>
    </g>
    <g id="line2d_42">
     <path d="M 1373.258323 331.651173 
L 1388.258323 331.651173 
L 1403.258323 331.651173 
" style="fill: none; stroke: #2ca02c; stroke-width: 2; stroke-linecap: square"/>
    </g>
    <g id="text_35">
     <!-- gdino -->
     <g transform="translate(1415.258323 336.901173) scale(0.15 -0.15)">
      <use xlink:href="#DejaVuSans-67"/>
      <use xlink:href="#DejaVuSans-64" transform="translate(63.476562 0)"/>
      <use xlink:href="#DejaVuSans-69" transform="translate(126.953125 0)"/>
      <use xlink:href="#DejaVuSans-6e" transform="translate(154.736328 0)"/>
      <use xlink:href="#DejaVuSans-6f" transform="translate(218.115234 0)"/>
     </g>
    </g>
    <g id="line2d_43">
     <path d="M 1373.258323 353.66836 
L 1388.258323 353.66836 
L 1403.258323 353.66836 
" style="fill: none; stroke: #d62728; stroke-width: 2; stroke-linecap: square"/>
    </g>
    <g id="text_36">
     <!-- internvl2.5 -->
     <g transform="translate(1415.258323 358.91836) scale(0.15 -0.15)">
      <use xlink:href="#DejaVuSans-69"/>
      <use xlink:href="#DejaVuSans-6e" transform="translate(27.783203 0)"/>
      <use xlink:href="#DejaVuSans-74" transform="translate(91.162109 0)"/>
      <use xlink:href="#DejaVuSans-65" transform="translate(130.371094 0)"/>
      <use xlink:href="#DejaVuSans-72" transform="translate(191.894531 0)"/>
      <use xlink:href="#DejaVuSans-6e" transform="translate(231.257812 0)"/>
      <use xlink:href="#DejaVuSans-76" transform="translate(294.636719 0)"/>
      <use xlink:href="#DejaVuSans-6c" transform="translate(353.816406 0)"/>
      <use xlink:href="#DejaVuSans-32" transform="translate(381.599609 0)"/>
      <use xlink:href="#DejaVuSans-2e" transform="translate(445.222656 0)"/>
      <use xlink:href="#DejaVuSans-35" transform="translate(477.009766 0)"/>
     </g>
    </g>
    <g id="line2d_44">
     <path d="M 1373.258323 375.685548 
L 1388.258323 375.685548 
L 1403.258323 375.685548 
" style="fill: none; stroke: #9467bd; stroke-width: 2; stroke-linecap: square"/>
    </g>
    <g id="text_37">
     <!-- llava -->
     <g transform="translate(1415.258323 380.935548) scale(0.15 -0.15)">
      <use xlink:href="#DejaVuSans-6c"/>
      <use xlink:href="#DejaVuSans-6c" transform="translate(27.783203 0)"/>
      <use xlink:href="#DejaVuSans-61" transform="translate(55.566406 0)"/>
      <use xlink:href="#DejaVuSans-76" transform="translate(116.845703 0)"/>
      <use xlink:href="#DejaVuSans-61" transform="translate(176.025391 0)"/>
     </g>
    </g>
    <g id="line2d_45">
     <path d="M 1373.258323 397.702735 
L 1388.258323 397.702735 
L 1403.258323 397.702735 
" style="fill: none; stroke: #8c564b; stroke-width: 2; stroke-linecap: square"/>
    </g>
    <g id="text_38">
     <!-- minigptv2 -->
     <g transform="translate(1415.258323 402.952735) scale(0.15 -0.15)">
      <use xlink:href="#DejaVuSans-6d"/>
      <use xlink:href="#DejaVuSans-69" transform="translate(97.412109 0)"/>
      <use xlink:href="#DejaVuSans-6e" transform="translate(125.195312 0)"/>
      <use xlink:href="#DejaVuSans-69" transform="translate(188.574219 0)"/>
      <use xlink:href="#DejaVuSans-67" transform="translate(216.357422 0)"/>
      <use xlink:href="#DejaVuSans-70" transform="translate(279.833984 0)"/>
      <use xlink:href="#DejaVuSans-74" transform="translate(343.310547 0)"/>
      <use xlink:href="#DejaVuSans-76" transform="translate(382.519531 0)"/>
      <use xlink:href="#DejaVuSans-32" transform="translate(441.699219 0)"/>
     </g>
    </g>
    <g id="line2d_46">
     <path d="M 1373.258323 419.719923 
L 1388.258323 419.719923 
L 1403.258323 419.719923 
" style="fill: none; stroke: #e377c2; stroke-width: 2; stroke-linecap: square"/>
    </g>
    <g id="text_39">
     <!-- shikra -->
     <g transform="translate(1415.258323 424.969923) scale(0.15 -0.15)">
      <defs>
       <path id="DejaVuSans-68" d="M 3513 2113 
L 3513 0 
L 2938 0 
L 2938 2094 
Q 2938 2591 2744 2837 
Q 2550 3084 2163 3084 
Q 1697 3084 1428 2787 
Q 1159 2491 1159 1978 
L 1159 0 
L 581 0 
L 581 4863 
L 1159 4863 
L 1159 2956 
Q 1366 3272 1645 3428 
Q 1925 3584 2291 3584 
Q 2894 3584 3203 3211 
Q 3513 2838 3513 2113 
z
" transform="scale(0.015625)"/>
       <path id="DejaVuSans-6b" d="M 581 4863 
L 1159 4863 
L 1159 1991 
L 2875 3500 
L 3609 3500 
L 1753 1863 
L 3688 0 
L 2938 0 
L 1159 1709 
L 1159 0 
L 581 0 
L 581 4863 
z
" transform="scale(0.015625)"/>
      </defs>
      <use xlink:href="#DejaVuSans-73"/>
      <use xlink:href="#DejaVuSans-68" transform="translate(52.099609 0)"/>
      <use xlink:href="#DejaVuSans-69" transform="translate(115.478516 0)"/>
      <use xlink:href="#DejaVuSans-6b" transform="translate(143.261719 0)"/>
      <use xlink:href="#DejaVuSans-72" transform="translate(201.171875 0)"/>
      <use xlink:href="#DejaVuSans-61" transform="translate(242.285156 0)"/>
     </g>
    </g>
    <g id="line2d_47">
     <path d="M 1373.258323 441.73711 
L 1388.258323 441.73711 
L 1403.258323 441.73711 
" style="fill: none; stroke: #7f7f7f; stroke-width: 2; stroke-linecap: square"/>
    </g>
    <g id="text_40">
     <!-- sphinxv2 -->
     <g transform="translate(1415.258323 446.98711) scale(0.15 -0.15)">
      <use xlink:href="#DejaVuSans-73"/>
      <use xlink:href="#DejaVuSans-70" transform="translate(52.099609 0)"/>
      <use xlink:href="#DejaVuSans-68" transform="translate(115.576172 0)"/>
      <use xlink:href="#DejaVuSans-69" transform="translate(178.955078 0)"/>
      <use xlink:href="#DejaVuSans-6e" transform="translate(206.738281 0)"/>
      <use xlink:href="#DejaVuSans-78" transform="translate(270.117188 0)"/>
      <use xlink:href="#DejaVuSans-76" transform="translate(329.296875 0)"/>
      <use xlink:href="#DejaVuSans-32" transform="translate(388.476562 0)"/>
     </g>
    </g>
   </g>
  </g>
 </g>
 <defs>
  <clipPath id="pe0e6bacc56">
   <path d="M 1405.323929 705.680746 
C 1405.323929 619.890057 1388.425034 534.933575 1355.594359 455.673314 
C 1322.763684 376.413053 1274.639703 304.390425 1213.976525 243.727248 
C 1153.313348 183.06407 1081.29072 134.940089 1002.030459 102.109414 
C 922.770198 69.278739 837.813715 52.379844 752.023027 52.379844 
C 666.232339 52.379844 581.275857 69.278739 502.015596 102.109414 
C 422.755334 134.940089 350.732707 183.06407 290.069529 243.727248 
C 229.406352 304.390425 181.28237 376.413053 148.451695 455.673314 
C 115.62102 534.933575 98.722125 619.890057 98.722125 705.680746 
C 98.722125 791.471434 115.62102 876.427916 148.451695 955.688177 
C 181.28237 1034.948438 229.406352 1106.971066 290.069529 1167.634244 
C 350.732707 1228.297421 422.755334 1276.421403 502.015596 1309.252078 
C 581.275857 1342.082753 666.232339 1358.981648 752.023027 1358.981648 
C 837.813715 1358.981648 922.770198 1342.082753 1002.030459 1309.252078 
C 1081.29072 1276.421403 1153.313348 1228.297421 1213.976525 1167.634244 
C 1274.639703 1106.971066 1322.763684 1034.948438 1355.594359 955.688177 
C 1388.425034 876.427916 1405.323929 791.471434 1405.323929 705.680746 
M 752.023027 705.680746 
C 752.023027 705.680746 752.023027 705.680746 752.023027 705.680746 
C 752.023027 705.680746 752.023027 705.680746 752.023027 705.680746 
C 752.023027 705.680746 752.023027 705.680746 752.023027 705.680746 
C 752.023027 705.680746 752.023027 705.680746 752.023027 705.680746 
C 752.023027 705.680746 752.023027 705.680746 752.023027 705.680746 
C 752.023027 705.680746 752.023027 705.680746 752.023027 705.680746 
C 752.023027 705.680746 752.023027 705.680746 752.023027 705.680746 
C 752.023027 705.680746 752.023027 705.680746 752.023027 705.680746 
C 752.023027 705.680746 752.023027 705.680746 752.023027 705.680746 
C 752.023027 705.680746 752.023027 705.680746 752.023027 705.680746 
C 752.023027 705.680746 752.023027 705.680746 752.023027 705.680746 
C 752.023027 705.680746 752.023027 705.680746 752.023027 705.680746 
C 752.023027 705.680746 752.023027 705.680746 752.023027 705.680746 
C 752.023027 705.680746 752.023027 705.680746 752.023027 705.680746 
C 752.023027 705.680746 752.023027 705.680746 752.023027 705.680746 
C 752.023027 705.680746 752.023027 705.680746 752.023027 705.680746 
z
"/>
  </clipPath>
 </defs>
</svg>
