<?xml version="1.0" encoding="utf-8" standalone="no"?>
<!DOCTYPE svg PUBLIC "-//W3C//DTD SVG 1.1//EN"
  "http://www.w3.org/Graphics/SVG/1.1/DTD/svg11.dtd">
<svg xmlns:xlink="http://www.w3.org/1999/xlink" width="701.660968pt" height="554.885664pt" viewBox="0 0 701.660968 554.885664" xmlns="http://www.w3.org/2000/svg" version="1.1">
 <metadata>
  <rdf:RDF xmlns:dc="http://purl.org/dc/elements/1.1/" xmlns:cc="http://creativecommons.org/ns#" xmlns:rdf="http://www.w3.org/1999/02/22-rdf-syntax-ns#">
   <cc:Work>
    <dc:type rdf:resource="http://purl.org/dc/dcmitype/StillImage"/>
    <dc:date>2025-11-05T17:23:27.027643</dc:date>
    <dc:format>image/svg+xml</dc:format>
    <dc:creator>
     <cc:Agent>
      <dc:title>Matplotlib v3.10.6, https://matplotlib.org/</dc:title>
     </cc:Agent>
    </dc:creator>
   </cc:Work>
  </rdf:RDF>
 </metadata>
 <defs>
  <style type="text/css">*{stroke-linejoin: round; stroke-linecap: butt}</style>
 </defs>
 <g id="figure_1">
  <g id="patch_1">
   <path d="M 0 554.885664 
L 701.660968 554.885664 
L 701.660968 0 
L 0 0 
z
" style="fill: #ffffff"/>
  </g>
  <g id="axes_1">
   <g id="patch_2">
    <path d="M 624.708256 277.442832 
C 624.708256 241.954868 617.717901 206.811981 604.137245 174.025377 
C 590.556589 141.238774 570.649742 111.446073 545.555963 86.352293 
C 520.462183 61.258513 490.669481 41.351666 457.882878 27.771011 
C 425.096275 14.190355 389.953387 7.2 354.465424 7.2 
C 318.97746 7.2 283.834572 14.190355 251.047969 27.771011 
C 218.261366 41.351666 188.468664 61.258513 163.374885 86.352293 
C 138.281105 111.446073 118.374258 141.238774 104.793602 174.025377 
C 91.212947 206.811981 84.222592 241.954868 84.222592 277.442832 
C 84.222592 312.930796 91.212947 348.073683 104.793602 380.860287 
C 118.374258 413.64689 138.281105 443.439591 163.374885 468.533371 
C 188.468664 493.627151 218.261366 513.533998 251.047969 527.114653 
C 283.834572 540.695309 318.97746 547.685664 354.465424 547.685664 
C 389.953387 547.685664 425.096275 540.695309 457.882878 527.114653 
C 490.669481 513.533998 520.462183 493.627151 545.555963 468.533371 
C 570.649742 443.439591 590.556589 413.64689 604.137245 380.860287 
C 617.717901 348.073683 624.708256 312.930796 624.708256 277.442832 
M 354.465424 277.442832 
C 354.465424 277.442832 354.465424 277.442832 354.465424 277.442832 
C 354.465424 277.442832 354.465424 277.442832 354.465424 277.442832 
C 354.465424 277.442832 354.465424 277.442832 354.465424 277.442832 
C 354.465424 277.442832 354.465424 277.442832 354.465424 277.442832 
C 354.465424 277.442832 354.465424 277.442832 354.465424 277.442832 
C 354.465424 277.442832 354.465424 277.442832 354.465424 277.442832 
C 354.465424 277.442832 354.465424 277.442832 354.465424 277.442832 
C 354.465424 277.442832 354.465424 277.442832 354.465424 277.442832 
C 354.465424 277.442832 354.465424 277.442832 354.465424 277.442832 
C 354.465424 277.442832 354.465424 277.442832 354.465424 277.442832 
C 354.465424 277.442832 354.465424 277.442832 354.465424 277.442832 
C 354.465424 277.442832 354.465424 277.442832 354.465424 277.442832 
C 354.465424 277.442832 354.465424 277.442832 354.465424 277.442832 
C 354.465424 277.442832 354.465424 277.442832 354.465424 277.442832 
C 354.465424 277.442832 354.465424 277.442832 354.465424 277.442832 
C 354.465424 277.442832 354.465424 277.442832 354.465424 277.442832 
z
" style="fill: #ffffff"/>
   </g>
   <g id="patch_3">
    <path d="M 354.465424 27.217988 
C 364.546751 27.217988 374.618872 27.827239 384.626696 29.042408 
C 394.634519 30.257578 404.559766 32.076447 414.348148 34.489067 
L 419.138766 15.052766 
C 408.567313 12.447136 397.848047 10.482758 387.039597 9.170375 
C 376.231148 7.857991 365.353258 7.2 354.465424 7.2 
z
" clip-path="url(#p572bd0d8e4)" style="fill: #e19f5d; opacity: 0.7"/>
   </g>
   <g id="patch_4">
    <path d="M 414.348148 34.489067 
C 424.136531 36.901686 433.770171 39.90365 443.196376 43.478538 
C 452.622582 47.053426 461.824135 51.194709 470.750707 55.879736 
L 480.05353 38.154688 
C 470.412832 33.094859 460.475154 28.622274 450.294853 24.761395 
C 440.114551 20.900515 429.71022 17.658395 419.138766 15.052766 
z
" clip-path="url(#p572bd0d8e4)" style="fill: #e19f5d; opacity: 0.7"/>
   </g>
   <g id="patch_5">
    <path d="M 470.750707 55.879736 
C 479.677279 60.564762 488.312566 65.784975 496.609337 71.511822 
C 504.906107 77.238669 512.849205 83.46169 520.395188 90.146846 
L 533.669569 75.163168 
C 525.519908 67.943198 516.941361 61.222336 507.98085 55.037341 
C 499.020338 48.852347 489.694228 43.214517 480.05353 38.154688 
z
" clip-path="url(#p572bd0d8e4)" style="fill: #e19f5d; opacity: 0.7"/>
   </g>
   <g id="patch_6">
    <path d="M 520.395188 90.146846 
C 527.94117 96.832003 535.076252 103.967086 541.761409 111.513068 
C 548.446566 119.05905 554.669587 127.002149 560.396433 135.298919 
L 576.870914 123.927406 
C 570.68592 114.966894 563.965057 106.388348 556.745088 98.238687 
C 549.525119 90.089026 541.819229 82.383137 533.669569 75.163168 
z
" clip-path="url(#p572bd0d8e4)" style="fill: #e19f5d; opacity: 0.7"/>
   </g>
   <g id="patch_7">
    <path d="M 560.396433 135.298919 
C 566.12328 143.595689 571.343493 152.230976 576.02852 161.157549 
C 580.713547 170.084121 584.854829 179.285674 588.429718 188.711879 
L 607.146861 181.613403 
C 603.285982 171.433101 598.813396 161.495424 593.753568 151.854726 
C 588.693739 142.214028 583.055909 132.887918 576.870914 123.927406 
z
" clip-path="url(#p572bd0d8e4)" style="fill: #e19f5d; opacity: 0.7"/>
   </g>
   <g id="patch_8">
    <path d="M 588.429718 188.711879 
C 592.004606 198.138084 595.006569 207.771724 597.419189 217.560107 
C 599.831809 227.34849 601.650677 237.273736 602.865847 247.28156 
L 622.737881 244.868658 
C 621.425498 234.060209 619.461119 223.340942 616.85549 212.769489 
C 614.249861 202.198036 611.00774 191.793705 607.146861 181.613403 
z
" clip-path="url(#p572bd0d8e4)" style="fill: #c0e15d; opacity: 0.7"/>
   </g>
   <g id="patch_9">
    <path d="M 602.865847 247.28156 
C 604.081017 257.289383 604.690268 267.361504 604.690268 277.442832 
C 604.690268 287.52416 604.081017 297.596281 602.865847 307.604104 
L 622.737881 310.017006 
C 624.050264 299.208556 624.708256 288.330666 624.708256 277.442832 
C 624.708256 266.554998 624.050264 255.677108 622.737881 244.868658 
z
" clip-path="url(#p572bd0d8e4)" style="fill: #c0e15d; opacity: 0.7"/>
   </g>
   <g id="patch_10">
    <path d="M 602.865847 307.604104 
C 601.650677 317.611928 599.831809 327.537174 597.419189 337.325557 
C 595.006569 347.11394 592.004606 356.74758 588.429718 366.173785 
L 607.146861 373.272261 
C 611.00774 363.091959 614.249861 352.687628 616.85549 342.116175 
C 619.461119 331.544722 621.425498 320.825455 622.737881 310.017006 
z
" clip-path="url(#p572bd0d8e4)" style="fill: #c0e15d; opacity: 0.7"/>
   </g>
   <g id="patch_11">
    <path d="M 588.429718 366.173785 
C 584.854829 375.59999 580.713547 384.801543 576.02852 393.728115 
C 571.343493 402.654688 566.12328 411.289975 560.396433 419.586745 
L 576.870914 430.958258 
C 583.055909 421.997746 588.693739 412.671636 593.753568 403.030938 
C 598.813396 393.39024 603.285982 383.452563 607.146861 373.272261 
z
" clip-path="url(#p572bd0d8e4)" style="fill: #c0e15d; opacity: 0.7"/>
   </g>
   <g id="patch_12">
    <path d="M 560.396433 419.586745 
C 554.669587 427.883515 548.446566 435.826614 541.761409 443.372596 
C 535.076252 450.918578 527.94117 458.053661 520.395188 464.738818 
L 533.669569 479.722496 
C 541.819229 472.502527 549.525119 464.796638 556.745088 456.646977 
C 563.965057 448.497316 570.68592 439.91877 576.870914 430.958258 
z
" clip-path="url(#p572bd0d8e4)" style="fill: #c0e15d; opacity: 0.7"/>
   </g>
   <g id="patch_13">
    <path d="M 520.395188 464.738818 
C 512.849205 471.423974 504.906107 477.646995 496.609337 483.373842 
C 488.312566 489.100689 479.677279 494.320902 470.750707 499.005928 
L 480.05353 516.730976 
C 489.694228 511.671147 499.020338 506.033317 507.98085 499.848323 
C 516.941361 493.663328 525.519908 486.942466 533.669569 479.722496 
z
" clip-path="url(#p572bd0d8e4)" style="fill: #5de15d; opacity: 0.7"/>
   </g>
   <g id="patch_14">
    <path d="M 470.750707 499.005928 
C 461.824135 503.690955 452.622582 507.832238 443.196376 511.407126 
C 433.770171 514.982014 424.136531 517.983978 414.348148 520.396597 
L 419.138766 539.832898 
C 429.71022 537.227269 440.114551 533.985149 450.294853 530.124269 
C 460.475154 526.26339 470.412832 521.790805 480.05353 516.730976 
z
" clip-path="url(#p572bd0d8e4)" style="fill: #5de15d; opacity: 0.7"/>
   </g>
   <g id="patch_15">
    <path d="M 414.348148 520.396597 
C 404.559766 522.809217 394.634519 524.628086 384.626696 525.843256 
C 374.618872 527.058425 364.546751 527.667676 354.465424 527.667676 
L 354.465424 547.685664 
C 365.353258 547.685664 376.231148 547.027673 387.039597 545.71529 
C 397.848047 544.402906 408.567313 542.438528 419.138766 539.832898 
z
" clip-path="url(#p572bd0d8e4)" style="fill: #5de15d; opacity: 0.7"/>
   </g>
   <g id="patch_16">
    <path d="M 354.465424 527.667676 
C 344.384096 527.667676 334.311975 527.058425 324.304152 525.843256 
C 314.296328 524.628086 304.371081 522.809217 294.582699 520.396597 
L 289.792081 539.832898 
C 300.363534 542.438528 311.0828 544.402906 321.89125 545.71529 
C 332.699699 547.027673 343.57759 547.685664 354.465424 547.685664 
z
" clip-path="url(#p572bd0d8e4)" style="fill: #5de1c0; opacity: 0.7"/>
   </g>
   <g id="patch_17">
    <path d="M 294.582699 520.396597 
C 284.794316 517.983978 275.160676 514.982014 265.734471 511.407126 
C 256.308266 507.832238 247.106713 503.690955 238.18014 499.005928 
L 228.877317 516.730976 
C 238.518016 521.790805 248.455693 526.26339 258.635995 530.124269 
C 268.816296 533.985149 279.220627 537.227269 289.792081 539.832898 
z
" clip-path="url(#p572bd0d8e4)" style="fill: #5de1c0; opacity: 0.7"/>
   </g>
   <g id="patch_18">
    <path d="M 238.18014 499.005928 
C 229.253568 494.320902 220.618281 489.100689 212.321511 483.373842 
C 204.024741 477.646995 196.081642 471.423974 188.53566 464.738818 
L 175.261278 479.722496 
C 183.410939 486.942466 191.989486 493.663328 200.949998 499.848323 
C 209.910509 506.033317 219.236619 511.671147 228.877317 516.730976 
z
" clip-path="url(#p572bd0d8e4)" style="fill: #5de1c0; opacity: 0.7"/>
   </g>
   <g id="patch_19">
    <path d="M 188.53566 464.738818 
C 180.989677 458.053661 173.854595 450.918578 167.169438 443.372596 
C 160.484281 435.826614 154.261261 427.883515 148.534414 419.586745 
L 132.059933 430.958258 
C 138.244928 439.91877 144.96579 448.497316 152.185759 456.646977 
C 159.405729 464.796638 167.111618 472.502527 175.261278 479.722496 
z
" clip-path="url(#p572bd0d8e4)" style="fill: #5de1c0; opacity: 0.7"/>
   </g>
   <g id="patch_20">
    <path d="M 148.534414 419.586745 
C 142.807567 411.289975 137.587354 402.654688 132.902327 393.728115 
C 128.217301 384.801543 124.076018 375.59999 120.50113 366.173785 
L 101.783986 373.272261 
C 105.644865 383.452563 110.117451 393.39024 115.17728 403.030938 
C 120.237108 412.671636 125.874938 421.997746 132.059933 430.958258 
z
" clip-path="url(#p572bd0d8e4)" style="fill: #5d9fe1; opacity: 0.7"/>
   </g>
   <g id="patch_21">
    <path d="M 120.50113 366.173785 
C 116.926242 356.74758 113.924278 347.11394 111.511658 337.325557 
C 109.099039 327.537174 107.28017 317.611928 106.065 307.604104 
L 86.192966 310.017006 
C 87.505349 320.825455 89.469728 331.544722 92.075357 342.116175 
C 94.680986 352.687628 97.923107 363.091959 101.783986 373.272261 
z
" clip-path="url(#p572bd0d8e4)" style="fill: #5d9fe1; opacity: 0.7"/>
   </g>
   <g id="patch_22">
    <path d="M 106.065 307.604104 
C 104.84983 297.596281 104.240579 287.52416 104.240579 277.442832 
C 104.240579 267.361504 104.84983 257.289383 106.065 247.28156 
L 86.192966 244.868658 
C 84.880583 255.677108 84.222592 266.554998 84.222592 277.442832 
C 84.222592 288.330666 84.880583 299.208556 86.192966 310.017006 
z
" clip-path="url(#p572bd0d8e4)" style="fill: #5d9fe1; opacity: 0.7"/>
   </g>
   <g id="patch_23">
    <path d="M 106.065 247.28156 
C 107.28017 237.273736 109.099039 227.34849 111.511658 217.560107 
C 113.924278 207.771724 116.926242 198.138084 120.50113 188.711879 
L 101.783986 181.613403 
C 97.923107 191.793705 94.680986 202.198036 92.075357 212.769489 
C 89.469728 223.340942 87.505349 234.060209 86.192966 244.868658 
z
" clip-path="url(#p572bd0d8e4)" style="fill: #7e5de1; opacity: 0.7"/>
   </g>
   <g id="patch_24">
    <path d="M 120.50113 188.711879 
C 124.076018 179.285674 128.217301 170.084121 132.902327 161.157549 
C 137.587354 152.230976 142.807567 143.595689 148.534414 135.298919 
L 132.059933 123.927406 
C 125.874938 132.887918 120.237108 142.214028 115.17728 151.854726 
C 110.117451 161.495424 105.644865 171.433101 101.783986 181.613403 
z
" clip-path="url(#p572bd0d8e4)" style="fill: #7e5de1; opacity: 0.7"/>
   </g>
   <g id="patch_25">
    <path d="M 148.534414 135.298919 
C 154.261261 127.002149 160.484281 119.05905 167.169438 111.513068 
C 173.854595 103.967086 180.989677 96.832003 188.53566 90.146846 
L 175.261278 75.163168 
C 167.111618 82.383137 159.405729 90.089026 152.185759 98.238687 
C 144.96579 106.388348 138.244928 114.966894 132.059933 123.927406 
z
" clip-path="url(#p572bd0d8e4)" style="fill: #7e5de1; opacity: 0.7"/>
   </g>
   <g id="patch_26">
    <path d="M 188.53566 90.146846 
C 196.081642 83.46169 204.024741 77.238669 212.321511 71.511822 
C 220.618281 65.784975 229.253568 60.564762 238.18014 55.879736 
L 228.877317 38.154688 
C 219.236619 43.214517 209.910509 48.852347 200.949998 55.037341 
C 191.989486 61.222336 183.410939 67.943198 175.261278 75.163168 
z
" clip-path="url(#p572bd0d8e4)" style="fill: #7e5de1; opacity: 0.7"/>
   </g>
   <g id="patch_27">
    <path d="M 238.18014 55.879736 
C 247.106713 51.194709 256.308266 47.053426 265.734471 43.478538 
C 275.160676 39.90365 284.794316 36.901686 294.582699 34.489067 
L 289.792081 15.052766 
C 279.220627 17.658395 268.816296 20.900515 258.635995 24.761395 
C 248.455693 28.622274 238.518016 33.094859 228.877317 38.154688 
z
" clip-path="url(#p572bd0d8e4)" style="fill: #e15de1; opacity: 0.7"/>
   </g>
   <g id="patch_28">
    <path d="M 294.582699 34.489067 
C 304.371081 32.076447 314.296328 30.257578 324.304152 29.042408 
C 334.311975 27.827239 344.384096 27.217988 354.465424 27.217988 
L 354.465424 7.2 
C 343.57759 7.2 332.699699 7.857991 321.89125 9.170375 
C 311.0828 10.482758 300.363534 12.447136 289.792081 15.052766 
z
" clip-path="url(#p572bd0d8e4)" style="fill: #e15d7e; opacity: 0.7"/>
   </g>
   <g id="matplotlib.axis_1">
    <g id="xtick_1">
     <g id="line2d_1">
      <path d="M 354.465424 277.442832 
L 354.465424 7.2 
" clip-path="url(#p572bd0d8e4)" style="fill: none; stroke: #b0b0b0; stroke-width: 0.8; stroke-linecap: square"/>
     </g>
    </g>
    <g id="xtick_2">
     <g id="line2d_2">
      <path d="M 354.465424 277.442832 
L 419.138766 15.052766 
" clip-path="url(#p572bd0d8e4)" style="fill: none; stroke: #b0b0b0; stroke-width: 0.8; stroke-linecap: square"/>
     </g>
    </g>
    <g id="xtick_3">
     <g id="line2d_3">
      <path d="M 354.465424 277.442832 
L 480.05353 38.154688 
" clip-path="url(#p572bd0d8e4)" style="fill: none; stroke: #b0b0b0; stroke-width: 0.8; stroke-linecap: square"/>
     </g>
    </g>
    <g id="xtick_4">
     <g id="line2d_4">
      <path d="M 354.465424 277.442832 
L 533.669569 75.163168 
" clip-path="url(#p572bd0d8e4)" style="fill: none; stroke: #b0b0b0; stroke-width: 0.8; stroke-linecap: square"/>
     </g>
    </g>
    <g id="xtick_5">
     <g id="line2d_5">
      <path d="M 354.465424 277.442832 
L 576.870914 123.927406 
" clip-path="url(#p572bd0d8e4)" style="fill: none; stroke: #b0b0b0; stroke-width: 0.8; stroke-linecap: square"/>
     </g>
    </g>
    <g id="xtick_6">
     <g id="line2d_6">
      <path d="M 354.465424 277.442832 
L 607.146861 181.613403 
" clip-path="url(#p572bd0d8e4)" style="fill: none; stroke: #b0b0b0; stroke-width: 0.8; stroke-linecap: square"/>
     </g>
    </g>
    <g id="xtick_7">
     <g id="line2d_7">
      <path d="M 354.465424 277.442832 
L 622.737881 244.868658 
" clip-path="url(#p572bd0d8e4)" style="fill: none; stroke: #b0b0b0; stroke-width: 0.8; stroke-linecap: square"/>
     </g>
    </g>
    <g id="xtick_8">
     <g id="line2d_8">
      <path d="M 354.465424 277.442832 
L 622.737881 310.017006 
" clip-path="url(#p572bd0d8e4)" style="fill: none; stroke: #b0b0b0; stroke-width: 0.8; stroke-linecap: square"/>
     </g>
    </g>
    <g id="xtick_9">
     <g id="line2d_9">
      <path d="M 354.465424 277.442832 
L 607.146861 373.272261 
" clip-path="url(#p572bd0d8e4)" style="fill: none; stroke: #b0b0b0; stroke-width: 0.8; stroke-linecap: square"/>
     </g>
    </g>
    <g id="xtick_10">
     <g id="line2d_10">
      <path d="M 354.465424 277.442832 
L 576.870914 430.958258 
" clip-path="url(#p572bd0d8e4)" style="fill: none; stroke: #b0b0b0; stroke-width: 0.8; stroke-linecap: square"/>
     </g>
    </g>
    <g id="xtick_11">
     <g id="line2d_11">
      <path d="M 354.465424 277.442832 
L 533.669569 479.722496 
" clip-path="url(#p572bd0d8e4)" style="fill: none; stroke: #b0b0b0; stroke-width: 0.8; stroke-linecap: square"/>
     </g>
    </g>
    <g id="xtick_12">
     <g id="line2d_12">
      <path d="M 354.465424 277.442832 
L 480.05353 516.730976 
" clip-path="url(#p572bd0d8e4)" style="fill: none; stroke: #b0b0b0; stroke-width: 0.8; stroke-linecap: square"/>
     </g>
    </g>
    <g id="xtick_13">
     <g id="line2d_13">
      <path d="M 354.465424 277.442832 
L 419.138766 539.832898 
" clip-path="url(#p572bd0d8e4)" style="fill: none; stroke: #b0b0b0; stroke-width: 0.8; stroke-linecap: square"/>
     </g>
    </g>
    <g id="xtick_14">
     <g id="line2d_14">
      <path d="M 354.465424 277.442832 
L 354.465424 547.685664 
" clip-path="url(#p572bd0d8e4)" style="fill: none; stroke: #b0b0b0; stroke-width: 0.8; stroke-linecap: square"/>
     </g>
    </g>
    <g id="xtick_15">
     <g id="line2d_15">
      <path d="M 354.465424 277.442832 
L 289.792081 539.832898 
" clip-path="url(#p572bd0d8e4)" style="fill: none; stroke: #b0b0b0; stroke-width: 0.8; stroke-linecap: square"/>
     </g>
    </g>
    <g id="xtick_16">
     <g id="line2d_16">
      <path d="M 354.465424 277.442832 
L 228.877317 516.730976 
" clip-path="url(#p572bd0d8e4)" style="fill: none; stroke: #b0b0b0; stroke-width: 0.8; stroke-linecap: square"/>
     </g>
    </g>
    <g id="xtick_17">
     <g id="line2d_17">
      <path d="M 354.465424 277.442832 
L 175.261278 479.722496 
" clip-path="url(#p572bd0d8e4)" style="fill: none; stroke: #b0b0b0; stroke-width: 0.8; stroke-linecap: square"/>
     </g>
    </g>
    <g id="xtick_18">
     <g id="line2d_18">
      <path d="M 354.465424 277.442832 
L 132.059933 430.958258 
" clip-path="url(#p572bd0d8e4)" style="fill: none; stroke: #b0b0b0; stroke-width: 0.8; stroke-linecap: square"/>
     </g>
    </g>
    <g id="xtick_19">
     <g id="line2d_19">
      <path d="M 354.465424 277.442832 
L 101.783986 373.272261 
" clip-path="url(#p572bd0d8e4)" style="fill: none; stroke: #b0b0b0; stroke-width: 0.8; stroke-linecap: square"/>
     </g>
    </g>
    <g id="xtick_20">
     <g id="line2d_20">
      <path d="M 354.465424 277.442832 
L 86.192966 310.017006 
" clip-path="url(#p572bd0d8e4)" style="fill: none; stroke: #b0b0b0; stroke-width: 0.8; stroke-linecap: square"/>
     </g>
    </g>
    <g id="xtick_21">
     <g id="line2d_21">
      <path d="M 354.465424 277.442832 
L 86.192966 244.868658 
" clip-path="url(#p572bd0d8e4)" style="fill: none; stroke: #b0b0b0; stroke-width: 0.8; stroke-linecap: square"/>
     </g>
    </g>
    <g id="xtick_22">
     <g id="line2d_22">
      <path d="M 354.465424 277.442832 
L 101.783986 181.613403 
" clip-path="url(#p572bd0d8e4)" style="fill: none; stroke: #b0b0b0; stroke-width: 0.8; stroke-linecap: square"/>
     </g>
    </g>
    <g id="xtick_23">
     <g id="line2d_23">
      <path d="M 354.465424 277.442832 
L 132.059933 123.927406 
" clip-path="url(#p572bd0d8e4)" style="fill: none; stroke: #b0b0b0; stroke-width: 0.8; stroke-linecap: square"/>
     </g>
    </g>
    <g id="xtick_24">
     <g id="line2d_24">
      <path d="M 354.465424 277.442832 
L 175.261278 75.163168 
" clip-path="url(#p572bd0d8e4)" style="fill: none; stroke: #b0b0b0; stroke-width: 0.8; stroke-linecap: square"/>
     </g>
    </g>
    <g id="xtick_25">
     <g id="line2d_25">
      <path d="M 354.465424 277.442832 
L 228.877317 38.154688 
" clip-path="url(#p572bd0d8e4)" style="fill: none; stroke: #b0b0b0; stroke-width: 0.8; stroke-linecap: square"/>
     </g>
    </g>
    <g id="xtick_26">
     <g id="line2d_26">
      <path d="M 354.465424 277.442832 
L 289.792081 15.052766 
" clip-path="url(#p572bd0d8e4)" style="fill: none; stroke: #b0b0b0; stroke-width: 0.8; stroke-linecap: square"/>
     </g>
    </g>
   </g>
   <g id="matplotlib.axis_2">
    <g id="ytick_1">
     <g id="line2d_27">
      <path d="M 354.465424 277.442832 
C 354.465424 277.442832 354.465424 277.442832 354.465424 277.442832 
C 354.465424 277.442832 354.465424 277.442832 354.465424 277.442832 
C 354.465424 277.442832 354.465424 277.442832 354.465424 277.442832 
C 354.465424 277.442832 354.465424 277.442832 354.465424 277.442832 
C 354.465424 277.442832 354.465424 277.442832 354.465424 277.442832 
C 354.465424 277.442832 354.465424 277.442832 354.465424 277.442832 
C 354.465424 277.442832 354.465424 277.442832 354.465424 277.442832 
C 354.465424 277.442832 354.465424 277.442832 354.465424 277.442832 
C 354.465424 277.442832 354.465424 277.442832 354.465424 277.442832 
C 354.465424 277.442832 354.465424 277.442832 354.465424 277.442832 
C 354.465424 277.442832 354.465424 277.442832 354.465424 277.442832 
C 354.465424 277.442832 354.465424 277.442832 354.465424 277.442832 
C 354.465424 277.442832 354.465424 277.442832 354.465424 277.442832 
C 354.465424 277.442832 354.465424 277.442832 354.465424 277.442832 
C 354.465424 277.442832 354.465424 277.442832 354.465424 277.442832 
C 354.465424 277.442832 354.465424 277.442832 354.465424 277.442832 
" clip-path="url(#p572bd0d8e4)" style="fill: none; stroke: #b0b0b0; stroke-width: 0.8; stroke-linecap: square"/>
     </g>
     <g id="text_1">
      <!-- 0.00 -->
      <g style="fill: #808080" transform="translate(354.465424 273.699395) scale(0.18 -0.18)">
       <defs>
        <path id="DejaVuSans-30" d="M 2034 4250 
Q 1547 4250 1301 3770 
Q 1056 3291 1056 2328 
Q 1056 1369 1301 889 
Q 1547 409 2034 409 
Q 2525 409 2770 889 
Q 3016 1369 3016 2328 
Q 3016 3291 2770 3770 
Q 2525 4250 2034 4250 
z
M 2034 4750 
Q 2819 4750 3233 4129 
Q 3647 3509 3647 2328 
Q 3647 1150 3233 529 
Q 2819 -91 2034 -91 
Q 1250 -91 836 529 
Q 422 1150 422 2328 
Q 422 3509 836 4129 
Q 1250 4750 2034 4750 
z
" transform="scale(0.015625)"/>
        <path id="DejaVuSans-2e" d="M 684 794 
L 1344 794 
L 1344 0 
L 684 0 
L 684 794 
z
" transform="scale(0.015625)"/>
       </defs>
       <use xlink:href="#DejaVuSans-30"/>
       <use xlink:href="#DejaVuSans-2e" transform="translate(63.623047 0)"/>
       <use xlink:href="#DejaVuSans-30" transform="translate(95.410156 0)"/>
       <use xlink:href="#DejaVuSans-30" transform="translate(159.033203 0)"/>
      </g>
     </g>
    </g>
    <g id="ytick_2">
     <g id="line2d_28">
      <path d="M 354.465424 227.397863 
C 361.037269 227.397863 367.545211 228.692373 373.616804 231.20731 
C 379.688397 233.722246 385.205564 237.408699 389.85256 242.055695 
C 394.499557 246.702691 398.18601 252.219858 400.700946 258.291452 
C 403.215882 264.363045 404.510393 270.870987 404.510393 277.442832 
C 404.510393 284.014677 403.215882 290.522619 400.700946 296.594212 
C 398.18601 302.665806 394.499557 308.182973 389.85256 312.829969 
C 385.205564 317.476965 379.688397 321.163418 373.616804 323.678354 
C 367.545211 326.193291 361.037269 327.487801 354.465424 327.487801 
C 347.893579 327.487801 341.385636 326.193291 335.314043 323.678354 
C 329.24245 321.163418 323.725283 317.476965 319.078287 312.829969 
C 314.431291 308.182973 310.744837 302.665806 308.229901 296.594212 
C 305.714965 290.522619 304.420455 284.014677 304.420455 277.442832 
C 304.420455 270.870987 305.714965 264.363045 308.229901 258.291452 
C 310.744837 252.219858 314.431291 246.702691 319.078287 242.055695 
C 323.725283 237.408699 329.24245 233.722246 335.314043 231.20731 
C 341.385636 228.692373 347.893579 227.397863 354.465424 227.397863 
" clip-path="url(#p572bd0d8e4)" style="fill: none; stroke: #b0b0b0; stroke-width: 0.8; stroke-linecap: square"/>
     </g>
     <g id="text_2">
      <!-- 0.15 -->
      <g style="fill: #808080" transform="translate(354.465424 223.654426) scale(0.18 -0.18)">
       <defs>
        <path id="DejaVuSans-31" d="M 794 531 
L 1825 531 
L 1825 4091 
L 703 3866 
L 703 4441 
L 1819 4666 
L 2450 4666 
L 2450 531 
L 3481 531 
L 3481 0 
L 794 0 
L 794 531 
z
" transform="scale(0.015625)"/>
        <path id="DejaVuSans-35" d="M 691 4666 
L 3169 4666 
L 3169 4134 
L 1269 4134 
L 1269 2991 
Q 1406 3038 1543 3061 
Q 1681 3084 1819 3084 
Q 2600 3084 3056 2656 
Q 3513 2228 3513 1497 
Q 3513 744 3044 326 
Q 2575 -91 1722 -91 
Q 1428 -91 1123 -41 
Q 819 9 494 109 
L 494 744 
Q 775 591 1075 516 
Q 1375 441 1709 441 
Q 2250 441 2565 725 
Q 2881 1009 2881 1497 
Q 2881 1984 2565 2268 
Q 2250 2553 1709 2553 
Q 1456 2553 1204 2497 
Q 953 2441 691 2322 
L 691 4666 
z
" transform="scale(0.015625)"/>
       </defs>
       <use xlink:href="#DejaVuSans-30"/>
       <use xlink:href="#DejaVuSans-2e" transform="translate(63.623047 0)"/>
       <use xlink:href="#DejaVuSans-31" transform="translate(95.410156 0)"/>
       <use xlink:href="#DejaVuSans-35" transform="translate(159.033203 0)"/>
      </g>
     </g>
    </g>
    <g id="ytick_3">
     <g id="line2d_29">
      <path d="M 354.465424 177.352894 
C 367.609114 177.352894 380.624998 179.941915 392.768185 184.971787 
C 404.911371 190.00166 415.945705 197.374566 425.239697 206.668558 
C 434.53369 215.962551 441.906596 226.996885 446.936469 239.140071 
C 451.966341 251.283257 454.555361 264.299142 454.555361 277.442832 
C 454.555361 290.586522 451.966341 303.602407 446.936469 315.745593 
C 441.906596 327.888779 434.53369 338.923113 425.239697 348.217106 
C 415.945705 357.511098 404.911371 364.884004 392.768185 369.913877 
C 380.624998 374.943749 367.609114 377.53277 354.465424 377.53277 
C 341.321733 377.53277 328.305849 374.943749 316.162663 369.913877 
C 304.019476 364.884004 292.985142 357.511098 283.69115 348.217106 
C 274.397157 338.923113 267.024251 327.888779 261.994379 315.745593 
C 256.964506 303.602407 254.375486 290.586522 254.375486 277.442832 
C 254.375486 264.299142 256.964506 251.283257 261.994379 239.140071 
C 267.024251 226.996885 274.397157 215.962551 283.69115 206.668558 
C 292.985142 197.374566 304.019476 190.00166 316.162663 184.971787 
C 328.305849 179.941915 341.321733 177.352894 354.465424 177.352894 
" clip-path="url(#p572bd0d8e4)" style="fill: none; stroke: #b0b0b0; stroke-width: 0.8; stroke-linecap: square"/>
     </g>
     <g id="text_3">
      <!-- 0.30 -->
      <g style="fill: #808080" transform="translate(354.465424 173.609457) scale(0.18 -0.18)">
       <defs>
        <path id="DejaVuSans-33" d="M 2597 2516 
Q 3050 2419 3304 2112 
Q 3559 1806 3559 1356 
Q 3559 666 3084 287 
Q 2609 -91 1734 -91 
Q 1441 -91 1130 -33 
Q 819 25 488 141 
L 488 750 
Q 750 597 1062 519 
Q 1375 441 1716 441 
Q 2309 441 2620 675 
Q 2931 909 2931 1356 
Q 2931 1769 2642 2001 
Q 2353 2234 1838 2234 
L 1294 2234 
L 1294 2753 
L 1863 2753 
Q 2328 2753 2575 2939 
Q 2822 3125 2822 3475 
Q 2822 3834 2567 4026 
Q 2313 4219 1838 4219 
Q 1578 4219 1281 4162 
Q 984 4106 628 3988 
L 628 4550 
Q 988 4650 1302 4700 
Q 1616 4750 1894 4750 
Q 2613 4750 3031 4423 
Q 3450 4097 3450 3541 
Q 3450 3153 3228 2886 
Q 3006 2619 2597 2516 
z
" transform="scale(0.015625)"/>
       </defs>
       <use xlink:href="#DejaVuSans-30"/>
       <use xlink:href="#DejaVuSans-2e" transform="translate(63.623047 0)"/>
       <use xlink:href="#DejaVuSans-33" transform="translate(95.410156 0)"/>
       <use xlink:href="#DejaVuSans-30" transform="translate(159.033203 0)"/>
      </g>
     </g>
    </g>
    <g id="ytick_4">
     <g id="line2d_30">
      <path d="M 354.465424 127.307925 
C 374.180959 127.307925 393.704785 131.191456 411.919565 138.736265 
C 430.134345 146.281073 446.685846 157.340433 460.626834 171.281421 
C 474.567823 185.22241 485.627182 201.773911 493.171991 219.988691 
C 500.7168 238.20347 504.60033 257.727297 504.60033 277.442832 
C 504.60033 297.158367 500.7168 316.682194 493.171991 334.896973 
C 485.627182 353.111753 474.567823 369.663254 460.626834 383.604243 
C 446.685846 397.545231 430.134345 408.604591 411.919565 416.149399 
C 393.704785 423.694208 374.180959 427.577739 354.465424 427.577739 
C 334.749888 427.577739 315.226062 423.694208 297.011282 416.149399 
C 278.796503 408.604591 262.245002 397.545231 248.304013 383.604243 
C 234.363024 369.663254 223.303665 353.111753 215.758856 334.896973 
C 208.214048 316.682194 204.330517 297.158367 204.330517 277.442832 
C 204.330517 257.727297 208.214048 238.20347 215.758856 219.988691 
C 223.303665 201.773911 234.363024 185.22241 248.304013 171.281421 
C 262.245002 157.340433 278.796503 146.281073 297.011282 138.736265 
C 315.226062 131.191456 334.749888 127.307925 354.465424 127.307925 
" clip-path="url(#p572bd0d8e4)" style="fill: none; stroke: #b0b0b0; stroke-width: 0.8; stroke-linecap: square"/>
     </g>
     <g id="text_4">
      <!-- 0.45 -->
      <g style="fill: #808080" transform="translate(354.465424 123.564488) scale(0.18 -0.18)">
       <defs>
        <path id="DejaVuSans-34" d="M 2419 4116 
L 825 1625 
L 2419 1625 
L 2419 4116 
z
M 2253 4666 
L 3047 4666 
L 3047 1625 
L 3713 1625 
L 3713 1100 
L 3047 1100 
L 3047 0 
L 2419 0 
L 2419 1100 
L 313 1100 
L 313 1709 
L 2253 4666 
z
" transform="scale(0.015625)"/>
       </defs>
       <use xlink:href="#DejaVuSans-30"/>
       <use xlink:href="#DejaVuSans-2e" transform="translate(63.623047 0)"/>
       <use xlink:href="#DejaVuSans-34" transform="translate(95.410156 0)"/>
       <use xlink:href="#DejaVuSans-35" transform="translate(159.033203 0)"/>
      </g>
     </g>
    </g>
    <g id="ytick_5">
     <g id="line2d_31">
      <path d="M 354.465424 77.262956 
C 380.752804 77.262956 406.784573 82.440997 431.070945 92.500742 
C 455.357318 102.560487 477.425986 117.3063 496.013971 135.894285 
C 514.601956 154.482269 529.347769 176.550937 539.407513 200.83731 
C 549.467258 225.123683 554.645299 251.155452 554.645299 277.442832 
C 554.645299 303.730212 549.467258 329.761981 539.407513 354.048354 
C 529.347769 378.334727 514.601956 400.403395 496.013971 418.991379 
C 477.425986 437.579364 455.357318 452.325177 431.070945 462.384922 
C 406.784573 472.444667 380.752804 477.622708 354.465424 477.622708 
C 328.178043 477.622708 302.146274 472.444667 277.859902 462.384922 
C 253.573529 452.325177 231.504861 437.579364 212.916876 418.991379 
C 194.328891 400.403395 179.583079 378.334727 169.523334 354.048354 
C 159.463589 329.761981 154.285548 303.730212 154.285548 277.442832 
C 154.285548 251.155452 159.463589 225.123683 169.523334 200.83731 
C 179.583079 176.550937 194.328891 154.482269 212.916876 135.894285 
C 231.504861 117.3063 253.573529 102.560487 277.859902 92.500742 
C 302.146274 82.440997 328.178043 77.262956 354.465424 77.262956 
" clip-path="url(#p572bd0d8e4)" style="fill: none; stroke: #b0b0b0; stroke-width: 0.8; stroke-linecap: square"/>
     </g>
     <g id="text_5">
      <!-- 0.60 -->
      <g style="fill: #808080" transform="translate(354.465424 73.519519) scale(0.18 -0.18)">
       <defs>
        <path id="DejaVuSans-36" d="M 2113 2584 
Q 1688 2584 1439 2293 
Q 1191 2003 1191 1497 
Q 1191 994 1439 701 
Q 1688 409 2113 409 
Q 2538 409 2786 701 
Q 3034 994 3034 1497 
Q 3034 2003 2786 2293 
Q 2538 2584 2113 2584 
z
M 3366 4563 
L 3366 3988 
Q 3128 4100 2886 4159 
Q 2644 4219 2406 4219 
Q 1781 4219 1451 3797 
Q 1122 3375 1075 2522 
Q 1259 2794 1537 2939 
Q 1816 3084 2150 3084 
Q 2853 3084 3261 2657 
Q 3669 2231 3669 1497 
Q 3669 778 3244 343 
Q 2819 -91 2113 -91 
Q 1303 -91 875 529 
Q 447 1150 447 2328 
Q 447 3434 972 4092 
Q 1497 4750 2381 4750 
Q 2619 4750 2861 4703 
Q 3103 4656 3366 4563 
z
" transform="scale(0.015625)"/>
       </defs>
       <use xlink:href="#DejaVuSans-30"/>
       <use xlink:href="#DejaVuSans-2e" transform="translate(63.623047 0)"/>
       <use xlink:href="#DejaVuSans-36" transform="translate(95.410156 0)"/>
       <use xlink:href="#DejaVuSans-30" transform="translate(159.033203 0)"/>
      </g>
     </g>
    </g>
   </g>
   <g id="line2d_32">
    <path d="M 354.465424 106.843854 
L 388.249538 140.375294 
L 437.179778 119.843798 
L 454.345048 164.702042 
L 484.820052 187.465528 
L 540.445328 206.909958 
L 534.494169 255.583385 
L 540.637798 300.048251 
L 530.683608 344.273574 
L 457.678627 348.685763 
L 506.36583 448.902946 
L 439.309008 439.098776 
L 407.576956 492.924791 
L 354.465424 422.157301 
L 306.946204 470.235886 
L 294.950116 390.839776 
L 217.011546 432.596186 
L 162.304959 410.081624 
L 224.042417 326.905754 
L 148.478737 302.454144 
L 229.738381 262.298227 
L 197.597133 217.950537 
L 227.131506 189.550575 
L 263.975727 175.30108 
L 281.695786 138.791871 
L 318.810287 132.784255 
L 354.465424 106.843854 
" clip-path="url(#p572bd0d8e4)" style="fill: none; stroke: #1f77b4; stroke-width: 2; stroke-linecap: square"/>
   </g>
   <g id="patch_29">
    <path d="M 354.465424 106.843854 
L 388.249538 140.375294 
L 437.179778 119.843798 
L 454.345048 164.702042 
L 484.820052 187.465528 
L 540.445328 206.909958 
L 534.494169 255.583385 
L 540.637798 300.048251 
L 530.683608 344.273574 
L 457.678627 348.685763 
L 506.36583 448.902946 
L 439.309008 439.098776 
L 407.576956 492.924791 
L 354.465424 422.157301 
L 306.946204 470.235886 
L 294.950116 390.839776 
L 217.011546 432.596186 
L 162.304959 410.081624 
L 224.042417 326.905754 
L 148.478737 302.454144 
L 229.738381 262.298227 
L 197.597133 217.950537 
L 227.131506 189.550575 
L 263.975727 175.30108 
L 281.695786 138.791871 
L 318.810287 132.784255 
z
" clip-path="url(#p572bd0d8e4)" style="fill: #1f77b4; opacity: 0.25; stroke: #1f77b4; stroke-linejoin: miter"/>
   </g>
   <g id="line2d_33">
    <path d="M 354.465424 184.406478 
L 376.780667 186.906332 
L 411.278451 169.194652 
L 389.204404 238.230629 
L 426.112104 227.988699 
L 431.924244 248.066576 
L 407.097723 271.052114 
L 448.912219 288.910749 
L 381.471813 287.685005 
L 381.621365 296.187225 
L 418.803867 350.065922 
L 389.866257 344.893485 
L 366.887166 327.839824 
L 354.465424 315.15252 
L 330.469131 374.79962 
L 340.262084 304.505035 
L 316.325589 320.493806 
L 269.003832 336.432709 
L 333.566621 285.368702 
L 322.572692 281.315311 
L 344.378537 276.218062 
L 323.999318 265.888562 
L 330.939253 261.203889 
L 353.526426 276.382922 
L 302.273096 177.998659 
L 335.896749 202.106758 
L 354.465424 184.406478 
" clip-path="url(#p572bd0d8e4)" style="fill: none; stroke: #aec7e8; stroke-width: 2; stroke-linecap: square"/>
   </g>
   <g id="patch_30">
    <path d="M 354.465424 184.406478 
L 376.780667 186.906332 
L 411.278451 169.194652 
L 389.204404 238.230629 
L 426.112104 227.988699 
L 431.924244 248.066576 
L 407.097723 271.052114 
L 448.912219 288.910749 
L 381.471813 287.685005 
L 381.621365 296.187225 
L 418.803867 350.065922 
L 389.866257 344.893485 
L 366.887166 327.839824 
L 354.465424 315.15252 
L 330.469131 374.79962 
L 340.262084 304.505035 
L 316.325589 320.493806 
L 269.003832 336.432709 
L 333.566621 285.368702 
L 322.572692 281.315311 
L 344.378537 276.218062 
L 323.999318 265.888562 
L 330.939253 261.203889 
L 353.526426 276.382922 
L 302.273096 177.998659 
L 335.896749 202.106758 
z
" clip-path="url(#p572bd0d8e4)" style="fill: #aec7e8; opacity: 0.25; stroke: #aec7e8; stroke-linejoin: miter"/>
   </g>
   <g id="line2d_34">
    <path d="M 354.465424 164.872677 
L 375.80037 190.88355 
L 423.311057 146.268437 
L 401.724973 224.097828 
L 441.273752 217.523369 
L 479.971172 229.84478 
L 475.252103 262.776674 
L 490.596136 293.972093 
L 437.568891 308.95982 
L 385.280921 298.713234 
L 437.797891 371.505743 
L 400.560894 365.270413 
L 369.849616 339.858954 
L 354.465424 291.848972 
L 326.602474 390.487264 
L 342.648059 299.95894 
L 322.697046 313.301917 
L 222.746099 368.362117 
L 337.857006 283.741574 
L 308.605661 283.011215 
L 353.100946 277.277154 
L 265.403265 243.666011 
L 316.244456 251.060803 
L 354.465424 277.442832 
L 293.145118 160.606751 
L 328.768515 173.186375 
L 354.465424 164.872677 
" clip-path="url(#p572bd0d8e4)" style="fill: none; stroke: #ff7f0e; stroke-width: 2; stroke-linecap: square"/>
   </g>
   <g id="patch_31">
    <path d="M 354.465424 164.872677 
L 375.80037 190.88355 
L 423.311057 146.268437 
L 401.724973 224.097828 
L 441.273752 217.523369 
L 479.971172 229.84478 
L 475.252103 262.776674 
L 490.596136 293.972093 
L 437.568891 308.95982 
L 385.280921 298.713234 
L 437.797891 371.505743 
L 400.560894 365.270413 
L 369.849616 339.858954 
L 354.465424 291.848972 
L 326.602474 390.487264 
L 342.648059 299.95894 
L 322.697046 313.301917 
L 222.746099 368.362117 
L 337.857006 283.741574 
L 308.605661 283.011215 
L 353.100946 277.277154 
L 265.403265 243.666011 
L 316.244456 251.060803 
L 354.465424 277.442832 
L 293.145118 160.606751 
L 328.768515 173.186375 
z
" clip-path="url(#p572bd0d8e4)" style="fill: #ff7f0e; opacity: 0.25; stroke: #ff7f0e; stroke-linejoin: miter"/>
   </g>
   <g id="line2d_35">
    <path d="M 354.465424 109.795844 
L 394.523759 114.919776 
L 435.133977 123.741745 
L 458.216838 160.331694 
L 490.248492 183.718547 
L 510.076276 218.42742 
L 516.281067 257.794856 
L 526.144606 298.288459 
L 468.100017 320.538749 
L 514.380011 387.823902 
L 472.650987 410.846756 
L 428.395029 418.303926 
L 387.390655 411.025747 
L 354.465424 402.897672 
L 313.526809 443.537321 
L 291.963757 396.529808 
L 262.215636 381.571317 
L 215.481593 373.376444 
L 236.105149 322.330963 
L 223.194004 293.382068 
L 232.97486 262.691207 
L 207.969336 221.884195 
L 226.853022 189.358351 
L 275.84747 188.701508 
L 275.232596 126.477292 
L 315.794626 120.54924 
L 354.465424 109.795844 
" clip-path="url(#p572bd0d8e4)" style="fill: none; stroke: #ffbb78; stroke-width: 2; stroke-linecap: square"/>
   </g>
   <g id="patch_32">
    <path d="M 354.465424 109.795844 
L 394.523759 114.919776 
L 435.133977 123.741745 
L 458.216838 160.331694 
L 490.248492 183.718547 
L 510.076276 218.42742 
L 516.281067 257.794856 
L 526.144606 298.288459 
L 468.100017 320.538749 
L 514.380011 387.823902 
L 472.650987 410.846756 
L 428.395029 418.303926 
L 387.390655 411.025747 
L 354.465424 402.897672 
L 313.526809 443.537321 
L 291.963757 396.529808 
L 262.215636 381.571317 
L 215.481593 373.376444 
L 236.105149 322.330963 
L 223.194004 293.382068 
L 232.97486 262.691207 
L 207.969336 221.884195 
L 226.853022 189.358351 
L 275.84747 188.701508 
L 275.232596 126.477292 
L 315.794626 120.54924 
z
" clip-path="url(#p572bd0d8e4)" style="fill: #ffbb78; opacity: 0.25; stroke: #ffbb78; stroke-linejoin: miter"/>
   </g>
   <g id="line2d_36">
    <path d="M 354.465424 177.84571 
L 373.042621 202.072181 
L 405.032119 181.096043 
L 388.676876 238.826085 
L 434.238352 222.379555 
L 478.106619 230.551912 
L 439.188738 267.155559 
L 476.961002 292.316488 
L 354.465424 277.442832 
L 449.77926 343.233223 
L 433.920799 367.129411 
L 394.054022 352.872604 
L 366.180549 324.972963 
L 354.465424 285.162884 
L 329.008203 380.726836 
L 350.395715 285.197015 
L 332.054533 302.739498 
L 226.076649 366.063204 
L 340.311217 282.810814 
L 304.378622 283.524471 
L 353.955103 277.380868 
L 304.618216 258.53828 
L 325.426016 257.398376 
L 354.465424 277.442832 
L 294.020688 162.275011 
L 328.805442 173.336194 
L 354.465424 177.84571 
" clip-path="url(#p572bd0d8e4)" style="fill: none; stroke: #2ca02c; stroke-width: 2; stroke-linecap: square"/>
   </g>
   <g id="patch_33">
    <path d="M 354.465424 177.84571 
L 373.042621 202.072181 
L 405.032119 181.096043 
L 388.676876 238.826085 
L 434.238352 222.379555 
L 478.106619 230.551912 
L 439.188738 267.155559 
L 476.961002 292.316488 
L 354.465424 277.442832 
L 449.77926 343.233223 
L 433.920799 367.129411 
L 394.054022 352.872604 
L 366.180549 324.972963 
L 354.465424 285.162884 
L 329.008203 380.726836 
L 350.395715 285.197015 
L 332.054533 302.739498 
L 226.076649 366.063204 
L 340.311217 282.810814 
L 304.378622 283.524471 
L 353.955103 277.380868 
L 304.618216 258.53828 
L 325.426016 257.398376 
L 354.465424 277.442832 
L 294.020688 162.275011 
L 328.805442 173.336194 
z
" clip-path="url(#p572bd0d8e4)" style="fill: #2ca02c; opacity: 0.25; stroke: #2ca02c; stroke-linejoin: miter"/>
   </g>
   <g id="line2d_37">
    <path d="M 354.465424 120.7078 
L 392.428709 123.419728 
L 430.50109 132.568974 
L 450.222032 169.355966 
L 483.376696 188.461805 
L 499.566707 222.413174 
L 505.240864 259.135379 
L 513.196056 296.71622 
L 463.577637 318.823636 
L 479.390433 363.67234 
L 463.771107 400.823444 
L 422.966472 407.960676 
L 384.153254 397.891093 
L 354.465424 387.820497 
L 316.223091 432.598074 
L 298.113588 384.812283 
L 270.757536 371.929505 
L 223.538504 367.81516 
L 251.187421 316.611012 
L 230.816045 292.456585 
L 247.997617 264.5153 
L 220.301239 226.561068 
L 245.662224 202.341406 
L 289.461751 204.068854 
L 281.935655 139.248904 
L 318.817922 132.815235 
L 354.465424 120.7078 
" clip-path="url(#p572bd0d8e4)" style="fill: none; stroke: #98df8a; stroke-width: 2; stroke-linecap: square"/>
   </g>
   <g id="patch_34">
    <path d="M 354.465424 120.7078 
L 392.428709 123.419728 
L 430.50109 132.568974 
L 450.222032 169.355966 
L 483.376696 188.461805 
L 499.566707 222.413174 
L 505.240864 259.135379 
L 513.196056 296.71622 
L 463.577637 318.823636 
L 479.390433 363.67234 
L 463.771107 400.823444 
L 422.966472 407.960676 
L 384.153254 397.891093 
L 354.465424 387.820497 
L 316.223091 432.598074 
L 298.113588 384.812283 
L 270.757536 371.929505 
L 223.538504 367.81516 
L 251.187421 316.611012 
L 230.816045 292.456585 
L 247.997617 264.5153 
L 220.301239 226.561068 
L 245.662224 202.341406 
L 289.461751 204.068854 
L 281.935655 139.248904 
L 318.817922 132.815235 
z
" clip-path="url(#p572bd0d8e4)" style="fill: #98df8a; opacity: 0.25; stroke: #98df8a; stroke-linejoin: miter"/>
   </g>
   <g id="line2d_38">
    <path d="M 354.465424 154.957977 
L 380.589492 171.453318 
L 413.91103 164.178692 
L 415.139295 208.956189 
L 456.550483 206.978603 
L 472.209562 232.78837 
L 449.981096 265.84513 
L 472.725054 291.802151 
L 490.457202 329.017711 
L 413.662072 318.303328 
L 430.97044 363.799144 
L 380.206351 326.488072 
L 365.745062 323.206123 
L 354.465424 330.648229 
L 328.351933 383.38943 
L 347.726746 290.28231 
L 306.772756 331.276726 
L 256.088822 345.347297 
L 336.214632 284.364444 
L 275.156024 287.072737 
L 323.695426 273.706678 
L 295.880982 255.224684 
L 345.074246 270.96057 
L 347.095587 269.124006 
L 294.071211 162.371273 
L 325.561675 160.175713 
L 354.465424 154.957977 
" clip-path="url(#p572bd0d8e4)" style="fill: none; stroke: #d62728; stroke-width: 2; stroke-linecap: square"/>
   </g>
   <g id="patch_35">
    <path d="M 354.465424 154.957977 
L 380.589492 171.453318 
L 413.91103 164.178692 
L 415.139295 208.956189 
L 456.550483 206.978603 
L 472.209562 232.78837 
L 449.981096 265.84513 
L 472.725054 291.802151 
L 490.457202 329.017711 
L 413.662072 318.303328 
L 430.97044 363.799144 
L 380.206351 326.488072 
L 365.745062 323.206123 
L 354.465424 330.648229 
L 328.351933 383.38943 
L 347.726746 290.28231 
L 306.772756 331.276726 
L 256.088822 345.347297 
L 336.214632 284.364444 
L 275.156024 287.072737 
L 323.695426 273.706678 
L 295.880982 255.224684 
L 345.074246 270.96057 
L 347.095587 269.124006 
L 294.071211 162.371273 
L 325.561675 160.175713 
z
" clip-path="url(#p572bd0d8e4)" style="fill: #d62728; opacity: 0.25; stroke: #d62728; stroke-linejoin: miter"/>
   </g>
   <g id="line2d_39">
    <path d="M 354.465424 116.843489 
L 393.002785 121.09061 
L 433.031564 127.747558 
L 449.20094 170.508539 
L 485.076288 187.288662 
L 501.613273 221.637014 
L 506.727553 258.954862 
L 516.68534 297.139896 
L 490.293562 328.95565 
L 485.920976 368.180049 
L 465.103882 402.327835 
L 421.109202 404.421944 
L 382.044372 389.335024 
L 354.465424 377.428436 
L 315.238539 436.592559 
L 304.742232 372.182459 
L 277.220664 364.634142 
L 222.14201 368.77909 
L 260.754991 312.982511 
L 242.439584 291.045232 
L 261.481662 266.152559 
L 221.169764 226.890456 
L 253.818459 207.971248 
L 296.215743 211.692535 
L 279.411033 134.438638 
L 317.557362 127.700942 
L 354.465424 116.843489 
" clip-path="url(#p572bd0d8e4)" style="fill: none; stroke: #ff9896; stroke-width: 2; stroke-linecap: square"/>
   </g>
   <g id="patch_36">
    <path d="M 354.465424 116.843489 
L 393.002785 121.09061 
L 433.031564 127.747558 
L 449.20094 170.508539 
L 485.076288 187.288662 
L 501.613273 221.637014 
L 506.727553 258.954862 
L 516.68534 297.139896 
L 490.293562 328.95565 
L 485.920976 368.180049 
L 465.103882 402.327835 
L 421.109202 404.421944 
L 382.044372 389.335024 
L 354.465424 377.428436 
L 315.238539 436.592559 
L 304.742232 372.182459 
L 277.220664 364.634142 
L 222.14201 368.77909 
L 260.754991 312.982511 
L 242.439584 291.045232 
L 261.481662 266.152559 
L 221.169764 226.890456 
L 253.818459 207.971248 
L 296.215743 211.692535 
L 279.411033 134.438638 
L 317.557362 127.700942 
z
" clip-path="url(#p572bd0d8e4)" style="fill: #ff9896; opacity: 0.25; stroke: #ff9896; stroke-linejoin: miter"/>
   </g>
   <g id="text_6">
    <!-- 1.1 Cooperative -->
    <g transform="translate(282.634174 32.184863) scale(0.18 -0.18)">
     <defs>
      <path id="DejaVuSans-20" transform="scale(0.015625)"/>
      <path id="DejaVuSans-43" d="M 4122 4306 
L 4122 3641 
Q 3803 3938 3442 4084 
Q 3081 4231 2675 4231 
Q 1875 4231 1450 3742 
Q 1025 3253 1025 2328 
Q 1025 1406 1450 917 
Q 1875 428 2675 428 
Q 3081 428 3442 575 
Q 3803 722 4122 1019 
L 4122 359 
Q 3791 134 3420 21 
Q 3050 -91 2638 -91 
Q 1578 -91 968 557 
Q 359 1206 359 2328 
Q 359 3453 968 4101 
Q 1578 4750 2638 4750 
Q 3056 4750 3426 4639 
Q 3797 4528 4122 4306 
z
" transform="scale(0.015625)"/>
      <path id="DejaVuSans-6f" d="M 1959 3097 
Q 1497 3097 1228 2736 
Q 959 2375 959 1747 
Q 959 1119 1226 758 
Q 1494 397 1959 397 
Q 2419 397 2687 759 
Q 2956 1122 2956 1747 
Q 2956 2369 2687 2733 
Q 2419 3097 1959 3097 
z
M 1959 3584 
Q 2709 3584 3137 3096 
Q 3566 2609 3566 1747 
Q 3566 888 3137 398 
Q 2709 -91 1959 -91 
Q 1206 -91 779 398 
Q 353 888 353 1747 
Q 353 2609 779 3096 
Q 1206 3584 1959 3584 
z
" transform="scale(0.015625)"/>
      <path id="DejaVuSans-70" d="M 1159 525 
L 1159 -1331 
L 581 -1331 
L 581 3500 
L 1159 3500 
L 1159 2969 
Q 1341 3281 1617 3432 
Q 1894 3584 2278 3584 
Q 2916 3584 3314 3078 
Q 3713 2572 3713 1747 
Q 3713 922 3314 415 
Q 2916 -91 2278 -91 
Q 1894 -91 1617 61 
Q 1341 213 1159 525 
z
M 3116 1747 
Q 3116 2381 2855 2742 
Q 2594 3103 2138 3103 
Q 1681 3103 1420 2742 
Q 1159 2381 1159 1747 
Q 1159 1113 1420 752 
Q 1681 391 2138 391 
Q 2594 391 2855 752 
Q 3116 1113 3116 1747 
z
" transform="scale(0.015625)"/>
      <path id="DejaVuSans-65" d="M 3597 1894 
L 3597 1613 
L 953 1613 
Q 991 1019 1311 708 
Q 1631 397 2203 397 
Q 2534 397 2845 478 
Q 3156 559 3463 722 
L 3463 178 
Q 3153 47 2828 -22 
Q 2503 -91 2169 -91 
Q 1331 -91 842 396 
Q 353 884 353 1716 
Q 353 2575 817 3079 
Q 1281 3584 2069 3584 
Q 2775 3584 3186 3129 
Q 3597 2675 3597 1894 
z
M 3022 2063 
Q 3016 2534 2758 2815 
Q 2500 3097 2075 3097 
Q 1594 3097 1305 2825 
Q 1016 2553 972 2059 
L 3022 2063 
z
" transform="scale(0.015625)"/>
      <path id="DejaVuSans-72" d="M 2631 2963 
Q 2534 3019 2420 3045 
Q 2306 3072 2169 3072 
Q 1681 3072 1420 2755 
Q 1159 2438 1159 1844 
L 1159 0 
L 581 0 
L 581 3500 
L 1159 3500 
L 1159 2956 
Q 1341 3275 1631 3429 
Q 1922 3584 2338 3584 
Q 2397 3584 2469 3576 
Q 2541 3569 2628 3553 
L 2631 2963 
z
" transform="scale(0.015625)"/>
      <path id="DejaVuSans-61" d="M 2194 1759 
Q 1497 1759 1228 1600 
Q 959 1441 959 1056 
Q 959 750 1161 570 
Q 1363 391 1709 391 
Q 2188 391 2477 730 
Q 2766 1069 2766 1631 
L 2766 1759 
L 2194 1759 
z
M 3341 1997 
L 3341 0 
L 2766 0 
L 2766 531 
Q 2569 213 2275 61 
Q 1981 -91 1556 -91 
Q 1019 -91 701 211 
Q 384 513 384 1019 
Q 384 1609 779 1909 
Q 1175 2209 1959 2209 
L 2766 2209 
L 2766 2266 
Q 2766 2663 2505 2880 
Q 2244 3097 1772 3097 
Q 1472 3097 1187 3025 
Q 903 2953 641 2809 
L 641 3341 
Q 956 3463 1253 3523 
Q 1550 3584 1831 3584 
Q 2591 3584 2966 3190 
Q 3341 2797 3341 1997 
z
" transform="scale(0.015625)"/>
      <path id="DejaVuSans-74" d="M 1172 4494 
L 1172 3500 
L 2356 3500 
L 2356 3053 
L 1172 3053 
L 1172 1153 
Q 1172 725 1289 603 
Q 1406 481 1766 481 
L 2356 481 
L 2356 0 
L 1766 0 
Q 1100 0 847 248 
Q 594 497 594 1153 
L 594 3053 
L 172 3053 
L 172 3500 
L 594 3500 
L 594 4494 
L 1172 4494 
z
" transform="scale(0.015625)"/>
      <path id="DejaVuSans-69" d="M 603 3500 
L 1178 3500 
L 1178 0 
L 603 0 
L 603 3500 
z
M 603 4863 
L 1178 4863 
L 1178 4134 
L 603 4134 
L 603 4863 
z
" transform="scale(0.015625)"/>
      <path id="DejaVuSans-76" d="M 191 3500 
L 800 3500 
L 1894 563 
L 2988 3500 
L 3597 3500 
L 2284 0 
L 1503 0 
L 191 3500 
z
" transform="scale(0.015625)"/>
     </defs>
     <use xlink:href="#DejaVuSans-31"/>
     <use xlink:href="#DejaVuSans-2e" transform="translate(63.623047 0)"/>
     <use xlink:href="#DejaVuSans-31" transform="translate(95.410156 0)"/>
     <use xlink:href="#DejaVuSans-20" transform="translate(159.033203 0)"/>
     <use xlink:href="#DejaVuSans-43" transform="translate(190.820312 0)"/>
     <use xlink:href="#DejaVuSans-6f" transform="translate(260.644531 0)"/>
     <use xlink:href="#DejaVuSans-6f" transform="translate(321.826172 0)"/>
     <use xlink:href="#DejaVuSans-70" transform="translate(383.007812 0)"/>
     <use xlink:href="#DejaVuSans-65" transform="translate(446.484375 0)"/>
     <use xlink:href="#DejaVuSans-72" transform="translate(508.007812 0)"/>
     <use xlink:href="#DejaVuSans-61" transform="translate(549.121094 0)"/>
     <use xlink:href="#DejaVuSans-74" transform="translate(610.400391 0)"/>
     <use xlink:href="#DejaVuSans-69" transform="translate(649.609375 0)"/>
     <use xlink:href="#DejaVuSans-76" transform="translate(677.392578 0)"/>
     <use xlink:href="#DejaVuSans-65" transform="translate(736.572266 0)"/>
    </g>
   </g>
   <g id="text_7">
    <!-- 1.2 Competitive -->
    <g transform="translate(342.443773 39.455942) scale(0.18 -0.18)">
     <defs>
      <path id="DejaVuSans-32" d="M 1228 531 
L 3431 531 
L 3431 0 
L 469 0 
L 469 531 
Q 828 903 1448 1529 
Q 2069 2156 2228 2338 
Q 2531 2678 2651 2914 
Q 2772 3150 2772 3378 
Q 2772 3750 2511 3984 
Q 2250 4219 1831 4219 
Q 1534 4219 1204 4116 
Q 875 4013 500 3803 
L 500 4441 
Q 881 4594 1212 4672 
Q 1544 4750 1819 4750 
Q 2544 4750 2975 4387 
Q 3406 4025 3406 3419 
Q 3406 3131 3298 2873 
Q 3191 2616 2906 2266 
Q 2828 2175 2409 1742 
Q 1991 1309 1228 531 
z
" transform="scale(0.015625)"/>
      <path id="DejaVuSans-6d" d="M 3328 2828 
Q 3544 3216 3844 3400 
Q 4144 3584 4550 3584 
Q 5097 3584 5394 3201 
Q 5691 2819 5691 2113 
L 5691 0 
L 5113 0 
L 5113 2094 
Q 5113 2597 4934 2840 
Q 4756 3084 4391 3084 
Q 3944 3084 3684 2787 
Q 3425 2491 3425 1978 
L 3425 0 
L 2847 0 
L 2847 2094 
Q 2847 2600 2669 2842 
Q 2491 3084 2119 3084 
Q 1678 3084 1418 2786 
Q 1159 2488 1159 1978 
L 1159 0 
L 581 0 
L 581 3500 
L 1159 3500 
L 1159 2956 
Q 1356 3278 1631 3431 
Q 1906 3584 2284 3584 
Q 2666 3584 2933 3390 
Q 3200 3197 3328 2828 
z
" transform="scale(0.015625)"/>
     </defs>
     <use xlink:href="#DejaVuSans-31"/>
     <use xlink:href="#DejaVuSans-2e" transform="translate(63.623047 0)"/>
     <use xlink:href="#DejaVuSans-32" transform="translate(95.410156 0)"/>
     <use xlink:href="#DejaVuSans-20" transform="translate(159.033203 0)"/>
     <use xlink:href="#DejaVuSans-43" transform="translate(190.820312 0)"/>
     <use xlink:href="#DejaVuSans-6f" transform="translate(260.644531 0)"/>
     <use xlink:href="#DejaVuSans-6d" transform="translate(321.826172 0)"/>
     <use xlink:href="#DejaVuSans-70" transform="translate(419.238281 0)"/>
     <use xlink:href="#DejaVuSans-65" transform="translate(482.714844 0)"/>
     <use xlink:href="#DejaVuSans-74" transform="translate(544.238281 0)"/>
     <use xlink:href="#DejaVuSans-69" transform="translate(583.447266 0)"/>
     <use xlink:href="#DejaVuSans-74" transform="translate(611.230469 0)"/>
     <use xlink:href="#DejaVuSans-69" transform="translate(650.439453 0)"/>
     <use xlink:href="#DejaVuSans-76" transform="translate(678.222656 0)"/>
     <use xlink:href="#DejaVuSans-65" transform="translate(737.402344 0)"/>
    </g>
   </g>
   <g id="text_8">
    <!-- 1.3 Affective -->
    <g transform="translate(414.03102 60.846611) scale(0.18 -0.18)">
     <defs>
      <path id="DejaVuSans-41" d="M 2188 4044 
L 1331 1722 
L 3047 1722 
L 2188 4044 
z
M 1831 4666 
L 2547 4666 
L 4325 0 
L 3669 0 
L 3244 1197 
L 1141 1197 
L 716 0 
L 50 0 
L 1831 4666 
z
" transform="scale(0.015625)"/>
      <path id="DejaVuSans-66" d="M 2375 4863 
L 2375 4384 
L 1825 4384 
Q 1516 4384 1395 4259 
Q 1275 4134 1275 3809 
L 1275 3500 
L 2222 3500 
L 2222 3053 
L 1275 3053 
L 1275 0 
L 697 0 
L 697 3053 
L 147 3053 
L 147 3500 
L 697 3500 
L 697 3744 
Q 697 4328 969 4595 
Q 1241 4863 1831 4863 
L 2375 4863 
z
" transform="scale(0.015625)"/>
      <path id="DejaVuSans-63" d="M 3122 3366 
L 3122 2828 
Q 2878 2963 2633 3030 
Q 2388 3097 2138 3097 
Q 1578 3097 1268 2742 
Q 959 2388 959 1747 
Q 959 1106 1268 751 
Q 1578 397 2138 397 
Q 2388 397 2633 464 
Q 2878 531 3122 666 
L 3122 134 
Q 2881 22 2623 -34 
Q 2366 -91 2075 -91 
Q 1284 -91 818 406 
Q 353 903 353 1747 
Q 353 2603 823 3093 
Q 1294 3584 2113 3584 
Q 2378 3584 2631 3529 
Q 2884 3475 3122 3366 
z
" transform="scale(0.015625)"/>
     </defs>
     <use xlink:href="#DejaVuSans-31"/>
     <use xlink:href="#DejaVuSans-2e" transform="translate(63.623047 0)"/>
     <use xlink:href="#DejaVuSans-33" transform="translate(95.410156 0)"/>
     <use xlink:href="#DejaVuSans-20" transform="translate(159.033203 0)"/>
     <use xlink:href="#DejaVuSans-41" transform="translate(190.820312 0)"/>
     <use xlink:href="#DejaVuSans-66" transform="translate(255.603516 0)"/>
     <use xlink:href="#DejaVuSans-66" transform="translate(290.808594 0)"/>
     <use xlink:href="#DejaVuSans-65" transform="translate(326.013672 0)"/>
     <use xlink:href="#DejaVuSans-63" transform="translate(387.537109 0)"/>
     <use xlink:href="#DejaVuSans-74" transform="translate(442.517578 0)"/>
     <use xlink:href="#DejaVuSans-69" transform="translate(481.726562 0)"/>
     <use xlink:href="#DejaVuSans-76" transform="translate(509.509766 0)"/>
     <use xlink:href="#DejaVuSans-65" transform="translate(568.689453 0)"/>
    </g>
   </g>
   <g id="text_9">
    <!-- 1.4 Proximity -->
    <g transform="translate(461.280656 95.113721) scale(0.18 -0.18)">
     <defs>
      <path id="DejaVuSans-50" d="M 1259 4147 
L 1259 2394 
L 2053 2394 
Q 2494 2394 2734 2622 
Q 2975 2850 2975 3272 
Q 2975 3691 2734 3919 
Q 2494 4147 2053 4147 
L 1259 4147 
z
M 628 4666 
L 2053 4666 
Q 2838 4666 3239 4311 
Q 3641 3956 3641 3272 
Q 3641 2581 3239 2228 
Q 2838 1875 2053 1875 
L 1259 1875 
L 1259 0 
L 628 0 
L 628 4666 
z
" transform="scale(0.015625)"/>
      <path id="DejaVuSans-78" d="M 3513 3500 
L 2247 1797 
L 3578 0 
L 2900 0 
L 1881 1375 
L 863 0 
L 184 0 
L 1544 1831 
L 300 3500 
L 978 3500 
L 1906 2253 
L 2834 3500 
L 3513 3500 
z
" transform="scale(0.015625)"/>
      <path id="DejaVuSans-79" d="M 2059 -325 
Q 1816 -950 1584 -1140 
Q 1353 -1331 966 -1331 
L 506 -1331 
L 506 -850 
L 844 -850 
Q 1081 -850 1212 -737 
Q 1344 -625 1503 -206 
L 1606 56 
L 191 3500 
L 800 3500 
L 1894 763 
L 2988 3500 
L 3597 3500 
L 2059 -325 
z
" transform="scale(0.015625)"/>
     </defs>
     <use xlink:href="#DejaVuSans-31"/>
     <use xlink:href="#DejaVuSans-2e" transform="translate(63.623047 0)"/>
     <use xlink:href="#DejaVuSans-34" transform="translate(95.410156 0)"/>
     <use xlink:href="#DejaVuSans-20" transform="translate(159.033203 0)"/>
     <use xlink:href="#DejaVuSans-50" transform="translate(190.820312 0)"/>
     <use xlink:href="#DejaVuSans-72" transform="translate(249.373047 0)"/>
     <use xlink:href="#DejaVuSans-6f" transform="translate(288.236328 0)"/>
     <use xlink:href="#DejaVuSans-78" transform="translate(346.292969 0)"/>
     <use xlink:href="#DejaVuSans-69" transform="translate(405.472656 0)"/>
     <use xlink:href="#DejaVuSans-6d" transform="translate(433.255859 0)"/>
     <use xlink:href="#DejaVuSans-69" transform="translate(530.667969 0)"/>
     <use xlink:href="#DejaVuSans-74" transform="translate(558.451172 0)"/>
     <use xlink:href="#DejaVuSans-79" transform="translate(597.660156 0)"/>
    </g>
   </g>
   <g id="text_10">
    <!-- 1.5 Observation -->
    <g transform="translate(488.417527 140.265794) scale(0.18 -0.18)">
     <defs>
      <path id="DejaVuSans-4f" d="M 2522 4238 
Q 1834 4238 1429 3725 
Q 1025 3213 1025 2328 
Q 1025 1447 1429 934 
Q 1834 422 2522 422 
Q 3209 422 3611 934 
Q 4013 1447 4013 2328 
Q 4013 3213 3611 3725 
Q 3209 4238 2522 4238 
z
M 2522 4750 
Q 3503 4750 4090 4092 
Q 4678 3434 4678 2328 
Q 4678 1225 4090 567 
Q 3503 -91 2522 -91 
Q 1538 -91 948 565 
Q 359 1222 359 2328 
Q 359 3434 948 4092 
Q 1538 4750 2522 4750 
z
" transform="scale(0.015625)"/>
      <path id="DejaVuSans-62" d="M 3116 1747 
Q 3116 2381 2855 2742 
Q 2594 3103 2138 3103 
Q 1681 3103 1420 2742 
Q 1159 2381 1159 1747 
Q 1159 1113 1420 752 
Q 1681 391 2138 391 
Q 2594 391 2855 752 
Q 3116 1113 3116 1747 
z
M 1159 2969 
Q 1341 3281 1617 3432 
Q 1894 3584 2278 3584 
Q 2916 3584 3314 3078 
Q 3713 2572 3713 1747 
Q 3713 922 3314 415 
Q 2916 -91 2278 -91 
Q 1894 -91 1617 61 
Q 1341 213 1159 525 
L 1159 0 
L 581 0 
L 581 4863 
L 1159 4863 
L 1159 2969 
z
" transform="scale(0.015625)"/>
      <path id="DejaVuSans-73" d="M 2834 3397 
L 2834 2853 
Q 2591 2978 2328 3040 
Q 2066 3103 1784 3103 
Q 1356 3103 1142 2972 
Q 928 2841 928 2578 
Q 928 2378 1081 2264 
Q 1234 2150 1697 2047 
L 1894 2003 
Q 2506 1872 2764 1633 
Q 3022 1394 3022 966 
Q 3022 478 2636 193 
Q 2250 -91 1575 -91 
Q 1294 -91 989 -36 
Q 684 19 347 128 
L 347 722 
Q 666 556 975 473 
Q 1284 391 1588 391 
Q 1994 391 2212 530 
Q 2431 669 2431 922 
Q 2431 1156 2273 1281 
Q 2116 1406 1581 1522 
L 1381 1569 
Q 847 1681 609 1914 
Q 372 2147 372 2553 
Q 372 3047 722 3315 
Q 1072 3584 1716 3584 
Q 2034 3584 2315 3537 
Q 2597 3491 2834 3397 
z
" transform="scale(0.015625)"/>
      <path id="DejaVuSans-6e" d="M 3513 2113 
L 3513 0 
L 2938 0 
L 2938 2094 
Q 2938 2591 2744 2837 
Q 2550 3084 2163 3084 
Q 1697 3084 1428 2787 
Q 1159 2491 1159 1978 
L 1159 0 
L 581 0 
L 581 3500 
L 1159 3500 
L 1159 2956 
Q 1366 3272 1645 3428 
Q 1925 3584 2291 3584 
Q 2894 3584 3203 3211 
Q 3513 2838 3513 2113 
z
" transform="scale(0.015625)"/>
     </defs>
     <use xlink:href="#DejaVuSans-31"/>
     <use xlink:href="#DejaVuSans-2e" transform="translate(63.623047 0)"/>
     <use xlink:href="#DejaVuSans-35" transform="translate(95.410156 0)"/>
     <use xlink:href="#DejaVuSans-20" transform="translate(159.033203 0)"/>
     <use xlink:href="#DejaVuSans-4f" transform="translate(190.820312 0)"/>
     <use xlink:href="#DejaVuSans-62" transform="translate(269.53125 0)"/>
     <use xlink:href="#DejaVuSans-73" transform="translate(333.007812 0)"/>
     <use xlink:href="#DejaVuSans-65" transform="translate(385.107422 0)"/>
     <use xlink:href="#DejaVuSans-72" transform="translate(446.630859 0)"/>
     <use xlink:href="#DejaVuSans-76" transform="translate(487.744141 0)"/>
     <use xlink:href="#DejaVuSans-61" transform="translate(546.923828 0)"/>
     <use xlink:href="#DejaVuSans-74" transform="translate(608.203125 0)"/>
     <use xlink:href="#DejaVuSans-69" transform="translate(647.412109 0)"/>
     <use xlink:href="#DejaVuSans-6f" transform="translate(675.195312 0)"/>
     <use xlink:href="#DejaVuSans-6e" transform="translate(736.376953 0)"/>
    </g>
   </g>
   <g id="text_11">
    <!-- 2.1 Active Manipulation -->
    <g transform="translate(482.398468 193.678754) scale(0.18 -0.18)">
     <defs>
      <path id="DejaVuSans-4d" d="M 628 4666 
L 1569 4666 
L 2759 1491 
L 3956 4666 
L 4897 4666 
L 4897 0 
L 4281 0 
L 4281 4097 
L 3078 897 
L 2444 897 
L 1241 4097 
L 1241 0 
L 628 0 
L 628 4666 
z
" transform="scale(0.015625)"/>
      <path id="DejaVuSans-75" d="M 544 1381 
L 544 3500 
L 1119 3500 
L 1119 1403 
Q 1119 906 1312 657 
Q 1506 409 1894 409 
Q 2359 409 2629 706 
Q 2900 1003 2900 1516 
L 2900 3500 
L 3475 3500 
L 3475 0 
L 2900 0 
L 2900 538 
Q 2691 219 2414 64 
Q 2138 -91 1772 -91 
Q 1169 -91 856 284 
Q 544 659 544 1381 
z
M 1991 3584 
L 1991 3584 
z
" transform="scale(0.015625)"/>
      <path id="DejaVuSans-6c" d="M 603 4863 
L 1178 4863 
L 1178 0 
L 603 0 
L 603 4863 
z
" transform="scale(0.015625)"/>
     </defs>
     <use xlink:href="#DejaVuSans-32"/>
     <use xlink:href="#DejaVuSans-2e" transform="translate(63.623047 0)"/>
     <use xlink:href="#DejaVuSans-31" transform="translate(95.410156 0)"/>
     <use xlink:href="#DejaVuSans-20" transform="translate(159.033203 0)"/>
     <use xlink:href="#DejaVuSans-41" transform="translate(190.820312 0)"/>
     <use xlink:href="#DejaVuSans-63" transform="translate(257.478516 0)"/>
     <use xlink:href="#DejaVuSans-74" transform="translate(312.458984 0)"/>
     <use xlink:href="#DejaVuSans-69" transform="translate(351.667969 0)"/>
     <use xlink:href="#DejaVuSans-76" transform="translate(379.451172 0)"/>
     <use xlink:href="#DejaVuSans-65" transform="translate(438.630859 0)"/>
     <use xlink:href="#DejaVuSans-20" transform="translate(500.154297 0)"/>
     <use xlink:href="#DejaVuSans-4d" transform="translate(531.941406 0)"/>
     <use xlink:href="#DejaVuSans-61" transform="translate(618.220703 0)"/>
     <use xlink:href="#DejaVuSans-6e" transform="translate(679.5 0)"/>
     <use xlink:href="#DejaVuSans-69" transform="translate(742.878906 0)"/>
     <use xlink:href="#DejaVuSans-70" transform="translate(770.662109 0)"/>
     <use xlink:href="#DejaVuSans-75" transform="translate(834.138672 0)"/>
     <use xlink:href="#DejaVuSans-6c" transform="translate(897.517578 0)"/>
     <use xlink:href="#DejaVuSans-61" transform="translate(925.300781 0)"/>
     <use xlink:href="#DejaVuSans-74" transform="translate(986.580078 0)"/>
     <use xlink:href="#DejaVuSans-69" transform="translate(1025.789062 0)"/>
     <use xlink:href="#DejaVuSans-6f" transform="translate(1053.572266 0)"/>
     <use xlink:href="#DejaVuSans-6e" transform="translate(1114.753906 0)"/>
    </g>
   </g>
   <g id="text_12">
    <!-- 2.2 Proximity -->
    <g transform="translate(543.751316 252.248435) scale(0.18 -0.18)">
     <use xlink:href="#DejaVuSans-32"/>
     <use xlink:href="#DejaVuSans-2e" transform="translate(63.623047 0)"/>
     <use xlink:href="#DejaVuSans-32" transform="translate(95.410156 0)"/>
     <use xlink:href="#DejaVuSans-20" transform="translate(159.033203 0)"/>
     <use xlink:href="#DejaVuSans-50" transform="translate(190.820312 0)"/>
     <use xlink:href="#DejaVuSans-72" transform="translate(249.373047 0)"/>
     <use xlink:href="#DejaVuSans-6f" transform="translate(288.236328 0)"/>
     <use xlink:href="#DejaVuSans-78" transform="translate(346.292969 0)"/>
     <use xlink:href="#DejaVuSans-69" transform="translate(405.472656 0)"/>
     <use xlink:href="#DejaVuSans-6d" transform="translate(433.255859 0)"/>
     <use xlink:href="#DejaVuSans-69" transform="translate(530.667969 0)"/>
     <use xlink:href="#DejaVuSans-74" transform="translate(558.451172 0)"/>
     <use xlink:href="#DejaVuSans-79" transform="translate(597.660156 0)"/>
    </g>
   </g>
   <g id="text_13">
    <!-- 2.3 Passive -->
    <g transform="translate(552.413816 312.570979) scale(0.18 -0.18)">
     <use xlink:href="#DejaVuSans-32"/>
     <use xlink:href="#DejaVuSans-2e" transform="translate(63.623047 0)"/>
     <use xlink:href="#DejaVuSans-33" transform="translate(95.410156 0)"/>
     <use xlink:href="#DejaVuSans-20" transform="translate(159.033203 0)"/>
     <use xlink:href="#DejaVuSans-50" transform="translate(190.820312 0)"/>
     <use xlink:href="#DejaVuSans-61" transform="translate(246.623047 0)"/>
     <use xlink:href="#DejaVuSans-73" transform="translate(307.902344 0)"/>
     <use xlink:href="#DejaVuSans-73" transform="translate(360.001953 0)"/>
     <use xlink:href="#DejaVuSans-69" transform="translate(412.101562 0)"/>
     <use xlink:href="#DejaVuSans-76" transform="translate(439.884766 0)"/>
     <use xlink:href="#DejaVuSans-65" transform="translate(499.064453 0)"/>
    </g>
   </g>
   <g id="text_14">
    <!-- 2.4 Proximity -->
    <g transform="translate(529.315186 371.14066) scale(0.18 -0.18)">
     <use xlink:href="#DejaVuSans-32"/>
     <use xlink:href="#DejaVuSans-2e" transform="translate(63.623047 0)"/>
     <use xlink:href="#DejaVuSans-34" transform="translate(95.410156 0)"/>
     <use xlink:href="#DejaVuSans-20" transform="translate(159.033203 0)"/>
     <use xlink:href="#DejaVuSans-50" transform="translate(190.820312 0)"/>
     <use xlink:href="#DejaVuSans-72" transform="translate(249.373047 0)"/>
     <use xlink:href="#DejaVuSans-6f" transform="translate(288.236328 0)"/>
     <use xlink:href="#DejaVuSans-78" transform="translate(346.292969 0)"/>
     <use xlink:href="#DejaVuSans-69" transform="translate(405.472656 0)"/>
     <use xlink:href="#DejaVuSans-6d" transform="translate(433.255859 0)"/>
     <use xlink:href="#DejaVuSans-69" transform="translate(530.667969 0)"/>
     <use xlink:href="#DejaVuSans-74" transform="translate(558.451172 0)"/>
     <use xlink:href="#DejaVuSans-79" transform="translate(597.660156 0)"/>
    </g>
   </g>
   <g id="text_15">
    <!-- 2.5 Observation -->
    <g transform="translate(488.417527 424.55362) scale(0.18 -0.18)">
     <use xlink:href="#DejaVuSans-32"/>
     <use xlink:href="#DejaVuSans-2e" transform="translate(63.623047 0)"/>
     <use xlink:href="#DejaVuSans-35" transform="translate(95.410156 0)"/>
     <use xlink:href="#DejaVuSans-20" transform="translate(159.033203 0)"/>
     <use xlink:href="#DejaVuSans-4f" transform="translate(190.820312 0)"/>
     <use xlink:href="#DejaVuSans-62" transform="translate(269.53125 0)"/>
     <use xlink:href="#DejaVuSans-73" transform="translate(333.007812 0)"/>
     <use xlink:href="#DejaVuSans-65" transform="translate(385.107422 0)"/>
     <use xlink:href="#DejaVuSans-72" transform="translate(446.630859 0)"/>
     <use xlink:href="#DejaVuSans-76" transform="translate(487.744141 0)"/>
     <use xlink:href="#DejaVuSans-61" transform="translate(546.923828 0)"/>
     <use xlink:href="#DejaVuSans-74" transform="translate(608.203125 0)"/>
     <use xlink:href="#DejaVuSans-69" transform="translate(647.412109 0)"/>
     <use xlink:href="#DejaVuSans-6f" transform="translate(675.195312 0)"/>
     <use xlink:href="#DejaVuSans-6e" transform="translate(736.376953 0)"/>
    </g>
   </g>
   <g id="text_16">
    <!-- 3.1 Direct Interaction -->
    <g transform="translate(424.591594 469.705693) scale(0.18 -0.18)">
     <defs>
      <path id="DejaVuSans-44" d="M 1259 4147 
L 1259 519 
L 2022 519 
Q 2988 519 3436 956 
Q 3884 1394 3884 2338 
Q 3884 3275 3436 3711 
Q 2988 4147 2022 4147 
L 1259 4147 
z
M 628 4666 
L 1925 4666 
Q 3281 4666 3915 4102 
Q 4550 3538 4550 2338 
Q 4550 1131 3912 565 
Q 3275 0 1925 0 
L 628 0 
L 628 4666 
z
" transform="scale(0.015625)"/>
      <path id="DejaVuSans-49" d="M 628 4666 
L 1259 4666 
L 1259 0 
L 628 0 
L 628 4666 
z
" transform="scale(0.015625)"/>
     </defs>
     <use xlink:href="#DejaVuSans-33"/>
     <use xlink:href="#DejaVuSans-2e" transform="translate(63.623047 0)"/>
     <use xlink:href="#DejaVuSans-31" transform="translate(95.410156 0)"/>
     <use xlink:href="#DejaVuSans-20" transform="translate(159.033203 0)"/>
     <use xlink:href="#DejaVuSans-44" transform="translate(190.820312 0)"/>
     <use xlink:href="#DejaVuSans-69" transform="translate(267.822266 0)"/>
     <use xlink:href="#DejaVuSans-72" transform="translate(295.605469 0)"/>
     <use xlink:href="#DejaVuSans-65" transform="translate(334.46875 0)"/>
     <use xlink:href="#DejaVuSans-63" transform="translate(395.992188 0)"/>
     <use xlink:href="#DejaVuSans-74" transform="translate(450.972656 0)"/>
     <use xlink:href="#DejaVuSans-20" transform="translate(490.181641 0)"/>
     <use xlink:href="#DejaVuSans-49" transform="translate(521.96875 0)"/>
     <use xlink:href="#DejaVuSans-6e" transform="translate(551.460938 0)"/>
     <use xlink:href="#DejaVuSans-74" transform="translate(614.839844 0)"/>
     <use xlink:href="#DejaVuSans-65" transform="translate(654.048828 0)"/>
     <use xlink:href="#DejaVuSans-72" transform="translate(715.572266 0)"/>
     <use xlink:href="#DejaVuSans-61" transform="translate(756.685547 0)"/>
     <use xlink:href="#DejaVuSans-63" transform="translate(817.964844 0)"/>
     <use xlink:href="#DejaVuSans-74" transform="translate(872.945312 0)"/>
     <use xlink:href="#DejaVuSans-69" transform="translate(912.154297 0)"/>
     <use xlink:href="#DejaVuSans-6f" transform="translate(939.9375 0)"/>
     <use xlink:href="#DejaVuSans-6e" transform="translate(1001.119141 0)"/>
    </g>
   </g>
   <g id="text_17">
    <!-- 3.2 Observation -->
    <g transform="translate(398.771801 503.972803) scale(0.18 -0.18)">
     <use xlink:href="#DejaVuSans-33"/>
     <use xlink:href="#DejaVuSans-2e" transform="translate(63.623047 0)"/>
     <use xlink:href="#DejaVuSans-32" transform="translate(95.410156 0)"/>
     <use xlink:href="#DejaVuSans-20" transform="translate(159.033203 0)"/>
     <use xlink:href="#DejaVuSans-4f" transform="translate(190.820312 0)"/>
     <use xlink:href="#DejaVuSans-62" transform="translate(269.53125 0)"/>
     <use xlink:href="#DejaVuSans-73" transform="translate(333.007812 0)"/>
     <use xlink:href="#DejaVuSans-65" transform="translate(385.107422 0)"/>
     <use xlink:href="#DejaVuSans-72" transform="translate(446.630859 0)"/>
     <use xlink:href="#DejaVuSans-76" transform="translate(487.744141 0)"/>
     <use xlink:href="#DejaVuSans-61" transform="translate(546.923828 0)"/>
     <use xlink:href="#DejaVuSans-74" transform="translate(608.203125 0)"/>
     <use xlink:href="#DejaVuSans-69" transform="translate(647.412109 0)"/>
     <use xlink:href="#DejaVuSans-6f" transform="translate(675.195312 0)"/>
     <use xlink:href="#DejaVuSans-6e" transform="translate(736.376953 0)"/>
    </g>
   </g>
   <g id="text_18">
    <!-- 3.3 Proximity -->
    <g transform="translate(355.233617 525.363472) scale(0.18 -0.18)">
     <use xlink:href="#DejaVuSans-33"/>
     <use xlink:href="#DejaVuSans-2e" transform="translate(63.623047 0)"/>
     <use xlink:href="#DejaVuSans-33" transform="translate(95.410156 0)"/>
     <use xlink:href="#DejaVuSans-20" transform="translate(159.033203 0)"/>
     <use xlink:href="#DejaVuSans-50" transform="translate(190.820312 0)"/>
     <use xlink:href="#DejaVuSans-72" transform="translate(249.373047 0)"/>
     <use xlink:href="#DejaVuSans-6f" transform="translate(288.236328 0)"/>
     <use xlink:href="#DejaVuSans-78" transform="translate(346.292969 0)"/>
     <use xlink:href="#DejaVuSans-69" transform="translate(405.472656 0)"/>
     <use xlink:href="#DejaVuSans-6d" transform="translate(433.255859 0)"/>
     <use xlink:href="#DejaVuSans-69" transform="translate(530.667969 0)"/>
     <use xlink:href="#DejaVuSans-74" transform="translate(558.451172 0)"/>
     <use xlink:href="#DejaVuSans-79" transform="translate(597.660156 0)"/>
    </g>
   </g>
   <g id="text_19">
    <!-- 4.1 Proximity -->
    <g transform="translate(295.350892 532.634551) scale(0.18 -0.18)">
     <use xlink:href="#DejaVuSans-34"/>
     <use xlink:href="#DejaVuSans-2e" transform="translate(63.623047 0)"/>
     <use xlink:href="#DejaVuSans-31" transform="translate(95.410156 0)"/>
     <use xlink:href="#DejaVuSans-20" transform="translate(159.033203 0)"/>
     <use xlink:href="#DejaVuSans-50" transform="translate(190.820312 0)"/>
     <use xlink:href="#DejaVuSans-72" transform="translate(249.373047 0)"/>
     <use xlink:href="#DejaVuSans-6f" transform="translate(288.236328 0)"/>
     <use xlink:href="#DejaVuSans-78" transform="translate(346.292969 0)"/>
     <use xlink:href="#DejaVuSans-69" transform="translate(405.472656 0)"/>
     <use xlink:href="#DejaVuSans-6d" transform="translate(433.255859 0)"/>
     <use xlink:href="#DejaVuSans-69" transform="translate(530.667969 0)"/>
     <use xlink:href="#DejaVuSans-74" transform="translate(558.451172 0)"/>
     <use xlink:href="#DejaVuSans-79" transform="translate(597.660156 0)"/>
    </g>
   </g>
   <g id="text_20">
    <!-- 4.2 Antagonistic -->
    <g transform="translate(221.415511 525.363472) scale(0.18 -0.18)">
     <defs>
      <path id="DejaVuSans-67" d="M 2906 1791 
Q 2906 2416 2648 2759 
Q 2391 3103 1925 3103 
Q 1463 3103 1205 2759 
Q 947 2416 947 1791 
Q 947 1169 1205 825 
Q 1463 481 1925 481 
Q 2391 481 2648 825 
Q 2906 1169 2906 1791 
z
M 3481 434 
Q 3481 -459 3084 -895 
Q 2688 -1331 1869 -1331 
Q 1566 -1331 1297 -1286 
Q 1028 -1241 775 -1147 
L 775 -588 
Q 1028 -725 1275 -790 
Q 1522 -856 1778 -856 
Q 2344 -856 2625 -561 
Q 2906 -266 2906 331 
L 2906 616 
Q 2728 306 2450 153 
Q 2172 0 1784 0 
Q 1141 0 747 490 
Q 353 981 353 1791 
Q 353 2603 747 3093 
Q 1141 3584 1784 3584 
Q 2172 3584 2450 3431 
Q 2728 3278 2906 2969 
L 2906 3500 
L 3481 3500 
L 3481 434 
z
" transform="scale(0.015625)"/>
     </defs>
     <use xlink:href="#DejaVuSans-34"/>
     <use xlink:href="#DejaVuSans-2e" transform="translate(63.623047 0)"/>
     <use xlink:href="#DejaVuSans-32" transform="translate(95.410156 0)"/>
     <use xlink:href="#DejaVuSans-20" transform="translate(159.033203 0)"/>
     <use xlink:href="#DejaVuSans-41" transform="translate(190.820312 0)"/>
     <use xlink:href="#DejaVuSans-6e" transform="translate(259.228516 0)"/>
     <use xlink:href="#DejaVuSans-74" transform="translate(322.607422 0)"/>
     <use xlink:href="#DejaVuSans-61" transform="translate(361.816406 0)"/>
     <use xlink:href="#DejaVuSans-67" transform="translate(423.095703 0)"/>
     <use xlink:href="#DejaVuSans-6f" transform="translate(486.572266 0)"/>
     <use xlink:href="#DejaVuSans-6e" transform="translate(547.753906 0)"/>
     <use xlink:href="#DejaVuSans-69" transform="translate(611.132812 0)"/>
     <use xlink:href="#DejaVuSans-73" transform="translate(638.916016 0)"/>
     <use xlink:href="#DejaVuSans-74" transform="translate(691.015625 0)"/>
     <use xlink:href="#DejaVuSans-69" transform="translate(730.224609 0)"/>
     <use xlink:href="#DejaVuSans-63" transform="translate(758.007812 0)"/>
    </g>
   </g>
   <g id="text_21">
    <!-- 4.3 Observation -->
    <g transform="translate(166.201234 503.972803) scale(0.18 -0.18)">
     <use xlink:href="#DejaVuSans-34"/>
     <use xlink:href="#DejaVuSans-2e" transform="translate(63.623047 0)"/>
     <use xlink:href="#DejaVuSans-33" transform="translate(95.410156 0)"/>
     <use xlink:href="#DejaVuSans-20" transform="translate(159.033203 0)"/>
     <use xlink:href="#DejaVuSans-4f" transform="translate(190.820312 0)"/>
     <use xlink:href="#DejaVuSans-62" transform="translate(269.53125 0)"/>
     <use xlink:href="#DejaVuSans-73" transform="translate(333.007812 0)"/>
     <use xlink:href="#DejaVuSans-65" transform="translate(385.107422 0)"/>
     <use xlink:href="#DejaVuSans-72" transform="translate(446.630859 0)"/>
     <use xlink:href="#DejaVuSans-76" transform="translate(487.744141 0)"/>
     <use xlink:href="#DejaVuSans-61" transform="translate(546.923828 0)"/>
     <use xlink:href="#DejaVuSans-74" transform="translate(608.203125 0)"/>
     <use xlink:href="#DejaVuSans-69" transform="translate(647.412109 0)"/>
     <use xlink:href="#DejaVuSans-6f" transform="translate(675.195312 0)"/>
     <use xlink:href="#DejaVuSans-6e" transform="translate(736.376953 0)"/>
    </g>
   </g>
   <g id="text_22">
    <!-- 4.4 Spatial -->
    <g transform="translate(140.375816 469.705693) scale(0.18 -0.18)">
     <defs>
      <path id="DejaVuSans-53" d="M 3425 4513 
L 3425 3897 
Q 3066 4069 2747 4153 
Q 2428 4238 2131 4238 
Q 1616 4238 1336 4038 
Q 1056 3838 1056 3469 
Q 1056 3159 1242 3001 
Q 1428 2844 1947 2747 
L 2328 2669 
Q 3034 2534 3370 2195 
Q 3706 1856 3706 1288 
Q 3706 609 3251 259 
Q 2797 -91 1919 -91 
Q 1588 -91 1214 -16 
Q 841 59 441 206 
L 441 856 
Q 825 641 1194 531 
Q 1563 422 1919 422 
Q 2459 422 2753 634 
Q 3047 847 3047 1241 
Q 3047 1584 2836 1778 
Q 2625 1972 2144 2069 
L 1759 2144 
Q 1053 2284 737 2584 
Q 422 2884 422 3419 
Q 422 4038 858 4394 
Q 1294 4750 2059 4750 
Q 2388 4750 2728 4690 
Q 3069 4631 3425 4513 
z
" transform="scale(0.015625)"/>
     </defs>
     <use xlink:href="#DejaVuSans-34"/>
     <use xlink:href="#DejaVuSans-2e" transform="translate(63.623047 0)"/>
     <use xlink:href="#DejaVuSans-34" transform="translate(95.410156 0)"/>
     <use xlink:href="#DejaVuSans-20" transform="translate(159.033203 0)"/>
     <use xlink:href="#DejaVuSans-53" transform="translate(190.820312 0)"/>
     <use xlink:href="#DejaVuSans-70" transform="translate(254.296875 0)"/>
     <use xlink:href="#DejaVuSans-61" transform="translate(317.773438 0)"/>
     <use xlink:href="#DejaVuSans-74" transform="translate(379.052734 0)"/>
     <use xlink:href="#DejaVuSans-69" transform="translate(418.261719 0)"/>
     <use xlink:href="#DejaVuSans-61" transform="translate(446.044922 0)"/>
     <use xlink:href="#DejaVuSans-6c" transform="translate(507.324219 0)"/>
    </g>
   </g>
   <g id="text_23">
    <!-- 5.1 Interaction -->
    <g transform="translate(82.533476 424.55362) scale(0.18 -0.18)">
     <use xlink:href="#DejaVuSans-35"/>
     <use xlink:href="#DejaVuSans-2e" transform="translate(63.623047 0)"/>
     <use xlink:href="#DejaVuSans-31" transform="translate(95.410156 0)"/>
     <use xlink:href="#DejaVuSans-20" transform="translate(159.033203 0)"/>
     <use xlink:href="#DejaVuSans-49" transform="translate(190.820312 0)"/>
     <use xlink:href="#DejaVuSans-6e" transform="translate(220.3125 0)"/>
     <use xlink:href="#DejaVuSans-74" transform="translate(283.691406 0)"/>
     <use xlink:href="#DejaVuSans-65" transform="translate(322.900391 0)"/>
     <use xlink:href="#DejaVuSans-72" transform="translate(384.423828 0)"/>
     <use xlink:href="#DejaVuSans-61" transform="translate(425.537109 0)"/>
     <use xlink:href="#DejaVuSans-63" transform="translate(486.816406 0)"/>
     <use xlink:href="#DejaVuSans-74" transform="translate(541.796875 0)"/>
     <use xlink:href="#DejaVuSans-69" transform="translate(581.005859 0)"/>
     <use xlink:href="#DejaVuSans-6f" transform="translate(608.789062 0)"/>
     <use xlink:href="#DejaVuSans-6e" transform="translate(669.970703 0)"/>
    </g>
   </g>
   <g id="text_24">
    <!-- 5.2 Proximity -->
    <g transform="translate(61.386598 371.14066) scale(0.18 -0.18)">
     <use xlink:href="#DejaVuSans-35"/>
     <use xlink:href="#DejaVuSans-2e" transform="translate(63.623047 0)"/>
     <use xlink:href="#DejaVuSans-32" transform="translate(95.410156 0)"/>
     <use xlink:href="#DejaVuSans-20" transform="translate(159.033203 0)"/>
     <use xlink:href="#DejaVuSans-50" transform="translate(190.820312 0)"/>
     <use xlink:href="#DejaVuSans-72" transform="translate(249.373047 0)"/>
     <use xlink:href="#DejaVuSans-6f" transform="translate(288.236328 0)"/>
     <use xlink:href="#DejaVuSans-78" transform="translate(346.292969 0)"/>
     <use xlink:href="#DejaVuSans-69" transform="translate(405.472656 0)"/>
     <use xlink:href="#DejaVuSans-6d" transform="translate(433.255859 0)"/>
     <use xlink:href="#DejaVuSans-69" transform="translate(530.667969 0)"/>
     <use xlink:href="#DejaVuSans-74" transform="translate(558.451172 0)"/>
     <use xlink:href="#DejaVuSans-79" transform="translate(597.660156 0)"/>
    </g>
   </g>
   <g id="text_25">
    <!-- 5.3 Spatial -->
    <g transform="translate(57.905156 312.570979) scale(0.18 -0.18)">
     <use xlink:href="#DejaVuSans-35"/>
     <use xlink:href="#DejaVuSans-2e" transform="translate(63.623047 0)"/>
     <use xlink:href="#DejaVuSans-33" transform="translate(95.410156 0)"/>
     <use xlink:href="#DejaVuSans-20" transform="translate(159.033203 0)"/>
     <use xlink:href="#DejaVuSans-53" transform="translate(190.820312 0)"/>
     <use xlink:href="#DejaVuSans-70" transform="translate(254.296875 0)"/>
     <use xlink:href="#DejaVuSans-61" transform="translate(317.773438 0)"/>
     <use xlink:href="#DejaVuSans-74" transform="translate(379.052734 0)"/>
     <use xlink:href="#DejaVuSans-69" transform="translate(418.261719 0)"/>
     <use xlink:href="#DejaVuSans-61" transform="translate(446.044922 0)"/>
     <use xlink:href="#DejaVuSans-6c" transform="translate(507.324219 0)"/>
    </g>
   </g>
   <g id="text_26">
    <!-- 6.1 Spatial/Movement -->
    <g transform="translate(7.2 252.248435) scale(0.18 -0.18)">
     <defs>
      <path id="DejaVuSans-2f" d="M 1625 4666 
L 2156 4666 
L 531 -594 
L 0 -594 
L 1625 4666 
z
" transform="scale(0.015625)"/>
     </defs>
     <use xlink:href="#DejaVuSans-36"/>
     <use xlink:href="#DejaVuSans-2e" transform="translate(63.623047 0)"/>
     <use xlink:href="#DejaVuSans-31" transform="translate(95.410156 0)"/>
     <use xlink:href="#DejaVuSans-20" transform="translate(159.033203 0)"/>
     <use xlink:href="#DejaVuSans-53" transform="translate(190.820312 0)"/>
     <use xlink:href="#DejaVuSans-70" transform="translate(254.296875 0)"/>
     <use xlink:href="#DejaVuSans-61" transform="translate(317.773438 0)"/>
     <use xlink:href="#DejaVuSans-74" transform="translate(379.052734 0)"/>
     <use xlink:href="#DejaVuSans-69" transform="translate(418.261719 0)"/>
     <use xlink:href="#DejaVuSans-61" transform="translate(446.044922 0)"/>
     <use xlink:href="#DejaVuSans-6c" transform="translate(507.324219 0)"/>
     <use xlink:href="#DejaVuSans-2f" transform="translate(535.107422 0)"/>
     <use xlink:href="#DejaVuSans-4d" transform="translate(568.798828 0)"/>
     <use xlink:href="#DejaVuSans-6f" transform="translate(655.078125 0)"/>
     <use xlink:href="#DejaVuSans-76" transform="translate(716.259766 0)"/>
     <use xlink:href="#DejaVuSans-65" transform="translate(775.439453 0)"/>
     <use xlink:href="#DejaVuSans-6d" transform="translate(836.962891 0)"/>
     <use xlink:href="#DejaVuSans-65" transform="translate(934.375 0)"/>
     <use xlink:href="#DejaVuSans-6e" transform="translate(995.898438 0)"/>
     <use xlink:href="#DejaVuSans-74" transform="translate(1059.277344 0)"/>
    </g>
   </g>
   <g id="text_27">
    <!-- 6.2 Proximity -->
    <g transform="translate(61.386598 193.678754) scale(0.18 -0.18)">
     <use xlink:href="#DejaVuSans-36"/>
     <use xlink:href="#DejaVuSans-2e" transform="translate(63.623047 0)"/>
     <use xlink:href="#DejaVuSans-32" transform="translate(95.410156 0)"/>
     <use xlink:href="#DejaVuSans-20" transform="translate(159.033203 0)"/>
     <use xlink:href="#DejaVuSans-50" transform="translate(190.820312 0)"/>
     <use xlink:href="#DejaVuSans-72" transform="translate(249.373047 0)"/>
     <use xlink:href="#DejaVuSans-6f" transform="translate(288.236328 0)"/>
     <use xlink:href="#DejaVuSans-78" transform="translate(346.292969 0)"/>
     <use xlink:href="#DejaVuSans-69" transform="translate(405.472656 0)"/>
     <use xlink:href="#DejaVuSans-6d" transform="translate(433.255859 0)"/>
     <use xlink:href="#DejaVuSans-69" transform="translate(530.667969 0)"/>
     <use xlink:href="#DejaVuSans-74" transform="translate(558.451172 0)"/>
     <use xlink:href="#DejaVuSans-79" transform="translate(597.660156 0)"/>
    </g>
   </g>
   <g id="text_28">
    <!-- 6.3 Spatial -->
    <g transform="translate(100.37457 140.265794) scale(0.18 -0.18)">
     <use xlink:href="#DejaVuSans-36"/>
     <use xlink:href="#DejaVuSans-2e" transform="translate(63.623047 0)"/>
     <use xlink:href="#DejaVuSans-33" transform="translate(95.410156 0)"/>
     <use xlink:href="#DejaVuSans-20" transform="translate(159.033203 0)"/>
     <use xlink:href="#DejaVuSans-53" transform="translate(190.820312 0)"/>
     <use xlink:href="#DejaVuSans-70" transform="translate(254.296875 0)"/>
     <use xlink:href="#DejaVuSans-61" transform="translate(317.773438 0)"/>
     <use xlink:href="#DejaVuSans-74" transform="translate(379.052734 0)"/>
     <use xlink:href="#DejaVuSans-69" transform="translate(418.261719 0)"/>
     <use xlink:href="#DejaVuSans-61" transform="translate(446.044922 0)"/>
     <use xlink:href="#DejaVuSans-6c" transform="translate(507.324219 0)"/>
    </g>
   </g>
   <g id="text_29">
    <!-- 6.4 Spatial -->
    <g transform="translate(140.375816 95.113721) scale(0.18 -0.18)">
     <use xlink:href="#DejaVuSans-36"/>
     <use xlink:href="#DejaVuSans-2e" transform="translate(63.623047 0)"/>
     <use xlink:href="#DejaVuSans-34" transform="translate(95.410156 0)"/>
     <use xlink:href="#DejaVuSans-20" transform="translate(159.033203 0)"/>
     <use xlink:href="#DejaVuSans-53" transform="translate(190.820312 0)"/>
     <use xlink:href="#DejaVuSans-70" transform="translate(254.296875 0)"/>
     <use xlink:href="#DejaVuSans-61" transform="translate(317.773438 0)"/>
     <use xlink:href="#DejaVuSans-74" transform="translate(379.052734 0)"/>
     <use xlink:href="#DejaVuSans-69" transform="translate(418.261719 0)"/>
     <use xlink:href="#DejaVuSans-61" transform="translate(446.044922 0)"/>
     <use xlink:href="#DejaVuSans-6c" transform="translate(507.324219 0)"/>
    </g>
   </g>
   <g id="text_30">
    <!-- 7.1 Self-interaction -->
    <g transform="translate(152.661859 60.846611) scale(0.18 -0.18)">
     <defs>
      <path id="DejaVuSans-37" d="M 525 4666 
L 3525 4666 
L 3525 4397 
L 1831 0 
L 1172 0 
L 2766 4134 
L 525 4134 
L 525 4666 
z
" transform="scale(0.015625)"/>
      <path id="DejaVuSans-2d" d="M 313 2009 
L 1997 2009 
L 1997 1497 
L 313 1497 
L 313 2009 
z
" transform="scale(0.015625)"/>
     </defs>
     <use xlink:href="#DejaVuSans-37"/>
     <use xlink:href="#DejaVuSans-2e" transform="translate(63.623047 0)"/>
     <use xlink:href="#DejaVuSans-31" transform="translate(95.410156 0)"/>
     <use xlink:href="#DejaVuSans-20" transform="translate(159.033203 0)"/>
     <use xlink:href="#DejaVuSans-53" transform="translate(190.820312 0)"/>
     <use xlink:href="#DejaVuSans-65" transform="translate(254.296875 0)"/>
     <use xlink:href="#DejaVuSans-6c" transform="translate(315.820312 0)"/>
     <use xlink:href="#DejaVuSans-66" transform="translate(343.603516 0)"/>
     <use xlink:href="#DejaVuSans-2d" transform="translate(373.308594 0)"/>
     <use xlink:href="#DejaVuSans-69" transform="translate(409.392578 0)"/>
     <use xlink:href="#DejaVuSans-6e" transform="translate(437.175781 0)"/>
     <use xlink:href="#DejaVuSans-74" transform="translate(500.554688 0)"/>
     <use xlink:href="#DejaVuSans-65" transform="translate(539.763672 0)"/>
     <use xlink:href="#DejaVuSans-72" transform="translate(601.287109 0)"/>
     <use xlink:href="#DejaVuSans-61" transform="translate(642.400391 0)"/>
     <use xlink:href="#DejaVuSans-63" transform="translate(703.679688 0)"/>
     <use xlink:href="#DejaVuSans-74" transform="translate(758.660156 0)"/>
     <use xlink:href="#DejaVuSans-69" transform="translate(797.869141 0)"/>
     <use xlink:href="#DejaVuSans-6f" transform="translate(825.652344 0)"/>
     <use xlink:href="#DejaVuSans-6e" transform="translate(886.833984 0)"/>
    </g>
   </g>
   <g id="text_31">
    <!-- 8.1 No Interaction -->
    <g transform="translate(213.481449 39.455942) scale(0.18 -0.18)">
     <defs>
      <path id="DejaVuSans-38" d="M 2034 2216 
Q 1584 2216 1326 1975 
Q 1069 1734 1069 1313 
Q 1069 891 1326 650 
Q 1584 409 2034 409 
Q 2484 409 2743 651 
Q 3003 894 3003 1313 
Q 3003 1734 2745 1975 
Q 2488 2216 2034 2216 
z
M 1403 2484 
Q 997 2584 770 2862 
Q 544 3141 544 3541 
Q 544 4100 942 4425 
Q 1341 4750 2034 4750 
Q 2731 4750 3128 4425 
Q 3525 4100 3525 3541 
Q 3525 3141 3298 2862 
Q 3072 2584 2669 2484 
Q 3125 2378 3379 2068 
Q 3634 1759 3634 1313 
Q 3634 634 3220 271 
Q 2806 -91 2034 -91 
Q 1263 -91 848 271 
Q 434 634 434 1313 
Q 434 1759 690 2068 
Q 947 2378 1403 2484 
z
M 1172 3481 
Q 1172 3119 1398 2916 
Q 1625 2713 2034 2713 
Q 2441 2713 2670 2916 
Q 2900 3119 2900 3481 
Q 2900 3844 2670 4047 
Q 2441 4250 2034 4250 
Q 1625 4250 1398 4047 
Q 1172 3844 1172 3481 
z
" transform="scale(0.015625)"/>
      <path id="DejaVuSans-4e" d="M 628 4666 
L 1478 4666 
L 3547 763 
L 3547 4666 
L 4159 4666 
L 4159 0 
L 3309 0 
L 1241 3903 
L 1241 0 
L 628 0 
L 628 4666 
z
" transform="scale(0.015625)"/>
     </defs>
     <use xlink:href="#DejaVuSans-38"/>
     <use xlink:href="#DejaVuSans-2e" transform="translate(63.623047 0)"/>
     <use xlink:href="#DejaVuSans-31" transform="translate(95.410156 0)"/>
     <use xlink:href="#DejaVuSans-20" transform="translate(159.033203 0)"/>
     <use xlink:href="#DejaVuSans-4e" transform="translate(190.820312 0)"/>
     <use xlink:href="#DejaVuSans-6f" transform="translate(265.625 0)"/>
     <use xlink:href="#DejaVuSans-20" transform="translate(326.806641 0)"/>
     <use xlink:href="#DejaVuSans-49" transform="translate(358.59375 0)"/>
     <use xlink:href="#DejaVuSans-6e" transform="translate(388.085938 0)"/>
     <use xlink:href="#DejaVuSans-74" transform="translate(451.464844 0)"/>
     <use xlink:href="#DejaVuSans-65" transform="translate(490.673828 0)"/>
     <use xlink:href="#DejaVuSans-72" transform="translate(552.197266 0)"/>
     <use xlink:href="#DejaVuSans-61" transform="translate(593.310547 0)"/>
     <use xlink:href="#DejaVuSans-63" transform="translate(654.589844 0)"/>
     <use xlink:href="#DejaVuSans-74" transform="translate(709.570312 0)"/>
     <use xlink:href="#DejaVuSans-69" transform="translate(748.779297 0)"/>
     <use xlink:href="#DejaVuSans-6f" transform="translate(776.5625 0)"/>
     <use xlink:href="#DejaVuSans-6e" transform="translate(837.744141 0)"/>
    </g>
   </g>
  </g>
 </g>
 <defs>
  <clipPath id="p572bd0d8e4">
   <path d="M 624.708256 277.442832 
C 624.708256 241.954868 617.717901 206.811981 604.137245 174.025377 
C 590.556589 141.238774 570.649742 111.446073 545.555963 86.352293 
C 520.462183 61.258513 490.669481 41.351666 457.882878 27.771011 
C 425.096275 14.190355 389.953387 7.2 354.465424 7.2 
C 318.97746 7.2 283.834572 14.190355 251.047969 27.771011 
C 218.261366 41.351666 188.468664 61.258513 163.374885 86.352293 
C 138.281105 111.446073 118.374258 141.238774 104.793602 174.025377 
C 91.212947 206.811981 84.222592 241.954868 84.222592 277.442832 
C 84.222592 312.930796 91.212947 348.073683 104.793602 380.860287 
C 118.374258 413.64689 138.281105 443.439591 163.374885 468.533371 
C 188.468664 493.627151 218.261366 513.533998 251.047969 527.114653 
C 283.834572 540.695309 318.97746 547.685664 354.465424 547.685664 
C 389.953387 547.685664 425.096275 540.695309 457.882878 527.114653 
C 490.669481 513.533998 520.462183 493.627151 545.555963 468.533371 
C 570.649742 443.439591 590.556589 413.64689 604.137245 380.860287 
C 617.717901 348.073683 624.708256 312.930796 624.708256 277.442832 
M 354.465424 277.442832 
C 354.465424 277.442832 354.465424 277.442832 354.465424 277.442832 
C 354.465424 277.442832 354.465424 277.442832 354.465424 277.442832 
C 354.465424 277.442832 354.465424 277.442832 354.465424 277.442832 
C 354.465424 277.442832 354.465424 277.442832 354.465424 277.442832 
C 354.465424 277.442832 354.465424 277.442832 354.465424 277.442832 
C 354.465424 277.442832 354.465424 277.442832 354.465424 277.442832 
C 354.465424 277.442832 354.465424 277.442832 354.465424 277.442832 
C 354.465424 277.442832 354.465424 277.442832 354.465424 277.442832 
C 354.465424 277.442832 354.465424 277.442832 354.465424 277.442832 
C 354.465424 277.442832 354.465424 277.442832 354.465424 277.442832 
C 354.465424 277.442832 354.465424 277.442832 354.465424 277.442832 
C 354.465424 277.442832 354.465424 277.442832 354.465424 277.442832 
C 354.465424 277.442832 354.465424 277.442832 354.465424 277.442832 
C 354.465424 277.442832 354.465424 277.442832 354.465424 277.442832 
C 354.465424 277.442832 354.465424 277.442832 354.465424 277.442832 
C 354.465424 277.442832 354.465424 277.442832 354.465424 277.442832 
z
"/>
  </clipPath>
 </defs>
</svg>
