<?xml version="1.0" encoding="utf-8" standalone="no"?>
<!DOCTYPE svg PUBLIC "-//W3C//DTD SVG 1.1//EN"
  "http://www.w3.org/Graphics/SVG/1.1/DTD/svg11.dtd">
<svg xmlns:xlink="http://www.w3.org/1999/xlink" width="672.768187pt" height="516.111062pt" viewBox="0 0 672.768187 516.111062" xmlns="http://www.w3.org/2000/svg" version="1.1">
 <metadata>
  <rdf:RDF xmlns:dc="http://purl.org/dc/elements/1.1/" xmlns:cc="http://creativecommons.org/ns#" xmlns:rdf="http://www.w3.org/1999/02/22-rdf-syntax-ns#">
   <cc:Work>
    <dc:type rdf:resource="http://purl.org/dc/dcmitype/StillImage"/>
    <dc:date>2025-10-22T13:59:09.968560</dc:date>
    <dc:format>image/svg+xml</dc:format>
    <dc:creator>
     <cc:Agent>
      <dc:title>Matplotlib v3.10.6, https://matplotlib.org/</dc:title>
     </cc:Agent>
    </dc:creator>
   </cc:Work>
  </rdf:RDF>
 </metadata>
 <defs>
  <style type="text/css">*{stroke-linejoin: round; stroke-linecap: butt}</style>
 </defs>
 <g id="figure_1">
  <g id="patch_1">
   <path d="M 0 516.111062 
L 672.768187 516.111062 
L 672.768187 0 
L 0 0 
z
" style="fill: #ffffff"/>
  </g>
  <g id="axes_1">
   <g id="patch_2">
    <path d="M 537.512187 268.312 
C 537.512187 239.190744 531.775935 210.352655 520.631713 183.448122 
C 509.48749 156.543589 493.152025 132.095838 472.560187 111.504 
C 451.968349 90.912162 427.520598 74.576697 400.616065 63.432475 
C 373.711533 52.288253 344.873444 46.552 315.752187 46.552 
C 286.630931 46.552 257.792842 52.288253 230.88831 63.432475 
C 203.983777 74.576697 179.536026 90.912162 158.944188 111.504 
C 138.35235 132.095838 122.016885 156.543589 110.872662 183.448122 
C 99.72844 210.352655 93.992187 239.190744 93.992187 268.312 
C 93.992187 297.433256 99.72844 326.271345 110.872662 353.175878 
C 122.016885 380.080411 138.35235 404.528162 158.944188 425.12 
C 179.536026 445.711838 203.983777 462.047303 230.88831 473.191525 
C 257.792842 484.335747 286.630931 490.072 315.752187 490.072 
C 344.873444 490.072 373.711533 484.335747 400.616065 473.191525 
C 427.520598 462.047303 451.968349 445.711838 472.560187 425.12 
C 493.152025 404.528162 509.48749 380.080411 520.631713 353.175878 
C 531.775935 326.271345 537.512187 297.433256 537.512187 268.312 
M 315.752187 268.312 
C 315.752187 268.312 315.752187 268.312 315.752187 268.312 
C 315.752187 268.312 315.752187 268.312 315.752187 268.312 
C 315.752187 268.312 315.752187 268.312 315.752187 268.312 
C 315.752187 268.312 315.752187 268.312 315.752187 268.312 
C 315.752187 268.312 315.752187 268.312 315.752187 268.312 
C 315.752187 268.312 315.752187 268.312 315.752187 268.312 
C 315.752187 268.312 315.752187 268.312 315.752187 268.312 
C 315.752187 268.312 315.752187 268.312 315.752187 268.312 
C 315.752187 268.312 315.752187 268.312 315.752187 268.312 
C 315.752187 268.312 315.752187 268.312 315.752187 268.312 
C 315.752187 268.312 315.752187 268.312 315.752187 268.312 
C 315.752187 268.312 315.752187 268.312 315.752187 268.312 
C 315.752187 268.312 315.752187 268.312 315.752187 268.312 
C 315.752187 268.312 315.752187 268.312 315.752187 268.312 
C 315.752187 268.312 315.752187 268.312 315.752187 268.312 
C 315.752187 268.312 315.752187 268.312 315.752187 268.312 
z
" style="fill: #ffffff"/>
   </g>
   <g id="patch_3">
    <path d="M 315.752187 233.151008 
L 333.539535 213.568174 
L 323.312179 257.906565 
L 405.648796 202.998291 
L 339.619388 260.557076 
L 356.272747 268.312 
L 423.681681 303.380418 
L 424.026768 346.978088 
L 373.824201 348.24127 
L 357.370023 396.398528 
L 315.752187 381.764697 
L 279.201664 380.802944 
L 245.423429 365.111232 
L 212.284305 343.485817 
L 178.859971 312.790977 
L 232.425471 268.312 
L 178.884314 223.840932 
L 217.737513 197.100171 
L 223.699557 141.612424 
L 293.578061 200.067056 
z
" clip-path="url(#p77a80cc634)" style="fill: #1f77b4; opacity: 0.25; stroke: #1f77b4; stroke-linejoin: miter"/>
   </g>
   <g id="patch_4">
    <path d="M 315.752187 232.043419 
L 327.377559 232.532784 
L 322.300045 259.299647 
L 390.248107 214.187546 
L 336.437525 261.590926 
L 357.423337 268.312 
L 410.820656 299.201618 
L 413.108419 339.045443 
L 359.323991 328.283443 
L 349.141472 371.07365 
L 315.752187 366.397605 
L 289.731969 348.393997 
L 254.198866 353.032878 
L 188.780769 360.562136 
L 219.219461 299.677384 
L 219.753747 268.312 
L 218.931454 236.853037 
L 228.586913 204.982721 
L 235.078794 157.2746 
L 297.153068 211.069797 
z
" clip-path="url(#p77a80cc634)" style="fill: #ff7f0e; opacity: 0.25; stroke: #ff7f0e; stroke-linejoin: miter"/>
   </g>
   <g id="patch_5">
    <path d="M 315.752187 213.355248 
L 334.015235 212.104119 
L 338.457438 237.060904 
L 398.575626 208.13725 
L 381.006181 247.109692 
L 385.886628 268.312 
L 417.404547 301.340854 
L 405.256648 333.340797 
L 366.592224 338.287307 
L 349.741291 372.919705 
L 315.752187 376.411193 
L 276.103192 390.33906 
L 249.225998 359.877445 
L 225.559054 333.841147 
L 201.689559 305.373195 
L 210.750914 268.312 
L 206.871598 232.934552 
L 223.31801 201.154639 
L 248.46051 175.692952 
L 280.343127 159.334116 
z
" clip-path="url(#p77a80cc634)" style="fill: #2ca02c; opacity: 0.25; stroke: #2ca02c; stroke-linejoin: miter"/>
   </g>
   <g id="patch_6">
    <path d="M 315.752187 143.884261 
L 360.630602 130.190443 
L 385.095269 172.869436 
L 465.552718 159.475544 
L 455.705186 222.838514 
L 424.200109 268.312 
L 480.442358 321.82308 
L 476.201794 384.885463 
L 410.524243 398.754544 
L 374.919566 450.410468 
L 315.752187 440.808369 
L 251.73832 465.326425 
L 233.393361 381.6692 
L 177.410135 368.823385 
L 131.716157 328.108931 
L 194.927241 268.312 
L 132.685011 208.829869 
L 214.074719 194.438995 
L 223.937412 141.939803 
L 278.202664 152.746451 
z
" clip-path="url(#p77a80cc634)" style="fill: #d62728; opacity: 0.25; stroke: #d62728; stroke-linejoin: miter"/>
   </g>
   <g id="patch_7">
    <path d="M 315.752187 230.551306 
L 327.16342 233.191837 
L 329.402913 249.523388 
L 362.715513 234.191147 
L 351.426602 256.72068 
L 365.383008 268.312 
L 400.096332 295.717074 
L 386.675199 319.840584 
L 352.985984 319.559924 
L 341.958032 348.965296 
L 315.752187 342.565114 
L 288.426274 352.412515 
L 269.809188 331.547114 
L 284.325458 291.144856 
L 215.175485 300.991352 
L 238.549651 268.312 
L 233.153083 241.473924 
L 239.728209 213.077347 
L 254.16689 183.547109 
L 301.473146 224.365628 
z
" clip-path="url(#p77a80cc634)" style="fill: #9467bd; opacity: 0.25; stroke: #9467bd; stroke-linejoin: miter"/>
   </g>
   <g id="matplotlib.axis_1">
    <g id="xtick_1">
     <g id="line2d_1">
      <path d="M 315.752187 268.312 
L 315.752187 46.552 
" clip-path="url(#p77a80cc634)" style="fill: none; stroke: #b0b0b0; stroke-width: 0.8; stroke-linecap: square"/>
     </g>
     <g id="text_1">
      <!-- Approach &amp; Depart -->
      <g transform="translate(267.74125 35.311375) scale(0.1 -0.1)">
       <defs>
        <path id="DejaVuSans-41" d="M 2188 4044 
L 1331 1722 
L 3047 1722 
L 2188 4044 
z
M 1831 4666 
L 2547 4666 
L 4325 0 
L 3669 0 
L 3244 1197 
L 1141 1197 
L 716 0 
L 50 0 
L 1831 4666 
z
" transform="scale(0.015625)"/>
        <path id="DejaVuSans-70" d="M 1159 525 
L 1159 -1331 
L 581 -1331 
L 581 3500 
L 1159 3500 
L 1159 2969 
Q 1341 3281 1617 3432 
Q 1894 3584 2278 3584 
Q 2916 3584 3314 3078 
Q 3713 2572 3713 1747 
Q 3713 922 3314 415 
Q 2916 -91 2278 -91 
Q 1894 -91 1617 61 
Q 1341 213 1159 525 
z
M 3116 1747 
Q 3116 2381 2855 2742 
Q 2594 3103 2138 3103 
Q 1681 3103 1420 2742 
Q 1159 2381 1159 1747 
Q 1159 1113 1420 752 
Q 1681 391 2138 391 
Q 2594 391 2855 752 
Q 3116 1113 3116 1747 
z
" transform="scale(0.015625)"/>
        <path id="DejaVuSans-72" d="M 2631 2963 
Q 2534 3019 2420 3045 
Q 2306 3072 2169 3072 
Q 1681 3072 1420 2755 
Q 1159 2438 1159 1844 
L 1159 0 
L 581 0 
L 581 3500 
L 1159 3500 
L 1159 2956 
Q 1341 3275 1631 3429 
Q 1922 3584 2338 3584 
Q 2397 3584 2469 3576 
Q 2541 3569 2628 3553 
L 2631 2963 
z
" transform="scale(0.015625)"/>
        <path id="DejaVuSans-6f" d="M 1959 3097 
Q 1497 3097 1228 2736 
Q 959 2375 959 1747 
Q 959 1119 1226 758 
Q 1494 397 1959 397 
Q 2419 397 2687 759 
Q 2956 1122 2956 1747 
Q 2956 2369 2687 2733 
Q 2419 3097 1959 3097 
z
M 1959 3584 
Q 2709 3584 3137 3096 
Q 3566 2609 3566 1747 
Q 3566 888 3137 398 
Q 2709 -91 1959 -91 
Q 1206 -91 779 398 
Q 353 888 353 1747 
Q 353 2609 779 3096 
Q 1206 3584 1959 3584 
z
" transform="scale(0.015625)"/>
        <path id="DejaVuSans-61" d="M 2194 1759 
Q 1497 1759 1228 1600 
Q 959 1441 959 1056 
Q 959 750 1161 570 
Q 1363 391 1709 391 
Q 2188 391 2477 730 
Q 2766 1069 2766 1631 
L 2766 1759 
L 2194 1759 
z
M 3341 1997 
L 3341 0 
L 2766 0 
L 2766 531 
Q 2569 213 2275 61 
Q 1981 -91 1556 -91 
Q 1019 -91 701 211 
Q 384 513 384 1019 
Q 384 1609 779 1909 
Q 1175 2209 1959 2209 
L 2766 2209 
L 2766 2266 
Q 2766 2663 2505 2880 
Q 2244 3097 1772 3097 
Q 1472 3097 1187 3025 
Q 903 2953 641 2809 
L 641 3341 
Q 956 3463 1253 3523 
Q 1550 3584 1831 3584 
Q 2591 3584 2966 3190 
Q 3341 2797 3341 1997 
z
" transform="scale(0.015625)"/>
        <path id="DejaVuSans-63" d="M 3122 3366 
L 3122 2828 
Q 2878 2963 2633 3030 
Q 2388 3097 2138 3097 
Q 1578 3097 1268 2742 
Q 959 2388 959 1747 
Q 959 1106 1268 751 
Q 1578 397 2138 397 
Q 2388 397 2633 464 
Q 2878 531 3122 666 
L 3122 134 
Q 2881 22 2623 -34 
Q 2366 -91 2075 -91 
Q 1284 -91 818 406 
Q 353 903 353 1747 
Q 353 2603 823 3093 
Q 1294 3584 2113 3584 
Q 2378 3584 2631 3529 
Q 2884 3475 3122 3366 
z
" transform="scale(0.015625)"/>
        <path id="DejaVuSans-68" d="M 3513 2113 
L 3513 0 
L 2938 0 
L 2938 2094 
Q 2938 2591 2744 2837 
Q 2550 3084 2163 3084 
Q 1697 3084 1428 2787 
Q 1159 2491 1159 1978 
L 1159 0 
L 581 0 
L 581 4863 
L 1159 4863 
L 1159 2956 
Q 1366 3272 1645 3428 
Q 1925 3584 2291 3584 
Q 2894 3584 3203 3211 
Q 3513 2838 3513 2113 
z
" transform="scale(0.015625)"/>
        <path id="DejaVuSans-20" transform="scale(0.015625)"/>
        <path id="DejaVuSans-26" d="M 1556 2509 
Q 1272 2256 1139 2004 
Q 1006 1753 1006 1478 
Q 1006 1022 1337 719 
Q 1669 416 2169 416 
Q 2466 416 2725 514 
Q 2984 613 3213 813 
L 1556 2509 
z
M 1997 2859 
L 3584 1234 
Q 3769 1513 3872 1830 
Q 3975 2147 3994 2503 
L 4575 2503 
Q 4538 2091 4375 1687 
Q 4213 1284 3922 891 
L 4794 0 
L 4006 0 
L 3559 459 
Q 3234 181 2878 45 
Q 2522 -91 2113 -91 
Q 1359 -91 881 339 
Q 403 769 403 1441 
Q 403 1841 612 2192 
Q 822 2544 1241 2853 
Q 1091 3050 1012 3245 
Q 934 3441 934 3628 
Q 934 4134 1281 4442 
Q 1628 4750 2203 4750 
Q 2463 4750 2720 4694 
Q 2978 4638 3244 4525 
L 3244 3956 
Q 2972 4103 2725 4179 
Q 2478 4256 2266 4256 
Q 1938 4256 1733 4082 
Q 1528 3909 1528 3634 
Q 1528 3475 1620 3314 
Q 1713 3153 1997 2859 
z
" transform="scale(0.015625)"/>
        <path id="DejaVuSans-44" d="M 1259 4147 
L 1259 519 
L 2022 519 
Q 2988 519 3436 956 
Q 3884 1394 3884 2338 
Q 3884 3275 3436 3711 
Q 2988 4147 2022 4147 
L 1259 4147 
z
M 628 4666 
L 1925 4666 
Q 3281 4666 3915 4102 
Q 4550 3538 4550 2338 
Q 4550 1131 3912 565 
Q 3275 0 1925 0 
L 628 0 
L 628 4666 
z
" transform="scale(0.015625)"/>
        <path id="DejaVuSans-65" d="M 3597 1894 
L 3597 1613 
L 953 1613 
Q 991 1019 1311 708 
Q 1631 397 2203 397 
Q 2534 397 2845 478 
Q 3156 559 3463 722 
L 3463 178 
Q 3153 47 2828 -22 
Q 2503 -91 2169 -91 
Q 1331 -91 842 396 
Q 353 884 353 1716 
Q 353 2575 817 3079 
Q 1281 3584 2069 3584 
Q 2775 3584 3186 3129 
Q 3597 2675 3597 1894 
z
M 3022 2063 
Q 3016 2534 2758 2815 
Q 2500 3097 2075 3097 
Q 1594 3097 1305 2825 
Q 1016 2553 972 2059 
L 3022 2063 
z
" transform="scale(0.015625)"/>
        <path id="DejaVuSans-74" d="M 1172 4494 
L 1172 3500 
L 2356 3500 
L 2356 3053 
L 1172 3053 
L 1172 1153 
Q 1172 725 1289 603 
Q 1406 481 1766 481 
L 2356 481 
L 2356 0 
L 1766 0 
Q 1100 0 847 248 
Q 594 497 594 1153 
L 594 3053 
L 172 3053 
L 172 3500 
L 594 3500 
L 594 4494 
L 1172 4494 
z
" transform="scale(0.015625)"/>
       </defs>
       <use xlink:href="#DejaVuSans-41"/>
       <use xlink:href="#DejaVuSans-70" transform="translate(68.408203 0)"/>
       <use xlink:href="#DejaVuSans-70" transform="translate(131.884766 0)"/>
       <use xlink:href="#DejaVuSans-72" transform="translate(195.361328 0)"/>
       <use xlink:href="#DejaVuSans-6f" transform="translate(234.224609 0)"/>
       <use xlink:href="#DejaVuSans-61" transform="translate(295.40625 0)"/>
       <use xlink:href="#DejaVuSans-63" transform="translate(356.685547 0)"/>
       <use xlink:href="#DejaVuSans-68" transform="translate(411.666016 0)"/>
       <use xlink:href="#DejaVuSans-20" transform="translate(475.044922 0)"/>
       <use xlink:href="#DejaVuSans-26" transform="translate(506.832031 0)"/>
       <use xlink:href="#DejaVuSans-20" transform="translate(584.810547 0)"/>
       <use xlink:href="#DejaVuSans-44" transform="translate(616.597656 0)"/>
       <use xlink:href="#DejaVuSans-65" transform="translate(693.599609 0)"/>
       <use xlink:href="#DejaVuSans-70" transform="translate(755.123047 0)"/>
       <use xlink:href="#DejaVuSans-61" transform="translate(818.599609 0)"/>
       <use xlink:href="#DejaVuSans-72" transform="translate(879.878906 0)"/>
       <use xlink:href="#DejaVuSans-74" transform="translate(920.992188 0)"/>
      </g>
     </g>
    </g>
    <g id="xtick_2">
     <g id="line2d_2">
      <path d="M 315.752187 268.312 
L 384.279796 57.405707 
" clip-path="url(#p77a80cc634)" style="fill: none; stroke: #b0b0b0; stroke-width: 0.8; stroke-linecap: square"/>
     </g>
     <g id="text_2">
      <!-- Relative Position -->
      <g transform="translate(347.388847 46.850291) scale(0.1 -0.1)">
       <defs>
        <path id="DejaVuSans-52" d="M 2841 2188 
Q 3044 2119 3236 1894 
Q 3428 1669 3622 1275 
L 4263 0 
L 3584 0 
L 2988 1197 
Q 2756 1666 2539 1819 
Q 2322 1972 1947 1972 
L 1259 1972 
L 1259 0 
L 628 0 
L 628 4666 
L 2053 4666 
Q 2853 4666 3247 4331 
Q 3641 3997 3641 3322 
Q 3641 2881 3436 2590 
Q 3231 2300 2841 2188 
z
M 1259 4147 
L 1259 2491 
L 2053 2491 
Q 2509 2491 2742 2702 
Q 2975 2913 2975 3322 
Q 2975 3731 2742 3939 
Q 2509 4147 2053 4147 
L 1259 4147 
z
" transform="scale(0.015625)"/>
        <path id="DejaVuSans-6c" d="M 603 4863 
L 1178 4863 
L 1178 0 
L 603 0 
L 603 4863 
z
" transform="scale(0.015625)"/>
        <path id="DejaVuSans-69" d="M 603 3500 
L 1178 3500 
L 1178 0 
L 603 0 
L 603 3500 
z
M 603 4863 
L 1178 4863 
L 1178 4134 
L 603 4134 
L 603 4863 
z
" transform="scale(0.015625)"/>
        <path id="DejaVuSans-76" d="M 191 3500 
L 800 3500 
L 1894 563 
L 2988 3500 
L 3597 3500 
L 2284 0 
L 1503 0 
L 191 3500 
z
" transform="scale(0.015625)"/>
        <path id="DejaVuSans-50" d="M 1259 4147 
L 1259 2394 
L 2053 2394 
Q 2494 2394 2734 2622 
Q 2975 2850 2975 3272 
Q 2975 3691 2734 3919 
Q 2494 4147 2053 4147 
L 1259 4147 
z
M 628 4666 
L 2053 4666 
Q 2838 4666 3239 4311 
Q 3641 3956 3641 3272 
Q 3641 2581 3239 2228 
Q 2838 1875 2053 1875 
L 1259 1875 
L 1259 0 
L 628 0 
L 628 4666 
z
" transform="scale(0.015625)"/>
        <path id="DejaVuSans-73" d="M 2834 3397 
L 2834 2853 
Q 2591 2978 2328 3040 
Q 2066 3103 1784 3103 
Q 1356 3103 1142 2972 
Q 928 2841 928 2578 
Q 928 2378 1081 2264 
Q 1234 2150 1697 2047 
L 1894 2003 
Q 2506 1872 2764 1633 
Q 3022 1394 3022 966 
Q 3022 478 2636 193 
Q 2250 -91 1575 -91 
Q 1294 -91 989 -36 
Q 684 19 347 128 
L 347 722 
Q 666 556 975 473 
Q 1284 391 1588 391 
Q 1994 391 2212 530 
Q 2431 669 2431 922 
Q 2431 1156 2273 1281 
Q 2116 1406 1581 1522 
L 1381 1569 
Q 847 1681 609 1914 
Q 372 2147 372 2553 
Q 372 3047 722 3315 
Q 1072 3584 1716 3584 
Q 2034 3584 2315 3537 
Q 2597 3491 2834 3397 
z
" transform="scale(0.015625)"/>
        <path id="DejaVuSans-6e" d="M 3513 2113 
L 3513 0 
L 2938 0 
L 2938 2094 
Q 2938 2591 2744 2837 
Q 2550 3084 2163 3084 
Q 1697 3084 1428 2787 
Q 1159 2491 1159 1978 
L 1159 0 
L 581 0 
L 581 3500 
L 1159 3500 
L 1159 2956 
Q 1366 3272 1645 3428 
Q 1925 3584 2291 3584 
Q 2894 3584 3203 3211 
Q 3513 2838 3513 2113 
z
" transform="scale(0.015625)"/>
       </defs>
       <use xlink:href="#DejaVuSans-52"/>
       <use xlink:href="#DejaVuSans-65" transform="translate(64.982422 0)"/>
       <use xlink:href="#DejaVuSans-6c" transform="translate(126.505859 0)"/>
       <use xlink:href="#DejaVuSans-61" transform="translate(154.289062 0)"/>
       <use xlink:href="#DejaVuSans-74" transform="translate(215.568359 0)"/>
       <use xlink:href="#DejaVuSans-69" transform="translate(254.777344 0)"/>
       <use xlink:href="#DejaVuSans-76" transform="translate(282.560547 0)"/>
       <use xlink:href="#DejaVuSans-65" transform="translate(341.740234 0)"/>
       <use xlink:href="#DejaVuSans-20" transform="translate(403.263672 0)"/>
       <use xlink:href="#DejaVuSans-50" transform="translate(435.050781 0)"/>
       <use xlink:href="#DejaVuSans-6f" transform="translate(491.728516 0)"/>
       <use xlink:href="#DejaVuSans-73" transform="translate(552.910156 0)"/>
       <use xlink:href="#DejaVuSans-69" transform="translate(605.009766 0)"/>
       <use xlink:href="#DejaVuSans-74" transform="translate(632.792969 0)"/>
       <use xlink:href="#DejaVuSans-69" transform="translate(672.001953 0)"/>
       <use xlink:href="#DejaVuSans-6f" transform="translate(699.785156 0)"/>
       <use xlink:href="#DejaVuSans-6e" transform="translate(760.966797 0)"/>
      </g>
     </g>
    </g>
    <g id="xtick_3">
     <g id="line2d_3">
      <path d="M 315.752187 268.312 
L 446.099445 88.904391 
" clip-path="url(#p77a80cc634)" style="fill: none; stroke: #b0b0b0; stroke-width: 0.8; stroke-linecap: square"/>
     </g>
     <g id="text_3">
      <!-- Passing &amp; Crossing -->
      <g transform="translate(407.020626 80.337528) scale(0.1 -0.1)">
       <defs>
        <path id="DejaVuSans-67" d="M 2906 1791 
Q 2906 2416 2648 2759 
Q 2391 3103 1925 3103 
Q 1463 3103 1205 2759 
Q 947 2416 947 1791 
Q 947 1169 1205 825 
Q 1463 481 1925 481 
Q 2391 481 2648 825 
Q 2906 1169 2906 1791 
z
M 3481 434 
Q 3481 -459 3084 -895 
Q 2688 -1331 1869 -1331 
Q 1566 -1331 1297 -1286 
Q 1028 -1241 775 -1147 
L 775 -588 
Q 1028 -725 1275 -790 
Q 1522 -856 1778 -856 
Q 2344 -856 2625 -561 
Q 2906 -266 2906 331 
L 2906 616 
Q 2728 306 2450 153 
Q 2172 0 1784 0 
Q 1141 0 747 490 
Q 353 981 353 1791 
Q 353 2603 747 3093 
Q 1141 3584 1784 3584 
Q 2172 3584 2450 3431 
Q 2728 3278 2906 2969 
L 2906 3500 
L 3481 3500 
L 3481 434 
z
" transform="scale(0.015625)"/>
        <path id="DejaVuSans-43" d="M 4122 4306 
L 4122 3641 
Q 3803 3938 3442 4084 
Q 3081 4231 2675 4231 
Q 1875 4231 1450 3742 
Q 1025 3253 1025 2328 
Q 1025 1406 1450 917 
Q 1875 428 2675 428 
Q 3081 428 3442 575 
Q 3803 722 4122 1019 
L 4122 359 
Q 3791 134 3420 21 
Q 3050 -91 2638 -91 
Q 1578 -91 968 557 
Q 359 1206 359 2328 
Q 359 3453 968 4101 
Q 1578 4750 2638 4750 
Q 3056 4750 3426 4639 
Q 3797 4528 4122 4306 
z
" transform="scale(0.015625)"/>
       </defs>
       <use xlink:href="#DejaVuSans-50"/>
       <use xlink:href="#DejaVuSans-61" transform="translate(55.802734 0)"/>
       <use xlink:href="#DejaVuSans-73" transform="translate(117.082031 0)"/>
       <use xlink:href="#DejaVuSans-73" transform="translate(169.181641 0)"/>
       <use xlink:href="#DejaVuSans-69" transform="translate(221.28125 0)"/>
       <use xlink:href="#DejaVuSans-6e" transform="translate(249.064453 0)"/>
       <use xlink:href="#DejaVuSans-67" transform="translate(312.443359 0)"/>
       <use xlink:href="#DejaVuSans-20" transform="translate(375.919922 0)"/>
       <use xlink:href="#DejaVuSans-26" transform="translate(407.707031 0)"/>
       <use xlink:href="#DejaVuSans-20" transform="translate(485.685547 0)"/>
       <use xlink:href="#DejaVuSans-43" transform="translate(517.472656 0)"/>
       <use xlink:href="#DejaVuSans-72" transform="translate(587.296875 0)"/>
       <use xlink:href="#DejaVuSans-6f" transform="translate(626.160156 0)"/>
       <use xlink:href="#DejaVuSans-73" transform="translate(687.341797 0)"/>
       <use xlink:href="#DejaVuSans-73" transform="translate(739.441406 0)"/>
       <use xlink:href="#DejaVuSans-69" transform="translate(791.541016 0)"/>
       <use xlink:href="#DejaVuSans-6e" transform="translate(819.324219 0)"/>
       <use xlink:href="#DejaVuSans-67" transform="translate(882.703125 0)"/>
      </g>
     </g>
    </g>
    <g id="xtick_4">
     <g id="line2d_4">
      <path d="M 315.752187 268.312 
L 495.159796 137.964742 
" clip-path="url(#p77a80cc634)" style="fill: none; stroke: #b0b0b0; stroke-width: 0.8; stroke-linecap: square"/>
     </g>
     <g id="text_4">
      <!-- Durational States &amp; Non-Actions -->
      <g transform="translate(425.886815 132.495124) scale(0.1 -0.1)">
       <defs>
        <path id="DejaVuSans-75" d="M 544 1381 
L 544 3500 
L 1119 3500 
L 1119 1403 
Q 1119 906 1312 657 
Q 1506 409 1894 409 
Q 2359 409 2629 706 
Q 2900 1003 2900 1516 
L 2900 3500 
L 3475 3500 
L 3475 0 
L 2900 0 
L 2900 538 
Q 2691 219 2414 64 
Q 2138 -91 1772 -91 
Q 1169 -91 856 284 
Q 544 659 544 1381 
z
M 1991 3584 
L 1991 3584 
z
" transform="scale(0.015625)"/>
        <path id="DejaVuSans-53" d="M 3425 4513 
L 3425 3897 
Q 3066 4069 2747 4153 
Q 2428 4238 2131 4238 
Q 1616 4238 1336 4038 
Q 1056 3838 1056 3469 
Q 1056 3159 1242 3001 
Q 1428 2844 1947 2747 
L 2328 2669 
Q 3034 2534 3370 2195 
Q 3706 1856 3706 1288 
Q 3706 609 3251 259 
Q 2797 -91 1919 -91 
Q 1588 -91 1214 -16 
Q 841 59 441 206 
L 441 856 
Q 825 641 1194 531 
Q 1563 422 1919 422 
Q 2459 422 2753 634 
Q 3047 847 3047 1241 
Q 3047 1584 2836 1778 
Q 2625 1972 2144 2069 
L 1759 2144 
Q 1053 2284 737 2584 
Q 422 2884 422 3419 
Q 422 4038 858 4394 
Q 1294 4750 2059 4750 
Q 2388 4750 2728 4690 
Q 3069 4631 3425 4513 
z
" transform="scale(0.015625)"/>
        <path id="DejaVuSans-4e" d="M 628 4666 
L 1478 4666 
L 3547 763 
L 3547 4666 
L 4159 4666 
L 4159 0 
L 3309 0 
L 1241 3903 
L 1241 0 
L 628 0 
L 628 4666 
z
" transform="scale(0.015625)"/>
        <path id="DejaVuSans-2d" d="M 313 2009 
L 1997 2009 
L 1997 1497 
L 313 1497 
L 313 2009 
z
" transform="scale(0.015625)"/>
       </defs>
       <use xlink:href="#DejaVuSans-44"/>
       <use xlink:href="#DejaVuSans-75" transform="translate(77.001953 0)"/>
       <use xlink:href="#DejaVuSans-72" transform="translate(140.380859 0)"/>
       <use xlink:href="#DejaVuSans-61" transform="translate(181.494141 0)"/>
       <use xlink:href="#DejaVuSans-74" transform="translate(242.773438 0)"/>
       <use xlink:href="#DejaVuSans-69" transform="translate(281.982422 0)"/>
       <use xlink:href="#DejaVuSans-6f" transform="translate(309.765625 0)"/>
       <use xlink:href="#DejaVuSans-6e" transform="translate(370.947266 0)"/>
       <use xlink:href="#DejaVuSans-61" transform="translate(434.326172 0)"/>
       <use xlink:href="#DejaVuSans-6c" transform="translate(495.605469 0)"/>
       <use xlink:href="#DejaVuSans-20" transform="translate(523.388672 0)"/>
       <use xlink:href="#DejaVuSans-53" transform="translate(555.175781 0)"/>
       <use xlink:href="#DejaVuSans-74" transform="translate(618.652344 0)"/>
       <use xlink:href="#DejaVuSans-61" transform="translate(657.861328 0)"/>
       <use xlink:href="#DejaVuSans-74" transform="translate(719.140625 0)"/>
       <use xlink:href="#DejaVuSans-65" transform="translate(758.349609 0)"/>
       <use xlink:href="#DejaVuSans-73" transform="translate(819.873047 0)"/>
       <use xlink:href="#DejaVuSans-20" transform="translate(871.972656 0)"/>
       <use xlink:href="#DejaVuSans-26" transform="translate(903.759766 0)"/>
       <use xlink:href="#DejaVuSans-20" transform="translate(981.738281 0)"/>
       <use xlink:href="#DejaVuSans-4e" transform="translate(1013.525391 0)"/>
       <use xlink:href="#DejaVuSans-6f" transform="translate(1088.330078 0)"/>
       <use xlink:href="#DejaVuSans-6e" transform="translate(1149.511719 0)"/>
       <use xlink:href="#DejaVuSans-2d" transform="translate(1212.890625 0)"/>
       <use xlink:href="#DejaVuSans-41" transform="translate(1246.724609 0)"/>
       <use xlink:href="#DejaVuSans-63" transform="translate(1313.382812 0)"/>
       <use xlink:href="#DejaVuSans-74" transform="translate(1368.363281 0)"/>
       <use xlink:href="#DejaVuSans-69" transform="translate(1407.572266 0)"/>
       <use xlink:href="#DejaVuSans-6f" transform="translate(1435.355469 0)"/>
       <use xlink:href="#DejaVuSans-6e" transform="translate(1496.537109 0)"/>
       <use xlink:href="#DejaVuSans-73" transform="translate(1559.916016 0)"/>
      </g>
     </g>
    </g>
    <g id="xtick_5">
     <g id="line2d_5">
      <path d="M 315.752187 268.312 
L 526.658481 199.784391 
" clip-path="url(#p77a80cc634)" style="fill: none; stroke: #b0b0b0; stroke-width: 0.8; stroke-linecap: square"/>
     </g>
     <g id="text_5">
      <!-- Spatial Relationships (Static) -->
      <g transform="translate(468.084209 198.217528) scale(0.1 -0.1)">
       <defs>
        <path id="DejaVuSans-28" d="M 1984 4856 
Q 1566 4138 1362 3434 
Q 1159 2731 1159 2009 
Q 1159 1288 1364 580 
Q 1569 -128 1984 -844 
L 1484 -844 
Q 1016 -109 783 600 
Q 550 1309 550 2009 
Q 550 2706 781 3412 
Q 1013 4119 1484 4856 
L 1984 4856 
z
" transform="scale(0.015625)"/>
        <path id="DejaVuSans-29" d="M 513 4856 
L 1013 4856 
Q 1481 4119 1714 3412 
Q 1947 2706 1947 2009 
Q 1947 1309 1714 600 
Q 1481 -109 1013 -844 
L 513 -844 
Q 928 -128 1133 580 
Q 1338 1288 1338 2009 
Q 1338 2731 1133 3434 
Q 928 4138 513 4856 
z
" transform="scale(0.015625)"/>
       </defs>
       <use xlink:href="#DejaVuSans-53"/>
       <use xlink:href="#DejaVuSans-70" transform="translate(63.476562 0)"/>
       <use xlink:href="#DejaVuSans-61" transform="translate(126.953125 0)"/>
       <use xlink:href="#DejaVuSans-74" transform="translate(188.232422 0)"/>
       <use xlink:href="#DejaVuSans-69" transform="translate(227.441406 0)"/>
       <use xlink:href="#DejaVuSans-61" transform="translate(255.224609 0)"/>
       <use xlink:href="#DejaVuSans-6c" transform="translate(316.503906 0)"/>
       <use xlink:href="#DejaVuSans-20" transform="translate(344.287109 0)"/>
       <use xlink:href="#DejaVuSans-52" transform="translate(376.074219 0)"/>
       <use xlink:href="#DejaVuSans-65" transform="translate(441.056641 0)"/>
       <use xlink:href="#DejaVuSans-6c" transform="translate(502.580078 0)"/>
       <use xlink:href="#DejaVuSans-61" transform="translate(530.363281 0)"/>
       <use xlink:href="#DejaVuSans-74" transform="translate(591.642578 0)"/>
       <use xlink:href="#DejaVuSans-69" transform="translate(630.851562 0)"/>
       <use xlink:href="#DejaVuSans-6f" transform="translate(658.634766 0)"/>
       <use xlink:href="#DejaVuSans-6e" transform="translate(719.816406 0)"/>
       <use xlink:href="#DejaVuSans-73" transform="translate(783.195312 0)"/>
       <use xlink:href="#DejaVuSans-68" transform="translate(835.294922 0)"/>
       <use xlink:href="#DejaVuSans-69" transform="translate(898.673828 0)"/>
       <use xlink:href="#DejaVuSans-70" transform="translate(926.457031 0)"/>
       <use xlink:href="#DejaVuSans-73" transform="translate(989.933594 0)"/>
       <use xlink:href="#DejaVuSans-20" transform="translate(1042.033203 0)"/>
       <use xlink:href="#DejaVuSans-28" transform="translate(1073.820312 0)"/>
       <use xlink:href="#DejaVuSans-53" transform="translate(1112.833984 0)"/>
       <use xlink:href="#DejaVuSans-74" transform="translate(1176.310547 0)"/>
       <use xlink:href="#DejaVuSans-61" transform="translate(1215.519531 0)"/>
       <use xlink:href="#DejaVuSans-74" transform="translate(1276.798828 0)"/>
       <use xlink:href="#DejaVuSans-69" transform="translate(1316.007812 0)"/>
       <use xlink:href="#DejaVuSans-63" transform="translate(1343.791016 0)"/>
       <use xlink:href="#DejaVuSans-29" transform="translate(1398.771484 0)"/>
      </g>
     </g>
    </g>
    <g id="xtick_6">
     <g id="line2d_6">
      <path d="M 315.752187 268.312 
L 537.512187 268.312 
" clip-path="url(#p77a80cc634)" style="fill: none; stroke: #b0b0b0; stroke-width: 0.8; stroke-linecap: square"/>
     </g>
     <g id="text_6">
      <!-- Following &amp; Leading -->
      <g transform="translate(501.277031 271.071375) scale(0.1 -0.1)">
       <defs>
        <path id="DejaVuSans-46" d="M 628 4666 
L 3309 4666 
L 3309 4134 
L 1259 4134 
L 1259 2759 
L 3109 2759 
L 3109 2228 
L 1259 2228 
L 1259 0 
L 628 0 
L 628 4666 
z
" transform="scale(0.015625)"/>
        <path id="DejaVuSans-77" d="M 269 3500 
L 844 3500 
L 1563 769 
L 2278 3500 
L 2956 3500 
L 3675 769 
L 4391 3500 
L 4966 3500 
L 4050 0 
L 3372 0 
L 2619 2869 
L 1863 0 
L 1184 0 
L 269 3500 
z
" transform="scale(0.015625)"/>
        <path id="DejaVuSans-4c" d="M 628 4666 
L 1259 4666 
L 1259 531 
L 3531 531 
L 3531 0 
L 628 0 
L 628 4666 
z
" transform="scale(0.015625)"/>
        <path id="DejaVuSans-64" d="M 2906 2969 
L 2906 4863 
L 3481 4863 
L 3481 0 
L 2906 0 
L 2906 525 
Q 2725 213 2448 61 
Q 2172 -91 1784 -91 
Q 1150 -91 751 415 
Q 353 922 353 1747 
Q 353 2572 751 3078 
Q 1150 3584 1784 3584 
Q 2172 3584 2448 3432 
Q 2725 3281 2906 2969 
z
M 947 1747 
Q 947 1113 1208 752 
Q 1469 391 1925 391 
Q 2381 391 2643 752 
Q 2906 1113 2906 1747 
Q 2906 2381 2643 2742 
Q 2381 3103 1925 3103 
Q 1469 3103 1208 2742 
Q 947 2381 947 1747 
z
" transform="scale(0.015625)"/>
       </defs>
       <use xlink:href="#DejaVuSans-46"/>
       <use xlink:href="#DejaVuSans-6f" transform="translate(53.894531 0)"/>
       <use xlink:href="#DejaVuSans-6c" transform="translate(115.076172 0)"/>
       <use xlink:href="#DejaVuSans-6c" transform="translate(142.859375 0)"/>
       <use xlink:href="#DejaVuSans-6f" transform="translate(170.642578 0)"/>
       <use xlink:href="#DejaVuSans-77" transform="translate(231.824219 0)"/>
       <use xlink:href="#DejaVuSans-69" transform="translate(313.611328 0)"/>
       <use xlink:href="#DejaVuSans-6e" transform="translate(341.394531 0)"/>
       <use xlink:href="#DejaVuSans-67" transform="translate(404.773438 0)"/>
       <use xlink:href="#DejaVuSans-20" transform="translate(468.25 0)"/>
       <use xlink:href="#DejaVuSans-26" transform="translate(500.037109 0)"/>
       <use xlink:href="#DejaVuSans-20" transform="translate(578.015625 0)"/>
       <use xlink:href="#DejaVuSans-4c" transform="translate(609.802734 0)"/>
       <use xlink:href="#DejaVuSans-65" transform="translate(663.765625 0)"/>
       <use xlink:href="#DejaVuSans-61" transform="translate(725.289062 0)"/>
       <use xlink:href="#DejaVuSans-64" transform="translate(786.568359 0)"/>
       <use xlink:href="#DejaVuSans-69" transform="translate(850.044922 0)"/>
       <use xlink:href="#DejaVuSans-6e" transform="translate(877.828125 0)"/>
       <use xlink:href="#DejaVuSans-67" transform="translate(941.207031 0)"/>
      </g>
     </g>
    </g>
    <g id="xtick_7">
     <g id="line2d_7">
      <path d="M 315.752187 268.312 
L 526.658481 336.839609 
" clip-path="url(#p77a80cc634)" style="fill: none; stroke: #b0b0b0; stroke-width: 0.8; stroke-linecap: square"/>
     </g>
     <g id="text_7">
      <!-- Object Transference -->
      <g transform="translate(490.038897 343.925222) scale(0.1 -0.1)">
       <defs>
        <path id="DejaVuSans-4f" d="M 2522 4238 
Q 1834 4238 1429 3725 
Q 1025 3213 1025 2328 
Q 1025 1447 1429 934 
Q 1834 422 2522 422 
Q 3209 422 3611 934 
Q 4013 1447 4013 2328 
Q 4013 3213 3611 3725 
Q 3209 4238 2522 4238 
z
M 2522 4750 
Q 3503 4750 4090 4092 
Q 4678 3434 4678 2328 
Q 4678 1225 4090 567 
Q 3503 -91 2522 -91 
Q 1538 -91 948 565 
Q 359 1222 359 2328 
Q 359 3434 948 4092 
Q 1538 4750 2522 4750 
z
" transform="scale(0.015625)"/>
        <path id="DejaVuSans-62" d="M 3116 1747 
Q 3116 2381 2855 2742 
Q 2594 3103 2138 3103 
Q 1681 3103 1420 2742 
Q 1159 2381 1159 1747 
Q 1159 1113 1420 752 
Q 1681 391 2138 391 
Q 2594 391 2855 752 
Q 3116 1113 3116 1747 
z
M 1159 2969 
Q 1341 3281 1617 3432 
Q 1894 3584 2278 3584 
Q 2916 3584 3314 3078 
Q 3713 2572 3713 1747 
Q 3713 922 3314 415 
Q 2916 -91 2278 -91 
Q 1894 -91 1617 61 
Q 1341 213 1159 525 
L 1159 0 
L 581 0 
L 581 4863 
L 1159 4863 
L 1159 2969 
z
" transform="scale(0.015625)"/>
        <path id="DejaVuSans-6a" d="M 603 3500 
L 1178 3500 
L 1178 -63 
Q 1178 -731 923 -1031 
Q 669 -1331 103 -1331 
L -116 -1331 
L -116 -844 
L 38 -844 
Q 366 -844 484 -692 
Q 603 -541 603 -63 
L 603 3500 
z
M 603 4863 
L 1178 4863 
L 1178 4134 
L 603 4134 
L 603 4863 
z
" transform="scale(0.015625)"/>
        <path id="DejaVuSans-54" d="M -19 4666 
L 3928 4666 
L 3928 4134 
L 2272 4134 
L 2272 0 
L 1638 0 
L 1638 4134 
L -19 4134 
L -19 4666 
z
" transform="scale(0.015625)"/>
        <path id="DejaVuSans-66" d="M 2375 4863 
L 2375 4384 
L 1825 4384 
Q 1516 4384 1395 4259 
Q 1275 4134 1275 3809 
L 1275 3500 
L 2222 3500 
L 2222 3053 
L 1275 3053 
L 1275 0 
L 697 0 
L 697 3053 
L 147 3053 
L 147 3500 
L 697 3500 
L 697 3744 
Q 697 4328 969 4595 
Q 1241 4863 1831 4863 
L 2375 4863 
z
" transform="scale(0.015625)"/>
       </defs>
       <use xlink:href="#DejaVuSans-4f"/>
       <use xlink:href="#DejaVuSans-62" transform="translate(78.710938 0)"/>
       <use xlink:href="#DejaVuSans-6a" transform="translate(142.1875 0)"/>
       <use xlink:href="#DejaVuSans-65" transform="translate(169.970703 0)"/>
       <use xlink:href="#DejaVuSans-63" transform="translate(231.494141 0)"/>
       <use xlink:href="#DejaVuSans-74" transform="translate(286.474609 0)"/>
       <use xlink:href="#DejaVuSans-20" transform="translate(325.683594 0)"/>
       <use xlink:href="#DejaVuSans-54" transform="translate(357.470703 0)"/>
       <use xlink:href="#DejaVuSans-72" transform="translate(403.804688 0)"/>
       <use xlink:href="#DejaVuSans-61" transform="translate(444.917969 0)"/>
       <use xlink:href="#DejaVuSans-6e" transform="translate(506.197266 0)"/>
       <use xlink:href="#DejaVuSans-73" transform="translate(569.576172 0)"/>
       <use xlink:href="#DejaVuSans-66" transform="translate(621.675781 0)"/>
       <use xlink:href="#DejaVuSans-65" transform="translate(656.880859 0)"/>
       <use xlink:href="#DejaVuSans-72" transform="translate(718.404297 0)"/>
       <use xlink:href="#DejaVuSans-65" transform="translate(757.267578 0)"/>
       <use xlink:href="#DejaVuSans-6e" transform="translate(818.791016 0)"/>
       <use xlink:href="#DejaVuSans-63" transform="translate(882.169922 0)"/>
       <use xlink:href="#DejaVuSans-65" transform="translate(937.150391 0)"/>
      </g>
     </g>
    </g>
    <g id="xtick_8">
     <g id="line2d_8">
      <path d="M 315.752187 268.312 
L 495.159796 398.659258 
" clip-path="url(#p77a80cc634)" style="fill: none; stroke: #b0b0b0; stroke-width: 0.8; stroke-linecap: square"/>
     </g>
     <g id="text_8">
      <!-- Manipulative Contact -->
      <g transform="translate(453.326659 409.647626) scale(0.1 -0.1)">
       <defs>
        <path id="DejaVuSans-4d" d="M 628 4666 
L 1569 4666 
L 2759 1491 
L 3956 4666 
L 4897 4666 
L 4897 0 
L 4281 0 
L 4281 4097 
L 3078 897 
L 2444 897 
L 1241 4097 
L 1241 0 
L 628 0 
L 628 4666 
z
" transform="scale(0.015625)"/>
       </defs>
       <use xlink:href="#DejaVuSans-4d"/>
       <use xlink:href="#DejaVuSans-61" transform="translate(86.279297 0)"/>
       <use xlink:href="#DejaVuSans-6e" transform="translate(147.558594 0)"/>
       <use xlink:href="#DejaVuSans-69" transform="translate(210.9375 0)"/>
       <use xlink:href="#DejaVuSans-70" transform="translate(238.720703 0)"/>
       <use xlink:href="#DejaVuSans-75" transform="translate(302.197266 0)"/>
       <use xlink:href="#DejaVuSans-6c" transform="translate(365.576172 0)"/>
       <use xlink:href="#DejaVuSans-61" transform="translate(393.359375 0)"/>
       <use xlink:href="#DejaVuSans-74" transform="translate(454.638672 0)"/>
       <use xlink:href="#DejaVuSans-69" transform="translate(493.847656 0)"/>
       <use xlink:href="#DejaVuSans-76" transform="translate(521.630859 0)"/>
       <use xlink:href="#DejaVuSans-65" transform="translate(580.810547 0)"/>
       <use xlink:href="#DejaVuSans-20" transform="translate(642.333984 0)"/>
       <use xlink:href="#DejaVuSans-43" transform="translate(674.121094 0)"/>
       <use xlink:href="#DejaVuSans-6f" transform="translate(743.945312 0)"/>
       <use xlink:href="#DejaVuSans-6e" transform="translate(805.126953 0)"/>
       <use xlink:href="#DejaVuSans-74" transform="translate(868.505859 0)"/>
       <use xlink:href="#DejaVuSans-61" transform="translate(907.714844 0)"/>
       <use xlink:href="#DejaVuSans-63" transform="translate(968.994141 0)"/>
       <use xlink:href="#DejaVuSans-74" transform="translate(1023.974609 0)"/>
      </g>
     </g>
    </g>
    <g id="xtick_9">
     <g id="line2d_9">
      <path d="M 315.752187 268.312 
L 446.099445 447.719609 
" clip-path="url(#p77a80cc634)" style="fill: none; stroke: #b0b0b0; stroke-width: 0.8; stroke-linecap: square"/>
     </g>
     <g id="text_9">
      <!-- Gaze -->
      <g transform="translate(441.689376 461.805222) scale(0.1 -0.1)">
       <defs>
        <path id="DejaVuSans-47" d="M 3809 666 
L 3809 1919 
L 2778 1919 
L 2778 2438 
L 4434 2438 
L 4434 434 
Q 4069 175 3628 42 
Q 3188 -91 2688 -91 
Q 1594 -91 976 548 
Q 359 1188 359 2328 
Q 359 3472 976 4111 
Q 1594 4750 2688 4750 
Q 3144 4750 3555 4637 
Q 3966 4525 4313 4306 
L 4313 3634 
Q 3963 3931 3569 4081 
Q 3175 4231 2741 4231 
Q 1884 4231 1454 3753 
Q 1025 3275 1025 2328 
Q 1025 1384 1454 906 
Q 1884 428 2741 428 
Q 3075 428 3337 486 
Q 3600 544 3809 666 
z
" transform="scale(0.015625)"/>
        <path id="DejaVuSans-7a" d="M 353 3500 
L 3084 3500 
L 3084 2975 
L 922 459 
L 3084 459 
L 3084 0 
L 275 0 
L 275 525 
L 2438 3041 
L 353 3041 
L 353 3500 
z
" transform="scale(0.015625)"/>
       </defs>
       <use xlink:href="#DejaVuSans-47"/>
       <use xlink:href="#DejaVuSans-61" transform="translate(77.490234 0)"/>
       <use xlink:href="#DejaVuSans-7a" transform="translate(138.769531 0)"/>
       <use xlink:href="#DejaVuSans-65" transform="translate(191.259766 0)"/>
      </g>
     </g>
    </g>
    <g id="xtick_10">
     <g id="line2d_10">
      <path d="M 315.752187 268.312 
L 384.279796 479.218293 
" clip-path="url(#p77a80cc634)" style="fill: none; stroke: #b0b0b0; stroke-width: 0.8; stroke-linecap: square"/>
     </g>
     <g id="text_10">
      <!-- Supportive Contact -->
      <g transform="translate(340.37244 495.292459) scale(0.1 -0.1)">
       <use xlink:href="#DejaVuSans-53"/>
       <use xlink:href="#DejaVuSans-75" transform="translate(63.476562 0)"/>
       <use xlink:href="#DejaVuSans-70" transform="translate(126.855469 0)"/>
       <use xlink:href="#DejaVuSans-70" transform="translate(190.332031 0)"/>
       <use xlink:href="#DejaVuSans-6f" transform="translate(253.808594 0)"/>
       <use xlink:href="#DejaVuSans-72" transform="translate(314.990234 0)"/>
       <use xlink:href="#DejaVuSans-74" transform="translate(356.103516 0)"/>
       <use xlink:href="#DejaVuSans-69" transform="translate(395.3125 0)"/>
       <use xlink:href="#DejaVuSans-76" transform="translate(423.095703 0)"/>
       <use xlink:href="#DejaVuSans-65" transform="translate(482.275391 0)"/>
       <use xlink:href="#DejaVuSans-20" transform="translate(543.798828 0)"/>
       <use xlink:href="#DejaVuSans-43" transform="translate(575.585938 0)"/>
       <use xlink:href="#DejaVuSans-6f" transform="translate(645.410156 0)"/>
       <use xlink:href="#DejaVuSans-6e" transform="translate(706.591797 0)"/>
       <use xlink:href="#DejaVuSans-74" transform="translate(769.970703 0)"/>
       <use xlink:href="#DejaVuSans-61" transform="translate(809.179688 0)"/>
       <use xlink:href="#DejaVuSans-63" transform="translate(870.458984 0)"/>
       <use xlink:href="#DejaVuSans-74" transform="translate(925.439453 0)"/>
      </g>
     </g>
    </g>
    <g id="xtick_11">
     <g id="line2d_11">
      <path d="M 315.752187 268.312 
L 315.752187 490.072 
" clip-path="url(#p77a80cc634)" style="fill: none; stroke: #b0b0b0; stroke-width: 0.8; stroke-linecap: square"/>
     </g>
     <g id="text_11">
      <!-- Instantaneous Motion &amp; Impact -->
      <g transform="translate(237.298281 506.831375) scale(0.1 -0.1)">
       <defs>
        <path id="DejaVuSans-49" d="M 628 4666 
L 1259 4666 
L 1259 0 
L 628 0 
L 628 4666 
z
" transform="scale(0.015625)"/>
        <path id="DejaVuSans-6d" d="M 3328 2828 
Q 3544 3216 3844 3400 
Q 4144 3584 4550 3584 
Q 5097 3584 5394 3201 
Q 5691 2819 5691 2113 
L 5691 0 
L 5113 0 
L 5113 2094 
Q 5113 2597 4934 2840 
Q 4756 3084 4391 3084 
Q 3944 3084 3684 2787 
Q 3425 2491 3425 1978 
L 3425 0 
L 2847 0 
L 2847 2094 
Q 2847 2600 2669 2842 
Q 2491 3084 2119 3084 
Q 1678 3084 1418 2786 
Q 1159 2488 1159 1978 
L 1159 0 
L 581 0 
L 581 3500 
L 1159 3500 
L 1159 2956 
Q 1356 3278 1631 3431 
Q 1906 3584 2284 3584 
Q 2666 3584 2933 3390 
Q 3200 3197 3328 2828 
z
" transform="scale(0.015625)"/>
       </defs>
       <use xlink:href="#DejaVuSans-49"/>
       <use xlink:href="#DejaVuSans-6e" transform="translate(29.492188 0)"/>
       <use xlink:href="#DejaVuSans-73" transform="translate(92.871094 0)"/>
       <use xlink:href="#DejaVuSans-74" transform="translate(144.970703 0)"/>
       <use xlink:href="#DejaVuSans-61" transform="translate(184.179688 0)"/>
       <use xlink:href="#DejaVuSans-6e" transform="translate(245.458984 0)"/>
       <use xlink:href="#DejaVuSans-74" transform="translate(308.837891 0)"/>
       <use xlink:href="#DejaVuSans-61" transform="translate(348.046875 0)"/>
       <use xlink:href="#DejaVuSans-6e" transform="translate(409.326172 0)"/>
       <use xlink:href="#DejaVuSans-65" transform="translate(472.705078 0)"/>
       <use xlink:href="#DejaVuSans-6f" transform="translate(534.228516 0)"/>
       <use xlink:href="#DejaVuSans-75" transform="translate(595.410156 0)"/>
       <use xlink:href="#DejaVuSans-73" transform="translate(658.789062 0)"/>
       <use xlink:href="#DejaVuSans-20" transform="translate(710.888672 0)"/>
       <use xlink:href="#DejaVuSans-4d" transform="translate(742.675781 0)"/>
       <use xlink:href="#DejaVuSans-6f" transform="translate(828.955078 0)"/>
       <use xlink:href="#DejaVuSans-74" transform="translate(890.136719 0)"/>
       <use xlink:href="#DejaVuSans-69" transform="translate(929.345703 0)"/>
       <use xlink:href="#DejaVuSans-6f" transform="translate(957.128906 0)"/>
       <use xlink:href="#DejaVuSans-6e" transform="translate(1018.310547 0)"/>
       <use xlink:href="#DejaVuSans-20" transform="translate(1081.689453 0)"/>
       <use xlink:href="#DejaVuSans-26" transform="translate(1113.476562 0)"/>
       <use xlink:href="#DejaVuSans-20" transform="translate(1191.455078 0)"/>
       <use xlink:href="#DejaVuSans-49" transform="translate(1223.242188 0)"/>
       <use xlink:href="#DejaVuSans-6d" transform="translate(1252.734375 0)"/>
       <use xlink:href="#DejaVuSans-70" transform="translate(1350.146484 0)"/>
       <use xlink:href="#DejaVuSans-61" transform="translate(1413.623047 0)"/>
       <use xlink:href="#DejaVuSans-63" transform="translate(1474.902344 0)"/>
       <use xlink:href="#DejaVuSans-74" transform="translate(1529.882812 0)"/>
      </g>
     </g>
    </g>
    <g id="xtick_12">
     <g id="line2d_12">
      <path d="M 315.752187 268.312 
L 247.224579 479.218293 
" clip-path="url(#p77a80cc634)" style="fill: none; stroke: #b0b0b0; stroke-width: 0.8; stroke-linecap: square"/>
     </g>
     <g id="text_12">
      <!-- Communicative Acts -->
      <g transform="translate(191.445997 495.292459) scale(0.1 -0.1)">
       <use xlink:href="#DejaVuSans-43"/>
       <use xlink:href="#DejaVuSans-6f" transform="translate(69.824219 0)"/>
       <use xlink:href="#DejaVuSans-6d" transform="translate(131.005859 0)"/>
       <use xlink:href="#DejaVuSans-6d" transform="translate(228.417969 0)"/>
       <use xlink:href="#DejaVuSans-75" transform="translate(325.830078 0)"/>
       <use xlink:href="#DejaVuSans-6e" transform="translate(389.208984 0)"/>
       <use xlink:href="#DejaVuSans-69" transform="translate(452.587891 0)"/>
       <use xlink:href="#DejaVuSans-63" transform="translate(480.371094 0)"/>
       <use xlink:href="#DejaVuSans-61" transform="translate(535.351562 0)"/>
       <use xlink:href="#DejaVuSans-74" transform="translate(596.630859 0)"/>
       <use xlink:href="#DejaVuSans-69" transform="translate(635.839844 0)"/>
       <use xlink:href="#DejaVuSans-76" transform="translate(663.623047 0)"/>
       <use xlink:href="#DejaVuSans-65" transform="translate(722.802734 0)"/>
       <use xlink:href="#DejaVuSans-20" transform="translate(784.326172 0)"/>
       <use xlink:href="#DejaVuSans-41" transform="translate(816.113281 0)"/>
       <use xlink:href="#DejaVuSans-63" transform="translate(882.771484 0)"/>
       <use xlink:href="#DejaVuSans-74" transform="translate(937.751953 0)"/>
       <use xlink:href="#DejaVuSans-73" transform="translate(976.960938 0)"/>
      </g>
     </g>
    </g>
    <g id="xtick_13">
     <g id="line2d_13">
      <path d="M 315.752187 268.312 
L 185.40493 447.719609 
" clip-path="url(#p77a80cc634)" style="fill: none; stroke: #b0b0b0; stroke-width: 0.8; stroke-linecap: square"/>
     </g>
     <g id="text_13">
      <!-- Actor State Change -->
      <g transform="translate(128.461874 461.805222) scale(0.1 -0.1)">
       <use xlink:href="#DejaVuSans-41"/>
       <use xlink:href="#DejaVuSans-63" transform="translate(66.658203 0)"/>
       <use xlink:href="#DejaVuSans-74" transform="translate(121.638672 0)"/>
       <use xlink:href="#DejaVuSans-6f" transform="translate(160.847656 0)"/>
       <use xlink:href="#DejaVuSans-72" transform="translate(222.029297 0)"/>
       <use xlink:href="#DejaVuSans-20" transform="translate(263.142578 0)"/>
       <use xlink:href="#DejaVuSans-53" transform="translate(294.929688 0)"/>
       <use xlink:href="#DejaVuSans-74" transform="translate(358.40625 0)"/>
       <use xlink:href="#DejaVuSans-61" transform="translate(397.615234 0)"/>
       <use xlink:href="#DejaVuSans-74" transform="translate(458.894531 0)"/>
       <use xlink:href="#DejaVuSans-65" transform="translate(498.103516 0)"/>
       <use xlink:href="#DejaVuSans-20" transform="translate(559.626953 0)"/>
       <use xlink:href="#DejaVuSans-43" transform="translate(591.414062 0)"/>
       <use xlink:href="#DejaVuSans-68" transform="translate(661.238281 0)"/>
       <use xlink:href="#DejaVuSans-61" transform="translate(724.617188 0)"/>
       <use xlink:href="#DejaVuSans-6e" transform="translate(785.896484 0)"/>
       <use xlink:href="#DejaVuSans-67" transform="translate(849.275391 0)"/>
       <use xlink:href="#DejaVuSans-65" transform="translate(912.751953 0)"/>
      </g>
     </g>
    </g>
    <g id="xtick_14">
     <g id="line2d_14">
      <path d="M 315.752187 268.312 
L 136.344579 398.659258 
" clip-path="url(#p77a80cc634)" style="fill: none; stroke: #b0b0b0; stroke-width: 0.8; stroke-linecap: square"/>
     </g>
     <g id="text_14">
      <!-- Spatio-Temporal Interactions (Composite) -->
      <g transform="translate(21.366778 409.647626) scale(0.1 -0.1)">
       <use xlink:href="#DejaVuSans-53"/>
       <use xlink:href="#DejaVuSans-70" transform="translate(63.476562 0)"/>
       <use xlink:href="#DejaVuSans-61" transform="translate(126.953125 0)"/>
       <use xlink:href="#DejaVuSans-74" transform="translate(188.232422 0)"/>
       <use xlink:href="#DejaVuSans-69" transform="translate(227.441406 0)"/>
       <use xlink:href="#DejaVuSans-6f" transform="translate(255.224609 0)"/>
       <use xlink:href="#DejaVuSans-2d" transform="translate(318.28125 0)"/>
       <use xlink:href="#DejaVuSans-54" transform="translate(345.240234 0)"/>
       <use xlink:href="#DejaVuSans-65" transform="translate(389.324219 0)"/>
       <use xlink:href="#DejaVuSans-6d" transform="translate(450.847656 0)"/>
       <use xlink:href="#DejaVuSans-70" transform="translate(548.259766 0)"/>
       <use xlink:href="#DejaVuSans-6f" transform="translate(611.736328 0)"/>
       <use xlink:href="#DejaVuSans-72" transform="translate(672.917969 0)"/>
       <use xlink:href="#DejaVuSans-61" transform="translate(714.03125 0)"/>
       <use xlink:href="#DejaVuSans-6c" transform="translate(775.310547 0)"/>
       <use xlink:href="#DejaVuSans-20" transform="translate(803.09375 0)"/>
       <use xlink:href="#DejaVuSans-49" transform="translate(834.880859 0)"/>
       <use xlink:href="#DejaVuSans-6e" transform="translate(864.373047 0)"/>
       <use xlink:href="#DejaVuSans-74" transform="translate(927.751953 0)"/>
       <use xlink:href="#DejaVuSans-65" transform="translate(966.960938 0)"/>
       <use xlink:href="#DejaVuSans-72" transform="translate(1028.484375 0)"/>
       <use xlink:href="#DejaVuSans-61" transform="translate(1069.597656 0)"/>
       <use xlink:href="#DejaVuSans-63" transform="translate(1130.876953 0)"/>
       <use xlink:href="#DejaVuSans-74" transform="translate(1185.857422 0)"/>
       <use xlink:href="#DejaVuSans-69" transform="translate(1225.066406 0)"/>
       <use xlink:href="#DejaVuSans-6f" transform="translate(1252.849609 0)"/>
       <use xlink:href="#DejaVuSans-6e" transform="translate(1314.03125 0)"/>
       <use xlink:href="#DejaVuSans-73" transform="translate(1377.410156 0)"/>
       <use xlink:href="#DejaVuSans-20" transform="translate(1429.509766 0)"/>
       <use xlink:href="#DejaVuSans-28" transform="translate(1461.296875 0)"/>
       <use xlink:href="#DejaVuSans-43" transform="translate(1500.310547 0)"/>
       <use xlink:href="#DejaVuSans-6f" transform="translate(1570.134766 0)"/>
       <use xlink:href="#DejaVuSans-6d" transform="translate(1631.316406 0)"/>
       <use xlink:href="#DejaVuSans-70" transform="translate(1728.728516 0)"/>
       <use xlink:href="#DejaVuSans-6f" transform="translate(1792.205078 0)"/>
       <use xlink:href="#DejaVuSans-73" transform="translate(1853.386719 0)"/>
       <use xlink:href="#DejaVuSans-69" transform="translate(1905.486328 0)"/>
       <use xlink:href="#DejaVuSans-74" transform="translate(1933.269531 0)"/>
       <use xlink:href="#DejaVuSans-65" transform="translate(1972.478516 0)"/>
       <use xlink:href="#DejaVuSans-29" transform="translate(2034.001953 0)"/>
      </g>
     </g>
    </g>
    <g id="xtick_15">
     <g id="line2d_15">
      <path d="M 315.752187 268.312 
L 104.845894 336.839609 
" clip-path="url(#p77a80cc634)" style="fill: none; stroke: #b0b0b0; stroke-width: 0.8; stroke-linecap: square"/>
     </g>
     <g id="text_15">
      <!-- Social/Affectionate Contact -->
      <g transform="translate(23.716259 343.925222) scale(0.1 -0.1)">
       <defs>
        <path id="DejaVuSans-2f" d="M 1625 4666 
L 2156 4666 
L 531 -594 
L 0 -594 
L 1625 4666 
z
" transform="scale(0.015625)"/>
       </defs>
       <use xlink:href="#DejaVuSans-53"/>
       <use xlink:href="#DejaVuSans-6f" transform="translate(63.476562 0)"/>
       <use xlink:href="#DejaVuSans-63" transform="translate(124.658203 0)"/>
       <use xlink:href="#DejaVuSans-69" transform="translate(179.638672 0)"/>
       <use xlink:href="#DejaVuSans-61" transform="translate(207.421875 0)"/>
       <use xlink:href="#DejaVuSans-6c" transform="translate(268.701172 0)"/>
       <use xlink:href="#DejaVuSans-2f" transform="translate(296.484375 0)"/>
       <use xlink:href="#DejaVuSans-41" transform="translate(330.175781 0)"/>
       <use xlink:href="#DejaVuSans-66" transform="translate(394.958984 0)"/>
       <use xlink:href="#DejaVuSans-66" transform="translate(430.164062 0)"/>
       <use xlink:href="#DejaVuSans-65" transform="translate(465.369141 0)"/>
       <use xlink:href="#DejaVuSans-63" transform="translate(526.892578 0)"/>
       <use xlink:href="#DejaVuSans-74" transform="translate(581.873047 0)"/>
       <use xlink:href="#DejaVuSans-69" transform="translate(621.082031 0)"/>
       <use xlink:href="#DejaVuSans-6f" transform="translate(648.865234 0)"/>
       <use xlink:href="#DejaVuSans-6e" transform="translate(710.046875 0)"/>
       <use xlink:href="#DejaVuSans-61" transform="translate(773.425781 0)"/>
       <use xlink:href="#DejaVuSans-74" transform="translate(834.705078 0)"/>
       <use xlink:href="#DejaVuSans-65" transform="translate(873.914062 0)"/>
       <use xlink:href="#DejaVuSans-20" transform="translate(935.4375 0)"/>
       <use xlink:href="#DejaVuSans-43" transform="translate(967.224609 0)"/>
       <use xlink:href="#DejaVuSans-6f" transform="translate(1037.048828 0)"/>
       <use xlink:href="#DejaVuSans-6e" transform="translate(1098.230469 0)"/>
       <use xlink:href="#DejaVuSans-74" transform="translate(1161.609375 0)"/>
       <use xlink:href="#DejaVuSans-61" transform="translate(1200.818359 0)"/>
       <use xlink:href="#DejaVuSans-63" transform="translate(1262.097656 0)"/>
       <use xlink:href="#DejaVuSans-74" transform="translate(1317.078125 0)"/>
      </g>
     </g>
    </g>
    <g id="xtick_16">
     <g id="line2d_16">
      <path d="M 315.752187 268.312 
L 93.992187 268.312 
" clip-path="url(#p77a80cc634)" style="fill: none; stroke: #b0b0b0; stroke-width: 0.8; stroke-linecap: square"/>
     </g>
     <g id="text_16">
      <!-- Composite Action Sequences -->
      <g transform="translate(7.2 271.071375) scale(0.1 -0.1)">
       <defs>
        <path id="DejaVuSans-71" d="M 947 1747 
Q 947 1113 1208 752 
Q 1469 391 1925 391 
Q 2381 391 2643 752 
Q 2906 1113 2906 1747 
Q 2906 2381 2643 2742 
Q 2381 3103 1925 3103 
Q 1469 3103 1208 2742 
Q 947 2381 947 1747 
z
M 2906 525 
Q 2725 213 2448 61 
Q 2172 -91 1784 -91 
Q 1150 -91 751 415 
Q 353 922 353 1747 
Q 353 2572 751 3078 
Q 1150 3584 1784 3584 
Q 2172 3584 2448 3432 
Q 2725 3281 2906 2969 
L 2906 3500 
L 3481 3500 
L 3481 -1331 
L 2906 -1331 
L 2906 525 
z
" transform="scale(0.015625)"/>
       </defs>
       <use xlink:href="#DejaVuSans-43"/>
       <use xlink:href="#DejaVuSans-6f" transform="translate(69.824219 0)"/>
       <use xlink:href="#DejaVuSans-6d" transform="translate(131.005859 0)"/>
       <use xlink:href="#DejaVuSans-70" transform="translate(228.417969 0)"/>
       <use xlink:href="#DejaVuSans-6f" transform="translate(291.894531 0)"/>
       <use xlink:href="#DejaVuSans-73" transform="translate(353.076172 0)"/>
       <use xlink:href="#DejaVuSans-69" transform="translate(405.175781 0)"/>
       <use xlink:href="#DejaVuSans-74" transform="translate(432.958984 0)"/>
       <use xlink:href="#DejaVuSans-65" transform="translate(472.167969 0)"/>
       <use xlink:href="#DejaVuSans-20" transform="translate(533.691406 0)"/>
       <use xlink:href="#DejaVuSans-41" transform="translate(565.478516 0)"/>
       <use xlink:href="#DejaVuSans-63" transform="translate(632.136719 0)"/>
       <use xlink:href="#DejaVuSans-74" transform="translate(687.117188 0)"/>
       <use xlink:href="#DejaVuSans-69" transform="translate(726.326172 0)"/>
       <use xlink:href="#DejaVuSans-6f" transform="translate(754.109375 0)"/>
       <use xlink:href="#DejaVuSans-6e" transform="translate(815.291016 0)"/>
       <use xlink:href="#DejaVuSans-20" transform="translate(878.669922 0)"/>
       <use xlink:href="#DejaVuSans-53" transform="translate(910.457031 0)"/>
       <use xlink:href="#DejaVuSans-65" transform="translate(973.933594 0)"/>
       <use xlink:href="#DejaVuSans-71" transform="translate(1035.457031 0)"/>
       <use xlink:href="#DejaVuSans-75" transform="translate(1098.933594 0)"/>
       <use xlink:href="#DejaVuSans-65" transform="translate(1162.3125 0)"/>
       <use xlink:href="#DejaVuSans-6e" transform="translate(1223.835938 0)"/>
       <use xlink:href="#DejaVuSans-63" transform="translate(1287.214844 0)"/>
       <use xlink:href="#DejaVuSans-65" transform="translate(1342.195312 0)"/>
       <use xlink:href="#DejaVuSans-73" transform="translate(1403.71875 0)"/>
      </g>
     </g>
    </g>
    <g id="xtick_17">
     <g id="line2d_17">
      <path d="M 315.752187 268.312 
L 104.845894 199.784391 
" clip-path="url(#p77a80cc634)" style="fill: none; stroke: #b0b0b0; stroke-width: 0.8; stroke-linecap: square"/>
     </g>
     <g id="text_17">
      <!-- Indicative Gesture -->
      <g transform="translate(45.832666 198.217528) scale(0.1 -0.1)">
       <use xlink:href="#DejaVuSans-49"/>
       <use xlink:href="#DejaVuSans-6e" transform="translate(29.492188 0)"/>
       <use xlink:href="#DejaVuSans-64" transform="translate(92.871094 0)"/>
       <use xlink:href="#DejaVuSans-69" transform="translate(156.347656 0)"/>
       <use xlink:href="#DejaVuSans-63" transform="translate(184.130859 0)"/>
       <use xlink:href="#DejaVuSans-61" transform="translate(239.111328 0)"/>
       <use xlink:href="#DejaVuSans-74" transform="translate(300.390625 0)"/>
       <use xlink:href="#DejaVuSans-69" transform="translate(339.599609 0)"/>
       <use xlink:href="#DejaVuSans-76" transform="translate(367.382812 0)"/>
       <use xlink:href="#DejaVuSans-65" transform="translate(426.5625 0)"/>
       <use xlink:href="#DejaVuSans-20" transform="translate(488.085938 0)"/>
       <use xlink:href="#DejaVuSans-47" transform="translate(519.873047 0)"/>
       <use xlink:href="#DejaVuSans-65" transform="translate(597.363281 0)"/>
       <use xlink:href="#DejaVuSans-73" transform="translate(658.886719 0)"/>
       <use xlink:href="#DejaVuSans-74" transform="translate(710.986328 0)"/>
       <use xlink:href="#DejaVuSans-75" transform="translate(750.195312 0)"/>
       <use xlink:href="#DejaVuSans-72" transform="translate(813.574219 0)"/>
       <use xlink:href="#DejaVuSans-65" transform="translate(852.4375 0)"/>
      </g>
     </g>
    </g>
    <g id="xtick_18">
     <g id="line2d_18">
      <path d="M 315.752187 268.312 
L 136.344579 137.964742 
" clip-path="url(#p77a80cc634)" style="fill: none; stroke: #b0b0b0; stroke-width: 0.8; stroke-linecap: square"/>
     </g>
     <g id="text_18">
      <!-- Sequential Actions -->
      <g transform="translate(78.52381 132.495124) scale(0.1 -0.1)">
       <use xlink:href="#DejaVuSans-53"/>
       <use xlink:href="#DejaVuSans-65" transform="translate(63.476562 0)"/>
       <use xlink:href="#DejaVuSans-71" transform="translate(125 0)"/>
       <use xlink:href="#DejaVuSans-75" transform="translate(188.476562 0)"/>
       <use xlink:href="#DejaVuSans-65" transform="translate(251.855469 0)"/>
       <use xlink:href="#DejaVuSans-6e" transform="translate(313.378906 0)"/>
       <use xlink:href="#DejaVuSans-74" transform="translate(376.757812 0)"/>
       <use xlink:href="#DejaVuSans-69" transform="translate(415.966797 0)"/>
       <use xlink:href="#DejaVuSans-61" transform="translate(443.75 0)"/>
       <use xlink:href="#DejaVuSans-6c" transform="translate(505.029297 0)"/>
       <use xlink:href="#DejaVuSans-20" transform="translate(532.8125 0)"/>
       <use xlink:href="#DejaVuSans-41" transform="translate(564.599609 0)"/>
       <use xlink:href="#DejaVuSans-63" transform="translate(631.257812 0)"/>
       <use xlink:href="#DejaVuSans-74" transform="translate(686.238281 0)"/>
       <use xlink:href="#DejaVuSans-69" transform="translate(725.447266 0)"/>
       <use xlink:href="#DejaVuSans-6f" transform="translate(753.230469 0)"/>
       <use xlink:href="#DejaVuSans-6e" transform="translate(814.412109 0)"/>
       <use xlink:href="#DejaVuSans-73" transform="translate(877.791016 0)"/>
      </g>
     </g>
    </g>
    <g id="xtick_19">
     <g id="line2d_19">
      <path d="M 315.752187 268.312 
L 185.40493 88.904391 
" clip-path="url(#p77a80cc634)" style="fill: none; stroke: #b0b0b0; stroke-width: 0.8; stroke-linecap: square"/>
     </g>
     <g id="text_19">
      <!-- Object State Change -->
      <g transform="translate(125.333749 80.337528) scale(0.1 -0.1)">
       <use xlink:href="#DejaVuSans-4f"/>
       <use xlink:href="#DejaVuSans-62" transform="translate(78.710938 0)"/>
       <use xlink:href="#DejaVuSans-6a" transform="translate(142.1875 0)"/>
       <use xlink:href="#DejaVuSans-65" transform="translate(169.970703 0)"/>
       <use xlink:href="#DejaVuSans-63" transform="translate(231.494141 0)"/>
       <use xlink:href="#DejaVuSans-74" transform="translate(286.474609 0)"/>
       <use xlink:href="#DejaVuSans-20" transform="translate(325.683594 0)"/>
       <use xlink:href="#DejaVuSans-53" transform="translate(357.470703 0)"/>
       <use xlink:href="#DejaVuSans-74" transform="translate(420.947266 0)"/>
       <use xlink:href="#DejaVuSans-61" transform="translate(460.15625 0)"/>
       <use xlink:href="#DejaVuSans-74" transform="translate(521.435547 0)"/>
       <use xlink:href="#DejaVuSans-65" transform="translate(560.644531 0)"/>
       <use xlink:href="#DejaVuSans-20" transform="translate(622.167969 0)"/>
       <use xlink:href="#DejaVuSans-43" transform="translate(653.955078 0)"/>
       <use xlink:href="#DejaVuSans-68" transform="translate(723.779297 0)"/>
       <use xlink:href="#DejaVuSans-61" transform="translate(787.158203 0)"/>
       <use xlink:href="#DejaVuSans-6e" transform="translate(848.4375 0)"/>
       <use xlink:href="#DejaVuSans-67" transform="translate(911.816406 0)"/>
       <use xlink:href="#DejaVuSans-65" transform="translate(975.292969 0)"/>
      </g>
     </g>
    </g>
    <g id="xtick_20">
     <g id="line2d_20">
      <path d="M 315.752187 268.312 
L 247.224579 57.405707 
" clip-path="url(#p77a80cc634)" style="fill: none; stroke: #b0b0b0; stroke-width: 0.8; stroke-linecap: square"/>
     </g>
     <g id="text_20">
      <!-- Instantaneous Motion &amp; Impact* -->
      <g transform="translate(161.944435 46.850291) scale(0.1 -0.1)">
       <defs>
        <path id="DejaVuSans-2a" d="M 3009 3897 
L 1888 3291 
L 3009 2681 
L 2828 2375 
L 1778 3009 
L 1778 1831 
L 1422 1831 
L 1422 3009 
L 372 2375 
L 191 2681 
L 1313 3291 
L 191 3897 
L 372 4206 
L 1422 3572 
L 1422 4750 
L 1778 4750 
L 1778 3572 
L 2828 4206 
L 3009 3897 
z
" transform="scale(0.015625)"/>
       </defs>
       <use xlink:href="#DejaVuSans-49"/>
       <use xlink:href="#DejaVuSans-6e" transform="translate(29.492188 0)"/>
       <use xlink:href="#DejaVuSans-73" transform="translate(92.871094 0)"/>
       <use xlink:href="#DejaVuSans-74" transform="translate(144.970703 0)"/>
       <use xlink:href="#DejaVuSans-61" transform="translate(184.179688 0)"/>
       <use xlink:href="#DejaVuSans-6e" transform="translate(245.458984 0)"/>
       <use xlink:href="#DejaVuSans-74" transform="translate(308.837891 0)"/>
       <use xlink:href="#DejaVuSans-61" transform="translate(348.046875 0)"/>
       <use xlink:href="#DejaVuSans-6e" transform="translate(409.326172 0)"/>
       <use xlink:href="#DejaVuSans-65" transform="translate(472.705078 0)"/>
       <use xlink:href="#DejaVuSans-6f" transform="translate(534.228516 0)"/>
       <use xlink:href="#DejaVuSans-75" transform="translate(595.410156 0)"/>
       <use xlink:href="#DejaVuSans-73" transform="translate(658.789062 0)"/>
       <use xlink:href="#DejaVuSans-20" transform="translate(710.888672 0)"/>
       <use xlink:href="#DejaVuSans-4d" transform="translate(742.675781 0)"/>
       <use xlink:href="#DejaVuSans-6f" transform="translate(828.955078 0)"/>
       <use xlink:href="#DejaVuSans-74" transform="translate(890.136719 0)"/>
       <use xlink:href="#DejaVuSans-69" transform="translate(929.345703 0)"/>
       <use xlink:href="#DejaVuSans-6f" transform="translate(957.128906 0)"/>
       <use xlink:href="#DejaVuSans-6e" transform="translate(1018.310547 0)"/>
       <use xlink:href="#DejaVuSans-20" transform="translate(1081.689453 0)"/>
       <use xlink:href="#DejaVuSans-26" transform="translate(1113.476562 0)"/>
       <use xlink:href="#DejaVuSans-20" transform="translate(1191.455078 0)"/>
       <use xlink:href="#DejaVuSans-49" transform="translate(1223.242188 0)"/>
       <use xlink:href="#DejaVuSans-6d" transform="translate(1252.734375 0)"/>
       <use xlink:href="#DejaVuSans-70" transform="translate(1350.146484 0)"/>
       <use xlink:href="#DejaVuSans-61" transform="translate(1413.623047 0)"/>
       <use xlink:href="#DejaVuSans-63" transform="translate(1474.902344 0)"/>
       <use xlink:href="#DejaVuSans-74" transform="translate(1529.882812 0)"/>
       <use xlink:href="#DejaVuSans-2a" transform="translate(1569.091797 0)"/>
      </g>
     </g>
    </g>
   </g>
   <g id="matplotlib.axis_2">
    <g id="ytick_1">
     <g id="line2d_21">
      <path d="M 315.752187 268.312 
C 315.752187 268.312 315.752187 268.312 315.752187 268.312 
C 315.752187 268.312 315.752187 268.312 315.752187 268.312 
C 315.752187 268.312 315.752187 268.312 315.752187 268.312 
C 315.752187 268.312 315.752187 268.312 315.752187 268.312 
C 315.752187 268.312 315.752187 268.312 315.752187 268.312 
C 315.752187 268.312 315.752187 268.312 315.752187 268.312 
C 315.752187 268.312 315.752187 268.312 315.752187 268.312 
C 315.752187 268.312 315.752187 268.312 315.752187 268.312 
C 315.752187 268.312 315.752187 268.312 315.752187 268.312 
C 315.752187 268.312 315.752187 268.312 315.752187 268.312 
C 315.752187 268.312 315.752187 268.312 315.752187 268.312 
C 315.752187 268.312 315.752187 268.312 315.752187 268.312 
C 315.752187 268.312 315.752187 268.312 315.752187 268.312 
C 315.752187 268.312 315.752187 268.312 315.752187 268.312 
C 315.752187 268.312 315.752187 268.312 315.752187 268.312 
C 315.752187 268.312 315.752187 268.312 315.752187 268.312 
" clip-path="url(#p77a80cc634)" style="fill: none; stroke: #b0b0b0; stroke-width: 0.8; stroke-linecap: square"/>
     </g>
     <g id="text_21">
      <!-- 0.00 -->
      <g style="fill: #808080" transform="translate(315.752187 266.856219) scale(0.07 -0.07)">
       <defs>
        <path id="DejaVuSans-30" d="M 2034 4250 
Q 1547 4250 1301 3770 
Q 1056 3291 1056 2328 
Q 1056 1369 1301 889 
Q 1547 409 2034 409 
Q 2525 409 2770 889 
Q 3016 1369 3016 2328 
Q 3016 3291 2770 3770 
Q 2525 4250 2034 4250 
z
M 2034 4750 
Q 2819 4750 3233 4129 
Q 3647 3509 3647 2328 
Q 3647 1150 3233 529 
Q 2819 -91 2034 -91 
Q 1250 -91 836 529 
Q 422 1150 422 2328 
Q 422 3509 836 4129 
Q 1250 4750 2034 4750 
z
" transform="scale(0.015625)"/>
        <path id="DejaVuSans-2e" d="M 684 794 
L 1344 794 
L 1344 0 
L 684 0 
L 684 794 
z
" transform="scale(0.015625)"/>
       </defs>
       <use xlink:href="#DejaVuSans-30"/>
       <use xlink:href="#DejaVuSans-2e" transform="translate(63.623047 0)"/>
       <use xlink:href="#DejaVuSans-30" transform="translate(95.410156 0)"/>
       <use xlink:href="#DejaVuSans-30" transform="translate(159.033203 0)"/>
      </g>
     </g>
    </g>
    <g id="ytick_2">
     <g id="line2d_22">
      <path d="M 315.752187 223.96 
C 321.576439 223.96 327.344057 225.107251 332.724963 227.336095 
C 338.10587 229.564939 342.99542 232.832032 347.113787 236.9504 
C 351.232155 241.068768 354.499248 245.958318 356.728093 251.339224 
C 358.956937 256.720131 360.104187 262.487749 360.104187 268.312 
C 360.104187 274.136251 358.956937 279.903869 356.728093 285.284776 
C 354.499248 290.665682 351.232155 295.555232 347.113787 299.6736 
C 342.99542 303.791968 338.10587 307.059061 332.724963 309.287905 
C 327.344057 311.516749 321.576439 312.664 315.752187 312.664 
C 309.927936 312.664 304.160318 311.516749 298.779412 309.287905 
C 293.398505 307.059061 288.508955 303.791968 284.390588 299.6736 
C 280.27222 295.555232 277.005127 290.665682 274.776282 285.284776 
C 272.547438 279.903869 271.400188 274.136251 271.400188 268.312 
C 271.400188 262.487749 272.547438 256.720131 274.776282 251.339224 
C 277.005127 245.958318 280.27222 241.068768 284.390588 236.9504 
C 288.508955 232.832032 293.398505 229.564939 298.779412 227.336095 
C 304.160318 225.107251 309.927936 223.96 315.752187 223.96 
" clip-path="url(#p77a80cc634)" style="fill: none; stroke: #b0b0b0; stroke-width: 0.8; stroke-linecap: square"/>
     </g>
     <g id="text_22">
      <!-- 0.15 -->
      <g style="fill: #808080" transform="translate(315.752187 222.504219) scale(0.07 -0.07)">
       <defs>
        <path id="DejaVuSans-31" d="M 794 531 
L 1825 531 
L 1825 4091 
L 703 3866 
L 703 4441 
L 1819 4666 
L 2450 4666 
L 2450 531 
L 3481 531 
L 3481 0 
L 794 0 
L 794 531 
z
" transform="scale(0.015625)"/>
        <path id="DejaVuSans-35" d="M 691 4666 
L 3169 4666 
L 3169 4134 
L 1269 4134 
L 1269 2991 
Q 1406 3038 1543 3061 
Q 1681 3084 1819 3084 
Q 2600 3084 3056 2656 
Q 3513 2228 3513 1497 
Q 3513 744 3044 326 
Q 2575 -91 1722 -91 
Q 1428 -91 1123 -41 
Q 819 9 494 109 
L 494 744 
Q 775 591 1075 516 
Q 1375 441 1709 441 
Q 2250 441 2565 725 
Q 2881 1009 2881 1497 
Q 2881 1984 2565 2268 
Q 2250 2553 1709 2553 
Q 1456 2553 1204 2497 
Q 953 2441 691 2322 
L 691 4666 
z
" transform="scale(0.015625)"/>
       </defs>
       <use xlink:href="#DejaVuSans-30"/>
       <use xlink:href="#DejaVuSans-2e" transform="translate(63.623047 0)"/>
       <use xlink:href="#DejaVuSans-31" transform="translate(95.410156 0)"/>
       <use xlink:href="#DejaVuSans-35" transform="translate(159.033203 0)"/>
      </g>
     </g>
    </g>
    <g id="ytick_3">
     <g id="line2d_23">
      <path d="M 315.752187 179.608 
C 327.40069 179.608 338.935926 181.902501 349.697739 186.36019 
C 360.459552 190.817879 370.238652 197.352065 378.475387 205.5888 
C 386.712123 213.825535 393.246309 223.604636 397.703998 234.366449 
C 402.161686 245.128262 404.456187 256.663497 404.456187 268.312 
C 404.456187 279.960503 402.161686 291.495738 397.703998 302.257551 
C 393.246309 313.019364 386.712123 322.798465 378.475387 331.0352 
C 370.238652 339.271935 360.459552 345.806121 349.697739 350.26381 
C 338.935926 354.721499 327.40069 357.016 315.752187 357.016 
C 304.103685 357.016 292.568449 354.721499 281.806636 350.26381 
C 271.044823 345.806121 261.265723 339.271935 253.028988 331.0352 
C 244.792252 322.798465 238.258066 313.019364 233.800377 302.257551 
C 229.342689 291.495738 227.048187 279.960503 227.048187 268.312 
C 227.048187 256.663497 229.342689 245.128262 233.800377 234.366449 
C 238.258066 223.604636 244.792252 213.825535 253.028988 205.5888 
C 261.265723 197.352065 271.044823 190.817879 281.806636 186.36019 
C 292.568449 181.902501 304.103685 179.608 315.752187 179.608 
" clip-path="url(#p77a80cc634)" style="fill: none; stroke: #b0b0b0; stroke-width: 0.8; stroke-linecap: square"/>
     </g>
     <g id="text_23">
      <!-- 0.30 -->
      <g style="fill: #808080" transform="translate(315.752187 178.152219) scale(0.07 -0.07)">
       <defs>
        <path id="DejaVuSans-33" d="M 2597 2516 
Q 3050 2419 3304 2112 
Q 3559 1806 3559 1356 
Q 3559 666 3084 287 
Q 2609 -91 1734 -91 
Q 1441 -91 1130 -33 
Q 819 25 488 141 
L 488 750 
Q 750 597 1062 519 
Q 1375 441 1716 441 
Q 2309 441 2620 675 
Q 2931 909 2931 1356 
Q 2931 1769 2642 2001 
Q 2353 2234 1838 2234 
L 1294 2234 
L 1294 2753 
L 1863 2753 
Q 2328 2753 2575 2939 
Q 2822 3125 2822 3475 
Q 2822 3834 2567 4026 
Q 2313 4219 1838 4219 
Q 1578 4219 1281 4162 
Q 984 4106 628 3988 
L 628 4550 
Q 988 4650 1302 4700 
Q 1616 4750 1894 4750 
Q 2613 4750 3031 4423 
Q 3450 4097 3450 3541 
Q 3450 3153 3228 2886 
Q 3006 2619 2597 2516 
z
" transform="scale(0.015625)"/>
       </defs>
       <use xlink:href="#DejaVuSans-30"/>
       <use xlink:href="#DejaVuSans-2e" transform="translate(63.623047 0)"/>
       <use xlink:href="#DejaVuSans-33" transform="translate(95.410156 0)"/>
       <use xlink:href="#DejaVuSans-30" transform="translate(159.033203 0)"/>
      </g>
     </g>
    </g>
    <g id="ytick_4">
     <g id="line2d_24">
      <path d="M 315.752187 135.256 
C 333.224941 135.256 350.527795 138.697752 366.670514 145.384285 
C 382.813234 152.070818 397.481885 161.872097 409.836987 174.2272 
C 422.19209 186.582303 431.993369 201.250954 438.679903 217.393673 
C 445.366436 233.536393 448.808187 250.839246 448.808187 268.312 
C 448.808187 285.784754 445.366436 303.087607 438.679903 319.230327 
C 431.993369 335.373046 422.19209 350.041697 409.836987 362.3968 
C 397.481885 374.751903 382.813234 384.553182 366.670514 391.239715 
C 350.527795 397.926248 333.224941 401.368 315.752187 401.368 
C 298.279434 401.368 280.97658 397.926248 264.833861 391.239715 
C 248.691141 384.553182 234.02249 374.751903 221.667388 362.3968 
C 209.312285 350.041697 199.511006 335.373046 192.824472 319.230327 
C 186.137939 303.087607 182.696188 285.784754 182.696188 268.312 
C 182.696188 250.839246 186.137939 233.536393 192.824472 217.393673 
C 199.511006 201.250954 209.312285 186.582303 221.667388 174.2272 
C 234.02249 161.872097 248.691141 152.070818 264.833861 145.384285 
C 280.97658 138.697752 298.279434 135.256 315.752187 135.256 
" clip-path="url(#p77a80cc634)" style="fill: none; stroke: #b0b0b0; stroke-width: 0.8; stroke-linecap: square"/>
     </g>
     <g id="text_24">
      <!-- 0.46 -->
      <g style="fill: #808080" transform="translate(315.752187 133.800219) scale(0.07 -0.07)">
       <defs>
        <path id="DejaVuSans-34" d="M 2419 4116 
L 825 1625 
L 2419 1625 
L 2419 4116 
z
M 2253 4666 
L 3047 4666 
L 3047 1625 
L 3713 1625 
L 3713 1100 
L 3047 1100 
L 3047 0 
L 2419 0 
L 2419 1100 
L 313 1100 
L 313 1709 
L 2253 4666 
z
" transform="scale(0.015625)"/>
        <path id="DejaVuSans-36" d="M 2113 2584 
Q 1688 2584 1439 2293 
Q 1191 2003 1191 1497 
Q 1191 994 1439 701 
Q 1688 409 2113 409 
Q 2538 409 2786 701 
Q 3034 994 3034 1497 
Q 3034 2003 2786 2293 
Q 2538 2584 2113 2584 
z
M 3366 4563 
L 3366 3988 
Q 3128 4100 2886 4159 
Q 2644 4219 2406 4219 
Q 1781 4219 1451 3797 
Q 1122 3375 1075 2522 
Q 1259 2794 1537 2939 
Q 1816 3084 2150 3084 
Q 2853 3084 3261 2657 
Q 3669 2231 3669 1497 
Q 3669 778 3244 343 
Q 2819 -91 2113 -91 
Q 1303 -91 875 529 
Q 447 1150 447 2328 
Q 447 3434 972 4092 
Q 1497 4750 2381 4750 
Q 2619 4750 2861 4703 
Q 3103 4656 3366 4563 
z
" transform="scale(0.015625)"/>
       </defs>
       <use xlink:href="#DejaVuSans-30"/>
       <use xlink:href="#DejaVuSans-2e" transform="translate(63.623047 0)"/>
       <use xlink:href="#DejaVuSans-34" transform="translate(95.410156 0)"/>
       <use xlink:href="#DejaVuSans-36" transform="translate(159.033203 0)"/>
      </g>
     </g>
    </g>
    <g id="ytick_5">
     <g id="line2d_25">
      <path d="M 315.752187 90.904 
C 339.049193 90.904 362.119664 95.493002 383.64329 104.40838 
C 405.166916 113.323758 424.725117 126.39213 441.198587 142.8656 
C 457.672058 159.33907 470.74043 178.897271 479.655808 200.420898 
C 488.571185 221.944524 493.160188 245.014995 493.160188 268.312 
C 493.160188 291.609005 488.571185 314.679476 479.655808 336.203102 
C 470.74043 357.726729 457.672058 377.28493 441.198587 393.7584 
C 424.725117 410.23187 405.166916 423.300242 383.64329 432.21562 
C 362.119664 441.130998 339.049193 445.72 315.752187 445.72 
C 292.455182 445.72 269.384711 441.130998 247.861085 432.21562 
C 226.337459 423.300242 206.779258 410.23187 190.305788 393.7584 
C 173.832317 377.28493 160.763945 357.726729 151.848567 336.203102 
C 142.93319 314.679476 138.344188 291.609005 138.344188 268.312 
C 138.344188 245.014995 142.93319 221.944524 151.848567 200.420898 
C 160.763945 178.897271 173.832317 159.33907 190.305788 142.8656 
C 206.779258 126.39213 226.337459 113.323758 247.861085 104.40838 
C 269.384711 95.493002 292.455182 90.904 315.752187 90.904 
" clip-path="url(#p77a80cc634)" style="fill: none; stroke: #b0b0b0; stroke-width: 0.8; stroke-linecap: square"/>
     </g>
     <g id="text_25">
      <!-- 0.61 -->
      <g style="fill: #808080" transform="translate(315.752187 89.448219) scale(0.07 -0.07)">
       <use xlink:href="#DejaVuSans-30"/>
       <use xlink:href="#DejaVuSans-2e" transform="translate(63.623047 0)"/>
       <use xlink:href="#DejaVuSans-36" transform="translate(95.410156 0)"/>
       <use xlink:href="#DejaVuSans-31" transform="translate(159.033203 0)"/>
      </g>
     </g>
    </g>
   </g>
   <g id="line2d_26">
    <path d="M 315.752187 233.151008 
L 333.539535 213.568174 
L 323.312179 257.906565 
L 405.648796 202.998291 
L 339.619388 260.557076 
L 356.272747 268.312 
L 423.681681 303.380418 
L 424.026768 346.978088 
L 373.824201 348.24127 
L 357.370023 396.398528 
L 315.752187 381.764697 
L 279.201664 380.802944 
L 245.423429 365.111232 
L 212.284305 343.485817 
L 178.859971 312.790977 
L 232.425471 268.312 
L 178.884314 223.840932 
L 217.737513 197.100171 
L 223.699557 141.612424 
L 293.578061 200.067056 
L 315.752187 233.151008 
" clip-path="url(#p77a80cc634)" style="fill: none; stroke: #1f77b4; stroke-width: 2; stroke-linecap: square"/>
   </g>
   <g id="line2d_27">
    <path d="M 315.752187 232.043419 
L 327.377559 232.532784 
L 322.300045 259.299647 
L 390.248107 214.187546 
L 336.437525 261.590926 
L 357.423337 268.312 
L 410.820656 299.201618 
L 413.108419 339.045443 
L 359.323991 328.283443 
L 349.141472 371.07365 
L 315.752187 366.397605 
L 289.731969 348.393997 
L 254.198866 353.032878 
L 188.780769 360.562136 
L 219.219461 299.677384 
L 219.753747 268.312 
L 218.931454 236.853037 
L 228.586913 204.982721 
L 235.078794 157.2746 
L 297.153068 211.069797 
L 315.752187 232.043419 
" clip-path="url(#p77a80cc634)" style="fill: none; stroke: #ff7f0e; stroke-width: 2; stroke-linecap: square"/>
   </g>
   <g id="line2d_28">
    <path d="M 315.752187 213.355248 
L 334.015235 212.104119 
L 338.457438 237.060904 
L 398.575626 208.13725 
L 381.006181 247.109692 
L 385.886628 268.312 
L 417.404547 301.340854 
L 405.256648 333.340797 
L 366.592224 338.287307 
L 349.741291 372.919705 
L 315.752187 376.411193 
L 276.103192 390.33906 
L 249.225998 359.877445 
L 225.559054 333.841147 
L 201.689559 305.373195 
L 210.750914 268.312 
L 206.871598 232.934552 
L 223.31801 201.154639 
L 248.46051 175.692952 
L 280.343127 159.334116 
L 315.752187 213.355248 
" clip-path="url(#p77a80cc634)" style="fill: none; stroke: #2ca02c; stroke-width: 2; stroke-linecap: square"/>
   </g>
   <g id="line2d_29">
    <path d="M 315.752187 143.884261 
L 360.630602 130.190443 
L 385.095269 172.869436 
L 465.552718 159.475544 
L 455.705186 222.838514 
L 424.200109 268.312 
L 480.442358 321.82308 
L 476.201794 384.885463 
L 410.524243 398.754544 
L 374.919566 450.410468 
L 315.752187 440.808369 
L 251.73832 465.326425 
L 233.393361 381.6692 
L 177.410135 368.823385 
L 131.716157 328.108931 
L 194.927241 268.312 
L 132.685011 208.829869 
L 214.074719 194.438995 
L 223.937412 141.939803 
L 278.202664 152.746451 
L 315.752187 143.884261 
" clip-path="url(#p77a80cc634)" style="fill: none; stroke: #d62728; stroke-width: 2; stroke-linecap: square"/>
   </g>
   <g id="line2d_30">
    <path d="M 315.752187 230.551306 
L 327.16342 233.191837 
L 329.402913 249.523388 
L 362.715513 234.191147 
L 351.426602 256.72068 
L 365.383008 268.312 
L 400.096332 295.717074 
L 386.675199 319.840584 
L 352.985984 319.559924 
L 341.958032 348.965296 
L 315.752187 342.565114 
L 288.426274 352.412515 
L 269.809188 331.547114 
L 284.325458 291.144856 
L 215.175485 300.991352 
L 238.549651 268.312 
L 233.153083 241.473924 
L 239.728209 213.077347 
L 254.16689 183.547109 
L 301.473146 224.365628 
L 315.752187 230.551306 
" clip-path="url(#p77a80cc634)" style="fill: none; stroke: #9467bd; stroke-width: 2; stroke-linecap: square"/>
   </g>
   <g id="patch_8">
    <path d="M 315.752187 46.552 
C 286.630931 46.552 257.792842 52.288253 230.88831 63.432475 
C 203.983777 74.576697 179.536026 90.912162 158.944188 111.504 
C 138.35235 132.095838 122.016885 156.543589 110.872662 183.448122 
C 99.72844 210.352655 93.992188 239.190744 93.992188 268.312 
C 93.992188 297.433256 99.72844 326.271345 110.872662 353.175878 
C 122.016885 380.080411 138.35235 404.528162 158.944188 425.12 
C 179.536026 445.711838 203.983777 462.047303 230.88831 473.191525 
C 257.792842 484.335747 286.630931 490.072 315.752187 490.072 
C 344.873444 490.072 373.711533 484.335747 400.616065 473.191525 
C 427.520598 462.047303 451.968349 445.711838 472.560187 425.12 
C 493.152025 404.528162 509.48749 380.080411 520.631713 353.175878 
C 531.775935 326.271345 537.512187 297.433256 537.512187 268.312 
C 537.512187 239.190744 531.775935 210.352655 520.631713 183.448122 
C 509.48749 156.543589 493.152025 132.095838 472.560187 111.504 
C 451.968349 90.912162 427.520598 74.576697 400.616065 63.432475 
C 373.711533 52.288253 344.873444 46.552 315.752187 46.552 
" style="fill: none; stroke: #000000; stroke-width: 0.8; stroke-linejoin: miter; stroke-linecap: square"/>
   </g>
   <g id="text_26">
    <!-- Mean mvIoU by fine_category and Model -->
    <g transform="translate(193.185313 18.883562) scale(0.12 -0.12)">
     <defs>
      <path id="DejaVuSans-55" d="M 556 4666 
L 1191 4666 
L 1191 1831 
Q 1191 1081 1462 751 
Q 1734 422 2344 422 
Q 2950 422 3222 751 
Q 3494 1081 3494 1831 
L 3494 4666 
L 4128 4666 
L 4128 1753 
Q 4128 841 3676 375 
Q 3225 -91 2344 -91 
Q 1459 -91 1007 375 
Q 556 841 556 1753 
L 556 4666 
z
" transform="scale(0.015625)"/>
      <path id="DejaVuSans-79" d="M 2059 -325 
Q 1816 -950 1584 -1140 
Q 1353 -1331 966 -1331 
L 506 -1331 
L 506 -850 
L 844 -850 
Q 1081 -850 1212 -737 
Q 1344 -625 1503 -206 
L 1606 56 
L 191 3500 
L 800 3500 
L 1894 763 
L 2988 3500 
L 3597 3500 
L 2059 -325 
z
" transform="scale(0.015625)"/>
      <path id="DejaVuSans-5f" d="M 3263 -1063 
L 3263 -1509 
L -63 -1509 
L -63 -1063 
L 3263 -1063 
z
" transform="scale(0.015625)"/>
     </defs>
     <use xlink:href="#DejaVuSans-4d"/>
     <use xlink:href="#DejaVuSans-65" transform="translate(86.279297 0)"/>
     <use xlink:href="#DejaVuSans-61" transform="translate(147.802734 0)"/>
     <use xlink:href="#DejaVuSans-6e" transform="translate(209.082031 0)"/>
     <use xlink:href="#DejaVuSans-20" transform="translate(272.460938 0)"/>
     <use xlink:href="#DejaVuSans-6d" transform="translate(304.248047 0)"/>
     <use xlink:href="#DejaVuSans-76" transform="translate(401.660156 0)"/>
     <use xlink:href="#DejaVuSans-49" transform="translate(460.839844 0)"/>
     <use xlink:href="#DejaVuSans-6f" transform="translate(490.332031 0)"/>
     <use xlink:href="#DejaVuSans-55" transform="translate(551.513672 0)"/>
     <use xlink:href="#DejaVuSans-20" transform="translate(624.707031 0)"/>
     <use xlink:href="#DejaVuSans-62" transform="translate(656.494141 0)"/>
     <use xlink:href="#DejaVuSans-79" transform="translate(719.970703 0)"/>
     <use xlink:href="#DejaVuSans-20" transform="translate(779.150391 0)"/>
     <use xlink:href="#DejaVuSans-66" transform="translate(810.9375 0)"/>
     <use xlink:href="#DejaVuSans-69" transform="translate(846.142578 0)"/>
     <use xlink:href="#DejaVuSans-6e" transform="translate(873.925781 0)"/>
     <use xlink:href="#DejaVuSans-65" transform="translate(937.304688 0)"/>
     <use xlink:href="#DejaVuSans-5f" transform="translate(998.828125 0)"/>
     <use xlink:href="#DejaVuSans-63" transform="translate(1048.828125 0)"/>
     <use xlink:href="#DejaVuSans-61" transform="translate(1103.808594 0)"/>
     <use xlink:href="#DejaVuSans-74" transform="translate(1165.087891 0)"/>
     <use xlink:href="#DejaVuSans-65" transform="translate(1204.296875 0)"/>
     <use xlink:href="#DejaVuSans-67" transform="translate(1265.820312 0)"/>
     <use xlink:href="#DejaVuSans-6f" transform="translate(1329.296875 0)"/>
     <use xlink:href="#DejaVuSans-72" transform="translate(1390.478516 0)"/>
     <use xlink:href="#DejaVuSans-79" transform="translate(1431.591797 0)"/>
     <use xlink:href="#DejaVuSans-20" transform="translate(1490.771484 0)"/>
     <use xlink:href="#DejaVuSans-61" transform="translate(1522.558594 0)"/>
     <use xlink:href="#DejaVuSans-6e" transform="translate(1583.837891 0)"/>
     <use xlink:href="#DejaVuSans-64" transform="translate(1647.216797 0)"/>
     <use xlink:href="#DejaVuSans-20" transform="translate(1710.693359 0)"/>
     <use xlink:href="#DejaVuSans-4d" transform="translate(1742.480469 0)"/>
     <use xlink:href="#DejaVuSans-6f" transform="translate(1828.759766 0)"/>
     <use xlink:href="#DejaVuSans-64" transform="translate(1889.941406 0)"/>
     <use xlink:href="#DejaVuSans-65" transform="translate(1953.417969 0)"/>
     <use xlink:href="#DejaVuSans-6c" transform="translate(2014.941406 0)"/>
    </g>
   </g>
   <g id="legend_1">
    <g id="patch_9">
     <path d="M 595.165062 83.590625 
L 663.568188 83.590625 
Q 665.568188 83.590625 665.568188 81.590625 
L 665.568188 9.2 
Q 665.568188 7.2 663.568188 7.2 
L 595.165062 7.2 
Q 593.165062 7.2 593.165062 9.2 
L 593.165062 81.590625 
Q 593.165062 83.590625 595.165062 83.590625 
z
" style="fill: #ffffff; opacity: 0.8; stroke: #cccccc; stroke-linejoin: miter"/>
    </g>
    <g id="line2d_31">
     <path d="M 597.165062 15.298437 
L 607.165062 15.298437 
L 617.165062 15.298437 
" style="fill: none; stroke: #1f77b4; stroke-width: 2; stroke-linecap: square"/>
    </g>
    <g id="text_27">
     <!-- gdino -->
     <g transform="translate(625.165062 18.798437) scale(0.1 -0.1)">
      <use xlink:href="#DejaVuSans-67"/>
      <use xlink:href="#DejaVuSans-64" transform="translate(63.476562 0)"/>
      <use xlink:href="#DejaVuSans-69" transform="translate(126.953125 0)"/>
      <use xlink:href="#DejaVuSans-6e" transform="translate(154.736328 0)"/>
      <use xlink:href="#DejaVuSans-6f" transform="translate(218.115234 0)"/>
     </g>
    </g>
    <g id="line2d_32">
     <path d="M 597.165062 29.976562 
L 607.165062 29.976562 
L 617.165062 29.976562 
" style="fill: none; stroke: #ff7f0e; stroke-width: 2; stroke-linecap: square"/>
    </g>
    <g id="text_28">
     <!-- llava -->
     <g transform="translate(625.165062 33.476562) scale(0.1 -0.1)">
      <use xlink:href="#DejaVuSans-6c"/>
      <use xlink:href="#DejaVuSans-6c" transform="translate(27.783203 0)"/>
      <use xlink:href="#DejaVuSans-61" transform="translate(55.566406 0)"/>
      <use xlink:href="#DejaVuSans-76" transform="translate(116.845703 0)"/>
      <use xlink:href="#DejaVuSans-61" transform="translate(176.025391 0)"/>
     </g>
    </g>
    <g id="line2d_33">
     <path d="M 597.165062 44.654687 
L 607.165062 44.654687 
L 617.165062 44.654687 
" style="fill: none; stroke: #2ca02c; stroke-width: 2; stroke-linecap: square"/>
    </g>
    <g id="text_29">
     <!-- shikra -->
     <g transform="translate(625.165062 48.154687) scale(0.1 -0.1)">
      <defs>
       <path id="DejaVuSans-6b" d="M 581 4863 
L 1159 4863 
L 1159 1991 
L 2875 3500 
L 3609 3500 
L 1753 1863 
L 3688 0 
L 2938 0 
L 1159 1709 
L 1159 0 
L 581 0 
L 581 4863 
z
" transform="scale(0.015625)"/>
      </defs>
      <use xlink:href="#DejaVuSans-73"/>
      <use xlink:href="#DejaVuSans-68" transform="translate(52.099609 0)"/>
      <use xlink:href="#DejaVuSans-69" transform="translate(115.478516 0)"/>
      <use xlink:href="#DejaVuSans-6b" transform="translate(143.261719 0)"/>
      <use xlink:href="#DejaVuSans-72" transform="translate(201.171875 0)"/>
      <use xlink:href="#DejaVuSans-61" transform="translate(242.285156 0)"/>
     </g>
    </g>
    <g id="line2d_34">
     <path d="M 597.165062 59.332812 
L 607.165062 59.332812 
L 617.165062 59.332812 
" style="fill: none; stroke: #d62728; stroke-width: 2; stroke-linecap: square"/>
    </g>
    <g id="text_30">
     <!-- cogvlm -->
     <g transform="translate(625.165062 62.832812) scale(0.1 -0.1)">
      <use xlink:href="#DejaVuSans-63"/>
      <use xlink:href="#DejaVuSans-6f" transform="translate(54.980469 0)"/>
      <use xlink:href="#DejaVuSans-67" transform="translate(116.162109 0)"/>
      <use xlink:href="#DejaVuSans-76" transform="translate(179.638672 0)"/>
      <use xlink:href="#DejaVuSans-6c" transform="translate(238.818359 0)"/>
      <use xlink:href="#DejaVuSans-6d" transform="translate(266.601562 0)"/>
     </g>
    </g>
    <g id="line2d_35">
     <path d="M 597.165062 74.010937 
L 607.165062 74.010937 
L 617.165062 74.010937 
" style="fill: none; stroke: #9467bd; stroke-width: 2; stroke-linecap: square"/>
    </g>
    <g id="text_31">
     <!-- ferret -->
     <g transform="translate(625.165062 77.510937) scale(0.1 -0.1)">
      <use xlink:href="#DejaVuSans-66"/>
      <use xlink:href="#DejaVuSans-65" transform="translate(35.205078 0)"/>
      <use xlink:href="#DejaVuSans-72" transform="translate(96.728516 0)"/>
      <use xlink:href="#DejaVuSans-72" transform="translate(136.091797 0)"/>
      <use xlink:href="#DejaVuSans-65" transform="translate(174.955078 0)"/>
      <use xlink:href="#DejaVuSans-74" transform="translate(236.478516 0)"/>
     </g>
    </g>
   </g>
  </g>
 </g>
 <defs>
  <clipPath id="p77a80cc634">
   <path d="M 537.512187 268.312 
C 537.512187 239.190744 531.775935 210.352655 520.631713 183.448122 
C 509.48749 156.543589 493.152025 132.095838 472.560187 111.504 
C 451.968349 90.912162 427.520598 74.576697 400.616065 63.432475 
C 373.711533 52.288253 344.873444 46.552 315.752187 46.552 
C 286.630931 46.552 257.792842 52.288253 230.88831 63.432475 
C 203.983777 74.576697 179.536026 90.912162 158.944188 111.504 
C 138.35235 132.095838 122.016885 156.543589 110.872662 183.448122 
C 99.72844 210.352655 93.992187 239.190744 93.992187 268.312 
C 93.992187 297.433256 99.72844 326.271345 110.872662 353.175878 
C 122.016885 380.080411 138.35235 404.528162 158.944188 425.12 
C 179.536026 445.711838 203.983777 462.047303 230.88831 473.191525 
C 257.792842 484.335747 286.630931 490.072 315.752187 490.072 
C 344.873444 490.072 373.711533 484.335747 400.616065 473.191525 
C 427.520598 462.047303 451.968349 445.711838 472.560187 425.12 
C 493.152025 404.528162 509.48749 380.080411 520.631713 353.175878 
C 531.775935 326.271345 537.512187 297.433256 537.512187 268.312 
M 315.752187 268.312 
C 315.752187 268.312 315.752187 268.312 315.752187 268.312 
C 315.752187 268.312 315.752187 268.312 315.752187 268.312 
C 315.752187 268.312 315.752187 268.312 315.752187 268.312 
C 315.752187 268.312 315.752187 268.312 315.752187 268.312 
C 315.752187 268.312 315.752187 268.312 315.752187 268.312 
C 315.752187 268.312 315.752187 268.312 315.752187 268.312 
C 315.752187 268.312 315.752187 268.312 315.752187 268.312 
C 315.752187 268.312 315.752187 268.312 315.752187 268.312 
C 315.752187 268.312 315.752187 268.312 315.752187 268.312 
C 315.752187 268.312 315.752187 268.312 315.752187 268.312 
C 315.752187 268.312 315.752187 268.312 315.752187 268.312 
C 315.752187 268.312 315.752187 268.312 315.752187 268.312 
C 315.752187 268.312 315.752187 268.312 315.752187 268.312 
C 315.752187 268.312 315.752187 268.312 315.752187 268.312 
C 315.752187 268.312 315.752187 268.312 315.752187 268.312 
C 315.752187 268.312 315.752187 268.312 315.752187 268.312 
z
"/>
  </clipPath>
 </defs>
</svg>
