<?xml version="1.0" encoding="utf-8" standalone="no"?>
<!DOCTYPE svg PUBLIC "-//W3C//DTD SVG 1.1//EN"
  "http://www.w3.org/Graphics/SVG/1.1/DTD/svg11.dtd">
<svg xmlns:xlink="http://www.w3.org/1999/xlink" width="698.529221pt" height="572.054406pt" viewBox="0 0 698.529221 572.054406" xmlns="http://www.w3.org/2000/svg" version="1.1">
 <metadata>
  <rdf:RDF xmlns:dc="http://purl.org/dc/elements/1.1/" xmlns:cc="http://creativecommons.org/ns#" xmlns:rdf="http://www.w3.org/1999/02/22-rdf-syntax-ns#">
   <cc:Work>
    <dc:type rdf:resource="http://purl.org/dc/dcmitype/StillImage"/>
    <dc:date>2025-11-05T17:16:13.684874</dc:date>
    <dc:format>image/svg+xml</dc:format>
    <dc:creator>
     <cc:Agent>
      <dc:title>Matplotlib v3.10.6, https://matplotlib.org/</dc:title>
     </cc:Agent>
    </dc:creator>
   </cc:Work>
  </rdf:RDF>
 </metadata>
 <defs>
  <style type="text/css">*{stroke-linejoin: round; stroke-linecap: butt}</style>
 </defs>
 <g id="figure_1">
  <g id="patch_1">
   <path d="M 0 572.054406 
L 698.529221 572.054406 
L 698.529221 0 
L 0 0 
z
" style="fill: #ffffff"/>
  </g>
  <g id="axes_1">
   <g id="patch_2">
    <path d="M 630.347438 286.027203 
C 630.347438 249.41195 623.135032 213.152735 609.122981 179.324652 
C 595.110931 145.496569 574.571735 114.757491 548.680841 88.866597 
C 522.789948 62.975703 492.050869 42.436508 458.222786 28.424457 
C 424.394704 14.412406 388.135488 7.2 351.520235 7.2 
C 314.904983 7.2 278.645767 14.412406 244.817684 28.424457 
C 210.989602 42.436508 180.250523 62.975703 154.359629 88.866597 
C 128.468736 114.757491 107.92954 145.496569 93.917489 179.324652 
C 79.905439 213.152735 72.693032 249.41195 72.693032 286.027203 
C 72.693032 322.642456 79.905439 358.901671 93.917489 392.729754 
C 107.92954 426.557837 128.468736 457.296916 154.359629 483.187809 
C 180.250523 509.078703 210.989602 529.617898 244.817684 543.629949 
C 278.645767 557.642 314.904983 564.854406 351.520235 564.854406 
C 388.135488 564.854406 424.394704 557.642 458.222786 543.629949 
C 492.050869 529.617898 522.789948 509.078703 548.680841 483.187809 
C 574.571735 457.296916 595.110931 426.557837 609.122981 392.729754 
C 623.135032 358.901671 630.347438 322.642456 630.347438 286.027203 
M 351.520235 286.027203 
C 351.520235 286.027203 351.520235 286.027203 351.520235 286.027203 
C 351.520235 286.027203 351.520235 286.027203 351.520235 286.027203 
C 351.520235 286.027203 351.520235 286.027203 351.520235 286.027203 
C 351.520235 286.027203 351.520235 286.027203 351.520235 286.027203 
C 351.520235 286.027203 351.520235 286.027203 351.520235 286.027203 
C 351.520235 286.027203 351.520235 286.027203 351.520235 286.027203 
C 351.520235 286.027203 351.520235 286.027203 351.520235 286.027203 
C 351.520235 286.027203 351.520235 286.027203 351.520235 286.027203 
C 351.520235 286.027203 351.520235 286.027203 351.520235 286.027203 
C 351.520235 286.027203 351.520235 286.027203 351.520235 286.027203 
C 351.520235 286.027203 351.520235 286.027203 351.520235 286.027203 
C 351.520235 286.027203 351.520235 286.027203 351.520235 286.027203 
C 351.520235 286.027203 351.520235 286.027203 351.520235 286.027203 
C 351.520235 286.027203 351.520235 286.027203 351.520235 286.027203 
C 351.520235 286.027203 351.520235 286.027203 351.520235 286.027203 
C 351.520235 286.027203 351.520235 286.027203 351.520235 286.027203 
z
" style="fill: #ffffff"/>
   </g>
   <g id="patch_3">
    <path d="M 351.520235 27.853867 
C 364.400449 27.853867 377.262623 28.817754 389.998974 30.73745 
C 402.735326 32.657146 415.310181 35.527274 427.618162 39.323784 
L 433.705996 19.58751 
C 420.413376 15.48728 406.832534 12.387541 393.077274 10.314269 
C 379.322013 8.240998 365.430866 7.2 351.520235 7.2 
z
" clip-path="url(#p38834a1527)" style="fill: #e19f5d; opacity: 0.7"/>
   </g>
   <g id="patch_4">
    <path d="M 427.618162 39.323784 
C 439.926144 43.120293 451.932777 47.83255 463.537448 53.421065 
C 475.142119 59.00958 486.312322 65.4587 496.954454 72.714382 
L 508.589192 55.649357 
C 497.095689 47.813219 485.03187 40.84817 472.498825 34.812574 
C 459.96578 28.776977 446.998616 23.687741 433.705996 19.58751 
z
" clip-path="url(#p38834a1527)" style="fill: #e19f5d; opacity: 0.7"/>
   </g>
   <g id="patch_5">
    <path d="M 496.954454 72.714382 
C 507.596586 79.970065 517.680836 88.011986 527.1227 96.772756 
C 536.564565 105.533526 545.337596 114.988605 553.368277 125.058761 
L 569.516121 112.181285 
C 560.842985 101.305517 551.368111 91.094031 541.170897 81.6324 
C 530.973684 72.170768 520.082694 63.485494 508.589192 55.649357 
z
" clip-path="url(#p38834a1527)" style="fill: #e19f5d; opacity: 0.7"/>
   </g>
   <g id="patch_6">
    <path d="M 553.368277 125.058761 
C 561.398959 135.128917 568.664796 145.785943 575.104903 156.940535 
C 581.54501 168.095127 587.141346 179.71604 591.847017 191.705892 
L 611.073159 184.160187 
C 605.991035 171.211146 599.946992 158.660561 592.991676 146.613602 
C 586.036361 134.566642 578.189257 123.057054 569.516121 112.181285 
z
" clip-path="url(#p38834a1527)" style="fill: #e19f5d; opacity: 0.7"/>
   </g>
   <g id="patch_7">
    <path d="M 591.847017 191.705892 
C 596.552687 203.695744 600.35451 216.020952 603.220627 228.578231 
C 606.086744 241.135511 608.009127 253.889688 608.971666 266.733885 
L 629.567781 265.19042 
C 628.528238 251.318687 626.452065 237.544175 623.356658 223.982313 
C 620.261252 210.420452 616.155283 197.109228 611.073159 184.160187 
z
" clip-path="url(#p38834a1527)" style="fill: #e19f5d; opacity: 0.7"/>
   </g>
   <g id="patch_8">
    <path d="M 608.971666 266.733885 
C 609.934206 279.578083 609.934206 292.476323 608.971666 305.320521 
C 608.009127 318.164718 606.086744 330.918896 603.220627 343.476175 
L 623.356658 348.072093 
C 626.452065 334.510231 628.528238 320.735719 629.567781 306.863986 
C 630.607324 292.992253 630.607324 279.062153 629.567781 265.19042 
z
" clip-path="url(#p38834a1527)" style="fill: #e19f5d; opacity: 0.7"/>
   </g>
   <g id="patch_9">
    <path d="M 603.220627 343.476175 
C 600.35451 356.033454 596.552687 368.358662 591.847017 380.348514 
C 587.141346 392.338367 581.54501 403.959279 575.104903 415.113871 
L 592.991676 425.440805 
C 599.946992 413.393845 605.991035 400.84326 611.073159 387.894219 
C 616.155283 374.945178 620.261252 361.633954 623.356658 348.072093 
z
" clip-path="url(#p38834a1527)" style="fill: #e19f5d; opacity: 0.7"/>
   </g>
   <g id="patch_10">
    <path d="M 575.104903 415.113871 
C 568.664796 426.268463 561.398959 436.925489 553.368277 446.995645 
C 545.337596 457.065801 536.564565 466.52088 527.1227 475.28165 
L 541.170897 490.422006 
C 551.368111 480.960375 560.842985 470.748889 569.516121 459.873121 
C 578.189257 448.997352 586.036361 437.487764 592.991676 425.440805 
z
" clip-path="url(#p38834a1527)" style="fill: #5de19f; opacity: 0.7"/>
   </g>
   <g id="patch_11">
    <path d="M 527.1227 475.28165 
C 517.680836 484.04242 507.596586 492.084341 496.954454 499.340024 
C 486.312322 506.595706 475.142119 513.044826 463.537448 518.633341 
L 472.498825 537.241833 
C 485.03187 531.206236 497.095689 524.241187 508.589192 516.40505 
C 520.082694 508.568912 530.973684 499.883638 541.170897 490.422006 
z
" clip-path="url(#p38834a1527)" style="fill: #5de19f; opacity: 0.7"/>
   </g>
   <g id="patch_12">
    <path d="M 463.537448 518.633341 
C 451.932777 524.221857 439.926144 528.934113 427.618162 532.730622 
C 415.310181 536.527132 402.735326 539.39726 389.998974 541.316956 
L 393.077274 561.740137 
C 406.832534 559.666865 420.413376 556.567126 433.705996 552.466896 
C 446.998616 548.366666 459.96578 543.277429 472.498825 537.241833 
z
" clip-path="url(#p38834a1527)" style="fill: #5de19f; opacity: 0.7"/>
   </g>
   <g id="patch_13">
    <path d="M 389.998974 541.316956 
C 377.262623 543.236653 364.400449 544.200539 351.520235 544.200539 
C 338.640022 544.200539 325.777848 543.236653 313.041496 541.316956 
L 309.963197 561.740137 
C 323.718457 563.813408 337.609605 564.854406 351.520235 564.854406 
C 365.430866 564.854406 379.322013 563.813408 393.077274 561.740137 
z
" clip-path="url(#p38834a1527)" style="fill: #5de19f; opacity: 0.7"/>
   </g>
   <g id="patch_14">
    <path d="M 313.041496 541.316956 
C 300.305144 539.39726 287.73029 536.527132 275.422309 532.730622 
C 263.114327 528.934113 251.107694 524.221857 239.503023 518.633341 
L 230.541646 537.241833 
C 243.074691 543.277429 256.041854 548.366666 269.334474 552.466896 
C 282.627095 556.567126 296.207937 559.666865 309.963197 561.740137 
z
" clip-path="url(#p38834a1527)" style="fill: #9f5de1; opacity: 0.7"/>
   </g>
   <g id="patch_15">
    <path d="M 239.503023 518.633341 
C 227.898352 513.044826 216.728148 506.595706 206.086017 499.340024 
C 195.443885 492.084341 185.359635 484.04242 175.91777 475.28165 
L 161.869573 490.422006 
C 172.066787 499.883638 182.957777 508.568912 194.451279 516.40505 
C 205.944781 524.241187 218.008601 531.206236 230.541646 537.241833 
z
" clip-path="url(#p38834a1527)" style="fill: #9f5de1; opacity: 0.7"/>
   </g>
   <g id="patch_16">
    <path d="M 175.91777 475.28165 
C 166.475906 466.52088 157.702875 457.065801 149.672193 446.995645 
C 141.641512 436.925489 134.375674 426.268463 127.935568 415.113871 
L 110.048794 425.440805 
C 117.004109 437.487764 124.851214 448.997352 133.52435 459.873121 
C 142.197486 470.748889 151.67236 480.960375 161.869573 490.422006 
z
" clip-path="url(#p38834a1527)" style="fill: #9f5de1; opacity: 0.7"/>
   </g>
   <g id="patch_17">
    <path d="M 127.935568 415.113871 
C 121.495461 403.959279 115.899124 392.338367 111.193454 380.348514 
C 106.487784 368.358662 102.685961 356.033454 99.819844 343.476175 
L 79.683812 348.072093 
C 82.779219 361.633954 86.885188 374.945178 91.967312 387.894219 
C 97.049436 400.84326 103.093479 413.393845 110.048794 425.440805 
z
" clip-path="url(#p38834a1527)" style="fill: #9f5de1; opacity: 0.7"/>
   </g>
   <g id="patch_18">
    <path d="M 99.819844 343.476175 
C 96.953727 330.918896 95.031344 318.164718 94.068804 305.320521 
C 93.106265 292.476323 93.106265 279.578083 94.068804 266.733885 
L 73.47269 265.19042 
C 72.433147 279.062153 72.433147 292.992253 73.47269 306.863986 
C 74.512232 320.735719 76.588406 334.510231 79.683812 348.072093 
z
" clip-path="url(#p38834a1527)" style="fill: #9f5de1; opacity: 0.7"/>
   </g>
   <g id="patch_19">
    <path d="M 94.068804 266.733885 
C 95.031344 253.889688 96.953727 241.135511 99.819844 228.578231 
C 102.685961 216.020952 106.487784 203.695744 111.193454 191.705892 
L 91.967312 184.160187 
C 86.885188 197.109228 82.779219 210.420452 79.683812 223.982313 
C 76.588406 237.544175 74.512232 251.318687 73.47269 265.19042 
z
" clip-path="url(#p38834a1527)" style="fill: #9f5de1; opacity: 0.7"/>
   </g>
   <g id="patch_20">
    <path d="M 111.193454 191.705892 
C 115.899124 179.71604 121.495461 168.095127 127.935568 156.940535 
C 134.375674 145.785943 141.641512 135.128917 149.672193 125.058761 
L 133.52435 112.181285 
C 124.851214 123.057054 117.004109 134.566642 110.048794 146.613602 
C 103.093479 158.660561 97.049436 171.211146 91.967312 184.160187 
z
" clip-path="url(#p38834a1527)" style="fill: #9f5de1; opacity: 0.7"/>
   </g>
   <g id="patch_21">
    <path d="M 149.672193 125.058761 
C 157.702875 114.988605 166.475906 105.533526 175.91777 96.772756 
C 185.359635 88.011986 195.443885 79.970065 206.086017 72.714382 
L 194.451279 55.649357 
C 182.957777 63.485494 172.066787 72.170768 161.869573 81.6324 
C 151.67236 91.094031 142.197486 101.305517 133.52435 112.181285 
z
" clip-path="url(#p38834a1527)" style="fill: #9f5de1; opacity: 0.7"/>
   </g>
   <g id="patch_22">
    <path d="M 206.086017 72.714382 
C 216.728148 65.4587 227.898352 59.00958 239.503023 53.421065 
C 251.107694 47.83255 263.114327 43.120293 275.422309 39.323784 
L 269.334474 19.58751 
C 256.041854 23.687741 243.074691 28.776977 230.541646 34.812574 
C 218.008601 40.84817 205.944781 47.813219 194.451279 55.649357 
z
" clip-path="url(#p38834a1527)" style="fill: #9f5de1; opacity: 0.7"/>
   </g>
   <g id="patch_23">
    <path d="M 275.422309 39.323784 
C 287.73029 35.527274 300.305144 32.657146 313.041496 30.73745 
C 325.777848 28.817754 338.640022 27.853867 351.520235 27.853867 
L 351.520235 7.2 
C 337.609605 7.2 323.718457 8.240998 309.963197 10.314269 
C 296.207937 12.387541 282.627095 15.48728 269.334474 19.58751 
z
" clip-path="url(#p38834a1527)" style="fill: #9f5de1; opacity: 0.7"/>
   </g>
   <g id="matplotlib.axis_1">
    <g id="xtick_1">
     <g id="line2d_1">
      <path d="M 351.520235 286.027203 
L 351.520235 7.2 
" clip-path="url(#p38834a1527)" style="fill: none; stroke: #b0b0b0; stroke-width: 0.8; stroke-linecap: square"/>
     </g>
    </g>
    <g id="xtick_2">
     <g id="line2d_2">
      <path d="M 351.520235 286.027203 
L 433.705996 19.58751 
" clip-path="url(#p38834a1527)" style="fill: none; stroke: #b0b0b0; stroke-width: 0.8; stroke-linecap: square"/>
     </g>
    </g>
    <g id="xtick_3">
     <g id="line2d_3">
      <path d="M 351.520235 286.027203 
L 508.589192 55.649357 
" clip-path="url(#p38834a1527)" style="fill: none; stroke: #b0b0b0; stroke-width: 0.8; stroke-linecap: square"/>
     </g>
    </g>
    <g id="xtick_4">
     <g id="line2d_4">
      <path d="M 351.520235 286.027203 
L 569.516121 112.181285 
" clip-path="url(#p38834a1527)" style="fill: none; stroke: #b0b0b0; stroke-width: 0.8; stroke-linecap: square"/>
     </g>
    </g>
    <g id="xtick_5">
     <g id="line2d_5">
      <path d="M 351.520235 286.027203 
L 611.073159 184.160187 
" clip-path="url(#p38834a1527)" style="fill: none; stroke: #b0b0b0; stroke-width: 0.8; stroke-linecap: square"/>
     </g>
    </g>
    <g id="xtick_6">
     <g id="line2d_6">
      <path d="M 351.520235 286.027203 
L 629.567781 265.19042 
" clip-path="url(#p38834a1527)" style="fill: none; stroke: #b0b0b0; stroke-width: 0.8; stroke-linecap: square"/>
     </g>
    </g>
    <g id="xtick_7">
     <g id="line2d_7">
      <path d="M 351.520235 286.027203 
L 623.356658 348.072093 
" clip-path="url(#p38834a1527)" style="fill: none; stroke: #b0b0b0; stroke-width: 0.8; stroke-linecap: square"/>
     </g>
    </g>
    <g id="xtick_8">
     <g id="line2d_8">
      <path d="M 351.520235 286.027203 
L 592.991676 425.440805 
" clip-path="url(#p38834a1527)" style="fill: none; stroke: #b0b0b0; stroke-width: 0.8; stroke-linecap: square"/>
     </g>
    </g>
    <g id="xtick_9">
     <g id="line2d_9">
      <path d="M 351.520235 286.027203 
L 541.170897 490.422006 
" clip-path="url(#p38834a1527)" style="fill: none; stroke: #b0b0b0; stroke-width: 0.8; stroke-linecap: square"/>
     </g>
    </g>
    <g id="xtick_10">
     <g id="line2d_10">
      <path d="M 351.520235 286.027203 
L 472.498825 537.241833 
" clip-path="url(#p38834a1527)" style="fill: none; stroke: #b0b0b0; stroke-width: 0.8; stroke-linecap: square"/>
     </g>
    </g>
    <g id="xtick_11">
     <g id="line2d_11">
      <path d="M 351.520235 286.027203 
L 393.077274 561.740137 
" clip-path="url(#p38834a1527)" style="fill: none; stroke: #b0b0b0; stroke-width: 0.8; stroke-linecap: square"/>
     </g>
    </g>
    <g id="xtick_12">
     <g id="line2d_12">
      <path d="M 351.520235 286.027203 
L 309.963197 561.740137 
" clip-path="url(#p38834a1527)" style="fill: none; stroke: #b0b0b0; stroke-width: 0.8; stroke-linecap: square"/>
     </g>
    </g>
    <g id="xtick_13">
     <g id="line2d_13">
      <path d="M 351.520235 286.027203 
L 230.541646 537.241833 
" clip-path="url(#p38834a1527)" style="fill: none; stroke: #b0b0b0; stroke-width: 0.8; stroke-linecap: square"/>
     </g>
    </g>
    <g id="xtick_14">
     <g id="line2d_14">
      <path d="M 351.520235 286.027203 
L 161.869573 490.422006 
" clip-path="url(#p38834a1527)" style="fill: none; stroke: #b0b0b0; stroke-width: 0.8; stroke-linecap: square"/>
     </g>
    </g>
    <g id="xtick_15">
     <g id="line2d_15">
      <path d="M 351.520235 286.027203 
L 110.048794 425.440805 
" clip-path="url(#p38834a1527)" style="fill: none; stroke: #b0b0b0; stroke-width: 0.8; stroke-linecap: square"/>
     </g>
    </g>
    <g id="xtick_16">
     <g id="line2d_16">
      <path d="M 351.520235 286.027203 
L 79.683812 348.072093 
" clip-path="url(#p38834a1527)" style="fill: none; stroke: #b0b0b0; stroke-width: 0.8; stroke-linecap: square"/>
     </g>
    </g>
    <g id="xtick_17">
     <g id="line2d_17">
      <path d="M 351.520235 286.027203 
L 73.47269 265.19042 
" clip-path="url(#p38834a1527)" style="fill: none; stroke: #b0b0b0; stroke-width: 0.8; stroke-linecap: square"/>
     </g>
    </g>
    <g id="xtick_18">
     <g id="line2d_18">
      <path d="M 351.520235 286.027203 
L 91.967312 184.160187 
" clip-path="url(#p38834a1527)" style="fill: none; stroke: #b0b0b0; stroke-width: 0.8; stroke-linecap: square"/>
     </g>
    </g>
    <g id="xtick_19">
     <g id="line2d_19">
      <path d="M 351.520235 286.027203 
L 133.52435 112.181285 
" clip-path="url(#p38834a1527)" style="fill: none; stroke: #b0b0b0; stroke-width: 0.8; stroke-linecap: square"/>
     </g>
    </g>
    <g id="xtick_20">
     <g id="line2d_20">
      <path d="M 351.520235 286.027203 
L 194.451279 55.649357 
" clip-path="url(#p38834a1527)" style="fill: none; stroke: #b0b0b0; stroke-width: 0.8; stroke-linecap: square"/>
     </g>
    </g>
    <g id="xtick_21">
     <g id="line2d_21">
      <path d="M 351.520235 286.027203 
L 269.334474 19.58751 
" clip-path="url(#p38834a1527)" style="fill: none; stroke: #b0b0b0; stroke-width: 0.8; stroke-linecap: square"/>
     </g>
    </g>
   </g>
   <g id="matplotlib.axis_2">
    <g id="ytick_1">
     <g id="line2d_22">
      <path d="M 351.520235 286.027203 
C 351.520235 286.027203 351.520235 286.027203 351.520235 286.027203 
C 351.520235 286.027203 351.520235 286.027203 351.520235 286.027203 
C 351.520235 286.027203 351.520235 286.027203 351.520235 286.027203 
C 351.520235 286.027203 351.520235 286.027203 351.520235 286.027203 
C 351.520235 286.027203 351.520235 286.027203 351.520235 286.027203 
C 351.520235 286.027203 351.520235 286.027203 351.520235 286.027203 
C 351.520235 286.027203 351.520235 286.027203 351.520235 286.027203 
C 351.520235 286.027203 351.520235 286.027203 351.520235 286.027203 
C 351.520235 286.027203 351.520235 286.027203 351.520235 286.027203 
C 351.520235 286.027203 351.520235 286.027203 351.520235 286.027203 
C 351.520235 286.027203 351.520235 286.027203 351.520235 286.027203 
C 351.520235 286.027203 351.520235 286.027203 351.520235 286.027203 
C 351.520235 286.027203 351.520235 286.027203 351.520235 286.027203 
C 351.520235 286.027203 351.520235 286.027203 351.520235 286.027203 
C 351.520235 286.027203 351.520235 286.027203 351.520235 286.027203 
C 351.520235 286.027203 351.520235 286.027203 351.520235 286.027203 
" clip-path="url(#p38834a1527)" style="fill: none; stroke: #b0b0b0; stroke-width: 0.8; stroke-linecap: square"/>
     </g>
     <g id="text_1">
      <!-- 0.00 -->
      <g style="fill: #808080" transform="translate(351.520235 282.283766) scale(0.18 -0.18)">
       <defs>
        <path id="DejaVuSans-30" d="M 2034 4250 
Q 1547 4250 1301 3770 
Q 1056 3291 1056 2328 
Q 1056 1369 1301 889 
Q 1547 409 2034 409 
Q 2525 409 2770 889 
Q 3016 1369 3016 2328 
Q 3016 3291 2770 3770 
Q 2525 4250 2034 4250 
z
M 2034 4750 
Q 2819 4750 3233 4129 
Q 3647 3509 3647 2328 
Q 3647 1150 3233 529 
Q 2819 -91 2034 -91 
Q 1250 -91 836 529 
Q 422 1150 422 2328 
Q 422 3509 836 4129 
Q 1250 4750 2034 4750 
z
" transform="scale(0.015625)"/>
        <path id="DejaVuSans-2e" d="M 684 794 
L 1344 794 
L 1344 0 
L 684 0 
L 684 794 
z
" transform="scale(0.015625)"/>
       </defs>
       <use xlink:href="#DejaVuSans-30"/>
       <use xlink:href="#DejaVuSans-2e" transform="translate(63.623047 0)"/>
       <use xlink:href="#DejaVuSans-30" transform="translate(95.410156 0)"/>
       <use xlink:href="#DejaVuSans-30" transform="translate(159.033203 0)"/>
      </g>
     </g>
    </g>
    <g id="ytick_2">
     <g id="line2d_23">
      <path d="M 351.520235 234.392536 
C 358.300838 234.392536 365.015507 235.728167 371.279967 238.322991 
C 377.544427 240.917815 383.236849 244.72137 388.031459 249.51598 
C 392.826069 254.31059 396.629623 260.003012 399.224448 266.267471 
C 401.819272 272.531931 403.154903 279.246601 403.154903 286.027203 
C 403.154903 292.807805 401.819272 299.522475 399.224448 305.786935 
C 396.629623 312.051394 392.826069 317.743816 388.031459 322.538426 
C 383.236849 327.333036 377.544427 331.136591 371.279967 333.731415 
C 365.015507 336.326239 358.300838 337.66187 351.520235 337.66187 
C 344.739633 337.66187 338.024963 336.326239 331.760504 333.731415 
C 325.496044 331.136591 319.803622 327.333036 315.009012 322.538426 
C 310.214402 317.743816 306.410847 312.051394 303.816023 305.786935 
C 301.221199 299.522475 299.885568 292.807805 299.885568 286.027203 
C 299.885568 279.246601 301.221199 272.531931 303.816023 266.267471 
C 306.410847 260.003012 310.214402 254.31059 315.009012 249.51598 
C 319.803622 244.72137 325.496044 240.917815 331.760504 238.322991 
C 338.024963 235.728167 344.739633 234.392536 351.520235 234.392536 
" clip-path="url(#p38834a1527)" style="fill: none; stroke: #b0b0b0; stroke-width: 0.8; stroke-linecap: square"/>
     </g>
     <g id="text_2">
      <!-- 0.17 -->
      <g style="fill: #808080" transform="translate(351.520235 230.649098) scale(0.18 -0.18)">
       <defs>
        <path id="DejaVuSans-31" d="M 794 531 
L 1825 531 
L 1825 4091 
L 703 3866 
L 703 4441 
L 1819 4666 
L 2450 4666 
L 2450 531 
L 3481 531 
L 3481 0 
L 794 0 
L 794 531 
z
" transform="scale(0.015625)"/>
        <path id="DejaVuSans-37" d="M 525 4666 
L 3525 4666 
L 3525 4397 
L 1831 0 
L 1172 0 
L 2766 4134 
L 525 4134 
L 525 4666 
z
" transform="scale(0.015625)"/>
       </defs>
       <use xlink:href="#DejaVuSans-30"/>
       <use xlink:href="#DejaVuSans-2e" transform="translate(63.623047 0)"/>
       <use xlink:href="#DejaVuSans-31" transform="translate(95.410156 0)"/>
       <use xlink:href="#DejaVuSans-37" transform="translate(159.033203 0)"/>
      </g>
     </g>
    </g>
    <g id="ytick_3">
     <g id="line2d_24">
      <path d="M 351.520235 182.757869 
C 365.08144 182.757869 378.510779 185.42913 391.039699 190.618779 
C 403.568618 195.808427 414.953462 203.415537 424.542682 213.004756 
C 434.131902 222.593976 441.739011 233.97882 446.92866 246.50774 
C 452.118308 259.036659 454.78957 272.465998 454.78957 286.027203 
C 454.78957 299.588408 452.118308 313.017747 446.92866 325.546666 
C 441.739011 338.075586 434.131902 349.46043 424.542682 359.04965 
C 414.953462 368.63887 403.568618 376.245979 391.039699 381.435627 
C 378.510779 386.625276 365.08144 389.296538 351.520235 389.296538 
C 337.959031 389.296538 324.529691 386.625276 312.000772 381.435627 
C 299.471852 376.245979 288.087009 368.63887 278.497789 359.04965 
C 268.908569 349.46043 261.301459 338.075586 256.111811 325.546666 
C 250.922163 313.017747 248.250901 299.588408 248.250901 286.027203 
C 248.250901 272.465998 250.922163 259.036659 256.111811 246.50774 
C 261.301459 233.97882 268.908569 222.593976 278.497789 213.004756 
C 288.087009 203.415537 299.471852 195.808427 312.000772 190.618779 
C 324.529691 185.42913 337.959031 182.757869 351.520235 182.757869 
" clip-path="url(#p38834a1527)" style="fill: none; stroke: #b0b0b0; stroke-width: 0.8; stroke-linecap: square"/>
     </g>
     <g id="text_3">
      <!-- 0.34 -->
      <g style="fill: #808080" transform="translate(351.520235 179.014431) scale(0.18 -0.18)">
       <defs>
        <path id="DejaVuSans-33" d="M 2597 2516 
Q 3050 2419 3304 2112 
Q 3559 1806 3559 1356 
Q 3559 666 3084 287 
Q 2609 -91 1734 -91 
Q 1441 -91 1130 -33 
Q 819 25 488 141 
L 488 750 
Q 750 597 1062 519 
Q 1375 441 1716 441 
Q 2309 441 2620 675 
Q 2931 909 2931 1356 
Q 2931 1769 2642 2001 
Q 2353 2234 1838 2234 
L 1294 2234 
L 1294 2753 
L 1863 2753 
Q 2328 2753 2575 2939 
Q 2822 3125 2822 3475 
Q 2822 3834 2567 4026 
Q 2313 4219 1838 4219 
Q 1578 4219 1281 4162 
Q 984 4106 628 3988 
L 628 4550 
Q 988 4650 1302 4700 
Q 1616 4750 1894 4750 
Q 2613 4750 3031 4423 
Q 3450 4097 3450 3541 
Q 3450 3153 3228 2886 
Q 3006 2619 2597 2516 
z
" transform="scale(0.015625)"/>
        <path id="DejaVuSans-34" d="M 2419 4116 
L 825 1625 
L 2419 1625 
L 2419 4116 
z
M 2253 4666 
L 3047 4666 
L 3047 1625 
L 3713 1625 
L 3713 1100 
L 3047 1100 
L 3047 0 
L 2419 0 
L 2419 1100 
L 313 1100 
L 313 1709 
L 2253 4666 
z
" transform="scale(0.015625)"/>
       </defs>
       <use xlink:href="#DejaVuSans-30"/>
       <use xlink:href="#DejaVuSans-2e" transform="translate(63.623047 0)"/>
       <use xlink:href="#DejaVuSans-33" transform="translate(95.410156 0)"/>
       <use xlink:href="#DejaVuSans-34" transform="translate(159.033203 0)"/>
      </g>
     </g>
    </g>
    <g id="ytick_4">
     <g id="line2d_25">
      <path d="M 351.520235 131.123201 
C 371.862042 131.123201 392.006051 135.130094 410.79943 142.914566 
C 429.59281 150.699039 446.670076 162.109703 461.053905 176.493533 
C 475.437735 190.877363 486.848399 207.954629 494.632872 226.748008 
C 502.417345 245.541387 506.424237 265.685396 506.424237 286.027203 
C 506.424237 306.36901 502.417345 326.513019 494.632872 345.306398 
C 486.848399 364.099777 475.437735 381.177043 461.053905 395.560873 
C 446.670076 409.944703 429.59281 421.355367 410.79943 429.13984 
C 392.006051 436.924312 371.862042 440.931205 351.520235 440.931205 
C 331.178428 440.931205 311.03442 436.924312 292.24104 429.13984 
C 273.447661 421.355367 256.370395 409.944703 241.986565 395.560873 
C 227.602736 381.177043 216.192071 364.099777 208.407599 345.306398 
C 200.623126 326.513019 196.616234 306.36901 196.616234 286.027203 
C 196.616234 265.685396 200.623126 245.541387 208.407599 226.748008 
C 216.192071 207.954629 227.602736 190.877363 241.986565 176.493533 
C 256.370395 162.109703 273.447661 150.699039 292.24104 142.914566 
C 311.03442 135.130094 331.178428 131.123201 351.520235 131.123201 
" clip-path="url(#p38834a1527)" style="fill: none; stroke: #b0b0b0; stroke-width: 0.8; stroke-linecap: square"/>
     </g>
     <g id="text_4">
      <!-- 0.51 -->
      <g style="fill: #808080" transform="translate(351.520235 127.379764) scale(0.18 -0.18)">
       <defs>
        <path id="DejaVuSans-35" d="M 691 4666 
L 3169 4666 
L 3169 4134 
L 1269 4134 
L 1269 2991 
Q 1406 3038 1543 3061 
Q 1681 3084 1819 3084 
Q 2600 3084 3056 2656 
Q 3513 2228 3513 1497 
Q 3513 744 3044 326 
Q 2575 -91 1722 -91 
Q 1428 -91 1123 -41 
Q 819 9 494 109 
L 494 744 
Q 775 591 1075 516 
Q 1375 441 1709 441 
Q 2250 441 2565 725 
Q 2881 1009 2881 1497 
Q 2881 1984 2565 2268 
Q 2250 2553 1709 2553 
Q 1456 2553 1204 2497 
Q 953 2441 691 2322 
L 691 4666 
z
" transform="scale(0.015625)"/>
       </defs>
       <use xlink:href="#DejaVuSans-30"/>
       <use xlink:href="#DejaVuSans-2e" transform="translate(63.623047 0)"/>
       <use xlink:href="#DejaVuSans-35" transform="translate(95.410156 0)"/>
       <use xlink:href="#DejaVuSans-31" transform="translate(159.033203 0)"/>
      </g>
     </g>
    </g>
    <g id="ytick_5">
     <g id="line2d_26">
      <path d="M 351.520235 79.488534 
C 378.642645 79.488534 405.501323 84.831057 430.559162 95.210354 
C 455.617001 105.589651 478.386689 120.80387 497.565129 139.98231 
C 516.743568 159.160749 531.957787 181.930437 542.337084 206.988276 
C 552.716381 232.046115 558.058904 258.904794 558.058904 286.027203 
C 558.058904 313.149613 552.716381 340.008291 542.337084 365.06613 
C 531.957787 390.123969 516.743568 412.893657 497.565129 432.072096 
C 478.386689 451.250536 455.617001 466.464755 430.559162 476.844052 
C 405.501323 487.223349 378.642645 492.565872 351.520235 492.565872 
C 324.397826 492.565872 297.539148 487.223349 272.481309 476.844052 
C 247.42347 466.464755 224.653782 451.250536 205.475342 432.072096 
C 186.296902 412.893657 171.082683 390.123969 160.703386 365.06613 
C 150.32409 340.008291 144.981566 313.149613 144.981566 286.027203 
C 144.981566 258.904794 150.32409 232.046115 160.703386 206.988276 
C 171.082683 181.930437 186.296902 159.160749 205.475342 139.98231 
C 224.653782 120.80387 247.42347 105.589651 272.481309 95.210354 
C 297.539148 84.831057 324.397826 79.488534 351.520235 79.488534 
" clip-path="url(#p38834a1527)" style="fill: none; stroke: #b0b0b0; stroke-width: 0.8; stroke-linecap: square"/>
     </g>
     <g id="text_5">
      <!-- 0.68 -->
      <g style="fill: #808080" transform="translate(351.520235 75.745097) scale(0.18 -0.18)">
       <defs>
        <path id="DejaVuSans-36" d="M 2113 2584 
Q 1688 2584 1439 2293 
Q 1191 2003 1191 1497 
Q 1191 994 1439 701 
Q 1688 409 2113 409 
Q 2538 409 2786 701 
Q 3034 994 3034 1497 
Q 3034 2003 2786 2293 
Q 2538 2584 2113 2584 
z
M 3366 4563 
L 3366 3988 
Q 3128 4100 2886 4159 
Q 2644 4219 2406 4219 
Q 1781 4219 1451 3797 
Q 1122 3375 1075 2522 
Q 1259 2794 1537 2939 
Q 1816 3084 2150 3084 
Q 2853 3084 3261 2657 
Q 3669 2231 3669 1497 
Q 3669 778 3244 343 
Q 2819 -91 2113 -91 
Q 1303 -91 875 529 
Q 447 1150 447 2328 
Q 447 3434 972 4092 
Q 1497 4750 2381 4750 
Q 2619 4750 2861 4703 
Q 3103 4656 3366 4563 
z
" transform="scale(0.015625)"/>
        <path id="DejaVuSans-38" d="M 2034 2216 
Q 1584 2216 1326 1975 
Q 1069 1734 1069 1313 
Q 1069 891 1326 650 
Q 1584 409 2034 409 
Q 2484 409 2743 651 
Q 3003 894 3003 1313 
Q 3003 1734 2745 1975 
Q 2488 2216 2034 2216 
z
M 1403 2484 
Q 997 2584 770 2862 
Q 544 3141 544 3541 
Q 544 4100 942 4425 
Q 1341 4750 2034 4750 
Q 2731 4750 3128 4425 
Q 3525 4100 3525 3541 
Q 3525 3141 3298 2862 
Q 3072 2584 2669 2484 
Q 3125 2378 3379 2068 
Q 3634 1759 3634 1313 
Q 3634 634 3220 271 
Q 2806 -91 2034 -91 
Q 1263 -91 848 271 
Q 434 634 434 1313 
Q 434 1759 690 2068 
Q 947 2378 1403 2484 
z
M 1172 3481 
Q 1172 3119 1398 2916 
Q 1625 2713 2034 2713 
Q 2441 2713 2670 2916 
Q 2900 3119 2900 3481 
Q 2900 3844 2670 4047 
Q 2441 4250 2034 4250 
Q 1625 4250 1398 4047 
Q 1172 3844 1172 3481 
z
" transform="scale(0.015625)"/>
       </defs>
       <use xlink:href="#DejaVuSans-30"/>
       <use xlink:href="#DejaVuSans-2e" transform="translate(63.623047 0)"/>
       <use xlink:href="#DejaVuSans-36" transform="translate(95.410156 0)"/>
       <use xlink:href="#DejaVuSans-38" transform="translate(159.033203 0)"/>
      </g>
     </g>
    </g>
   </g>
   <g id="line2d_27">
    <path d="M 351.520235 133.963893 
L 412.720001 87.622436 
L 465.639524 118.644949 
L 508.238794 161.048323 
L 508.650451 224.358138 
L 552.47365 270.967827 
L 562.952623 334.285266 
L 478.556995 359.37191 
L 459.866777 402.797004 
L 408.608621 404.572458 
L 380.411893 477.710828 
L 324.838546 463.048646 
L 295.00079 403.391041 
L 274.297041 369.254013 
L 141.178747 407.467918 
L 231.109762 313.510108 
L 125.042885 269.055072 
L 182.764149 219.79532 
L 250.240788 205.259539 
L 251.110036 138.75249 
L 315.341292 168.737949 
L 351.520235 133.963893 
" clip-path="url(#p38834a1527)" style="fill: none; stroke: #1f77b4; stroke-width: 2; stroke-linecap: square"/>
   </g>
   <g id="patch_24">
    <path d="M 351.520235 133.963893 
L 412.720001 87.622436 
L 465.639524 118.644949 
L 508.238794 161.048323 
L 508.650451 224.358138 
L 552.47365 270.967827 
L 562.952623 334.285266 
L 478.556995 359.37191 
L 459.866777 402.797004 
L 408.608621 404.572458 
L 380.411893 477.710828 
L 324.838546 463.048646 
L 295.00079 403.391041 
L 274.297041 369.254013 
L 141.178747 407.467918 
L 231.109762 313.510108 
L 125.042885 269.055072 
L 182.764149 219.79532 
L 250.240788 205.259539 
L 251.110036 138.75249 
L 315.341292 168.737949 
z
" clip-path="url(#p38834a1527)" style="fill: #1f77b4; opacity: 0.25; stroke: #1f77b4; stroke-linejoin: miter"/>
   </g>
   <g id="line2d_28">
    <path d="M 351.520235 247.361021 
L 378.572166 198.326997 
L 413.887054 194.551881 
L 420.932507 230.672763 
L 413.253142 261.798822 
L 442.189532 279.232479 
L 441.775417 306.627359 
L 422.386346 326.941771 
L 426.358284 366.683437 
L 394.205073 374.663181 
L 360.577936 346.121119 
L 345.45904 326.240609 
L 334.368003 321.644181 
L 316.179305 324.115668 
L 346.136653 289.135416 
L 327.816496 291.437427 
L 247.198327 278.209357 
L 265.09378 252.107319 
L 289.565719 236.620125 
L 306.713849 220.308304 
L 327.123921 206.936295 
L 351.520235 247.361021 
" clip-path="url(#p38834a1527)" style="fill: none; stroke: #aec7e8; stroke-width: 2; stroke-linecap: square"/>
   </g>
   <g id="patch_25">
    <path d="M 351.520235 247.361021 
L 378.572166 198.326997 
L 413.887054 194.551881 
L 420.932507 230.672763 
L 413.253142 261.798822 
L 442.189532 279.232479 
L 441.775417 306.627359 
L 422.386346 326.941771 
L 426.358284 366.683437 
L 394.205073 374.663181 
L 360.577936 346.121119 
L 345.45904 326.240609 
L 334.368003 321.644181 
L 316.179305 324.115668 
L 346.136653 289.135416 
L 327.816496 291.437427 
L 247.198327 278.209357 
L 265.09378 252.107319 
L 289.565719 236.620125 
L 306.713849 220.308304 
L 327.123921 206.936295 
z
" clip-path="url(#p38834a1527)" style="fill: #aec7e8; opacity: 0.25; stroke: #aec7e8; stroke-linejoin: miter"/>
   </g>
   <g id="line2d_29">
    <path d="M 351.520235 226.132135 
L 392.819053 152.139726 
L 436.406017 161.522628 
L 461.75475 198.118111 
L 447.802499 248.239199 
L 501.76053 274.768249 
L 472.243521 313.581505 
L 460.000867 348.658525 
L 461.390124 404.438781 
L 406.552089 400.302024 
L 368.858372 401.058223 
L 331.564641 418.423922 
L 335.548879 319.192067 
L 322.666505 317.124128 
L 351.38208 286.106967 
L 338.392724 289.023472 
L 151.784321 271.059066 
L 240.926148 242.622222 
L 283.655458 231.906849 
L 282.899379 185.378892 
L 325.650305 202.158949 
L 351.520235 226.132135 
" clip-path="url(#p38834a1527)" style="fill: none; stroke: #ff7f0e; stroke-width: 2; stroke-linecap: square"/>
   </g>
   <g id="patch_26">
    <path d="M 351.520235 226.132135 
L 392.819053 152.139726 
L 436.406017 161.522628 
L 461.75475 198.118111 
L 447.802499 248.239199 
L 501.76053 274.768249 
L 472.243521 313.581505 
L 460.000867 348.658525 
L 461.390124 404.438781 
L 406.552089 400.302024 
L 368.858372 401.058223 
L 331.564641 418.423922 
L 335.548879 319.192067 
L 322.666505 317.124128 
L 351.38208 286.106967 
L 338.392724 289.023472 
L 151.784321 271.059066 
L 240.926148 242.622222 
L 283.655458 231.906849 
L 282.899379 185.378892 
L 325.650305 202.158949 
z
" clip-path="url(#p38834a1527)" style="fill: #ff7f0e; opacity: 0.25; stroke: #ff7f0e; stroke-linejoin: miter"/>
   </g>
   <g id="line2d_30">
    <path d="M 351.520235 152.833197 
L 397.986553 135.387102 
L 443.570062 151.014904 
L 474.810261 187.706688 
L 489.104735 232.029266 
L 504.35398 274.573897 
L 507.456009 321.618526 
L 481.389555 361.00729 
L 453.923597 396.39178 
L 418.006755 424.087884 
L 373.402516 431.206646 
L 328.853429 436.411639 
L 296.842124 399.56747 
L 259.308667 385.407639 
L 258.764889 339.579527 
L 241.351694 311.172454 
L 152.549974 271.116443 
L 209.516497 230.294843 
L 234.360175 192.595173 
L 264.604143 158.544709 
L 306.377932 139.679451 
L 351.520235 152.833197 
" clip-path="url(#p38834a1527)" style="fill: none; stroke: #ffbb78; stroke-width: 2; stroke-linecap: square"/>
   </g>
   <g id="patch_27">
    <path d="M 351.520235 152.833197 
L 397.986553 135.387102 
L 443.570062 151.014904 
L 474.810261 187.706688 
L 489.104735 232.029266 
L 504.35398 274.573897 
L 507.456009 321.618526 
L 481.389555 361.00729 
L 453.923597 396.39178 
L 418.006755 424.087884 
L 373.402516 431.206646 
L 328.853429 436.411639 
L 296.842124 399.56747 
L 259.308667 385.407639 
L 258.764889 339.579527 
L 241.351694 311.172454 
L 152.549974 271.116443 
L 209.516497 230.294843 
L 234.360175 192.595173 
L 264.604143 158.544709 
L 306.377932 139.679451 
z
" clip-path="url(#p38834a1527)" style="fill: #ffbb78; opacity: 0.25; stroke: #ffbb78; stroke-linejoin: miter"/>
   </g>
   <g id="line2d_31">
    <path d="M 351.520235 246.820987 
L 388.654503 165.640865 
L 411.379417 198.229909 
L 439.959517 215.499229 
L 423.761434 257.674622 
L 457.800658 278.062586 
L 437.462815 305.643036 
L 446.46494 340.843554 
L 451.593507 393.880539 
L 400.460525 387.652762 
L 365.888079 381.351618 
L 327.031572 448.498869 
L 335.045773 320.236777 
L 321.847198 318.007132 
L 351.520235 286.027203 
L 340.150239 288.622331 
L 259.715876 279.147417 
L 254.104691 247.794419 
L 274.681321 224.750214 
L 292.202382 199.023891 
L 321.091982 187.381229 
L 351.520235 246.820987 
" clip-path="url(#p38834a1527)" style="fill: none; stroke: #2ca02c; stroke-width: 2; stroke-linecap: square"/>
   </g>
   <g id="patch_28">
    <path d="M 351.520235 246.820987 
L 388.654503 165.640865 
L 411.379417 198.229909 
L 439.959517 215.499229 
L 423.761434 257.674622 
L 457.800658 278.062586 
L 437.462815 305.643036 
L 446.46494 340.843554 
L 451.593507 393.880539 
L 400.460525 387.652762 
L 365.888079 381.351618 
L 327.031572 448.498869 
L 335.045773 320.236777 
L 321.847198 318.007132 
L 351.520235 286.027203 
L 340.150239 288.622331 
L 259.715876 279.147417 
L 254.104691 247.794419 
L 274.681321 224.750214 
L 292.202382 199.023891 
L 321.091982 187.381229 
z
" clip-path="url(#p38834a1527)" style="fill: #2ca02c; opacity: 0.25; stroke: #2ca02c; stroke-linejoin: miter"/>
   </g>
   <g id="line2d_32">
    <path d="M 351.520235 164.875522 
L 395.266448 144.205465 
L 437.574001 159.809511 
L 466.60372 194.251187 
L 480.931915 235.236862 
L 500.32593 274.875758 
L 499.257182 319.747197 
L 471.552819 355.328047 
L 440.651843 382.08823 
L 413.773181 415.296778 
L 371.988625 421.826096 
L 330.055551 428.43608 
L 302.403414 388.019333 
L 268.695221 375.291339 
L 270.639165 332.723911 
L 256.080786 307.810635 
L 139.726357 270.155446 
L 216.235732 232.931948 
L 243.600371 199.963983 
L 269.951677 166.388101 
L 310.072249 151.656133 
L 351.520235 164.875522 
" clip-path="url(#p38834a1527)" style="fill: none; stroke: #98df8a; stroke-width: 2; stroke-linecap: square"/>
   </g>
   <g id="patch_29">
    <path d="M 351.520235 164.875522 
L 395.266448 144.205465 
L 437.574001 159.809511 
L 466.60372 194.251187 
L 480.931915 235.236862 
L 500.32593 274.875758 
L 499.257182 319.747197 
L 471.552819 355.328047 
L 440.651843 382.08823 
L 413.773181 415.296778 
L 371.988625 421.826096 
L 330.055551 428.43608 
L 302.403414 388.019333 
L 268.695221 375.291339 
L 270.639165 332.723911 
L 256.080786 307.810635 
L 139.726357 270.155446 
L 216.235732 232.931948 
L 243.600371 199.963983 
L 269.951677 166.388101 
L 310.072249 151.656133 
z
" clip-path="url(#p38834a1527)" style="fill: #98df8a; opacity: 0.25; stroke: #98df8a; stroke-linejoin: miter"/>
   </g>
   <g id="line2d_33">
    <path d="M 351.520235 224.047427 
L 385.659627 175.350012 
L 422.24957 182.286322 
L 441.548279 214.232234 
L 435.812022 252.945114 
L 471.038801 277.070525 
L 482.477512 315.917347 
L 454.135485 345.272145 
L 437.599676 378.798777 
L 403.418833 393.795751 
L 367.494187 392.007447 
L 334.124909 401.437653 
L 326.55695 337.863999 
L 301.579163 339.850879 
L 316.754839 306.099014 
L 312.093808 295.026028 
L 332.250526 284.583138 
L 247.358254 245.146638 
L 267.620728 219.119579 
L 286.530215 190.70435 
L 318.170953 177.911486 
L 351.520235 224.047427 
" clip-path="url(#p38834a1527)" style="fill: none; stroke: #d62728; stroke-width: 2; stroke-linecap: square"/>
   </g>
   <g id="patch_30">
    <path d="M 351.520235 224.047427 
L 385.659627 175.350012 
L 422.24957 182.286322 
L 441.548279 214.232234 
L 435.812022 252.945114 
L 471.038801 277.070525 
L 482.477512 315.917347 
L 454.135485 345.272145 
L 437.599676 378.798777 
L 403.418833 393.795751 
L 367.494187 392.007447 
L 334.124909 401.437653 
L 326.55695 337.863999 
L 301.579163 339.850879 
L 316.754839 306.099014 
L 312.093808 295.026028 
L 332.250526 284.583138 
L 247.358254 245.146638 
L 267.620728 219.119579 
L 286.530215 190.70435 
L 318.170953 177.911486 
z
" clip-path="url(#p38834a1527)" style="fill: #d62728; opacity: 0.25; stroke: #d62728; stroke-linejoin: miter"/>
   </g>
   <g id="line2d_34">
    <path d="M 351.520235 169.544165 
L 395.687097 142.841754 
L 439.018629 157.69063 
L 469.182682 192.194533 
L 481.047106 235.191652 
L 500.667414 274.850167 
L 503.716786 320.765073 
L 475.006972 357.322304 
L 443.956645 385.649959 
L 413.449889 414.625454 
L 372.146886 422.876089 
L 330.092238 428.192677 
L 304.425096 383.821268 
L 270.800497 373.022391 
L 282.700523 325.760282 
L 264.245967 305.946985 
L 171.499784 272.536535 
L 214.434278 232.224929 
L 240.868694 197.785543 
L 268.624335 164.441249 
L 308.71933 147.270075 
L 351.520235 169.544165 
" clip-path="url(#p38834a1527)" style="fill: none; stroke: #ff9896; stroke-width: 2; stroke-linecap: square"/>
   </g>
   <g id="patch_31">
    <path d="M 351.520235 169.544165 
L 395.687097 142.841754 
L 439.018629 157.69063 
L 469.182682 192.194533 
L 481.047106 235.191652 
L 500.667414 274.850167 
L 503.716786 320.765073 
L 475.006972 357.322304 
L 443.956645 385.649959 
L 413.449889 414.625454 
L 372.146886 422.876089 
L 330.092238 428.192677 
L 304.425096 383.821268 
L 270.800497 373.022391 
L 282.700523 325.760282 
L 264.245967 305.946985 
L 171.499784 272.536535 
L 214.434278 232.224929 
L 240.868694 197.785543 
L 268.624335 164.441249 
L 308.71933 147.270075 
z
" clip-path="url(#p38834a1527)" style="fill: #ff9896; opacity: 0.25; stroke: #ff9896; stroke-linejoin: miter"/>
   </g>
   <g id="text_6">
    <!-- 1.1 Position -->
    <g transform="translate(299.311798 32.820742) scale(0.18 -0.18)">
     <defs>
      <path id="DejaVuSans-20" transform="scale(0.015625)"/>
      <path id="DejaVuSans-50" d="M 1259 4147 
L 1259 2394 
L 2053 2394 
Q 2494 2394 2734 2622 
Q 2975 2850 2975 3272 
Q 2975 3691 2734 3919 
Q 2494 4147 2053 4147 
L 1259 4147 
z
M 628 4666 
L 2053 4666 
Q 2838 4666 3239 4311 
Q 3641 3956 3641 3272 
Q 3641 2581 3239 2228 
Q 2838 1875 2053 1875 
L 1259 1875 
L 1259 0 
L 628 0 
L 628 4666 
z
" transform="scale(0.015625)"/>
      <path id="DejaVuSans-6f" d="M 1959 3097 
Q 1497 3097 1228 2736 
Q 959 2375 959 1747 
Q 959 1119 1226 758 
Q 1494 397 1959 397 
Q 2419 397 2687 759 
Q 2956 1122 2956 1747 
Q 2956 2369 2687 2733 
Q 2419 3097 1959 3097 
z
M 1959 3584 
Q 2709 3584 3137 3096 
Q 3566 2609 3566 1747 
Q 3566 888 3137 398 
Q 2709 -91 1959 -91 
Q 1206 -91 779 398 
Q 353 888 353 1747 
Q 353 2609 779 3096 
Q 1206 3584 1959 3584 
z
" transform="scale(0.015625)"/>
      <path id="DejaVuSans-73" d="M 2834 3397 
L 2834 2853 
Q 2591 2978 2328 3040 
Q 2066 3103 1784 3103 
Q 1356 3103 1142 2972 
Q 928 2841 928 2578 
Q 928 2378 1081 2264 
Q 1234 2150 1697 2047 
L 1894 2003 
Q 2506 1872 2764 1633 
Q 3022 1394 3022 966 
Q 3022 478 2636 193 
Q 2250 -91 1575 -91 
Q 1294 -91 989 -36 
Q 684 19 347 128 
L 347 722 
Q 666 556 975 473 
Q 1284 391 1588 391 
Q 1994 391 2212 530 
Q 2431 669 2431 922 
Q 2431 1156 2273 1281 
Q 2116 1406 1581 1522 
L 1381 1569 
Q 847 1681 609 1914 
Q 372 2147 372 2553 
Q 372 3047 722 3315 
Q 1072 3584 1716 3584 
Q 2034 3584 2315 3537 
Q 2597 3491 2834 3397 
z
" transform="scale(0.015625)"/>
      <path id="DejaVuSans-69" d="M 603 3500 
L 1178 3500 
L 1178 0 
L 603 0 
L 603 3500 
z
M 603 4863 
L 1178 4863 
L 1178 4134 
L 603 4134 
L 603 4863 
z
" transform="scale(0.015625)"/>
      <path id="DejaVuSans-74" d="M 1172 4494 
L 1172 3500 
L 2356 3500 
L 2356 3053 
L 1172 3053 
L 1172 1153 
Q 1172 725 1289 603 
Q 1406 481 1766 481 
L 2356 481 
L 2356 0 
L 1766 0 
Q 1100 0 847 248 
Q 594 497 594 1153 
L 594 3053 
L 172 3053 
L 172 3500 
L 594 3500 
L 594 4494 
L 1172 4494 
z
" transform="scale(0.015625)"/>
      <path id="DejaVuSans-6e" d="M 3513 2113 
L 3513 0 
L 2938 0 
L 2938 2094 
Q 2938 2591 2744 2837 
Q 2550 3084 2163 3084 
Q 1697 3084 1428 2787 
Q 1159 2491 1159 1978 
L 1159 0 
L 581 0 
L 581 3500 
L 1159 3500 
L 1159 2956 
Q 1366 3272 1645 3428 
Q 1925 3584 2291 3584 
Q 2894 3584 3203 3211 
Q 3513 2838 3513 2113 
z
" transform="scale(0.015625)"/>
     </defs>
     <use xlink:href="#DejaVuSans-31"/>
     <use xlink:href="#DejaVuSans-2e" transform="translate(63.623047 0)"/>
     <use xlink:href="#DejaVuSans-31" transform="translate(95.410156 0)"/>
     <use xlink:href="#DejaVuSans-20" transform="translate(159.033203 0)"/>
     <use xlink:href="#DejaVuSans-50" transform="translate(190.820312 0)"/>
     <use xlink:href="#DejaVuSans-6f" transform="translate(247.498047 0)"/>
     <use xlink:href="#DejaVuSans-73" transform="translate(308.679688 0)"/>
     <use xlink:href="#DejaVuSans-69" transform="translate(360.779297 0)"/>
     <use xlink:href="#DejaVuSans-74" transform="translate(388.5625 0)"/>
     <use xlink:href="#DejaVuSans-69" transform="translate(427.771484 0)"/>
     <use xlink:href="#DejaVuSans-6f" transform="translate(455.554688 0)"/>
     <use xlink:href="#DejaVuSans-6e" transform="translate(516.736328 0)"/>
    </g>
   </g>
   <g id="text_7">
    <!-- 1.2 Manipulation -->
    <g transform="translate(352.288162 44.290659) scale(0.18 -0.18)">
     <defs>
      <path id="DejaVuSans-32" d="M 1228 531 
L 3431 531 
L 3431 0 
L 469 0 
L 469 531 
Q 828 903 1448 1529 
Q 2069 2156 2228 2338 
Q 2531 2678 2651 2914 
Q 2772 3150 2772 3378 
Q 2772 3750 2511 3984 
Q 2250 4219 1831 4219 
Q 1534 4219 1204 4116 
Q 875 4013 500 3803 
L 500 4441 
Q 881 4594 1212 4672 
Q 1544 4750 1819 4750 
Q 2544 4750 2975 4387 
Q 3406 4025 3406 3419 
Q 3406 3131 3298 2873 
Q 3191 2616 2906 2266 
Q 2828 2175 2409 1742 
Q 1991 1309 1228 531 
z
" transform="scale(0.015625)"/>
      <path id="DejaVuSans-4d" d="M 628 4666 
L 1569 4666 
L 2759 1491 
L 3956 4666 
L 4897 4666 
L 4897 0 
L 4281 0 
L 4281 4097 
L 3078 897 
L 2444 897 
L 1241 4097 
L 1241 0 
L 628 0 
L 628 4666 
z
" transform="scale(0.015625)"/>
      <path id="DejaVuSans-61" d="M 2194 1759 
Q 1497 1759 1228 1600 
Q 959 1441 959 1056 
Q 959 750 1161 570 
Q 1363 391 1709 391 
Q 2188 391 2477 730 
Q 2766 1069 2766 1631 
L 2766 1759 
L 2194 1759 
z
M 3341 1997 
L 3341 0 
L 2766 0 
L 2766 531 
Q 2569 213 2275 61 
Q 1981 -91 1556 -91 
Q 1019 -91 701 211 
Q 384 513 384 1019 
Q 384 1609 779 1909 
Q 1175 2209 1959 2209 
L 2766 2209 
L 2766 2266 
Q 2766 2663 2505 2880 
Q 2244 3097 1772 3097 
Q 1472 3097 1187 3025 
Q 903 2953 641 2809 
L 641 3341 
Q 956 3463 1253 3523 
Q 1550 3584 1831 3584 
Q 2591 3584 2966 3190 
Q 3341 2797 3341 1997 
z
" transform="scale(0.015625)"/>
      <path id="DejaVuSans-70" d="M 1159 525 
L 1159 -1331 
L 581 -1331 
L 581 3500 
L 1159 3500 
L 1159 2969 
Q 1341 3281 1617 3432 
Q 1894 3584 2278 3584 
Q 2916 3584 3314 3078 
Q 3713 2572 3713 1747 
Q 3713 922 3314 415 
Q 2916 -91 2278 -91 
Q 1894 -91 1617 61 
Q 1341 213 1159 525 
z
M 3116 1747 
Q 3116 2381 2855 2742 
Q 2594 3103 2138 3103 
Q 1681 3103 1420 2742 
Q 1159 2381 1159 1747 
Q 1159 1113 1420 752 
Q 1681 391 2138 391 
Q 2594 391 2855 752 
Q 3116 1113 3116 1747 
z
" transform="scale(0.015625)"/>
      <path id="DejaVuSans-75" d="M 544 1381 
L 544 3500 
L 1119 3500 
L 1119 1403 
Q 1119 906 1312 657 
Q 1506 409 1894 409 
Q 2359 409 2629 706 
Q 2900 1003 2900 1516 
L 2900 3500 
L 3475 3500 
L 3475 0 
L 2900 0 
L 2900 538 
Q 2691 219 2414 64 
Q 2138 -91 1772 -91 
Q 1169 -91 856 284 
Q 544 659 544 1381 
z
M 1991 3584 
L 1991 3584 
z
" transform="scale(0.015625)"/>
      <path id="DejaVuSans-6c" d="M 603 4863 
L 1178 4863 
L 1178 0 
L 603 0 
L 603 4863 
z
" transform="scale(0.015625)"/>
     </defs>
     <use xlink:href="#DejaVuSans-31"/>
     <use xlink:href="#DejaVuSans-2e" transform="translate(63.623047 0)"/>
     <use xlink:href="#DejaVuSans-32" transform="translate(95.410156 0)"/>
     <use xlink:href="#DejaVuSans-20" transform="translate(159.033203 0)"/>
     <use xlink:href="#DejaVuSans-4d" transform="translate(190.820312 0)"/>
     <use xlink:href="#DejaVuSans-61" transform="translate(277.099609 0)"/>
     <use xlink:href="#DejaVuSans-6e" transform="translate(338.378906 0)"/>
     <use xlink:href="#DejaVuSans-69" transform="translate(401.757812 0)"/>
     <use xlink:href="#DejaVuSans-70" transform="translate(429.541016 0)"/>
     <use xlink:href="#DejaVuSans-75" transform="translate(493.017578 0)"/>
     <use xlink:href="#DejaVuSans-6c" transform="translate(556.396484 0)"/>
     <use xlink:href="#DejaVuSans-61" transform="translate(584.179688 0)"/>
     <use xlink:href="#DejaVuSans-74" transform="translate(645.458984 0)"/>
     <use xlink:href="#DejaVuSans-69" transform="translate(684.667969 0)"/>
     <use xlink:href="#DejaVuSans-6f" transform="translate(712.451172 0)"/>
     <use xlink:href="#DejaVuSans-6e" transform="translate(773.632812 0)"/>
    </g>
   </g>
   <g id="text_8">
    <!-- 1.2 Social Contact -->
    <g transform="translate(415.220392 77.681257) scale(0.18 -0.18)">
     <defs>
      <path id="DejaVuSans-53" d="M 3425 4513 
L 3425 3897 
Q 3066 4069 2747 4153 
Q 2428 4238 2131 4238 
Q 1616 4238 1336 4038 
Q 1056 3838 1056 3469 
Q 1056 3159 1242 3001 
Q 1428 2844 1947 2747 
L 2328 2669 
Q 3034 2534 3370 2195 
Q 3706 1856 3706 1288 
Q 3706 609 3251 259 
Q 2797 -91 1919 -91 
Q 1588 -91 1214 -16 
Q 841 59 441 206 
L 441 856 
Q 825 641 1194 531 
Q 1563 422 1919 422 
Q 2459 422 2753 634 
Q 3047 847 3047 1241 
Q 3047 1584 2836 1778 
Q 2625 1972 2144 2069 
L 1759 2144 
Q 1053 2284 737 2584 
Q 422 2884 422 3419 
Q 422 4038 858 4394 
Q 1294 4750 2059 4750 
Q 2388 4750 2728 4690 
Q 3069 4631 3425 4513 
z
" transform="scale(0.015625)"/>
      <path id="DejaVuSans-63" d="M 3122 3366 
L 3122 2828 
Q 2878 2963 2633 3030 
Q 2388 3097 2138 3097 
Q 1578 3097 1268 2742 
Q 959 2388 959 1747 
Q 959 1106 1268 751 
Q 1578 397 2138 397 
Q 2388 397 2633 464 
Q 2878 531 3122 666 
L 3122 134 
Q 2881 22 2623 -34 
Q 2366 -91 2075 -91 
Q 1284 -91 818 406 
Q 353 903 353 1747 
Q 353 2603 823 3093 
Q 1294 3584 2113 3584 
Q 2378 3584 2631 3529 
Q 2884 3475 3122 3366 
z
" transform="scale(0.015625)"/>
      <path id="DejaVuSans-43" d="M 4122 4306 
L 4122 3641 
Q 3803 3938 3442 4084 
Q 3081 4231 2675 4231 
Q 1875 4231 1450 3742 
Q 1025 3253 1025 2328 
Q 1025 1406 1450 917 
Q 1875 428 2675 428 
Q 3081 428 3442 575 
Q 3803 722 4122 1019 
L 4122 359 
Q 3791 134 3420 21 
Q 3050 -91 2638 -91 
Q 1578 -91 968 557 
Q 359 1206 359 2328 
Q 359 3453 968 4101 
Q 1578 4750 2638 4750 
Q 3056 4750 3426 4639 
Q 3797 4528 4122 4306 
z
" transform="scale(0.015625)"/>
     </defs>
     <use xlink:href="#DejaVuSans-31"/>
     <use xlink:href="#DejaVuSans-2e" transform="translate(63.623047 0)"/>
     <use xlink:href="#DejaVuSans-32" transform="translate(95.410156 0)"/>
     <use xlink:href="#DejaVuSans-20" transform="translate(159.033203 0)"/>
     <use xlink:href="#DejaVuSans-53" transform="translate(190.820312 0)"/>
     <use xlink:href="#DejaVuSans-6f" transform="translate(254.296875 0)"/>
     <use xlink:href="#DejaVuSans-63" transform="translate(315.478516 0)"/>
     <use xlink:href="#DejaVuSans-69" transform="translate(370.458984 0)"/>
     <use xlink:href="#DejaVuSans-61" transform="translate(398.242188 0)"/>
     <use xlink:href="#DejaVuSans-6c" transform="translate(459.521484 0)"/>
     <use xlink:href="#DejaVuSans-20" transform="translate(487.304688 0)"/>
     <use xlink:href="#DejaVuSans-43" transform="translate(519.091797 0)"/>
     <use xlink:href="#DejaVuSans-6f" transform="translate(588.916016 0)"/>
     <use xlink:href="#DejaVuSans-6e" transform="translate(650.097656 0)"/>
     <use xlink:href="#DejaVuSans-74" transform="translate(713.476562 0)"/>
     <use xlink:href="#DejaVuSans-61" transform="translate(752.685547 0)"/>
     <use xlink:href="#DejaVuSans-63" transform="translate(813.964844 0)"/>
     <use xlink:href="#DejaVuSans-74" transform="translate(868.945312 0)"/>
    </g>
   </g>
   <g id="text_9">
    <!-- 1.2 Support -->
    <g transform="translate(500.615621 130.025636) scale(0.18 -0.18)">
     <defs>
      <path id="DejaVuSans-72" d="M 2631 2963 
Q 2534 3019 2420 3045 
Q 2306 3072 2169 3072 
Q 1681 3072 1420 2755 
Q 1159 2438 1159 1844 
L 1159 0 
L 581 0 
L 581 3500 
L 1159 3500 
L 1159 2956 
Q 1341 3275 1631 3429 
Q 1922 3584 2338 3584 
Q 2397 3584 2469 3576 
Q 2541 3569 2628 3553 
L 2631 2963 
z
" transform="scale(0.015625)"/>
     </defs>
     <use xlink:href="#DejaVuSans-31"/>
     <use xlink:href="#DejaVuSans-2e" transform="translate(63.623047 0)"/>
     <use xlink:href="#DejaVuSans-32" transform="translate(95.410156 0)"/>
     <use xlink:href="#DejaVuSans-20" transform="translate(159.033203 0)"/>
     <use xlink:href="#DejaVuSans-53" transform="translate(190.820312 0)"/>
     <use xlink:href="#DejaVuSans-75" transform="translate(254.296875 0)"/>
     <use xlink:href="#DejaVuSans-70" transform="translate(317.675781 0)"/>
     <use xlink:href="#DejaVuSans-70" transform="translate(381.152344 0)"/>
     <use xlink:href="#DejaVuSans-6f" transform="translate(444.628906 0)"/>
     <use xlink:href="#DejaVuSans-72" transform="translate(505.810547 0)"/>
     <use xlink:href="#DejaVuSans-74" transform="translate(546.923828 0)"/>
    </g>
   </g>
   <g id="text_10">
    <!-- 1.3 Gaze -->
    <g transform="translate(551.923579 196.672767) scale(0.18 -0.18)">
     <defs>
      <path id="DejaVuSans-47" d="M 3809 666 
L 3809 1919 
L 2778 1919 
L 2778 2438 
L 4434 2438 
L 4434 434 
Q 4069 175 3628 42 
Q 3188 -91 2688 -91 
Q 1594 -91 976 548 
Q 359 1188 359 2328 
Q 359 3472 976 4111 
Q 1594 4750 2688 4750 
Q 3144 4750 3555 4637 
Q 3966 4525 4313 4306 
L 4313 3634 
Q 3963 3931 3569 4081 
Q 3175 4231 2741 4231 
Q 1884 4231 1454 3753 
Q 1025 3275 1025 2328 
Q 1025 1384 1454 906 
Q 1884 428 2741 428 
Q 3075 428 3337 486 
Q 3600 544 3809 666 
z
" transform="scale(0.015625)"/>
      <path id="DejaVuSans-7a" d="M 353 3500 
L 3084 3500 
L 3084 2975 
L 922 459 
L 3084 459 
L 3084 0 
L 275 0 
L 275 525 
L 2438 3041 
L 353 3041 
L 353 3500 
z
" transform="scale(0.015625)"/>
      <path id="DejaVuSans-65" d="M 3597 1894 
L 3597 1613 
L 953 1613 
Q 991 1019 1311 708 
Q 1631 397 2203 397 
Q 2534 397 2845 478 
Q 3156 559 3463 722 
L 3463 178 
Q 3153 47 2828 -22 
Q 2503 -91 2169 -91 
Q 1331 -91 842 396 
Q 353 884 353 1716 
Q 353 2575 817 3079 
Q 1281 3584 2069 3584 
Q 2775 3584 3186 3129 
Q 3597 2675 3597 1894 
z
M 3022 2063 
Q 3016 2534 2758 2815 
Q 2500 3097 2075 3097 
Q 1594 3097 1305 2825 
Q 1016 2553 972 2059 
L 3022 2063 
z
" transform="scale(0.015625)"/>
     </defs>
     <use xlink:href="#DejaVuSans-31"/>
     <use xlink:href="#DejaVuSans-2e" transform="translate(63.623047 0)"/>
     <use xlink:href="#DejaVuSans-33" transform="translate(95.410156 0)"/>
     <use xlink:href="#DejaVuSans-20" transform="translate(159.033203 0)"/>
     <use xlink:href="#DejaVuSans-47" transform="translate(190.820312 0)"/>
     <use xlink:href="#DejaVuSans-61" transform="translate(268.310547 0)"/>
     <use xlink:href="#DejaVuSans-7a" transform="translate(329.589844 0)"/>
     <use xlink:href="#DejaVuSans-65" transform="translate(382.080078 0)"/>
    </g>
   </g>
   <g id="text_11">
    <!-- 1.3 Gesture -->
    <g transform="translate(556.33151 271.70076) scale(0.18 -0.18)">
     <use xlink:href="#DejaVuSans-31"/>
     <use xlink:href="#DejaVuSans-2e" transform="translate(63.623047 0)"/>
     <use xlink:href="#DejaVuSans-33" transform="translate(95.410156 0)"/>
     <use xlink:href="#DejaVuSans-20" transform="translate(159.033203 0)"/>
     <use xlink:href="#DejaVuSans-47" transform="translate(190.820312 0)"/>
     <use xlink:href="#DejaVuSans-65" transform="translate(268.310547 0)"/>
     <use xlink:href="#DejaVuSans-73" transform="translate(329.833984 0)"/>
     <use xlink:href="#DejaVuSans-74" transform="translate(381.933594 0)"/>
     <use xlink:href="#DejaVuSans-75" transform="translate(421.142578 0)"/>
     <use xlink:href="#DejaVuSans-72" transform="translate(484.521484 0)"/>
     <use xlink:href="#DejaVuSans-65" transform="translate(523.384766 0)"/>
    </g>
   </g>
   <g id="text_12">
    <!-- 1.4 Communication -->
    <g transform="translate(515.112033 348.44305) scale(0.18 -0.18)">
     <defs>
      <path id="DejaVuSans-6d" d="M 3328 2828 
Q 3544 3216 3844 3400 
Q 4144 3584 4550 3584 
Q 5097 3584 5394 3201 
Q 5691 2819 5691 2113 
L 5691 0 
L 5113 0 
L 5113 2094 
Q 5113 2597 4934 2840 
Q 4756 3084 4391 3084 
Q 3944 3084 3684 2787 
Q 3425 2491 3425 1978 
L 3425 0 
L 2847 0 
L 2847 2094 
Q 2847 2600 2669 2842 
Q 2491 3084 2119 3084 
Q 1678 3084 1418 2786 
Q 1159 2488 1159 1978 
L 1159 0 
L 581 0 
L 581 3500 
L 1159 3500 
L 1159 2956 
Q 1356 3278 1631 3431 
Q 1906 3584 2284 3584 
Q 2666 3584 2933 3390 
Q 3200 3197 3328 2828 
z
" transform="scale(0.015625)"/>
     </defs>
     <use xlink:href="#DejaVuSans-31"/>
     <use xlink:href="#DejaVuSans-2e" transform="translate(63.623047 0)"/>
     <use xlink:href="#DejaVuSans-34" transform="translate(95.410156 0)"/>
     <use xlink:href="#DejaVuSans-20" transform="translate(159.033203 0)"/>
     <use xlink:href="#DejaVuSans-43" transform="translate(190.820312 0)"/>
     <use xlink:href="#DejaVuSans-6f" transform="translate(260.644531 0)"/>
     <use xlink:href="#DejaVuSans-6d" transform="translate(321.826172 0)"/>
     <use xlink:href="#DejaVuSans-6d" transform="translate(419.238281 0)"/>
     <use xlink:href="#DejaVuSans-75" transform="translate(516.650391 0)"/>
     <use xlink:href="#DejaVuSans-6e" transform="translate(580.029297 0)"/>
     <use xlink:href="#DejaVuSans-69" transform="translate(643.408203 0)"/>
     <use xlink:href="#DejaVuSans-63" transform="translate(671.191406 0)"/>
     <use xlink:href="#DejaVuSans-61" transform="translate(726.171875 0)"/>
     <use xlink:href="#DejaVuSans-74" transform="translate(787.451172 0)"/>
     <use xlink:href="#DejaVuSans-69" transform="translate(826.660156 0)"/>
     <use xlink:href="#DejaVuSans-6f" transform="translate(854.443359 0)"/>
     <use xlink:href="#DejaVuSans-6e" transform="translate(915.625 0)"/>
    </g>
   </g>
   <g id="text_13">
    <!-- 2.1 Actor State -->
    <g transform="translate(507.565528 420.080746) scale(0.18 -0.18)">
     <defs>
      <path id="DejaVuSans-41" d="M 2188 4044 
L 1331 1722 
L 3047 1722 
L 2188 4044 
z
M 1831 4666 
L 2547 4666 
L 4325 0 
L 3669 0 
L 3244 1197 
L 1141 1197 
L 716 0 
L 50 0 
L 1831 4666 
z
" transform="scale(0.015625)"/>
     </defs>
     <use xlink:href="#DejaVuSans-32"/>
     <use xlink:href="#DejaVuSans-2e" transform="translate(63.623047 0)"/>
     <use xlink:href="#DejaVuSans-31" transform="translate(95.410156 0)"/>
     <use xlink:href="#DejaVuSans-20" transform="translate(159.033203 0)"/>
     <use xlink:href="#DejaVuSans-41" transform="translate(190.820312 0)"/>
     <use xlink:href="#DejaVuSans-63" transform="translate(257.478516 0)"/>
     <use xlink:href="#DejaVuSans-74" transform="translate(312.458984 0)"/>
     <use xlink:href="#DejaVuSans-6f" transform="translate(351.667969 0)"/>
     <use xlink:href="#DejaVuSans-72" transform="translate(412.849609 0)"/>
     <use xlink:href="#DejaVuSans-20" transform="translate(453.962891 0)"/>
     <use xlink:href="#DejaVuSans-53" transform="translate(485.75 0)"/>
     <use xlink:href="#DejaVuSans-74" transform="translate(549.226562 0)"/>
     <use xlink:href="#DejaVuSans-61" transform="translate(588.435547 0)"/>
     <use xlink:href="#DejaVuSans-74" transform="translate(649.714844 0)"/>
     <use xlink:href="#DejaVuSans-65" transform="translate(688.923828 0)"/>
    </g>
   </g>
   <g id="text_14">
    <!-- 2.2 Object State -->
    <g transform="translate(453.9527 480.248525) scale(0.18 -0.18)">
     <defs>
      <path id="DejaVuSans-4f" d="M 2522 4238 
Q 1834 4238 1429 3725 
Q 1025 3213 1025 2328 
Q 1025 1447 1429 934 
Q 1834 422 2522 422 
Q 3209 422 3611 934 
Q 4013 1447 4013 2328 
Q 4013 3213 3611 3725 
Q 3209 4238 2522 4238 
z
M 2522 4750 
Q 3503 4750 4090 4092 
Q 4678 3434 4678 2328 
Q 4678 1225 4090 567 
Q 3503 -91 2522 -91 
Q 1538 -91 948 565 
Q 359 1222 359 2328 
Q 359 3434 948 4092 
Q 1538 4750 2522 4750 
z
" transform="scale(0.015625)"/>
      <path id="DejaVuSans-62" d="M 3116 1747 
Q 3116 2381 2855 2742 
Q 2594 3103 2138 3103 
Q 1681 3103 1420 2742 
Q 1159 2381 1159 1747 
Q 1159 1113 1420 752 
Q 1681 391 2138 391 
Q 2594 391 2855 752 
Q 3116 1113 3116 1747 
z
M 1159 2969 
Q 1341 3281 1617 3432 
Q 1894 3584 2278 3584 
Q 2916 3584 3314 3078 
Q 3713 2572 3713 1747 
Q 3713 922 3314 415 
Q 2916 -91 2278 -91 
Q 1894 -91 1617 61 
Q 1341 213 1159 525 
L 1159 0 
L 581 0 
L 581 4863 
L 1159 4863 
L 1159 2969 
z
" transform="scale(0.015625)"/>
      <path id="DejaVuSans-6a" d="M 603 3500 
L 1178 3500 
L 1178 -63 
Q 1178 -731 923 -1031 
Q 669 -1331 103 -1331 
L -116 -1331 
L -116 -844 
L 38 -844 
Q 366 -844 484 -692 
Q 603 -541 603 -63 
L 603 3500 
z
M 603 4863 
L 1178 4863 
L 1178 4134 
L 603 4134 
L 603 4863 
z
" transform="scale(0.015625)"/>
     </defs>
     <use xlink:href="#DejaVuSans-32"/>
     <use xlink:href="#DejaVuSans-2e" transform="translate(63.623047 0)"/>
     <use xlink:href="#DejaVuSans-32" transform="translate(95.410156 0)"/>
     <use xlink:href="#DejaVuSans-20" transform="translate(159.033203 0)"/>
     <use xlink:href="#DejaVuSans-4f" transform="translate(190.820312 0)"/>
     <use xlink:href="#DejaVuSans-62" transform="translate(269.53125 0)"/>
     <use xlink:href="#DejaVuSans-6a" transform="translate(333.007812 0)"/>
     <use xlink:href="#DejaVuSans-65" transform="translate(360.791016 0)"/>
     <use xlink:href="#DejaVuSans-63" transform="translate(422.314453 0)"/>
     <use xlink:href="#DejaVuSans-74" transform="translate(477.294922 0)"/>
     <use xlink:href="#DejaVuSans-20" transform="translate(516.503906 0)"/>
     <use xlink:href="#DejaVuSans-53" transform="translate(548.291016 0)"/>
     <use xlink:href="#DejaVuSans-74" transform="translate(611.767578 0)"/>
     <use xlink:href="#DejaVuSans-61" transform="translate(650.976562 0)"/>
     <use xlink:href="#DejaVuSans-74" transform="translate(712.255859 0)"/>
     <use xlink:href="#DejaVuSans-65" transform="translate(751.464844 0)"/>
    </g>
   </g>
   <g id="text_15">
    <!-- 2.3 Sequences -->
    <g transform="translate(397.279167 523.600216) scale(0.18 -0.18)">
     <defs>
      <path id="DejaVuSans-71" d="M 947 1747 
Q 947 1113 1208 752 
Q 1469 391 1925 391 
Q 2381 391 2643 752 
Q 2906 1113 2906 1747 
Q 2906 2381 2643 2742 
Q 2381 3103 1925 3103 
Q 1469 3103 1208 2742 
Q 947 2381 947 1747 
z
M 2906 525 
Q 2725 213 2448 61 
Q 2172 -91 1784 -91 
Q 1150 -91 751 415 
Q 353 922 353 1747 
Q 353 2572 751 3078 
Q 1150 3584 1784 3584 
Q 2172 3584 2448 3432 
Q 2725 3281 2906 2969 
L 2906 3500 
L 3481 3500 
L 3481 -1331 
L 2906 -1331 
L 2906 525 
z
" transform="scale(0.015625)"/>
     </defs>
     <use xlink:href="#DejaVuSans-32"/>
     <use xlink:href="#DejaVuSans-2e" transform="translate(63.623047 0)"/>
     <use xlink:href="#DejaVuSans-33" transform="translate(95.410156 0)"/>
     <use xlink:href="#DejaVuSans-20" transform="translate(159.033203 0)"/>
     <use xlink:href="#DejaVuSans-53" transform="translate(190.820312 0)"/>
     <use xlink:href="#DejaVuSans-65" transform="translate(254.296875 0)"/>
     <use xlink:href="#DejaVuSans-71" transform="translate(315.820312 0)"/>
     <use xlink:href="#DejaVuSans-75" transform="translate(379.296875 0)"/>
     <use xlink:href="#DejaVuSans-65" transform="translate(442.675781 0)"/>
     <use xlink:href="#DejaVuSans-6e" transform="translate(504.199219 0)"/>
     <use xlink:href="#DejaVuSans-63" transform="translate(567.578125 0)"/>
     <use xlink:href="#DejaVuSans-65" transform="translate(622.558594 0)"/>
     <use xlink:href="#DejaVuSans-73" transform="translate(684.082031 0)"/>
    </g>
   </g>
   <g id="text_16">
    <!-- 2.4 Durational -->
    <g transform="translate(325.722099 546.283831) scale(0.18 -0.18)">
     <defs>
      <path id="DejaVuSans-44" d="M 1259 4147 
L 1259 519 
L 2022 519 
Q 2988 519 3436 956 
Q 3884 1394 3884 2338 
Q 3884 3275 3436 3711 
Q 2988 4147 2022 4147 
L 1259 4147 
z
M 628 4666 
L 1925 4666 
Q 3281 4666 3915 4102 
Q 4550 3538 4550 2338 
Q 4550 1131 3912 565 
Q 3275 0 1925 0 
L 628 0 
L 628 4666 
z
" transform="scale(0.015625)"/>
     </defs>
     <use xlink:href="#DejaVuSans-32"/>
     <use xlink:href="#DejaVuSans-2e" transform="translate(63.623047 0)"/>
     <use xlink:href="#DejaVuSans-34" transform="translate(95.410156 0)"/>
     <use xlink:href="#DejaVuSans-20" transform="translate(159.033203 0)"/>
     <use xlink:href="#DejaVuSans-44" transform="translate(190.820312 0)"/>
     <use xlink:href="#DejaVuSans-75" transform="translate(267.822266 0)"/>
     <use xlink:href="#DejaVuSans-72" transform="translate(331.201172 0)"/>
     <use xlink:href="#DejaVuSans-61" transform="translate(372.314453 0)"/>
     <use xlink:href="#DejaVuSans-74" transform="translate(433.59375 0)"/>
     <use xlink:href="#DejaVuSans-69" transform="translate(472.802734 0)"/>
     <use xlink:href="#DejaVuSans-6f" transform="translate(500.585938 0)"/>
     <use xlink:href="#DejaVuSans-6e" transform="translate(561.767578 0)"/>
     <use xlink:href="#DejaVuSans-61" transform="translate(625.146484 0)"/>
     <use xlink:href="#DejaVuSans-6c" transform="translate(686.425781 0)"/>
    </g>
   </g>
   <g id="text_17">
    <!-- 3.0 Composite -->
    <g transform="translate(247.83509 546.283831) scale(0.18 -0.18)">
     <use xlink:href="#DejaVuSans-33"/>
     <use xlink:href="#DejaVuSans-2e" transform="translate(63.623047 0)"/>
     <use xlink:href="#DejaVuSans-30" transform="translate(95.410156 0)"/>
     <use xlink:href="#DejaVuSans-20" transform="translate(159.033203 0)"/>
     <use xlink:href="#DejaVuSans-43" transform="translate(190.820312 0)"/>
     <use xlink:href="#DejaVuSans-6f" transform="translate(260.644531 0)"/>
     <use xlink:href="#DejaVuSans-6d" transform="translate(321.826172 0)"/>
     <use xlink:href="#DejaVuSans-70" transform="translate(419.238281 0)"/>
     <use xlink:href="#DejaVuSans-6f" transform="translate(482.714844 0)"/>
     <use xlink:href="#DejaVuSans-73" transform="translate(543.896484 0)"/>
     <use xlink:href="#DejaVuSans-69" transform="translate(595.996094 0)"/>
     <use xlink:href="#DejaVuSans-74" transform="translate(623.779297 0)"/>
     <use xlink:href="#DejaVuSans-65" transform="translate(662.988281 0)"/>
    </g>
   </g>
   <g id="text_18">
    <!-- 3.1 Approach/Depart -->
    <g transform="translate(145.617554 523.600216) scale(0.18 -0.18)">
     <defs>
      <path id="DejaVuSans-68" d="M 3513 2113 
L 3513 0 
L 2938 0 
L 2938 2094 
Q 2938 2591 2744 2837 
Q 2550 3084 2163 3084 
Q 1697 3084 1428 2787 
Q 1159 2491 1159 1978 
L 1159 0 
L 581 0 
L 581 4863 
L 1159 4863 
L 1159 2956 
Q 1366 3272 1645 3428 
Q 1925 3584 2291 3584 
Q 2894 3584 3203 3211 
Q 3513 2838 3513 2113 
z
" transform="scale(0.015625)"/>
      <path id="DejaVuSans-2f" d="M 1625 4666 
L 2156 4666 
L 531 -594 
L 0 -594 
L 1625 4666 
z
" transform="scale(0.015625)"/>
     </defs>
     <use xlink:href="#DejaVuSans-33"/>
     <use xlink:href="#DejaVuSans-2e" transform="translate(63.623047 0)"/>
     <use xlink:href="#DejaVuSans-31" transform="translate(95.410156 0)"/>
     <use xlink:href="#DejaVuSans-20" transform="translate(159.033203 0)"/>
     <use xlink:href="#DejaVuSans-41" transform="translate(190.820312 0)"/>
     <use xlink:href="#DejaVuSans-70" transform="translate(259.228516 0)"/>
     <use xlink:href="#DejaVuSans-70" transform="translate(322.705078 0)"/>
     <use xlink:href="#DejaVuSans-72" transform="translate(386.181641 0)"/>
     <use xlink:href="#DejaVuSans-6f" transform="translate(425.044922 0)"/>
     <use xlink:href="#DejaVuSans-61" transform="translate(486.226562 0)"/>
     <use xlink:href="#DejaVuSans-63" transform="translate(547.505859 0)"/>
     <use xlink:href="#DejaVuSans-68" transform="translate(602.486328 0)"/>
     <use xlink:href="#DejaVuSans-2f" transform="translate(665.865234 0)"/>
     <use xlink:href="#DejaVuSans-44" transform="translate(699.556641 0)"/>
     <use xlink:href="#DejaVuSans-65" transform="translate(776.558594 0)"/>
     <use xlink:href="#DejaVuSans-70" transform="translate(838.082031 0)"/>
     <use xlink:href="#DejaVuSans-61" transform="translate(901.558594 0)"/>
     <use xlink:href="#DejaVuSans-72" transform="translate(962.837891 0)"/>
     <use xlink:href="#DejaVuSans-74" transform="translate(1003.951172 0)"/>
    </g>
   </g>
   <g id="text_19">
    <!-- 3.1 Following/Leading -->
    <g transform="translate(78.028708 480.248525) scale(0.18 -0.18)">
     <defs>
      <path id="DejaVuSans-46" d="M 628 4666 
L 3309 4666 
L 3309 4134 
L 1259 4134 
L 1259 2759 
L 3109 2759 
L 3109 2228 
L 1259 2228 
L 1259 0 
L 628 0 
L 628 4666 
z
" transform="scale(0.015625)"/>
      <path id="DejaVuSans-77" d="M 269 3500 
L 844 3500 
L 1563 769 
L 2278 3500 
L 2956 3500 
L 3675 769 
L 4391 3500 
L 4966 3500 
L 4050 0 
L 3372 0 
L 2619 2869 
L 1863 0 
L 1184 0 
L 269 3500 
z
" transform="scale(0.015625)"/>
      <path id="DejaVuSans-67" d="M 2906 1791 
Q 2906 2416 2648 2759 
Q 2391 3103 1925 3103 
Q 1463 3103 1205 2759 
Q 947 2416 947 1791 
Q 947 1169 1205 825 
Q 1463 481 1925 481 
Q 2391 481 2648 825 
Q 2906 1169 2906 1791 
z
M 3481 434 
Q 3481 -459 3084 -895 
Q 2688 -1331 1869 -1331 
Q 1566 -1331 1297 -1286 
Q 1028 -1241 775 -1147 
L 775 -588 
Q 1028 -725 1275 -790 
Q 1522 -856 1778 -856 
Q 2344 -856 2625 -561 
Q 2906 -266 2906 331 
L 2906 616 
Q 2728 306 2450 153 
Q 2172 0 1784 0 
Q 1141 0 747 490 
Q 353 981 353 1791 
Q 353 2603 747 3093 
Q 1141 3584 1784 3584 
Q 2172 3584 2450 3431 
Q 2728 3278 2906 2969 
L 2906 3500 
L 3481 3500 
L 3481 434 
z
" transform="scale(0.015625)"/>
      <path id="DejaVuSans-4c" d="M 628 4666 
L 1259 4666 
L 1259 531 
L 3531 531 
L 3531 0 
L 628 0 
L 628 4666 
z
" transform="scale(0.015625)"/>
      <path id="DejaVuSans-64" d="M 2906 2969 
L 2906 4863 
L 3481 4863 
L 3481 0 
L 2906 0 
L 2906 525 
Q 2725 213 2448 61 
Q 2172 -91 1784 -91 
Q 1150 -91 751 415 
Q 353 922 353 1747 
Q 353 2572 751 3078 
Q 1150 3584 1784 3584 
Q 2172 3584 2448 3432 
Q 2725 3281 2906 2969 
z
M 947 1747 
Q 947 1113 1208 752 
Q 1469 391 1925 391 
Q 2381 391 2643 752 
Q 2906 1113 2906 1747 
Q 2906 2381 2643 2742 
Q 2381 3103 1925 3103 
Q 1469 3103 1208 2742 
Q 947 2381 947 1747 
z
" transform="scale(0.015625)"/>
     </defs>
     <use xlink:href="#DejaVuSans-33"/>
     <use xlink:href="#DejaVuSans-2e" transform="translate(63.623047 0)"/>
     <use xlink:href="#DejaVuSans-31" transform="translate(95.410156 0)"/>
     <use xlink:href="#DejaVuSans-20" transform="translate(159.033203 0)"/>
     <use xlink:href="#DejaVuSans-46" transform="translate(190.820312 0)"/>
     <use xlink:href="#DejaVuSans-6f" transform="translate(244.714844 0)"/>
     <use xlink:href="#DejaVuSans-6c" transform="translate(305.896484 0)"/>
     <use xlink:href="#DejaVuSans-6c" transform="translate(333.679688 0)"/>
     <use xlink:href="#DejaVuSans-6f" transform="translate(361.462891 0)"/>
     <use xlink:href="#DejaVuSans-77" transform="translate(422.644531 0)"/>
     <use xlink:href="#DejaVuSans-69" transform="translate(504.431641 0)"/>
     <use xlink:href="#DejaVuSans-6e" transform="translate(532.214844 0)"/>
     <use xlink:href="#DejaVuSans-67" transform="translate(595.59375 0)"/>
     <use xlink:href="#DejaVuSans-2f" transform="translate(659.070312 0)"/>
     <use xlink:href="#DejaVuSans-4c" transform="translate(692.761719 0)"/>
     <use xlink:href="#DejaVuSans-65" transform="translate(746.724609 0)"/>
     <use xlink:href="#DejaVuSans-61" transform="translate(808.248047 0)"/>
     <use xlink:href="#DejaVuSans-64" transform="translate(869.527344 0)"/>
     <use xlink:href="#DejaVuSans-69" transform="translate(933.003906 0)"/>
     <use xlink:href="#DejaVuSans-6e" transform="translate(960.787109 0)"/>
     <use xlink:href="#DejaVuSans-67" transform="translate(1024.166016 0)"/>
    </g>
   </g>
   <g id="text_20">
    <!-- 3.1 Motion/Impact -->
    <g transform="translate(46.091818 420.080746) scale(0.18 -0.18)">
     <defs>
      <path id="DejaVuSans-49" d="M 628 4666 
L 1259 4666 
L 1259 0 
L 628 0 
L 628 4666 
z
" transform="scale(0.015625)"/>
     </defs>
     <use xlink:href="#DejaVuSans-33"/>
     <use xlink:href="#DejaVuSans-2e" transform="translate(63.623047 0)"/>
     <use xlink:href="#DejaVuSans-31" transform="translate(95.410156 0)"/>
     <use xlink:href="#DejaVuSans-20" transform="translate(159.033203 0)"/>
     <use xlink:href="#DejaVuSans-4d" transform="translate(190.820312 0)"/>
     <use xlink:href="#DejaVuSans-6f" transform="translate(277.099609 0)"/>
     <use xlink:href="#DejaVuSans-74" transform="translate(338.28125 0)"/>
     <use xlink:href="#DejaVuSans-69" transform="translate(377.490234 0)"/>
     <use xlink:href="#DejaVuSans-6f" transform="translate(405.273438 0)"/>
     <use xlink:href="#DejaVuSans-6e" transform="translate(466.455078 0)"/>
     <use xlink:href="#DejaVuSans-2f" transform="translate(529.833984 0)"/>
     <use xlink:href="#DejaVuSans-49" transform="translate(563.525391 0)"/>
     <use xlink:href="#DejaVuSans-6d" transform="translate(593.017578 0)"/>
     <use xlink:href="#DejaVuSans-70" transform="translate(690.429688 0)"/>
     <use xlink:href="#DejaVuSans-61" transform="translate(753.90625 0)"/>
     <use xlink:href="#DejaVuSans-63" transform="translate(815.185547 0)"/>
     <use xlink:href="#DejaVuSans-74" transform="translate(870.166016 0)"/>
    </g>
   </g>
   <g id="text_21">
    <!-- 3.1 Passing/Crossing -->
    <g transform="translate(7.2 348.44305) scale(0.18 -0.18)">
     <use xlink:href="#DejaVuSans-33"/>
     <use xlink:href="#DejaVuSans-2e" transform="translate(63.623047 0)"/>
     <use xlink:href="#DejaVuSans-31" transform="translate(95.410156 0)"/>
     <use xlink:href="#DejaVuSans-20" transform="translate(159.033203 0)"/>
     <use xlink:href="#DejaVuSans-50" transform="translate(190.820312 0)"/>
     <use xlink:href="#DejaVuSans-61" transform="translate(246.623047 0)"/>
     <use xlink:href="#DejaVuSans-73" transform="translate(307.902344 0)"/>
     <use xlink:href="#DejaVuSans-73" transform="translate(360.001953 0)"/>
     <use xlink:href="#DejaVuSans-69" transform="translate(412.101562 0)"/>
     <use xlink:href="#DejaVuSans-6e" transform="translate(439.884766 0)"/>
     <use xlink:href="#DejaVuSans-67" transform="translate(503.263672 0)"/>
     <use xlink:href="#DejaVuSans-2f" transform="translate(566.740234 0)"/>
     <use xlink:href="#DejaVuSans-43" transform="translate(600.431641 0)"/>
     <use xlink:href="#DejaVuSans-72" transform="translate(670.255859 0)"/>
     <use xlink:href="#DejaVuSans-6f" transform="translate(709.119141 0)"/>
     <use xlink:href="#DejaVuSans-73" transform="translate(770.300781 0)"/>
     <use xlink:href="#DejaVuSans-73" transform="translate(822.400391 0)"/>
     <use xlink:href="#DejaVuSans-69" transform="translate(874.5 0)"/>
     <use xlink:href="#DejaVuSans-6e" transform="translate(902.283203 0)"/>
     <use xlink:href="#DejaVuSans-67" transform="translate(965.662109 0)"/>
    </g>
   </g>
   <g id="text_22">
    <!-- 3.2 Object State -->
    <g transform="translate(20.898804 271.70076) scale(0.18 -0.18)">
     <use xlink:href="#DejaVuSans-33"/>
     <use xlink:href="#DejaVuSans-2e" transform="translate(63.623047 0)"/>
     <use xlink:href="#DejaVuSans-32" transform="translate(95.410156 0)"/>
     <use xlink:href="#DejaVuSans-20" transform="translate(159.033203 0)"/>
     <use xlink:href="#DejaVuSans-4f" transform="translate(190.820312 0)"/>
     <use xlink:href="#DejaVuSans-62" transform="translate(269.53125 0)"/>
     <use xlink:href="#DejaVuSans-6a" transform="translate(333.007812 0)"/>
     <use xlink:href="#DejaVuSans-65" transform="translate(360.791016 0)"/>
     <use xlink:href="#DejaVuSans-63" transform="translate(422.314453 0)"/>
     <use xlink:href="#DejaVuSans-74" transform="translate(477.294922 0)"/>
     <use xlink:href="#DejaVuSans-20" transform="translate(516.503906 0)"/>
     <use xlink:href="#DejaVuSans-53" transform="translate(548.291016 0)"/>
     <use xlink:href="#DejaVuSans-74" transform="translate(611.767578 0)"/>
     <use xlink:href="#DejaVuSans-61" transform="translate(650.976562 0)"/>
     <use xlink:href="#DejaVuSans-74" transform="translate(712.255859 0)"/>
     <use xlink:href="#DejaVuSans-65" transform="translate(751.464844 0)"/>
    </g>
   </g>
   <g id="text_23">
    <!-- 3.2 Transference -->
    <g transform="translate(36.312048 196.672767) scale(0.18 -0.18)">
     <defs>
      <path id="DejaVuSans-54" d="M -19 4666 
L 3928 4666 
L 3928 4134 
L 2272 4134 
L 2272 0 
L 1638 0 
L 1638 4134 
L -19 4134 
L -19 4666 
z
" transform="scale(0.015625)"/>
      <path id="DejaVuSans-66" d="M 2375 4863 
L 2375 4384 
L 1825 4384 
Q 1516 4384 1395 4259 
Q 1275 4134 1275 3809 
L 1275 3500 
L 2222 3500 
L 2222 3053 
L 1275 3053 
L 1275 0 
L 697 0 
L 697 3053 
L 147 3053 
L 147 3500 
L 697 3500 
L 697 3744 
Q 697 4328 969 4595 
Q 1241 4863 1831 4863 
L 2375 4863 
z
" transform="scale(0.015625)"/>
     </defs>
     <use xlink:href="#DejaVuSans-33"/>
     <use xlink:href="#DejaVuSans-2e" transform="translate(63.623047 0)"/>
     <use xlink:href="#DejaVuSans-32" transform="translate(95.410156 0)"/>
     <use xlink:href="#DejaVuSans-20" transform="translate(159.033203 0)"/>
     <use xlink:href="#DejaVuSans-54" transform="translate(190.820312 0)"/>
     <use xlink:href="#DejaVuSans-72" transform="translate(237.154297 0)"/>
     <use xlink:href="#DejaVuSans-61" transform="translate(278.267578 0)"/>
     <use xlink:href="#DejaVuSans-6e" transform="translate(339.546875 0)"/>
     <use xlink:href="#DejaVuSans-73" transform="translate(402.925781 0)"/>
     <use xlink:href="#DejaVuSans-66" transform="translate(455.025391 0)"/>
     <use xlink:href="#DejaVuSans-65" transform="translate(490.230469 0)"/>
     <use xlink:href="#DejaVuSans-72" transform="translate(551.753906 0)"/>
     <use xlink:href="#DejaVuSans-65" transform="translate(590.617188 0)"/>
     <use xlink:href="#DejaVuSans-6e" transform="translate(652.140625 0)"/>
     <use xlink:href="#DejaVuSans-63" transform="translate(715.519531 0)"/>
     <use xlink:href="#DejaVuSans-65" transform="translate(770.5 0)"/>
    </g>
   </g>
   <g id="text_24">
    <!-- 3.3 Action Sequences -->
    <g transform="translate(52.366724 130.025636) scale(0.18 -0.18)">
     <use xlink:href="#DejaVuSans-33"/>
     <use xlink:href="#DejaVuSans-2e" transform="translate(63.623047 0)"/>
     <use xlink:href="#DejaVuSans-33" transform="translate(95.410156 0)"/>
     <use xlink:href="#DejaVuSans-20" transform="translate(159.033203 0)"/>
     <use xlink:href="#DejaVuSans-41" transform="translate(190.820312 0)"/>
     <use xlink:href="#DejaVuSans-63" transform="translate(257.478516 0)"/>
     <use xlink:href="#DejaVuSans-74" transform="translate(312.458984 0)"/>
     <use xlink:href="#DejaVuSans-69" transform="translate(351.667969 0)"/>
     <use xlink:href="#DejaVuSans-6f" transform="translate(379.451172 0)"/>
     <use xlink:href="#DejaVuSans-6e" transform="translate(440.632812 0)"/>
     <use xlink:href="#DejaVuSans-20" transform="translate(504.011719 0)"/>
     <use xlink:href="#DejaVuSans-53" transform="translate(535.798828 0)"/>
     <use xlink:href="#DejaVuSans-65" transform="translate(599.275391 0)"/>
     <use xlink:href="#DejaVuSans-71" transform="translate(660.798828 0)"/>
     <use xlink:href="#DejaVuSans-75" transform="translate(724.275391 0)"/>
     <use xlink:href="#DejaVuSans-65" transform="translate(787.654297 0)"/>
     <use xlink:href="#DejaVuSans-6e" transform="translate(849.177734 0)"/>
     <use xlink:href="#DejaVuSans-63" transform="translate(912.556641 0)"/>
     <use xlink:href="#DejaVuSans-65" transform="translate(967.537109 0)"/>
     <use xlink:href="#DejaVuSans-73" transform="translate(1029.060547 0)"/>
    </g>
   </g>
   <g id="text_25">
    <!-- 3.3 Motion/Impact -->
    <g transform="translate(124.242267 77.681257) scale(0.18 -0.18)">
     <use xlink:href="#DejaVuSans-33"/>
     <use xlink:href="#DejaVuSans-2e" transform="translate(63.623047 0)"/>
     <use xlink:href="#DejaVuSans-33" transform="translate(95.410156 0)"/>
     <use xlink:href="#DejaVuSans-20" transform="translate(159.033203 0)"/>
     <use xlink:href="#DejaVuSans-4d" transform="translate(190.820312 0)"/>
     <use xlink:href="#DejaVuSans-6f" transform="translate(277.099609 0)"/>
     <use xlink:href="#DejaVuSans-74" transform="translate(338.28125 0)"/>
     <use xlink:href="#DejaVuSans-69" transform="translate(377.490234 0)"/>
     <use xlink:href="#DejaVuSans-6f" transform="translate(405.273438 0)"/>
     <use xlink:href="#DejaVuSans-6e" transform="translate(466.455078 0)"/>
     <use xlink:href="#DejaVuSans-2f" transform="translate(529.833984 0)"/>
     <use xlink:href="#DejaVuSans-49" transform="translate(563.525391 0)"/>
     <use xlink:href="#DejaVuSans-6d" transform="translate(593.017578 0)"/>
     <use xlink:href="#DejaVuSans-70" transform="translate(690.429688 0)"/>
     <use xlink:href="#DejaVuSans-61" transform="translate(753.90625 0)"/>
     <use xlink:href="#DejaVuSans-63" transform="translate(815.185547 0)"/>
     <use xlink:href="#DejaVuSans-74" transform="translate(870.166016 0)"/>
    </g>
   </g>
   <g id="text_26">
    <!-- 3.4 Action Sequences -->
    <g transform="translate(178.11684 44.290659) scale(0.18 -0.18)">
     <use xlink:href="#DejaVuSans-33"/>
     <use xlink:href="#DejaVuSans-2e" transform="translate(63.623047 0)"/>
     <use xlink:href="#DejaVuSans-34" transform="translate(95.410156 0)"/>
     <use xlink:href="#DejaVuSans-20" transform="translate(159.033203 0)"/>
     <use xlink:href="#DejaVuSans-41" transform="translate(190.820312 0)"/>
     <use xlink:href="#DejaVuSans-63" transform="translate(257.478516 0)"/>
     <use xlink:href="#DejaVuSans-74" transform="translate(312.458984 0)"/>
     <use xlink:href="#DejaVuSans-69" transform="translate(351.667969 0)"/>
     <use xlink:href="#DejaVuSans-6f" transform="translate(379.451172 0)"/>
     <use xlink:href="#DejaVuSans-6e" transform="translate(440.632812 0)"/>
     <use xlink:href="#DejaVuSans-20" transform="translate(504.011719 0)"/>
     <use xlink:href="#DejaVuSans-53" transform="translate(535.798828 0)"/>
     <use xlink:href="#DejaVuSans-65" transform="translate(599.275391 0)"/>
     <use xlink:href="#DejaVuSans-71" transform="translate(660.798828 0)"/>
     <use xlink:href="#DejaVuSans-75" transform="translate(724.275391 0)"/>
     <use xlink:href="#DejaVuSans-65" transform="translate(787.654297 0)"/>
     <use xlink:href="#DejaVuSans-6e" transform="translate(849.177734 0)"/>
     <use xlink:href="#DejaVuSans-63" transform="translate(912.556641 0)"/>
     <use xlink:href="#DejaVuSans-65" transform="translate(967.537109 0)"/>
     <use xlink:href="#DejaVuSans-73" transform="translate(1029.060547 0)"/>
    </g>
   </g>
  </g>
 </g>
 <defs>
  <clipPath id="p38834a1527">
   <path d="M 630.347438 286.027203 
C 630.347438 249.41195 623.135032 213.152735 609.122981 179.324652 
C 595.110931 145.496569 574.571735 114.757491 548.680841 88.866597 
C 522.789948 62.975703 492.050869 42.436508 458.222786 28.424457 
C 424.394704 14.412406 388.135488 7.2 351.520235 7.2 
C 314.904983 7.2 278.645767 14.412406 244.817684 28.424457 
C 210.989602 42.436508 180.250523 62.975703 154.359629 88.866597 
C 128.468736 114.757491 107.92954 145.496569 93.917489 179.324652 
C 79.905439 213.152735 72.693032 249.41195 72.693032 286.027203 
C 72.693032 322.642456 79.905439 358.901671 93.917489 392.729754 
C 107.92954 426.557837 128.468736 457.296916 154.359629 483.187809 
C 180.250523 509.078703 210.989602 529.617898 244.817684 543.629949 
C 278.645767 557.642 314.904983 564.854406 351.520235 564.854406 
C 388.135488 564.854406 424.394704 557.642 458.222786 543.629949 
C 492.050869 529.617898 522.789948 509.078703 548.680841 483.187809 
C 574.571735 457.296916 595.110931 426.557837 609.122981 392.729754 
C 623.135032 358.901671 630.347438 322.642456 630.347438 286.027203 
M 351.520235 286.027203 
C 351.520235 286.027203 351.520235 286.027203 351.520235 286.027203 
C 351.520235 286.027203 351.520235 286.027203 351.520235 286.027203 
C 351.520235 286.027203 351.520235 286.027203 351.520235 286.027203 
C 351.520235 286.027203 351.520235 286.027203 351.520235 286.027203 
C 351.520235 286.027203 351.520235 286.027203 351.520235 286.027203 
C 351.520235 286.027203 351.520235 286.027203 351.520235 286.027203 
C 351.520235 286.027203 351.520235 286.027203 351.520235 286.027203 
C 351.520235 286.027203 351.520235 286.027203 351.520235 286.027203 
C 351.520235 286.027203 351.520235 286.027203 351.520235 286.027203 
C 351.520235 286.027203 351.520235 286.027203 351.520235 286.027203 
C 351.520235 286.027203 351.520235 286.027203 351.520235 286.027203 
C 351.520235 286.027203 351.520235 286.027203 351.520235 286.027203 
C 351.520235 286.027203 351.520235 286.027203 351.520235 286.027203 
C 351.520235 286.027203 351.520235 286.027203 351.520235 286.027203 
C 351.520235 286.027203 351.520235 286.027203 351.520235 286.027203 
C 351.520235 286.027203 351.520235 286.027203 351.520235 286.027203 
z
"/>
  </clipPath>
 </defs>
</svg>
