<?xml version="1.0" encoding="utf-8" standalone="no"?>
<!DOCTYPE svg PUBLIC "-//W3C//DTD SVG 1.1//EN"
  "http://www.w3.org/Graphics/SVG/1.1/DTD/svg11.dtd">
<svg xmlns:xlink="http://www.w3.org/1999/xlink" width="1007.88481pt" height="1007.884813pt" viewBox="0 0 1007.88481 1007.884813" xmlns="http://www.w3.org/2000/svg" version="1.1">
 <metadata>
  <rdf:RDF xmlns:dc="http://purl.org/dc/elements/1.1/" xmlns:cc="http://creativecommons.org/ns#" xmlns:rdf="http://www.w3.org/1999/02/22-rdf-syntax-ns#">
   <cc:Work>
    <dc:type rdf:resource="http://purl.org/dc/dcmitype/StillImage"/>
    <dc:date>2025-11-05T20:50:05.078963</dc:date>
    <dc:format>image/svg+xml</dc:format>
    <dc:creator>
     <cc:Agent>
      <dc:title>Matplotlib v3.10.6, https://matplotlib.org/</dc:title>
     </cc:Agent>
    </dc:creator>
   </cc:Work>
  </rdf:RDF>
 </metadata>
 <defs>
  <style type="text/css">*{stroke-linejoin: round; stroke-linecap: butt}</style>
 </defs>
 <g id="figure_1">
  <g id="patch_1">
   <path d="M 0 1007.884813 
L 1007.88481 1007.884813 
L 1007.88481 0 
L 0 0 
z
" style="fill: #ffffff"/>
  </g>
  <g id="axes_1">
   <g id="patch_2">
    <path d="M 503.942401 7.2 
C 444.427514 7.2 385.39415 17.89575 329.662431 38.776296 
C 273.930712 59.656842 222.402465 90.384304 177.539282 129.49078 
L 361.141036 340.119816 
C 380.768679 323.010733 403.312287 309.567468 427.694914 300.43223 
C 452.077541 291.296991 477.904638 286.6176 503.942401 286.6176 
z
" style="fill: #e6c6a6; stroke: #ffffff; stroke-width: 1.5; stroke-linejoin: miter"/>
   </g>
   <g id="patch_3">
    <path d="M 177.539295 129.490767 
C 173.520491 132.993885 169.558299 136.561549 165.654345 140.19222 
C 161.750391 143.82289 157.905151 147.516182 154.120104 151.270644 
L 350.895146 349.648507 
C 352.551104 348.005929 354.233397 346.390114 355.941376 344.801696 
C 357.649356 343.213278 359.382815 341.652425 361.141042 340.119811 
z
" style="fill: #e6caaf; stroke: #ffffff; stroke-width: 1.5; stroke-linejoin: miter"/>
   </g>
   <g id="patch_4">
    <path d="M 154.120104 151.270644 
C 146.012917 159.312307 138.185439 167.631133 130.651615 176.212316 
C 123.11779 184.793499 115.88212 193.631889 108.957453 202.711762 
L 331.136486 372.153996 
C 334.166028 368.181551 337.331634 364.314756 340.627682 360.560488 
C 343.92373 356.806221 347.348252 353.166734 350.895146 349.648507 
z
" style="fill: #e7cfb8; stroke: #ffffff; stroke-width: 1.5; stroke-linejoin: miter"/>
   </g>
   <g id="patch_5">
    <path d="M 108.957453 202.711762 
C 89.851252 227.764524 73.171854 254.57835 59.144813 282.790583 
C 45.117772 311.002817 33.806658 340.485728 25.364396 370.840556 
L 294.564524 445.710343 
C 298.258013 432.430106 303.206626 419.531332 309.343456 407.18848 
C 315.480286 394.845628 322.777523 383.114579 331.136486 372.153996 
z
" style="fill: #e7d4c1; stroke: #ffffff; stroke-width: 1.5; stroke-linejoin: miter"/>
   </g>
   <g id="patch_6">
    <path d="M 25.364396 370.840556 
C 19.929967 390.380465 15.697304 410.234931 12.690241 430.292309 
C 9.683177 450.34969 7.90734 470.572359 7.372646 490.846853 
L 286.693133 498.213098 
C 286.927061 489.343007 287.703991 480.495589 289.019581 471.720485 
C 290.335171 462.945382 292.186961 454.259053 294.564524 445.710343 
z
" style="fill: #e8d9c9; stroke: #ffffff; stroke-width: 1.5; stroke-linejoin: miter"/>
   </g>
   <g id="patch_7">
    <path d="M 7.372646 490.846853 
C 5.45608 563.520343 19.51649 635.736333 48.558358 702.382246 
C 77.600227 769.028173 120.921664 828.493249 175.45574 876.567595 
L 360.229486 666.965923 
C 336.370829 645.933397 317.4177 619.917426 304.711882 590.759833 
C 292.006065 561.602246 285.854636 530.00775 286.693133 498.213098 
z
" style="fill: #d6e6a6; stroke: #ffffff; stroke-width: 1.5; stroke-linejoin: miter"/>
   </g>
   <g id="patch_8">
    <path d="M 175.45574 876.567595 
C 210.213018 907.207771 249.086897 932.834665 290.945765 952.702299 
C 332.804634 972.569933 377.238272 986.483545 422.952803 994.038006 
L 468.509452 718.359228 
C 448.509344 715.054151 429.069628 708.966946 410.756373 700.274856 
C 392.443118 691.582766 375.435796 680.371 360.229486 666.965923 
z
" style="fill: #d9e7b1; stroke: #ffffff; stroke-width: 1.5; stroke-linejoin: miter"/>
   </g>
   <g id="patch_9">
    <path d="M 422.952803 994.038006 
C 438.569617 996.618712 454.300851 998.451516 470.092667 999.530141 
C 485.884484 1000.608766 501.718832 1000.931969 517.541509 1000.498624 
L 509.892011 721.185748 
C 502.969589 721.375336 496.042062 721.233935 489.133142 720.762037 
C 482.224223 720.290138 475.341808 719.488287 468.509452 718.359228 
z
" style="fill: #dde7be; stroke: #ffffff; stroke-width: 1.5; stroke-linejoin: miter"/>
   </g>
   <g id="patch_10">
    <path d="M 517.541509 1000.498624 
C 517.583458 1000.497469 517.625525 1000.496314 517.667473 1000.49516 
C 517.709422 1000.494005 517.751253 1000.49285 517.793201 1000.491666 
L 510.002126 721.182704 
C 509.983773 721.183222 509.965472 721.183727 509.94712 721.184232 
C 509.928768 721.184738 509.910363 721.185243 509.892011 721.185748 
z
" style="fill: #e0e8c9; stroke: #ffffff; stroke-width: 1.5; stroke-linejoin: miter"/>
   </g>
   <g id="patch_11">
    <path d="M 517.793201 1000.491666 
C 530.131259 1000.147501 542.452084 999.34361 554.73026 998.081651 
C 567.008436 996.819692 579.235426 995.100554 591.38554 992.927789 
L 542.198774 717.873508 
C 536.883099 718.824092 531.533791 719.576215 526.162089 720.128322 
C 520.790387 720.680429 515.400026 721.032132 510.002126 721.182704 
z
" style="fill: #a6e6a6; stroke: #ffffff; stroke-width: 1.5; stroke-linejoin: miter"/>
   </g>
   <g id="patch_12">
    <path d="M 591.38554 992.927789 
C 595.063272 992.270103 598.733358 991.570996 602.395317 990.830525 
C 606.057276 990.090055 609.710885 989.308222 613.355205 988.485323 
L 551.810502 715.929929 
C 550.216113 716.289947 548.617659 716.631999 547.015552 716.955955 
C 545.413445 717.279911 543.807782 717.58577 542.198774 717.873508 
z
" style="fill: #b8e7b8; stroke: #ffffff; stroke-width: 1.5; stroke-linejoin: miter"/>
   </g>
   <g id="patch_13">
    <path d="M 613.355205 988.485323 
C 624.780532 985.905416 636.111144 982.922187 647.325573 979.541262 
C 658.540002 976.160336 669.631216 972.383875 680.578668 968.218867 
L 581.220768 707.063354 
C 576.431258 708.885545 571.578851 710.537747 566.672538 712.016902 
C 561.766226 713.496057 556.809083 714.80122 551.810502 715.929929 
z
" style="fill: #c9e8c9; stroke: #ffffff; stroke-width: 1.5; stroke-linejoin: miter"/>
   </g>
   <g id="patch_14">
    <path d="M 680.578668 968.218867 
C 768.369037 934.818589 844.911238 877.192978 901.28244 802.059652 
C 957.653642 726.92634 991.574845 637.322901 999.091645 543.694778 
L 720.570195 521.334065 
C 717.281595 562.296369 702.441069 601.497874 677.778668 634.368698 
C 653.116267 667.239528 619.629054 692.450733 581.220768 707.063354 
z
" style="fill: #a6e6d6; stroke: #ffffff; stroke-width: 1.5; stroke-linejoin: miter"/>
   </g>
   <g id="patch_15">
    <path d="M 999.091645 543.694778 
C 999.417513 539.635915 999.693431 535.573198 999.9194 531.507549 
C 1000.14537 527.441902 1000.321301 523.373628 1000.447225 519.303654 
L 721.163261 510.662948 
C 721.10817 512.443562 721.0312 514.223432 720.932338 516.002153 
C 720.833476 517.780874 720.712762 519.558313 720.570195 521.334065 
z
" style="fill: #b1e7d9; stroke: #ffffff; stroke-width: 1.5; stroke-linejoin: miter"/>
   </g>
   <g id="patch_16">
    <path d="M 1000.447225 519.303654 
C 1000.479675 518.254724 1000.50881 517.205574 1000.534628 516.156459 
C 1000.560446 515.107344 1000.582889 514.058268 1000.602046 513.009011 
L 721.230996 507.909042 
C 721.222615 508.368092 721.212796 508.827063 721.2015 509.286051 
C 721.190205 509.745039 721.177458 510.204042 721.163261 510.662948 
z
" style="fill: #bee7dd; stroke: #ffffff; stroke-width: 1.5; stroke-linejoin: miter"/>
   </g>
   <g id="patch_17">
    <path d="M 1000.602046 513.009011 
C 1000.831953 500.416257 1000.58283 487.819315 999.85521 475.245496 
C 999.127589 462.671675 997.922034 450.130083 996.24115 437.647899 
L 719.323103 474.938556 
C 720.05849 480.399511 720.585921 485.886458 720.904255 491.387504 
C 721.222589 496.88855 721.33158 502.399712 721.230996 507.909042 
z
" style="fill: #c9e8e0; stroke: #ffffff; stroke-width: 1.5; stroke-linejoin: miter"/>
   </g>
   <g id="patch_18">
    <path d="M 996.24115 437.647899 
C 995.09262 429.119004 993.722651 420.621397 992.132604 412.163687 
C 990.542557 403.705977 988.733025 395.291007 986.705784 386.92731 
L 715.151381 452.748298 
C 716.038299 456.407415 716.829969 460.088965 717.525615 463.789213 
C 718.22126 467.489461 718.820622 471.207164 719.323103 474.938556 
z
" style="fill: #a6c6e6; stroke: #ffffff; stroke-width: 1.5; stroke-linejoin: miter"/>
   </g>
   <g id="patch_19">
    <path d="M 986.705784 386.92731 
C 978.68911 353.853277 967.294708 321.690354 952.702359 290.945898 
C 938.11001 260.201442 920.396842 231.037883 899.842003 203.91486 
L 677.148477 372.680351 
C 686.141219 384.546674 693.89073 397.305731 700.274882 410.75643 
C 706.659035 424.20713 711.644086 438.278409 715.151381 452.748298 
z
" style="fill: #b8cfe7; stroke: #ffffff; stroke-width: 1.5; stroke-linejoin: miter"/>
   </g>
   <g id="patch_20">
    <path d="M 899.842003 203.91486 
C 898.548926 202.208572 897.244717 200.510574 895.92967 198.821132 
C 894.614624 197.131691 893.288771 195.450895 891.951993 193.778597 
L 673.696597 368.245736 
C 674.281438 368.977367 674.861499 369.712715 675.436831 370.451845 
C 676.012164 371.190976 676.582756 371.93385 677.148477 372.680351 
z
" style="fill: #c9d9e8; stroke: #ffffff; stroke-width: 1.5; stroke-linejoin: miter"/>
   </g>
   <g id="patch_21">
    <path d="M 891.951993 193.778597 
C 885.844482 186.138213 879.512689 178.679978 872.964787 171.413486 
C 866.416884 164.146993 859.655714 157.075382 852.690248 150.208096 
L 656.519584 349.183642 
C 659.566975 352.188079 662.524987 355.281909 665.389695 358.461 
C 668.254402 361.64009 671.024561 364.903068 673.696597 368.245736 
z
" style="fill: #b6a6e6; stroke: #ffffff; stroke-width: 1.5; stroke-linejoin: miter"/>
   </g>
   <g id="patch_22">
    <path d="M 852.690248 150.208096 
C 830.912976 128.737832 807.19951 109.324387 781.851969 92.215196 
C 756.504428 75.106006 729.631016 60.374054 701.574181 48.207086 
L 590.406304 304.5582 
C 602.68117 309.881249 614.438288 316.326478 625.527837 323.811748 
C 636.617386 331.297019 646.992028 339.790401 656.519584 349.183642 
z
" style="fill: #c3b8e7; stroke: #ffffff; stroke-width: 1.5; stroke-linejoin: miter"/>
   </g>
   <g id="patch_23">
    <path d="M 701.574181 48.207086 
C 700.110694 47.572436 698.644054 46.944802 697.174527 46.324274 
C 695.705001 45.703747 694.232587 45.090354 692.757139 44.484009 
L 586.548849 302.929354 
C 587.194357 303.19463 587.838538 303.462989 588.481456 303.73447 
C 589.124374 304.005951 589.766029 304.280541 590.406304 304.5582 
z
" style="fill: #d1c9e8; stroke: #ffffff; stroke-width: 1.5; stroke-linejoin: miter"/>
   </g>
   <g id="patch_24">
    <path d="M 692.757139 44.484009 
C 686.544608 41.930957 680.280825 39.504154 673.969877 37.20514 
C 667.658928 34.906126 661.302117 32.735405 654.903128 30.694189 
L 569.987719 296.896308 
C 572.787276 297.78934 575.568382 298.73903 578.329421 299.744849 
C 581.090461 300.750668 583.830866 301.812394 586.548849 302.929354 
L 692.757139 44.484009 
z
" style="fill: none"/>
   </g>
   <g id="patch_25">
    <path d="M 654.903128 30.694189 
C 630.535721 22.921279 605.604434 17.041987 580.33155 13.108722 
C 555.058666 9.175456 529.51959 7.2 503.94247 7.2 
L 503.942431 286.6176 
C 515.132421 286.6176 526.305767 287.481862 537.362653 289.202666 
C 548.41954 290.923469 559.326978 293.495659 569.987719 296.896308 
L 654.903128 30.694189 
z
" style="fill: none"/>
   </g>
   <g id="patch_26">
    <path d="M 503.942401 286.6176 
C 447.316692 286.6176 392.874476 308.74902 352.309698 348.258129 
C 311.74492 387.767239 288.185944 441.607087 286.693134 498.213116 
L 472.906791 503.123931 
C 473.12005 495.037355 476.485618 487.345948 482.280586 481.70179 
C 488.075554 476.057631 495.853014 472.896 503.942401 472.896 
z
" style="fill: #e19f5d; stroke: #ffffff; stroke-width: 1.5; stroke-linejoin: miter"/>
   </g>
   <g id="patch_27">
    <path d="M 286.693133 498.213098 
C 285.914611 527.733945 291.16135 557.106095 302.112205 584.531725 
C 313.06306 611.957355 329.489945 636.865303 350.38747 657.731065 
C 371.284994 678.596827 396.217891 694.985811 423.660147 705.894942 
C 451.102402 716.804074 480.482499 722.006123 510.002126 721.182704 
L 504.808076 534.976729 
C 500.590986 535.09436 496.39383 534.351211 492.473507 532.792763 
C 488.553185 531.234316 484.991343 528.893032 482.005982 525.912209 
C 479.020621 522.931386 476.673924 519.373108 475.109516 515.455161 
C 473.545108 511.537214 472.795574 507.341192 472.906791 503.123928 
z
" style="fill: #c0e15d; stroke: #ffffff; stroke-width: 1.5; stroke-linejoin: miter"/>
   </g>
   <g id="patch_28">
    <path d="M 510.002126 721.182704 
C 522.162312 720.843502 534.272632 719.483882 546.205303 717.118185 
C 558.137974 714.752488 569.850923 711.389068 581.220768 707.063354 
L 514.982167 532.959679 
C 513.357904 533.577638 511.684625 534.058127 509.979958 534.396084 
C 508.275291 534.73404 506.545245 534.928272 504.808076 534.976729 
z
" style="fill: #5de15d; stroke: #ffffff; stroke-width: 1.5; stroke-linejoin: miter"/>
   </g>
   <g id="patch_29">
    <path d="M 581.220768 707.063354 
C 627.04286 689.630106 665.64453 657.194062 690.71173 615.060732 
C 715.77893 572.927401 725.866054 523.526539 719.323129 474.93876 
L 534.711076 499.799023 
C 535.64578 506.740134 534.204762 513.7974 530.623733 519.816447 
C 527.042705 525.835495 521.528181 530.469215 514.982167 532.959679 
z
" style="fill: #5de1c0; stroke: #ffffff; stroke-width: 1.5; stroke-linejoin: miter"/>
   </g>
   <g id="patch_30">
    <path d="M 719.323129 474.93876 
C 716.706418 455.507087 711.472011 436.518595 703.762553 418.490798 
C 696.053095 400.463001 685.939273 383.561154 673.696714 368.245905 
L 528.193017 484.557186 
C 529.941954 486.745079 531.386786 489.159629 532.488137 491.735028 
C 533.589488 494.310428 534.33726 497.02307 534.711076 499.799023 
z
" style="fill: #5d9fe1; stroke: #ffffff; stroke-width: 1.5; stroke-linejoin: miter"/>
   </g>
   <g id="patch_31">
    <path d="M 673.696714 368.245905 
C 662.225734 353.895891 648.981372 341.058167 634.280705 330.040147 
C 619.580038 319.022128 603.54139 309.912454 586.548946 302.929393 
L 515.743336 475.226256 
C 518.170828 476.223836 520.462063 477.525218 522.562158 479.099221 
C 524.662254 480.673224 526.554305 482.507184 528.193017 484.557186 
z
" style="fill: #7e5de1; stroke: #ffffff; stroke-width: 1.5; stroke-linejoin: miter"/>
   </g>
   <g id="patch_32">
    <path d="M 586.548946 302.929393 
C 583.830964 301.812433 581.090656 300.750732 578.329616 299.744914 
C 575.568576 298.739095 572.787374 297.789365 569.987816 296.896334 
L 513.37746 474.364391 
C 513.777397 474.491966 514.174711 474.627642 514.569146 474.771331 
C 514.96358 474.915019 515.355053 475.06669 515.743336 475.226256 
z
" style="fill: #e15de1; stroke: #ffffff; stroke-width: 1.5; stroke-linejoin: miter"/>
   </g>
   <g id="patch_33">
    <path d="M 569.987816 296.896334 
C 559.327076 293.495672 548.41954 290.923469 537.362653 289.202666 
C 526.305767 287.481862 515.132525 286.617613 503.942535 286.6176 
L 503.94242 472.896 
C 505.54099 472.896002 507.137167 473.019466 508.716723 473.265295 
C 510.296278 473.511124 511.854497 473.878582 513.37746 474.364391 
z
" style="fill: #e15d7e; stroke: #ffffff; stroke-width: 1.5; stroke-linejoin: miter"/>
   </g>
   <g id="matplotlib.axis_1"/>
   <g id="matplotlib.axis_2"/>
   <g id="text_1">
    <!-- 1.0 Human-Human -->
    <g transform="translate(354.196422 357.313991) rotate(-314.24469) scale(0.18 -0.18)">
     <defs>
      <path id="DejaVuSans-31" d="M 794 531 
L 1825 531 
L 1825 4091 
L 703 3866 
L 703 4441 
L 1819 4666 
L 2450 4666 
L 2450 531 
L 3481 531 
L 3481 0 
L 794 0 
L 794 531 
z
" transform="scale(0.015625)"/>
      <path id="DejaVuSans-2e" d="M 684 794 
L 1344 794 
L 1344 0 
L 684 0 
L 684 794 
z
" transform="scale(0.015625)"/>
      <path id="DejaVuSans-30" d="M 2034 4250 
Q 1547 4250 1301 3770 
Q 1056 3291 1056 2328 
Q 1056 1369 1301 889 
Q 1547 409 2034 409 
Q 2525 409 2770 889 
Q 3016 1369 3016 2328 
Q 3016 3291 2770 3770 
Q 2525 4250 2034 4250 
z
M 2034 4750 
Q 2819 4750 3233 4129 
Q 3647 3509 3647 2328 
Q 3647 1150 3233 529 
Q 2819 -91 2034 -91 
Q 1250 -91 836 529 
Q 422 1150 422 2328 
Q 422 3509 836 4129 
Q 1250 4750 2034 4750 
z
" transform="scale(0.015625)"/>
      <path id="DejaVuSans-20" transform="scale(0.015625)"/>
      <path id="DejaVuSans-48" d="M 628 4666 
L 1259 4666 
L 1259 2753 
L 3553 2753 
L 3553 4666 
L 4184 4666 
L 4184 0 
L 3553 0 
L 3553 2222 
L 1259 2222 
L 1259 0 
L 628 0 
L 628 4666 
z
" transform="scale(0.015625)"/>
      <path id="DejaVuSans-75" d="M 544 1381 
L 544 3500 
L 1119 3500 
L 1119 1403 
Q 1119 906 1312 657 
Q 1506 409 1894 409 
Q 2359 409 2629 706 
Q 2900 1003 2900 1516 
L 2900 3500 
L 3475 3500 
L 3475 0 
L 2900 0 
L 2900 538 
Q 2691 219 2414 64 
Q 2138 -91 1772 -91 
Q 1169 -91 856 284 
Q 544 659 544 1381 
z
M 1991 3584 
L 1991 3584 
z
" transform="scale(0.015625)"/>
      <path id="DejaVuSans-6d" d="M 3328 2828 
Q 3544 3216 3844 3400 
Q 4144 3584 4550 3584 
Q 5097 3584 5394 3201 
Q 5691 2819 5691 2113 
L 5691 0 
L 5113 0 
L 5113 2094 
Q 5113 2597 4934 2840 
Q 4756 3084 4391 3084 
Q 3944 3084 3684 2787 
Q 3425 2491 3425 1978 
L 3425 0 
L 2847 0 
L 2847 2094 
Q 2847 2600 2669 2842 
Q 2491 3084 2119 3084 
Q 1678 3084 1418 2786 
Q 1159 2488 1159 1978 
L 1159 0 
L 581 0 
L 581 3500 
L 1159 3500 
L 1159 2956 
Q 1356 3278 1631 3431 
Q 1906 3584 2284 3584 
Q 2666 3584 2933 3390 
Q 3200 3197 3328 2828 
z
" transform="scale(0.015625)"/>
      <path id="DejaVuSans-61" d="M 2194 1759 
Q 1497 1759 1228 1600 
Q 959 1441 959 1056 
Q 959 750 1161 570 
Q 1363 391 1709 391 
Q 2188 391 2477 730 
Q 2766 1069 2766 1631 
L 2766 1759 
L 2194 1759 
z
M 3341 1997 
L 3341 0 
L 2766 0 
L 2766 531 
Q 2569 213 2275 61 
Q 1981 -91 1556 -91 
Q 1019 -91 701 211 
Q 384 513 384 1019 
Q 384 1609 779 1909 
Q 1175 2209 1959 2209 
L 2766 2209 
L 2766 2266 
Q 2766 2663 2505 2880 
Q 2244 3097 1772 3097 
Q 1472 3097 1187 3025 
Q 903 2953 641 2809 
L 641 3341 
Q 956 3463 1253 3523 
Q 1550 3584 1831 3584 
Q 2591 3584 2966 3190 
Q 3341 2797 3341 1997 
z
" transform="scale(0.015625)"/>
      <path id="DejaVuSans-6e" d="M 3513 2113 
L 3513 0 
L 2938 0 
L 2938 2094 
Q 2938 2591 2744 2837 
Q 2550 3084 2163 3084 
Q 1697 3084 1428 2787 
Q 1159 2491 1159 1978 
L 1159 0 
L 581 0 
L 581 3500 
L 1159 3500 
L 1159 2956 
Q 1366 3272 1645 3428 
Q 1925 3584 2291 3584 
Q 2894 3584 3203 3211 
Q 3513 2838 3513 2113 
z
" transform="scale(0.015625)"/>
      <path id="DejaVuSans-2d" d="M 313 2009 
L 1997 2009 
L 1997 1497 
L 313 1497 
L 313 2009 
z
" transform="scale(0.015625)"/>
     </defs>
     <use xlink:href="#DejaVuSans-31"/>
     <use xlink:href="#DejaVuSans-2e" transform="translate(63.623047 0)"/>
     <use xlink:href="#DejaVuSans-30" transform="translate(95.410156 0)"/>
     <use xlink:href="#DejaVuSans-20" transform="translate(159.033203 0)"/>
     <use xlink:href="#DejaVuSans-48" transform="translate(190.820312 0)"/>
     <use xlink:href="#DejaVuSans-75" transform="translate(266.015625 0)"/>
     <use xlink:href="#DejaVuSans-6d" transform="translate(329.394531 0)"/>
     <use xlink:href="#DejaVuSans-61" transform="translate(426.806641 0)"/>
     <use xlink:href="#DejaVuSans-6e" transform="translate(488.085938 0)"/>
     <use xlink:href="#DejaVuSans-2d" transform="translate(551.464844 0)"/>
     <use xlink:href="#DejaVuSans-48" transform="translate(587.548828 0)"/>
     <use xlink:href="#DejaVuSans-75" transform="translate(662.744141 0)"/>
     <use xlink:href="#DejaVuSans-6d" transform="translate(726.123047 0)"/>
     <use xlink:href="#DejaVuSans-61" transform="translate(823.535156 0)"/>
     <use xlink:href="#DejaVuSans-6e" transform="translate(884.814453 0)"/>
    </g>
   </g>
   <g id="text_2">
    <!-- 2.0 Human-Object -->
    <g transform="translate(361.462967 653.668289) rotate(-45.043579) scale(0.18 -0.18)">
     <defs>
      <path id="DejaVuSans-32" d="M 1228 531 
L 3431 531 
L 3431 0 
L 469 0 
L 469 531 
Q 828 903 1448 1529 
Q 2069 2156 2228 2338 
Q 2531 2678 2651 2914 
Q 2772 3150 2772 3378 
Q 2772 3750 2511 3984 
Q 2250 4219 1831 4219 
Q 1534 4219 1204 4116 
Q 875 4013 500 3803 
L 500 4441 
Q 881 4594 1212 4672 
Q 1544 4750 1819 4750 
Q 2544 4750 2975 4387 
Q 3406 4025 3406 3419 
Q 3406 3131 3298 2873 
Q 3191 2616 2906 2266 
Q 2828 2175 2409 1742 
Q 1991 1309 1228 531 
z
" transform="scale(0.015625)"/>
      <path id="DejaVuSans-4f" d="M 2522 4238 
Q 1834 4238 1429 3725 
Q 1025 3213 1025 2328 
Q 1025 1447 1429 934 
Q 1834 422 2522 422 
Q 3209 422 3611 934 
Q 4013 1447 4013 2328 
Q 4013 3213 3611 3725 
Q 3209 4238 2522 4238 
z
M 2522 4750 
Q 3503 4750 4090 4092 
Q 4678 3434 4678 2328 
Q 4678 1225 4090 567 
Q 3503 -91 2522 -91 
Q 1538 -91 948 565 
Q 359 1222 359 2328 
Q 359 3434 948 4092 
Q 1538 4750 2522 4750 
z
" transform="scale(0.015625)"/>
      <path id="DejaVuSans-62" d="M 3116 1747 
Q 3116 2381 2855 2742 
Q 2594 3103 2138 3103 
Q 1681 3103 1420 2742 
Q 1159 2381 1159 1747 
Q 1159 1113 1420 752 
Q 1681 391 2138 391 
Q 2594 391 2855 752 
Q 3116 1113 3116 1747 
z
M 1159 2969 
Q 1341 3281 1617 3432 
Q 1894 3584 2278 3584 
Q 2916 3584 3314 3078 
Q 3713 2572 3713 1747 
Q 3713 922 3314 415 
Q 2916 -91 2278 -91 
Q 1894 -91 1617 61 
Q 1341 213 1159 525 
L 1159 0 
L 581 0 
L 581 4863 
L 1159 4863 
L 1159 2969 
z
" transform="scale(0.015625)"/>
      <path id="DejaVuSans-6a" d="M 603 3500 
L 1178 3500 
L 1178 -63 
Q 1178 -731 923 -1031 
Q 669 -1331 103 -1331 
L -116 -1331 
L -116 -844 
L 38 -844 
Q 366 -844 484 -692 
Q 603 -541 603 -63 
L 603 3500 
z
M 603 4863 
L 1178 4863 
L 1178 4134 
L 603 4134 
L 603 4863 
z
" transform="scale(0.015625)"/>
      <path id="DejaVuSans-65" d="M 3597 1894 
L 3597 1613 
L 953 1613 
Q 991 1019 1311 708 
Q 1631 397 2203 397 
Q 2534 397 2845 478 
Q 3156 559 3463 722 
L 3463 178 
Q 3153 47 2828 -22 
Q 2503 -91 2169 -91 
Q 1331 -91 842 396 
Q 353 884 353 1716 
Q 353 2575 817 3079 
Q 1281 3584 2069 3584 
Q 2775 3584 3186 3129 
Q 3597 2675 3597 1894 
z
M 3022 2063 
Q 3016 2534 2758 2815 
Q 2500 3097 2075 3097 
Q 1594 3097 1305 2825 
Q 1016 2553 972 2059 
L 3022 2063 
z
" transform="scale(0.015625)"/>
      <path id="DejaVuSans-63" d="M 3122 3366 
L 3122 2828 
Q 2878 2963 2633 3030 
Q 2388 3097 2138 3097 
Q 1578 3097 1268 2742 
Q 959 2388 959 1747 
Q 959 1106 1268 751 
Q 1578 397 2138 397 
Q 2388 397 2633 464 
Q 2878 531 3122 666 
L 3122 134 
Q 2881 22 2623 -34 
Q 2366 -91 2075 -91 
Q 1284 -91 818 406 
Q 353 903 353 1747 
Q 353 2603 823 3093 
Q 1294 3584 2113 3584 
Q 2378 3584 2631 3529 
Q 2884 3475 3122 3366 
z
" transform="scale(0.015625)"/>
      <path id="DejaVuSans-74" d="M 1172 4494 
L 1172 3500 
L 2356 3500 
L 2356 3053 
L 1172 3053 
L 1172 1153 
Q 1172 725 1289 603 
Q 1406 481 1766 481 
L 2356 481 
L 2356 0 
L 1766 0 
Q 1100 0 847 248 
Q 594 497 594 1153 
L 594 3053 
L 172 3053 
L 172 3500 
L 594 3500 
L 594 4494 
L 1172 4494 
z
" transform="scale(0.015625)"/>
     </defs>
     <use xlink:href="#DejaVuSans-32"/>
     <use xlink:href="#DejaVuSans-2e" transform="translate(63.623047 0)"/>
     <use xlink:href="#DejaVuSans-30" transform="translate(95.410156 0)"/>
     <use xlink:href="#DejaVuSans-20" transform="translate(159.033203 0)"/>
     <use xlink:href="#DejaVuSans-48" transform="translate(190.820312 0)"/>
     <use xlink:href="#DejaVuSans-75" transform="translate(266.015625 0)"/>
     <use xlink:href="#DejaVuSans-6d" transform="translate(329.394531 0)"/>
     <use xlink:href="#DejaVuSans-61" transform="translate(426.806641 0)"/>
     <use xlink:href="#DejaVuSans-6e" transform="translate(488.085938 0)"/>
     <use xlink:href="#DejaVuSans-2d" transform="translate(551.464844 0)"/>
     <use xlink:href="#DejaVuSans-4f" transform="translate(590.298828 0)"/>
     <use xlink:href="#DejaVuSans-62" transform="translate(669.009766 0)"/>
     <use xlink:href="#DejaVuSans-6a" transform="translate(732.486328 0)"/>
     <use xlink:href="#DejaVuSans-65" transform="translate(760.269531 0)"/>
     <use xlink:href="#DejaVuSans-63" transform="translate(821.792969 0)"/>
     <use xlink:href="#DejaVuSans-74" transform="translate(876.773438 0)"/>
    </g>
   </g>
   <g id="text_3">
    <!-- 3.0 Human-Animal -->
    <g transform="translate(506.920525 544.505118) rotate(-281.213684) scale(0.18 -0.18)">
     <defs>
      <path id="DejaVuSans-33" d="M 2597 2516 
Q 3050 2419 3304 2112 
Q 3559 1806 3559 1356 
Q 3559 666 3084 287 
Q 2609 -91 1734 -91 
Q 1441 -91 1130 -33 
Q 819 25 488 141 
L 488 750 
Q 750 597 1062 519 
Q 1375 441 1716 441 
Q 2309 441 2620 675 
Q 2931 909 2931 1356 
Q 2931 1769 2642 2001 
Q 2353 2234 1838 2234 
L 1294 2234 
L 1294 2753 
L 1863 2753 
Q 2328 2753 2575 2939 
Q 2822 3125 2822 3475 
Q 2822 3834 2567 4026 
Q 2313 4219 1838 4219 
Q 1578 4219 1281 4162 
Q 984 4106 628 3988 
L 628 4550 
Q 988 4650 1302 4700 
Q 1616 4750 1894 4750 
Q 2613 4750 3031 4423 
Q 3450 4097 3450 3541 
Q 3450 3153 3228 2886 
Q 3006 2619 2597 2516 
z
" transform="scale(0.015625)"/>
      <path id="DejaVuSans-41" d="M 2188 4044 
L 1331 1722 
L 3047 1722 
L 2188 4044 
z
M 1831 4666 
L 2547 4666 
L 4325 0 
L 3669 0 
L 3244 1197 
L 1141 1197 
L 716 0 
L 50 0 
L 1831 4666 
z
" transform="scale(0.015625)"/>
      <path id="DejaVuSans-69" d="M 603 3500 
L 1178 3500 
L 1178 0 
L 603 0 
L 603 3500 
z
M 603 4863 
L 1178 4863 
L 1178 4134 
L 603 4134 
L 603 4863 
z
" transform="scale(0.015625)"/>
      <path id="DejaVuSans-6c" d="M 603 4863 
L 1178 4863 
L 1178 0 
L 603 0 
L 603 4863 
z
" transform="scale(0.015625)"/>
     </defs>
     <use xlink:href="#DejaVuSans-33"/>
     <use xlink:href="#DejaVuSans-2e" transform="translate(63.623047 0)"/>
     <use xlink:href="#DejaVuSans-30" transform="translate(95.410156 0)"/>
     <use xlink:href="#DejaVuSans-20" transform="translate(159.033203 0)"/>
     <use xlink:href="#DejaVuSans-48" transform="translate(190.820312 0)"/>
     <use xlink:href="#DejaVuSans-75" transform="translate(266.015625 0)"/>
     <use xlink:href="#DejaVuSans-6d" transform="translate(329.394531 0)"/>
     <use xlink:href="#DejaVuSans-61" transform="translate(426.806641 0)"/>
     <use xlink:href="#DejaVuSans-6e" transform="translate(488.085938 0)"/>
     <use xlink:href="#DejaVuSans-2d" transform="translate(551.464844 0)"/>
     <use xlink:href="#DejaVuSans-41" transform="translate(585.298828 0)"/>
     <use xlink:href="#DejaVuSans-6e" transform="translate(653.707031 0)"/>
     <use xlink:href="#DejaVuSans-69" transform="translate(717.085938 0)"/>
     <use xlink:href="#DejaVuSans-6d" transform="translate(744.869141 0)"/>
     <use xlink:href="#DejaVuSans-61" transform="translate(842.28125 0)"/>
     <use xlink:href="#DejaVuSans-6c" transform="translate(903.560547 0)"/>
    </g>
   </g>
   <g id="text_4">
    <!-- 4.0 Animal-Animal -->
    <g transform="translate(537.224705 529.523125) rotate(-329.249512) scale(0.18 -0.18)">
     <defs>
      <path id="DejaVuSans-34" d="M 2419 4116 
L 825 1625 
L 2419 1625 
L 2419 4116 
z
M 2253 4666 
L 3047 4666 
L 3047 1625 
L 3713 1625 
L 3713 1100 
L 3047 1100 
L 3047 0 
L 2419 0 
L 2419 1100 
L 313 1100 
L 313 1709 
L 2253 4666 
z
" transform="scale(0.015625)"/>
     </defs>
     <use xlink:href="#DejaVuSans-34"/>
     <use xlink:href="#DejaVuSans-2e" transform="translate(63.623047 0)"/>
     <use xlink:href="#DejaVuSans-30" transform="translate(95.410156 0)"/>
     <use xlink:href="#DejaVuSans-20" transform="translate(159.033203 0)"/>
     <use xlink:href="#DejaVuSans-41" transform="translate(190.820312 0)"/>
     <use xlink:href="#DejaVuSans-6e" transform="translate(259.228516 0)"/>
     <use xlink:href="#DejaVuSans-69" transform="translate(322.607422 0)"/>
     <use xlink:href="#DejaVuSans-6d" transform="translate(350.390625 0)"/>
     <use xlink:href="#DejaVuSans-61" transform="translate(447.802734 0)"/>
     <use xlink:href="#DejaVuSans-6c" transform="translate(509.082031 0)"/>
     <use xlink:href="#DejaVuSans-2d" transform="translate(536.865234 0)"/>
     <use xlink:href="#DejaVuSans-41" transform="translate(570.699219 0)"/>
     <use xlink:href="#DejaVuSans-6e" transform="translate(639.107422 0)"/>
     <use xlink:href="#DejaVuSans-69" transform="translate(702.486328 0)"/>
     <use xlink:href="#DejaVuSans-6d" transform="translate(730.269531 0)"/>
     <use xlink:href="#DejaVuSans-61" transform="translate(827.681641 0)"/>
     <use xlink:href="#DejaVuSans-6c" transform="translate(888.960938 0)"/>
    </g>
   </g>
   <g id="text_5">
    <!-- 5.0 Animal-Object -->
    <g transform="translate(545.488767 491.57741) rotate(-23.153625) scale(0.18 -0.18)">
     <defs>
      <path id="DejaVuSans-35" d="M 691 4666 
L 3169 4666 
L 3169 4134 
L 1269 4134 
L 1269 2991 
Q 1406 3038 1543 3061 
Q 1681 3084 1819 3084 
Q 2600 3084 3056 2656 
Q 3513 2228 3513 1497 
Q 3513 744 3044 326 
Q 2575 -91 1722 -91 
Q 1428 -91 1123 -41 
Q 819 9 494 109 
L 494 744 
Q 775 591 1075 516 
Q 1375 441 1709 441 
Q 2250 441 2565 725 
Q 2881 1009 2881 1497 
Q 2881 1984 2565 2268 
Q 2250 2553 1709 2553 
Q 1456 2553 1204 2497 
Q 953 2441 691 2322 
L 691 4666 
z
" transform="scale(0.015625)"/>
     </defs>
     <use xlink:href="#DejaVuSans-35"/>
     <use xlink:href="#DejaVuSans-2e" transform="translate(63.623047 0)"/>
     <use xlink:href="#DejaVuSans-30" transform="translate(95.410156 0)"/>
     <use xlink:href="#DejaVuSans-20" transform="translate(159.033203 0)"/>
     <use xlink:href="#DejaVuSans-41" transform="translate(190.820312 0)"/>
     <use xlink:href="#DejaVuSans-6e" transform="translate(259.228516 0)"/>
     <use xlink:href="#DejaVuSans-69" transform="translate(322.607422 0)"/>
     <use xlink:href="#DejaVuSans-6d" transform="translate(350.390625 0)"/>
     <use xlink:href="#DejaVuSans-61" transform="translate(447.802734 0)"/>
     <use xlink:href="#DejaVuSans-6c" transform="translate(509.082031 0)"/>
     <use xlink:href="#DejaVuSans-2d" transform="translate(536.865234 0)"/>
     <use xlink:href="#DejaVuSans-4f" transform="translate(575.699219 0)"/>
     <use xlink:href="#DejaVuSans-62" transform="translate(654.410156 0)"/>
     <use xlink:href="#DejaVuSans-6a" transform="translate(717.886719 0)"/>
     <use xlink:href="#DejaVuSans-65" transform="translate(745.669922 0)"/>
     <use xlink:href="#DejaVuSans-63" transform="translate(807.193359 0)"/>
     <use xlink:href="#DejaVuSans-74" transform="translate(862.173828 0)"/>
    </g>
   </g>
   <g id="text_6">
    <!-- 6.0 Object-Object -->
    <g transform="translate(534.840009 470.999363) rotate(-53.148743) scale(0.18 -0.18)">
     <defs>
      <path id="DejaVuSans-36" d="M 2113 2584 
Q 1688 2584 1439 2293 
Q 1191 2003 1191 1497 
Q 1191 994 1439 701 
Q 1688 409 2113 409 
Q 2538 409 2786 701 
Q 3034 994 3034 1497 
Q 3034 2003 2786 2293 
Q 2538 2584 2113 2584 
z
M 3366 4563 
L 3366 3988 
Q 3128 4100 2886 4159 
Q 2644 4219 2406 4219 
Q 1781 4219 1451 3797 
Q 1122 3375 1075 2522 
Q 1259 2794 1537 2939 
Q 1816 3084 2150 3084 
Q 2853 3084 3261 2657 
Q 3669 2231 3669 1497 
Q 3669 778 3244 343 
Q 2819 -91 2113 -91 
Q 1303 -91 875 529 
Q 447 1150 447 2328 
Q 447 3434 972 4092 
Q 1497 4750 2381 4750 
Q 2619 4750 2861 4703 
Q 3103 4656 3366 4563 
z
" transform="scale(0.015625)"/>
     </defs>
     <use xlink:href="#DejaVuSans-36"/>
     <use xlink:href="#DejaVuSans-2e" transform="translate(63.623047 0)"/>
     <use xlink:href="#DejaVuSans-30" transform="translate(95.410156 0)"/>
     <use xlink:href="#DejaVuSans-20" transform="translate(159.033203 0)"/>
     <use xlink:href="#DejaVuSans-4f" transform="translate(190.820312 0)"/>
     <use xlink:href="#DejaVuSans-62" transform="translate(269.53125 0)"/>
     <use xlink:href="#DejaVuSans-6a" transform="translate(333.007812 0)"/>
     <use xlink:href="#DejaVuSans-65" transform="translate(360.791016 0)"/>
     <use xlink:href="#DejaVuSans-63" transform="translate(422.314453 0)"/>
     <use xlink:href="#DejaVuSans-74" transform="translate(477.294922 0)"/>
     <use xlink:href="#DejaVuSans-2d" transform="translate(516.503906 0)"/>
     <use xlink:href="#DejaVuSans-4f" transform="translate(555.337891 0)"/>
     <use xlink:href="#DejaVuSans-62" transform="translate(634.048828 0)"/>
     <use xlink:href="#DejaVuSans-6a" transform="translate(697.525391 0)"/>
     <use xlink:href="#DejaVuSans-65" transform="translate(725.308594 0)"/>
     <use xlink:href="#DejaVuSans-63" transform="translate(786.832031 0)"/>
     <use xlink:href="#DejaVuSans-74" transform="translate(841.8125 0)"/>
    </g>
   </g>
   <g id="text_7">
    <!-- 7.0 Human-Self -->
    <g transform="translate(527.225408 454.539944) rotate(-69.983826) scale(0.18 -0.18)">
     <defs>
      <path id="DejaVuSans-37" d="M 525 4666 
L 3525 4666 
L 3525 4397 
L 1831 0 
L 1172 0 
L 2766 4134 
L 525 4134 
L 525 4666 
z
" transform="scale(0.015625)"/>
      <path id="DejaVuSans-53" d="M 3425 4513 
L 3425 3897 
Q 3066 4069 2747 4153 
Q 2428 4238 2131 4238 
Q 1616 4238 1336 4038 
Q 1056 3838 1056 3469 
Q 1056 3159 1242 3001 
Q 1428 2844 1947 2747 
L 2328 2669 
Q 3034 2534 3370 2195 
Q 3706 1856 3706 1288 
Q 3706 609 3251 259 
Q 2797 -91 1919 -91 
Q 1588 -91 1214 -16 
Q 841 59 441 206 
L 441 856 
Q 825 641 1194 531 
Q 1563 422 1919 422 
Q 2459 422 2753 634 
Q 3047 847 3047 1241 
Q 3047 1584 2836 1778 
Q 2625 1972 2144 2069 
L 1759 2144 
Q 1053 2284 737 2584 
Q 422 2884 422 3419 
Q 422 4038 858 4394 
Q 1294 4750 2059 4750 
Q 2388 4750 2728 4690 
Q 3069 4631 3425 4513 
z
" transform="scale(0.015625)"/>
      <path id="DejaVuSans-66" d="M 2375 4863 
L 2375 4384 
L 1825 4384 
Q 1516 4384 1395 4259 
Q 1275 4134 1275 3809 
L 1275 3500 
L 2222 3500 
L 2222 3053 
L 1275 3053 
L 1275 0 
L 697 0 
L 697 3053 
L 147 3053 
L 147 3500 
L 697 3500 
L 697 3744 
Q 697 4328 969 4595 
Q 1241 4863 1831 4863 
L 2375 4863 
z
" transform="scale(0.015625)"/>
     </defs>
     <use xlink:href="#DejaVuSans-37"/>
     <use xlink:href="#DejaVuSans-2e" transform="translate(63.623047 0)"/>
     <use xlink:href="#DejaVuSans-30" transform="translate(95.410156 0)"/>
     <use xlink:href="#DejaVuSans-20" transform="translate(159.033203 0)"/>
     <use xlink:href="#DejaVuSans-48" transform="translate(190.820312 0)"/>
     <use xlink:href="#DejaVuSans-75" transform="translate(266.015625 0)"/>
     <use xlink:href="#DejaVuSans-6d" transform="translate(329.394531 0)"/>
     <use xlink:href="#DejaVuSans-61" transform="translate(426.806641 0)"/>
     <use xlink:href="#DejaVuSans-6e" transform="translate(488.085938 0)"/>
     <use xlink:href="#DejaVuSans-2d" transform="translate(551.464844 0)"/>
     <use xlink:href="#DejaVuSans-53" transform="translate(587.548828 0)"/>
     <use xlink:href="#DejaVuSans-65" transform="translate(651.025391 0)"/>
     <use xlink:href="#DejaVuSans-6c" transform="translate(712.548828 0)"/>
     <use xlink:href="#DejaVuSans-66" transform="translate(740.332031 0)"/>
    </g>
   </g>
   <g id="text_8">
    <!-- 8.0 No Interaction -->
    <g transform="translate(515.475701 462.13434) rotate(-81.153931) scale(0.18 -0.18)">
     <defs>
      <path id="DejaVuSans-38" d="M 2034 2216 
Q 1584 2216 1326 1975 
Q 1069 1734 1069 1313 
Q 1069 891 1326 650 
Q 1584 409 2034 409 
Q 2484 409 2743 651 
Q 3003 894 3003 1313 
Q 3003 1734 2745 1975 
Q 2488 2216 2034 2216 
z
M 1403 2484 
Q 997 2584 770 2862 
Q 544 3141 544 3541 
Q 544 4100 942 4425 
Q 1341 4750 2034 4750 
Q 2731 4750 3128 4425 
Q 3525 4100 3525 3541 
Q 3525 3141 3298 2862 
Q 3072 2584 2669 2484 
Q 3125 2378 3379 2068 
Q 3634 1759 3634 1313 
Q 3634 634 3220 271 
Q 2806 -91 2034 -91 
Q 1263 -91 848 271 
Q 434 634 434 1313 
Q 434 1759 690 2068 
Q 947 2378 1403 2484 
z
M 1172 3481 
Q 1172 3119 1398 2916 
Q 1625 2713 2034 2713 
Q 2441 2713 2670 2916 
Q 2900 3119 2900 3481 
Q 2900 3844 2670 4047 
Q 2441 4250 2034 4250 
Q 1625 4250 1398 4047 
Q 1172 3844 1172 3481 
z
" transform="scale(0.015625)"/>
      <path id="DejaVuSans-4e" d="M 628 4666 
L 1478 4666 
L 3547 763 
L 3547 4666 
L 4159 4666 
L 4159 0 
L 3309 0 
L 1241 3903 
L 1241 0 
L 628 0 
L 628 4666 
z
" transform="scale(0.015625)"/>
      <path id="DejaVuSans-6f" d="M 1959 3097 
Q 1497 3097 1228 2736 
Q 959 2375 959 1747 
Q 959 1119 1226 758 
Q 1494 397 1959 397 
Q 2419 397 2687 759 
Q 2956 1122 2956 1747 
Q 2956 2369 2687 2733 
Q 2419 3097 1959 3097 
z
M 1959 3584 
Q 2709 3584 3137 3096 
Q 3566 2609 3566 1747 
Q 3566 888 3137 398 
Q 2709 -91 1959 -91 
Q 1206 -91 779 398 
Q 353 888 353 1747 
Q 353 2609 779 3096 
Q 1206 3584 1959 3584 
z
" transform="scale(0.015625)"/>
      <path id="DejaVuSans-49" d="M 628 4666 
L 1259 4666 
L 1259 0 
L 628 0 
L 628 4666 
z
" transform="scale(0.015625)"/>
      <path id="DejaVuSans-72" d="M 2631 2963 
Q 2534 3019 2420 3045 
Q 2306 3072 2169 3072 
Q 1681 3072 1420 2755 
Q 1159 2438 1159 1844 
L 1159 0 
L 581 0 
L 581 3500 
L 1159 3500 
L 1159 2956 
Q 1341 3275 1631 3429 
Q 1922 3584 2338 3584 
Q 2397 3584 2469 3576 
Q 2541 3569 2628 3553 
L 2631 2963 
z
" transform="scale(0.015625)"/>
     </defs>
     <use xlink:href="#DejaVuSans-38"/>
     <use xlink:href="#DejaVuSans-2e" transform="translate(63.623047 0)"/>
     <use xlink:href="#DejaVuSans-30" transform="translate(95.410156 0)"/>
     <use xlink:href="#DejaVuSans-20" transform="translate(159.033203 0)"/>
     <use xlink:href="#DejaVuSans-4e" transform="translate(190.820312 0)"/>
     <use xlink:href="#DejaVuSans-6f" transform="translate(265.625 0)"/>
     <use xlink:href="#DejaVuSans-20" transform="translate(326.806641 0)"/>
     <use xlink:href="#DejaVuSans-49" transform="translate(358.59375 0)"/>
     <use xlink:href="#DejaVuSans-6e" transform="translate(388.085938 0)"/>
     <use xlink:href="#DejaVuSans-74" transform="translate(451.464844 0)"/>
     <use xlink:href="#DejaVuSans-65" transform="translate(490.673828 0)"/>
     <use xlink:href="#DejaVuSans-72" transform="translate(552.197266 0)"/>
     <use xlink:href="#DejaVuSans-61" transform="translate(593.310547 0)"/>
     <use xlink:href="#DejaVuSans-63" transform="translate(654.589844 0)"/>
     <use xlink:href="#DejaVuSans-74" transform="translate(709.570312 0)"/>
     <use xlink:href="#DejaVuSans-69" transform="translate(748.779297 0)"/>
     <use xlink:href="#DejaVuSans-6f" transform="translate(776.5625 0)"/>
     <use xlink:href="#DejaVuSans-6e" transform="translate(837.744141 0)"/>
    </g>
   </g>
   <g id="text_9">
    <!-- 1.1 Cooperative -->
    <g transform="translate(348.825855 104.081712) rotate(-290.539062) scale(0.18 -0.18)">
     <defs>
      <path id="DejaVuSans-43" d="M 4122 4306 
L 4122 3641 
Q 3803 3938 3442 4084 
Q 3081 4231 2675 4231 
Q 1875 4231 1450 3742 
Q 1025 3253 1025 2328 
Q 1025 1406 1450 917 
Q 1875 428 2675 428 
Q 3081 428 3442 575 
Q 3803 722 4122 1019 
L 4122 359 
Q 3791 134 3420 21 
Q 3050 -91 2638 -91 
Q 1578 -91 968 557 
Q 359 1206 359 2328 
Q 359 3453 968 4101 
Q 1578 4750 2638 4750 
Q 3056 4750 3426 4639 
Q 3797 4528 4122 4306 
z
" transform="scale(0.015625)"/>
      <path id="DejaVuSans-70" d="M 1159 525 
L 1159 -1331 
L 581 -1331 
L 581 3500 
L 1159 3500 
L 1159 2969 
Q 1341 3281 1617 3432 
Q 1894 3584 2278 3584 
Q 2916 3584 3314 3078 
Q 3713 2572 3713 1747 
Q 3713 922 3314 415 
Q 2916 -91 2278 -91 
Q 1894 -91 1617 61 
Q 1341 213 1159 525 
z
M 3116 1747 
Q 3116 2381 2855 2742 
Q 2594 3103 2138 3103 
Q 1681 3103 1420 2742 
Q 1159 2381 1159 1747 
Q 1159 1113 1420 752 
Q 1681 391 2138 391 
Q 2594 391 2855 752 
Q 3116 1113 3116 1747 
z
" transform="scale(0.015625)"/>
      <path id="DejaVuSans-76" d="M 191 3500 
L 800 3500 
L 1894 563 
L 2988 3500 
L 3597 3500 
L 2284 0 
L 1503 0 
L 191 3500 
z
" transform="scale(0.015625)"/>
     </defs>
     <use xlink:href="#DejaVuSans-31"/>
     <use xlink:href="#DejaVuSans-2e" transform="translate(63.623047 0)"/>
     <use xlink:href="#DejaVuSans-31" transform="translate(95.410156 0)"/>
     <use xlink:href="#DejaVuSans-20" transform="translate(159.033203 0)"/>
     <use xlink:href="#DejaVuSans-43" transform="translate(190.820312 0)"/>
     <use xlink:href="#DejaVuSans-6f" transform="translate(260.644531 0)"/>
     <use xlink:href="#DejaVuSans-6f" transform="translate(321.826172 0)"/>
     <use xlink:href="#DejaVuSans-70" transform="translate(383.007812 0)"/>
     <use xlink:href="#DejaVuSans-65" transform="translate(446.484375 0)"/>
     <use xlink:href="#DejaVuSans-72" transform="translate(508.007812 0)"/>
     <use xlink:href="#DejaVuSans-61" transform="translate(549.121094 0)"/>
     <use xlink:href="#DejaVuSans-74" transform="translate(610.400391 0)"/>
     <use xlink:href="#DejaVuSans-69" transform="translate(649.609375 0)"/>
     <use xlink:href="#DejaVuSans-76" transform="translate(677.392578 0)"/>
     <use xlink:href="#DejaVuSans-65" transform="translate(736.572266 0)"/>
    </g>
   </g>
   <g id="text_10">
    <!-- 1.2 Competitive -->
    <g transform="translate(236.537304 219.77383) rotate(-312.922852) scale(0.083013 -0.083013)">
     <use xlink:href="#DejaVuSans-31"/>
     <use xlink:href="#DejaVuSans-2e" transform="translate(63.623047 0)"/>
     <use xlink:href="#DejaVuSans-32" transform="translate(95.410156 0)"/>
     <use xlink:href="#DejaVuSans-20" transform="translate(159.033203 0)"/>
     <use xlink:href="#DejaVuSans-43" transform="translate(190.820312 0)"/>
     <use xlink:href="#DejaVuSans-6f" transform="translate(260.644531 0)"/>
     <use xlink:href="#DejaVuSans-6d" transform="translate(321.826172 0)"/>
     <use xlink:href="#DejaVuSans-70" transform="translate(419.238281 0)"/>
     <use xlink:href="#DejaVuSans-65" transform="translate(482.714844 0)"/>
     <use xlink:href="#DejaVuSans-74" transform="translate(544.238281 0)"/>
     <use xlink:href="#DejaVuSans-69" transform="translate(583.447266 0)"/>
     <use xlink:href="#DejaVuSans-74" transform="translate(611.230469 0)"/>
     <use xlink:href="#DejaVuSans-69" transform="translate(650.439453 0)"/>
     <use xlink:href="#DejaVuSans-76" transform="translate(678.222656 0)"/>
     <use xlink:href="#DejaVuSans-65" transform="translate(737.402344 0)"/>
    </g>
   </g>
   <g id="text_11">
    <!-- 1.3 Affective -->
    <g transform="translate(190.302163 235.110828) rotate(-318.718536) scale(0.177792 -0.177792)">
     <use xlink:href="#DejaVuSans-31"/>
     <use xlink:href="#DejaVuSans-2e" transform="translate(63.623047 0)"/>
     <use xlink:href="#DejaVuSans-33" transform="translate(95.410156 0)"/>
     <use xlink:href="#DejaVuSans-20" transform="translate(159.033203 0)"/>
     <use xlink:href="#DejaVuSans-41" transform="translate(190.820312 0)"/>
     <use xlink:href="#DejaVuSans-66" transform="translate(255.603516 0)"/>
     <use xlink:href="#DejaVuSans-66" transform="translate(290.808594 0)"/>
     <use xlink:href="#DejaVuSans-65" transform="translate(326.013672 0)"/>
     <use xlink:href="#DejaVuSans-63" transform="translate(387.537109 0)"/>
     <use xlink:href="#DejaVuSans-74" transform="translate(442.517578 0)"/>
     <use xlink:href="#DejaVuSans-69" transform="translate(481.726562 0)"/>
     <use xlink:href="#DejaVuSans-76" transform="translate(509.509766 0)"/>
     <use xlink:href="#DejaVuSans-65" transform="translate(568.689453 0)"/>
    </g>
   </g>
   <g id="text_12">
    <!-- 1.4 Proximity -->
    <g transform="translate(129.099991 323.118993) rotate(-333.563599) scale(0.18 -0.18)">
     <defs>
      <path id="DejaVuSans-50" d="M 1259 4147 
L 1259 2394 
L 2053 2394 
Q 2494 2394 2734 2622 
Q 2975 2850 2975 3272 
Q 2975 3691 2734 3919 
Q 2494 4147 2053 4147 
L 1259 4147 
z
M 628 4666 
L 2053 4666 
Q 2838 4666 3239 4311 
Q 3641 3956 3641 3272 
Q 3641 2581 3239 2228 
Q 2838 1875 2053 1875 
L 1259 1875 
L 1259 0 
L 628 0 
L 628 4666 
z
" transform="scale(0.015625)"/>
      <path id="DejaVuSans-78" d="M 3513 3500 
L 2247 1797 
L 3578 0 
L 2900 0 
L 1881 1375 
L 863 0 
L 184 0 
L 1544 1831 
L 300 3500 
L 978 3500 
L 1906 2253 
L 2834 3500 
L 3513 3500 
z
" transform="scale(0.015625)"/>
      <path id="DejaVuSans-79" d="M 2059 -325 
Q 1816 -950 1584 -1140 
Q 1353 -1331 966 -1331 
L 506 -1331 
L 506 -850 
L 844 -850 
Q 1081 -850 1212 -737 
Q 1344 -625 1503 -206 
L 1606 56 
L 191 3500 
L 800 3500 
L 1894 763 
L 2988 3500 
L 3597 3500 
L 2059 -325 
z
" transform="scale(0.015625)"/>
     </defs>
     <use xlink:href="#DejaVuSans-31"/>
     <use xlink:href="#DejaVuSans-2e" transform="translate(63.623047 0)"/>
     <use xlink:href="#DejaVuSans-34" transform="translate(95.410156 0)"/>
     <use xlink:href="#DejaVuSans-20" transform="translate(159.033203 0)"/>
     <use xlink:href="#DejaVuSans-50" transform="translate(190.820312 0)"/>
     <use xlink:href="#DejaVuSans-72" transform="translate(249.373047 0)"/>
     <use xlink:href="#DejaVuSans-6f" transform="translate(288.236328 0)"/>
     <use xlink:href="#DejaVuSans-78" transform="translate(346.292969 0)"/>
     <use xlink:href="#DejaVuSans-69" transform="translate(405.472656 0)"/>
     <use xlink:href="#DejaVuSans-6d" transform="translate(433.255859 0)"/>
     <use xlink:href="#DejaVuSans-69" transform="translate(530.667969 0)"/>
     <use xlink:href="#DejaVuSans-74" transform="translate(558.451172 0)"/>
     <use xlink:href="#DejaVuSans-79" transform="translate(597.660156 0)"/>
    </g>
   </g>
   <g id="text_13">
    <!-- 1.5 Observation -->
    <g transform="translate(78.93513 445.246343) rotate(-351.473541) scale(0.18 -0.18)">
     <defs>
      <path id="DejaVuSans-73" d="M 2834 3397 
L 2834 2853 
Q 2591 2978 2328 3040 
Q 2066 3103 1784 3103 
Q 1356 3103 1142 2972 
Q 928 2841 928 2578 
Q 928 2378 1081 2264 
Q 1234 2150 1697 2047 
L 1894 2003 
Q 2506 1872 2764 1633 
Q 3022 1394 3022 966 
Q 3022 478 2636 193 
Q 2250 -91 1575 -91 
Q 1294 -91 989 -36 
Q 684 19 347 128 
L 347 722 
Q 666 556 975 473 
Q 1284 391 1588 391 
Q 1994 391 2212 530 
Q 2431 669 2431 922 
Q 2431 1156 2273 1281 
Q 2116 1406 1581 1522 
L 1381 1569 
Q 847 1681 609 1914 
Q 372 2147 372 2553 
Q 372 3047 722 3315 
Q 1072 3584 1716 3584 
Q 2034 3584 2315 3537 
Q 2597 3491 2834 3397 
z
" transform="scale(0.015625)"/>
     </defs>
     <use xlink:href="#DejaVuSans-31"/>
     <use xlink:href="#DejaVuSans-2e" transform="translate(63.623047 0)"/>
     <use xlink:href="#DejaVuSans-35" transform="translate(95.410156 0)"/>
     <use xlink:href="#DejaVuSans-20" transform="translate(159.033203 0)"/>
     <use xlink:href="#DejaVuSans-4f" transform="translate(190.820312 0)"/>
     <use xlink:href="#DejaVuSans-62" transform="translate(269.53125 0)"/>
     <use xlink:href="#DejaVuSans-73" transform="translate(333.007812 0)"/>
     <use xlink:href="#DejaVuSans-65" transform="translate(385.107422 0)"/>
     <use xlink:href="#DejaVuSans-72" transform="translate(446.630859 0)"/>
     <use xlink:href="#DejaVuSans-76" transform="translate(487.744141 0)"/>
     <use xlink:href="#DejaVuSans-61" transform="translate(546.923828 0)"/>
     <use xlink:href="#DejaVuSans-74" transform="translate(608.203125 0)"/>
     <use xlink:href="#DejaVuSans-69" transform="translate(647.412109 0)"/>
     <use xlink:href="#DejaVuSans-6f" transform="translate(675.195312 0)"/>
     <use xlink:href="#DejaVuSans-6e" transform="translate(736.376953 0)"/>
    </g>
   </g>
   <g id="text_14">
    <!-- 2.1 Active Manipulat -->
    <g transform="translate(93.985521 688.00482) rotate(-23.545837) scale(0.18 -0.18)">
     <defs>
      <path id="DejaVuSans-4d" d="M 628 4666 
L 1569 4666 
L 2759 1491 
L 3956 4666 
L 4897 4666 
L 4897 0 
L 4281 0 
L 4281 4097 
L 3078 897 
L 2444 897 
L 1241 4097 
L 1241 0 
L 628 0 
L 628 4666 
z
" transform="scale(0.015625)"/>
     </defs>
     <use xlink:href="#DejaVuSans-32"/>
     <use xlink:href="#DejaVuSans-2e" transform="translate(63.623047 0)"/>
     <use xlink:href="#DejaVuSans-31" transform="translate(95.410156 0)"/>
     <use xlink:href="#DejaVuSans-20" transform="translate(159.033203 0)"/>
     <use xlink:href="#DejaVuSans-41" transform="translate(190.820312 0)"/>
     <use xlink:href="#DejaVuSans-63" transform="translate(257.478516 0)"/>
     <use xlink:href="#DejaVuSans-74" transform="translate(312.458984 0)"/>
     <use xlink:href="#DejaVuSans-69" transform="translate(351.667969 0)"/>
     <use xlink:href="#DejaVuSans-76" transform="translate(379.451172 0)"/>
     <use xlink:href="#DejaVuSans-65" transform="translate(438.630859 0)"/>
     <use xlink:href="#DejaVuSans-20" transform="translate(500.154297 0)"/>
     <use xlink:href="#DejaVuSans-4d" transform="translate(531.941406 0)"/>
     <use xlink:href="#DejaVuSans-61" transform="translate(618.220703 0)"/>
     <use xlink:href="#DejaVuSans-6e" transform="translate(679.5 0)"/>
     <use xlink:href="#DejaVuSans-69" transform="translate(742.878906 0)"/>
     <use xlink:href="#DejaVuSans-70" transform="translate(770.662109 0)"/>
     <use xlink:href="#DejaVuSans-75" transform="translate(834.138672 0)"/>
     <use xlink:href="#DejaVuSans-6c" transform="translate(897.517578 0)"/>
     <use xlink:href="#DejaVuSans-61" transform="translate(925.300781 0)"/>
     <use xlink:href="#DejaVuSans-74" transform="translate(986.580078 0)"/>
    </g>
   </g>
   <g id="text_15">
    <!-- 2.2 Proximity -->
    <g transform="translate(329.99064 882.022697) rotate(-64.609406) scale(0.18 -0.18)">
     <use xlink:href="#DejaVuSans-32"/>
     <use xlink:href="#DejaVuSans-2e" transform="translate(63.623047 0)"/>
     <use xlink:href="#DejaVuSans-32" transform="translate(95.410156 0)"/>
     <use xlink:href="#DejaVuSans-20" transform="translate(159.033203 0)"/>
     <use xlink:href="#DejaVuSans-50" transform="translate(190.820312 0)"/>
     <use xlink:href="#DejaVuSans-72" transform="translate(249.373047 0)"/>
     <use xlink:href="#DejaVuSans-6f" transform="translate(288.236328 0)"/>
     <use xlink:href="#DejaVuSans-78" transform="translate(346.292969 0)"/>
     <use xlink:href="#DejaVuSans-69" transform="translate(405.472656 0)"/>
     <use xlink:href="#DejaVuSans-6d" transform="translate(433.255859 0)"/>
     <use xlink:href="#DejaVuSans-69" transform="translate(530.667969 0)"/>
     <use xlink:href="#DejaVuSans-74" transform="translate(558.451172 0)"/>
     <use xlink:href="#DejaVuSans-79" transform="translate(597.660156 0)"/>
    </g>
   </g>
   <g id="text_16">
    <!-- 2.3 Passive -->
    <g transform="translate(481.13027 910.819293) rotate(-86.092651) scale(0.18 -0.18)">
     <use xlink:href="#DejaVuSans-32"/>
     <use xlink:href="#DejaVuSans-2e" transform="translate(63.623047 0)"/>
     <use xlink:href="#DejaVuSans-33" transform="translate(95.410156 0)"/>
     <use xlink:href="#DejaVuSans-20" transform="translate(159.033203 0)"/>
     <use xlink:href="#DejaVuSans-50" transform="translate(190.820312 0)"/>
     <use xlink:href="#DejaVuSans-61" transform="translate(246.623047 0)"/>
     <use xlink:href="#DejaVuSans-73" transform="translate(307.902344 0)"/>
     <use xlink:href="#DejaVuSans-73" transform="translate(360.001953 0)"/>
     <use xlink:href="#DejaVuSans-69" transform="translate(412.101562 0)"/>
     <use xlink:href="#DejaVuSans-76" transform="translate(439.884766 0)"/>
     <use xlink:href="#DejaVuSans-65" transform="translate(499.064453 0)"/>
    </g>
   </g>
   <g id="text_17">
    <!-- 2.4 Spatial -->
    <g transform="translate(511.009237 839.504474) rotate(-271.583282) scale(0.08 -0.08)">
     <use xlink:href="#DejaVuSans-32"/>
     <use xlink:href="#DejaVuSans-2e" transform="translate(63.623047 0)"/>
     <use xlink:href="#DejaVuSans-34" transform="translate(95.410156 0)"/>
     <use xlink:href="#DejaVuSans-20" transform="translate(159.033203 0)"/>
     <use xlink:href="#DejaVuSans-53" transform="translate(190.820312 0)"/>
     <use xlink:href="#DejaVuSans-70" transform="translate(254.296875 0)"/>
     <use xlink:href="#DejaVuSans-61" transform="translate(317.773438 0)"/>
     <use xlink:href="#DejaVuSans-74" transform="translate(379.052734 0)"/>
     <use xlink:href="#DejaVuSans-69" transform="translate(418.261719 0)"/>
     <use xlink:href="#DejaVuSans-61" transform="translate(446.044922 0)"/>
     <use xlink:href="#DejaVuSans-6c" transform="translate(507.324219 0)"/>
    </g>
   </g>
   <g id="text_18">
    <!-- 3.1 Direct Interacti -->
    <g transform="translate(526.856378 775.463138) rotate(-275.868286) scale(0.18 -0.18)">
     <defs>
      <path id="DejaVuSans-44" d="M 1259 4147 
L 1259 519 
L 2022 519 
Q 2988 519 3436 956 
Q 3884 1394 3884 2338 
Q 3884 3275 3436 3711 
Q 2988 4147 2022 4147 
L 1259 4147 
z
M 628 4666 
L 1925 4666 
Q 3281 4666 3915 4102 
Q 4550 3538 4550 2338 
Q 4550 1131 3912 565 
Q 3275 0 1925 0 
L 628 0 
L 628 4666 
z
" transform="scale(0.015625)"/>
     </defs>
     <use xlink:href="#DejaVuSans-33"/>
     <use xlink:href="#DejaVuSans-2e" transform="translate(63.623047 0)"/>
     <use xlink:href="#DejaVuSans-31" transform="translate(95.410156 0)"/>
     <use xlink:href="#DejaVuSans-20" transform="translate(159.033203 0)"/>
     <use xlink:href="#DejaVuSans-44" transform="translate(190.820312 0)"/>
     <use xlink:href="#DejaVuSans-69" transform="translate(267.822266 0)"/>
     <use xlink:href="#DejaVuSans-72" transform="translate(295.605469 0)"/>
     <use xlink:href="#DejaVuSans-65" transform="translate(334.46875 0)"/>
     <use xlink:href="#DejaVuSans-63" transform="translate(395.992188 0)"/>
     <use xlink:href="#DejaVuSans-74" transform="translate(450.972656 0)"/>
     <use xlink:href="#DejaVuSans-20" transform="translate(490.181641 0)"/>
     <use xlink:href="#DejaVuSans-49" transform="translate(521.96875 0)"/>
     <use xlink:href="#DejaVuSans-6e" transform="translate(551.460938 0)"/>
     <use xlink:href="#DejaVuSans-74" transform="translate(614.839844 0)"/>
     <use xlink:href="#DejaVuSans-65" transform="translate(654.048828 0)"/>
     <use xlink:href="#DejaVuSans-72" transform="translate(715.572266 0)"/>
     <use xlink:href="#DejaVuSans-61" transform="translate(756.685547 0)"/>
     <use xlink:href="#DejaVuSans-63" transform="translate(817.964844 0)"/>
     <use xlink:href="#DejaVuSans-74" transform="translate(872.945312 0)"/>
     <use xlink:href="#DejaVuSans-69" transform="translate(912.154297 0)"/>
    </g>
   </g>
   <g id="text_19">
    <!-- 3.2 Observation -->
    <g transform="translate(566.201425 822.974728) rotate(-281.43158) scale(0.08 -0.08)">
     <use xlink:href="#DejaVuSans-33"/>
     <use xlink:href="#DejaVuSans-2e" transform="translate(63.623047 0)"/>
     <use xlink:href="#DejaVuSans-32" transform="translate(95.410156 0)"/>
     <use xlink:href="#DejaVuSans-20" transform="translate(159.033203 0)"/>
     <use xlink:href="#DejaVuSans-4f" transform="translate(190.820312 0)"/>
     <use xlink:href="#DejaVuSans-62" transform="translate(269.53125 0)"/>
     <use xlink:href="#DejaVuSans-73" transform="translate(333.007812 0)"/>
     <use xlink:href="#DejaVuSans-65" transform="translate(385.107422 0)"/>
     <use xlink:href="#DejaVuSans-72" transform="translate(446.630859 0)"/>
     <use xlink:href="#DejaVuSans-76" transform="translate(487.744141 0)"/>
     <use xlink:href="#DejaVuSans-61" transform="translate(546.923828 0)"/>
     <use xlink:href="#DejaVuSans-74" transform="translate(608.203125 0)"/>
     <use xlink:href="#DejaVuSans-69" transform="translate(647.412109 0)"/>
     <use xlink:href="#DejaVuSans-6f" transform="translate(675.195312 0)"/>
     <use xlink:href="#DejaVuSans-6e" transform="translate(736.376953 0)"/>
    </g>
   </g>
   <g id="text_20">
    <!-- 3.3 Proximity -->
    <g transform="translate(585.180212 790.614435) rotate(-286.776947) scale(0.18 -0.18)">
     <use xlink:href="#DejaVuSans-33"/>
     <use xlink:href="#DejaVuSans-2e" transform="translate(63.623047 0)"/>
     <use xlink:href="#DejaVuSans-33" transform="translate(95.410156 0)"/>
     <use xlink:href="#DejaVuSans-20" transform="translate(159.033203 0)"/>
     <use xlink:href="#DejaVuSans-50" transform="translate(190.820312 0)"/>
     <use xlink:href="#DejaVuSans-72" transform="translate(249.373047 0)"/>
     <use xlink:href="#DejaVuSans-6f" transform="translate(288.236328 0)"/>
     <use xlink:href="#DejaVuSans-78" transform="translate(346.292969 0)"/>
     <use xlink:href="#DejaVuSans-69" transform="translate(405.472656 0)"/>
     <use xlink:href="#DejaVuSans-6d" transform="translate(433.255859 0)"/>
     <use xlink:href="#DejaVuSans-69" transform="translate(530.667969 0)"/>
     <use xlink:href="#DejaVuSans-74" transform="translate(558.451172 0)"/>
     <use xlink:href="#DejaVuSans-79" transform="translate(597.660156 0)"/>
    </g>
   </g>
   <g id="text_21">
    <!-- 4.1 Proximity -->
    <g transform="translate(739.264496 686.709869) rotate(-323.119751) scale(0.18 -0.18)">
     <use xlink:href="#DejaVuSans-34"/>
     <use xlink:href="#DejaVuSans-2e" transform="translate(63.623047 0)"/>
     <use xlink:href="#DejaVuSans-31" transform="translate(95.410156 0)"/>
     <use xlink:href="#DejaVuSans-20" transform="translate(159.033203 0)"/>
     <use xlink:href="#DejaVuSans-50" transform="translate(190.820312 0)"/>
     <use xlink:href="#DejaVuSans-72" transform="translate(249.373047 0)"/>
     <use xlink:href="#DejaVuSans-6f" transform="translate(288.236328 0)"/>
     <use xlink:href="#DejaVuSans-78" transform="translate(346.292969 0)"/>
     <use xlink:href="#DejaVuSans-69" transform="translate(405.472656 0)"/>
     <use xlink:href="#DejaVuSans-6d" transform="translate(433.255859 0)"/>
     <use xlink:href="#DejaVuSans-69" transform="translate(530.667969 0)"/>
     <use xlink:href="#DejaVuSans-74" transform="translate(558.451172 0)"/>
     <use xlink:href="#DejaVuSans-79" transform="translate(597.660156 0)"/>
    </g>
   </g>
   <g id="text_22">
    <!-- 4.2 Antagonistic -->
    <g transform="translate(827.834732 524.15442) rotate(-356.818909) scale(0.08 -0.08)">
     <defs>
      <path id="DejaVuSans-67" d="M 2906 1791 
Q 2906 2416 2648 2759 
Q 2391 3103 1925 3103 
Q 1463 3103 1205 2759 
Q 947 2416 947 1791 
Q 947 1169 1205 825 
Q 1463 481 1925 481 
Q 2391 481 2648 825 
Q 2906 1169 2906 1791 
z
M 3481 434 
Q 3481 -459 3084 -895 
Q 2688 -1331 1869 -1331 
Q 1566 -1331 1297 -1286 
Q 1028 -1241 775 -1147 
L 775 -588 
Q 1028 -725 1275 -790 
Q 1522 -856 1778 -856 
Q 2344 -856 2625 -561 
Q 2906 -266 2906 331 
L 2906 616 
Q 2728 306 2450 153 
Q 2172 0 1784 0 
Q 1141 0 747 490 
Q 353 981 353 1791 
Q 353 2603 747 3093 
Q 1141 3584 1784 3584 
Q 2172 3584 2450 3431 
Q 2728 3278 2906 2969 
L 2906 3500 
L 3481 3500 
L 3481 434 
z
" transform="scale(0.015625)"/>
     </defs>
     <use xlink:href="#DejaVuSans-34"/>
     <use xlink:href="#DejaVuSans-2e" transform="translate(63.623047 0)"/>
     <use xlink:href="#DejaVuSans-32" transform="translate(95.410156 0)"/>
     <use xlink:href="#DejaVuSans-20" transform="translate(159.033203 0)"/>
     <use xlink:href="#DejaVuSans-41" transform="translate(190.820312 0)"/>
     <use xlink:href="#DejaVuSans-6e" transform="translate(259.228516 0)"/>
     <use xlink:href="#DejaVuSans-74" transform="translate(322.607422 0)"/>
     <use xlink:href="#DejaVuSans-61" transform="translate(361.816406 0)"/>
     <use xlink:href="#DejaVuSans-67" transform="translate(423.095703 0)"/>
     <use xlink:href="#DejaVuSans-6f" transform="translate(486.572266 0)"/>
     <use xlink:href="#DejaVuSans-6e" transform="translate(547.753906 0)"/>
     <use xlink:href="#DejaVuSans-69" transform="translate(611.132812 0)"/>
     <use xlink:href="#DejaVuSans-73" transform="translate(638.916016 0)"/>
     <use xlink:href="#DejaVuSans-74" transform="translate(691.015625 0)"/>
     <use xlink:href="#DejaVuSans-69" transform="translate(730.224609 0)"/>
     <use xlink:href="#DejaVuSans-63" transform="translate(758.007812 0)"/>
    </g>
   </g>
   <g id="text_23">
    <!-- 4.3 Observation -->
    <g transform="translate(828.832802 514.141653) rotate(-358.591034) scale(0.08 -0.08)">
     <use xlink:href="#DejaVuSans-34"/>
     <use xlink:href="#DejaVuSans-2e" transform="translate(63.623047 0)"/>
     <use xlink:href="#DejaVuSans-33" transform="translate(95.410156 0)"/>
     <use xlink:href="#DejaVuSans-20" transform="translate(159.033203 0)"/>
     <use xlink:href="#DejaVuSans-4f" transform="translate(190.820312 0)"/>
     <use xlink:href="#DejaVuSans-62" transform="translate(269.53125 0)"/>
     <use xlink:href="#DejaVuSans-73" transform="translate(333.007812 0)"/>
     <use xlink:href="#DejaVuSans-65" transform="translate(385.107422 0)"/>
     <use xlink:href="#DejaVuSans-72" transform="translate(446.630859 0)"/>
     <use xlink:href="#DejaVuSans-76" transform="translate(487.744141 0)"/>
     <use xlink:href="#DejaVuSans-61" transform="translate(546.923828 0)"/>
     <use xlink:href="#DejaVuSans-74" transform="translate(608.203125 0)"/>
     <use xlink:href="#DejaVuSans-69" transform="translate(647.412109 0)"/>
     <use xlink:href="#DejaVuSans-6f" transform="translate(675.195312 0)"/>
     <use xlink:href="#DejaVuSans-6e" transform="translate(736.376953 0)"/>
    </g>
   </g>
   <g id="text_24">
    <!-- 4.4 Spatial -->
    <g transform="translate(812.587247 491.057282) rotate(-3.311829) scale(0.18 -0.18)">
     <use xlink:href="#DejaVuSans-34"/>
     <use xlink:href="#DejaVuSans-2e" transform="translate(63.623047 0)"/>
     <use xlink:href="#DejaVuSans-34" transform="translate(95.410156 0)"/>
     <use xlink:href="#DejaVuSans-20" transform="translate(159.033203 0)"/>
     <use xlink:href="#DejaVuSans-53" transform="translate(190.820312 0)"/>
     <use xlink:href="#DejaVuSans-70" transform="translate(254.296875 0)"/>
     <use xlink:href="#DejaVuSans-61" transform="translate(317.773438 0)"/>
     <use xlink:href="#DejaVuSans-74" transform="translate(379.052734 0)"/>
     <use xlink:href="#DejaVuSans-69" transform="translate(418.261719 0)"/>
     <use xlink:href="#DejaVuSans-61" transform="translate(446.044922 0)"/>
     <use xlink:href="#DejaVuSans-6c" transform="translate(507.324219 0)"/>
    </g>
   </g>
   <g id="text_25">
    <!-- 5.1 Interaction -->
    <g transform="translate(807.225063 450.688184) rotate(-10.647217) scale(0.133997 -0.133997)">
     <use xlink:href="#DejaVuSans-35"/>
     <use xlink:href="#DejaVuSans-2e" transform="translate(63.623047 0)"/>
     <use xlink:href="#DejaVuSans-31" transform="translate(95.410156 0)"/>
     <use xlink:href="#DejaVuSans-20" transform="translate(159.033203 0)"/>
     <use xlink:href="#DejaVuSans-49" transform="translate(190.820312 0)"/>
     <use xlink:href="#DejaVuSans-6e" transform="translate(220.3125 0)"/>
     <use xlink:href="#DejaVuSans-74" transform="translate(283.691406 0)"/>
     <use xlink:href="#DejaVuSans-65" transform="translate(322.900391 0)"/>
     <use xlink:href="#DejaVuSans-72" transform="translate(384.423828 0)"/>
     <use xlink:href="#DejaVuSans-61" transform="translate(425.537109 0)"/>
     <use xlink:href="#DejaVuSans-63" transform="translate(486.816406 0)"/>
     <use xlink:href="#DejaVuSans-74" transform="translate(541.796875 0)"/>
     <use xlink:href="#DejaVuSans-69" transform="translate(581.005859 0)"/>
     <use xlink:href="#DejaVuSans-6f" transform="translate(608.789062 0)"/>
     <use xlink:href="#DejaVuSans-6e" transform="translate(669.970703 0)"/>
    </g>
   </g>
   <g id="text_26">
    <!-- 5.2 Proximity -->
    <g transform="translate(775.213985 380.685928) rotate(-25.390564) scale(0.18 -0.18)">
     <use xlink:href="#DejaVuSans-35"/>
     <use xlink:href="#DejaVuSans-2e" transform="translate(63.623047 0)"/>
     <use xlink:href="#DejaVuSans-32" transform="translate(95.410156 0)"/>
     <use xlink:href="#DejaVuSans-20" transform="translate(159.033203 0)"/>
     <use xlink:href="#DejaVuSans-50" transform="translate(190.820312 0)"/>
     <use xlink:href="#DejaVuSans-72" transform="translate(249.373047 0)"/>
     <use xlink:href="#DejaVuSans-6f" transform="translate(288.236328 0)"/>
     <use xlink:href="#DejaVuSans-78" transform="translate(346.292969 0)"/>
     <use xlink:href="#DejaVuSans-69" transform="translate(405.472656 0)"/>
     <use xlink:href="#DejaVuSans-6d" transform="translate(433.255859 0)"/>
     <use xlink:href="#DejaVuSans-69" transform="translate(530.667969 0)"/>
     <use xlink:href="#DejaVuSans-74" transform="translate(558.451172 0)"/>
     <use xlink:href="#DejaVuSans-79" transform="translate(597.660156 0)"/>
    </g>
   </g>
   <g id="text_27">
    <!-- 5.3 Spatial -->
    <g transform="translate(770.148665 299.525975) rotate(-37.897034) scale(0.08 -0.08)">
     <use xlink:href="#DejaVuSans-35"/>
     <use xlink:href="#DejaVuSans-2e" transform="translate(63.623047 0)"/>
     <use xlink:href="#DejaVuSans-33" transform="translate(95.410156 0)"/>
     <use xlink:href="#DejaVuSans-20" transform="translate(159.033203 0)"/>
     <use xlink:href="#DejaVuSans-53" transform="translate(190.820312 0)"/>
     <use xlink:href="#DejaVuSans-70" transform="translate(254.296875 0)"/>
     <use xlink:href="#DejaVuSans-61" transform="translate(317.773438 0)"/>
     <use xlink:href="#DejaVuSans-74" transform="translate(379.052734 0)"/>
     <use xlink:href="#DejaVuSans-69" transform="translate(418.261719 0)"/>
     <use xlink:href="#DejaVuSans-61" transform="translate(446.044922 0)"/>
     <use xlink:href="#DejaVuSans-6c" transform="translate(507.324219 0)"/>
    </g>
   </g>
   <g id="text_28">
    <!-- 6.1 Spatial/Movement -->
    <g transform="translate(709.847769 324.056326) rotate(-42.022278) scale(0.152299 -0.152299)">
     <defs>
      <path id="DejaVuSans-2f" d="M 1625 4666 
L 2156 4666 
L 531 -594 
L 0 -594 
L 1625 4666 
z
" transform="scale(0.015625)"/>
     </defs>
     <use xlink:href="#DejaVuSans-36"/>
     <use xlink:href="#DejaVuSans-2e" transform="translate(63.623047 0)"/>
     <use xlink:href="#DejaVuSans-31" transform="translate(95.410156 0)"/>
     <use xlink:href="#DejaVuSans-20" transform="translate(159.033203 0)"/>
     <use xlink:href="#DejaVuSans-53" transform="translate(190.820312 0)"/>
     <use xlink:href="#DejaVuSans-70" transform="translate(254.296875 0)"/>
     <use xlink:href="#DejaVuSans-61" transform="translate(317.773438 0)"/>
     <use xlink:href="#DejaVuSans-74" transform="translate(379.052734 0)"/>
     <use xlink:href="#DejaVuSans-69" transform="translate(418.261719 0)"/>
     <use xlink:href="#DejaVuSans-61" transform="translate(446.044922 0)"/>
     <use xlink:href="#DejaVuSans-6c" transform="translate(507.324219 0)"/>
     <use xlink:href="#DejaVuSans-2f" transform="translate(535.107422 0)"/>
     <use xlink:href="#DejaVuSans-4d" transform="translate(568.798828 0)"/>
     <use xlink:href="#DejaVuSans-6f" transform="translate(655.078125 0)"/>
     <use xlink:href="#DejaVuSans-76" transform="translate(716.259766 0)"/>
     <use xlink:href="#DejaVuSans-65" transform="translate(775.439453 0)"/>
     <use xlink:href="#DejaVuSans-6d" transform="translate(836.962891 0)"/>
     <use xlink:href="#DejaVuSans-65" transform="translate(934.375 0)"/>
     <use xlink:href="#DejaVuSans-6e" transform="translate(995.898438 0)"/>
     <use xlink:href="#DejaVuSans-74" transform="translate(1059.277344 0)"/>
    </g>
   </g>
   <g id="text_29">
    <!-- 6.2 Proximity -->
    <g transform="translate(674.734256 259.789629) rotate(-55.981262) scale(0.18 -0.18)">
     <use xlink:href="#DejaVuSans-36"/>
     <use xlink:href="#DejaVuSans-2e" transform="translate(63.623047 0)"/>
     <use xlink:href="#DejaVuSans-32" transform="translate(95.410156 0)"/>
     <use xlink:href="#DejaVuSans-20" transform="translate(159.033203 0)"/>
     <use xlink:href="#DejaVuSans-50" transform="translate(190.820312 0)"/>
     <use xlink:href="#DejaVuSans-72" transform="translate(249.373047 0)"/>
     <use xlink:href="#DejaVuSans-6f" transform="translate(288.236328 0)"/>
     <use xlink:href="#DejaVuSans-78" transform="translate(346.292969 0)"/>
     <use xlink:href="#DejaVuSans-69" transform="translate(405.472656 0)"/>
     <use xlink:href="#DejaVuSans-6d" transform="translate(433.255859 0)"/>
     <use xlink:href="#DejaVuSans-69" transform="translate(530.667969 0)"/>
     <use xlink:href="#DejaVuSans-74" transform="translate(558.451172 0)"/>
     <use xlink:href="#DejaVuSans-79" transform="translate(597.660156 0)"/>
    </g>
   </g>
   <g id="text_30">
    <!-- 6.3 Spatial -->
    <g transform="translate(636.535347 195.606619) rotate(-67.107788) scale(0.08 -0.08)">
     <use xlink:href="#DejaVuSans-36"/>
     <use xlink:href="#DejaVuSans-2e" transform="translate(63.623047 0)"/>
     <use xlink:href="#DejaVuSans-33" transform="translate(95.410156 0)"/>
     <use xlink:href="#DejaVuSans-20" transform="translate(159.033203 0)"/>
     <use xlink:href="#DejaVuSans-53" transform="translate(190.820312 0)"/>
     <use xlink:href="#DejaVuSans-70" transform="translate(254.296875 0)"/>
     <use xlink:href="#DejaVuSans-61" transform="translate(317.773438 0)"/>
     <use xlink:href="#DejaVuSans-74" transform="translate(379.052734 0)"/>
     <use xlink:href="#DejaVuSans-69" transform="translate(418.261719 0)"/>
     <use xlink:href="#DejaVuSans-61" transform="translate(446.044922 0)"/>
     <use xlink:href="#DejaVuSans-6c" transform="translate(507.324219 0)"/>
    </g>
   </g>
  </g>
 </g>
</svg>
