<?xml version="1.0" encoding="utf-8" standalone="no"?>
<!DOCTYPE svg PUBLIC "-//W3C//DTD SVG 1.1//EN"
  "http://www.w3.org/Graphics/SVG/1.1/DTD/svg11.dtd">
<svg xmlns:xlink="http://www.w3.org/1999/xlink" width="1132.0704pt" height="1132.0704pt" viewBox="0 0 1132.0704 1132.0704" xmlns="http://www.w3.org/2000/svg" version="1.1">
 <metadata>
  <rdf:RDF xmlns:dc="http://purl.org/dc/elements/1.1/" xmlns:cc="http://creativecommons.org/ns#" xmlns:rdf="http://www.w3.org/1999/02/22-rdf-syntax-ns#">
   <cc:Work>
    <dc:type rdf:resource="http://purl.org/dc/dcmitype/StillImage"/>
    <dc:date>2025-11-05T20:50:05.955788</dc:date>
    <dc:format>image/svg+xml</dc:format>
    <dc:creator>
     <cc:Agent>
      <dc:title>Matplotlib v3.10.6, https://matplotlib.org/</dc:title>
     </cc:Agent>
    </dc:creator>
   </cc:Work>
  </rdf:RDF>
 </metadata>
 <defs>
  <style type="text/css">*{stroke-linejoin: round; stroke-linecap: butt}</style>
 </defs>
 <g id="figure_1">
  <g id="patch_1">
   <path d="M 0 1132.0704 
L 1132.0704 1132.0704 
L 1132.0704 0 
L 0 0 
z
" style="fill: #ffffff"/>
  </g>
  <g id="axes_1">
   <g id="patch_2">
    <path d="M 566.0352 7.2 
C 553.842219 7.2 541.652504 7.59905 529.485629 8.396509 
C 517.318755 9.193968 505.181237 10.389409 493.092569 11.980913 
L 533.616253 319.78885 
C 538.988994 319.081515 544.383446 318.550208 549.790946 318.195782 
C 555.198446 317.841356 560.616097 317.664 566.0352 317.664 
z
" style="fill: #e6c6a6; stroke: #ffffff; stroke-width: 1.5; stroke-linejoin: miter"/>
   </g>
   <g id="patch_3">
    <path d="M 493.092557 11.980899 
C 481.003883 13.572411 468.970561 15.559137 457.01186 17.937878 
C 445.053159 20.31662 433.175466 23.086078 421.397941 26.241855 
L 501.751974 326.127047 
C 506.986429 324.724479 512.265404 323.493609 517.580382 322.43639 
C 522.89536 321.379172 528.243504 320.496183 533.616247 319.788844 
z
" style="fill: #e6caad; stroke: #ffffff; stroke-width: 1.5; stroke-linejoin: miter"/>
   </g>
   <g id="patch_4">
    <path d="M 421.397941 26.241855 
C 409.620434 29.397633 397.949349 32.938032 386.403457 36.857322 
C 374.857565 40.776613 363.443027 45.072764 352.178181 49.738812 
L 470.987636 336.570139 
C 475.994234 334.496339 481.067362 332.586939 486.19887 330.845032 
C 491.330377 329.103125 496.517526 327.529615 501.751974 326.127047 
z
" style="fill: #e7cdb4; stroke: #ffffff; stroke-width: 1.5; stroke-linejoin: miter"/>
   </g>
   <g id="patch_5">
    <path d="M 352.178181 49.738812 
C 340.913318 54.404861 329.804193 59.438377 318.868624 64.831199 
C 307.933056 70.224021 297.176908 75.973284 286.617467 82.069796 
L 441.849541 350.939465 
C 446.542626 348.229904 451.323136 345.674676 456.183389 343.277866 
C 461.043641 340.881057 465.98103 338.643938 470.987636 336.570139 
z
" style="fill: #e7d1bb; stroke: #ffffff; stroke-width: 1.5; stroke-linejoin: miter"/>
   </g>
   <g id="patch_6">
    <path d="M 286.617467 82.069796 
C 276.058026 88.166274 265.700905 94.606769 255.562825 101.380822 
C 245.424745 108.154876 235.511102 115.25889 225.837751 122.681506 
L 414.836334 368.989114 
C 419.135601 365.690173 423.541664 362.532834 428.047478 359.522143 
C 432.553291 356.511453 437.156456 353.649011 441.849541 350.939465 
z
" style="fill: #e8d5c2; stroke: #ffffff; stroke-width: 1.5; stroke-linejoin: miter"/>
   </g>
   <g id="patch_7">
    <path d="M 225.837751 122.681506 
C 216.164401 130.104122 206.736639 137.84131 197.569488 145.880712 
C 188.402337 153.920115 179.500694 162.257401 170.878947 170.879147 
L 390.410199 390.410288 
C 394.242086 386.5784 398.198372 382.87294 402.272661 379.299872 
C 406.346951 375.726805 410.537067 372.288054 414.836334 368.989114 
z
" style="fill: #e8d9c9; stroke: #ffffff; stroke-width: 1.5; stroke-linejoin: miter"/>
   </g>
   <g id="patch_8">
    <path d="M 170.878947 170.879147 
C 157.944895 183.813199 145.653677 197.374496 134.04966 211.514041 
C 122.445644 225.653585 111.542852 240.354322 101.380622 255.563158 
L 359.522054 428.047626 
C 364.038601 421.288143 368.884286 414.754482 374.041627 408.47024 
C 379.198968 402.185998 384.661731 396.158755 390.410199 390.410288 
z
" style="fill: #d6e6a6; stroke: #ffffff; stroke-width: 1.5; stroke-linejoin: miter"/>
   </g>
   <g id="patch_9">
    <path d="M 101.380622 255.563158 
C 91.218427 270.771993 81.809018 286.47064 73.186472 302.602289 
C 64.563926 318.733955 56.738602 335.279172 49.738746 352.178314 
L 336.570109 470.987695 
C 339.681156 463.476965 343.159078 456.123536 346.991321 448.953906 
C 350.823564 441.784284 355.005523 434.807108 359.522054 428.047626 
z
" style="fill: #d9e7b1; stroke: #ffffff; stroke-width: 1.5; stroke-linejoin: miter"/>
   </g>
   <g id="patch_10">
    <path d="M 49.738746 352.178314 
C 42.73889 369.077474 36.572962 386.310125 31.263213 403.814012 
C 25.953464 421.317899 21.506323 439.071939 17.937845 457.011993 
L 322.436376 517.580441 
C 324.022366 509.607084 325.998873 501.7164 328.358761 493.936894 
C 330.71865 486.157389 333.459062 478.498433 336.570109 470.987695 
z
" style="fill: #dde7be; stroke: #ffffff; stroke-width: 1.5; stroke-linejoin: miter"/>
   </g>
   <g id="patch_11">
    <path d="M 17.937845 457.011993 
C 14.369367 474.952048 11.683781 493.056491 9.890915 511.259929 
C 8.098049 529.463368 7.2 547.743863 7.2 566.035382 
L 317.664 566.035281 
C 317.664 557.905717 318.063133 549.781052 318.859962 541.690635 
C 319.656792 533.600218 320.850385 525.553799 322.436376 517.580441 
z
" style="fill: #e0e8c9; stroke: #ffffff; stroke-width: 1.5; stroke-linejoin: miter"/>
   </g>
   <g id="patch_12">
    <path d="M 7.2 566.035382 
C 7.2 584.326879 8.098082 602.607282 9.890948 620.8107 
C 11.683814 639.014117 14.369367 657.118602 17.937878 675.058632 
L 322.43639 614.490059 
C 320.850385 606.516712 319.656806 598.470274 318.859977 590.379866 
C 318.063148 582.289459 317.664 574.164835 317.664 566.035281 
z
" style="fill: #a6e6a6; stroke: #ffffff; stroke-width: 1.5; stroke-linejoin: miter"/>
   </g>
   <g id="patch_13">
    <path d="M 17.937878 675.058632 
C 21.50639 692.998686 25.953531 710.752717 31.26328 728.256605 
C 36.573029 745.760492 42.73899 762.993143 49.738846 779.892302 
L 336.570154 661.082801 
C 333.459106 653.572063 330.718679 645.913108 328.358791 638.133602 
C 325.998903 630.354096 324.022396 622.463416 322.43639 614.490059 
z
" style="fill: #b1e7b1; stroke: #ffffff; stroke-width: 1.5; stroke-linejoin: miter"/>
   </g>
   <g id="patch_14">
    <path d="M 49.738846 779.892302 
C 56.738702 796.791462 64.564059 813.336744 73.186639 829.468427 
C 81.809218 845.600093 91.218593 861.298707 101.380822 876.507542 
L 359.522143 704.022908 
C 355.005597 697.263425 350.823652 690.286264 346.991395 683.116634 
C 343.159138 675.946997 339.681201 668.593538 336.570154 661.082801 
z
" style="fill: #bee7be; stroke: #ffffff; stroke-width: 1.5; stroke-linejoin: miter"/>
   </g>
   <g id="patch_15">
    <path d="M 101.380822 876.507542 
C 111.543051 891.716378 122.445877 906.417148 134.049893 920.556659 
C 145.65391 934.69617 157.945062 948.257367 170.879114 961.191419 
L 390.410273 741.660186 
C 384.661805 735.911719 379.199071 729.88452 374.04173 723.600293 
C 368.88439 717.316066 364.03869 710.78239 359.522143 704.022908 
z
" style="fill: #c9e8c9; stroke: #ffffff; stroke-width: 1.5; stroke-linejoin: miter"/>
   </g>
   <g id="patch_16">
    <path d="M 170.879114 961.191419 
C 183.813166 974.125471 197.37433 986.416623 211.513874 998.02064 
C 225.653418 1009.624657 240.354289 1020.527548 255.563124 1030.689778 
L 428.047611 772.548346 
C 421.288128 768.031799 414.754408 763.18607 408.470166 758.028729 
C 402.185924 752.871388 396.15874 747.408654 390.410273 741.660186 
z
" style="fill: #a6e6d6; stroke: #ffffff; stroke-width: 1.5; stroke-linejoin: miter"/>
   </g>
   <g id="patch_17">
    <path d="M 255.563124 1030.689778 
C 270.77196 1040.852007 286.470673 1050.261449 302.602373 1058.883994 
C 318.734055 1067.50654 335.279238 1075.331831 352.178398 1082.331687 
L 470.987732 795.500306 
C 463.476995 792.389258 456.12358 788.911351 448.953943 785.079109 
C 441.784299 781.246866 434.807093 777.064892 428.047611 772.548346 
z
" style="fill: #b1e7d9; stroke: #ffffff; stroke-width: 1.5; stroke-linejoin: miter"/>
   </g>
   <g id="patch_18">
    <path d="M 352.178398 1082.331687 
C 369.077557 1089.331544 386.310091 1095.497405 403.813979 1100.807154 
C 421.317866 1106.116902 439.07203 1110.56411 457.012085 1114.132588 
L 517.580482 809.634039 
C 509.607125 808.048049 501.716385 806.071512 493.936879 803.711624 
C 486.157374 801.351735 478.49847 798.611353 470.987732 795.500306 
z
" style="fill: #bee7dd; stroke: #ffffff; stroke-width: 1.5; stroke-linejoin: miter"/>
   </g>
   <g id="patch_19">
    <path d="M 457.012085 1114.132588 
C 474.952139 1117.701067 493.056716 1120.386619 511.260154 1122.179485 
C 529.463593 1123.972351 547.743954 1124.8704 566.035473 1124.8704 
L 566.035321 814.4064 
C 557.905758 814.4064 549.781152 814.007267 541.690735 813.210438 
C 533.600318 812.413608 525.55384 811.22003 517.580482 809.634039 
z
" style="fill: #c9e8e0; stroke: #ffffff; stroke-width: 1.5; stroke-linejoin: miter"/>
   </g>
   <g id="patch_20">
    <path d="M 566.035473 1124.8704 
C 590.427955 1124.8704 614.794417 1123.273325 638.978218 1120.089434 
C 663.162019 1116.905544 687.111298 1112.141732 710.672625 1105.828478 
L 630.3185 805.943324 
C 619.846799 808.749214 609.202675 810.866464 598.454319 812.281526 
C 587.705963 813.696589 576.876425 814.4064 566.035321 814.4064 
z
" style="fill: #a6c6e6; stroke: #ffffff; stroke-width: 1.5; stroke-linejoin: miter"/>
   </g>
   <g id="patch_21">
    <path d="M 710.672625 1105.828478 
C 734.233952 1099.515224 757.356564 1091.66615 779.892269 1082.331554 
C 802.427973 1072.996958 824.328489 1062.196825 845.453 1050.000571 
L 690.220889 781.13092 
C 680.832217 786.551478 671.098655 791.351537 661.082786 795.500246 
C 651.066918 799.648956 640.790201 803.137433 630.3185 805.943324 
z
" style="fill: #b8cfe7; stroke: #ffffff; stroke-width: 1.5; stroke-linejoin: miter"/>
   </g>
   <g id="patch_22">
    <path d="M 845.453 1050.000571 
C 866.577511 1037.804317 886.880918 1024.237991 906.232782 1009.388761 
C 925.584646 994.539531 943.943396 978.439309 961.191486 961.191219 
L 741.660216 741.660098 
C 733.994398 749.325915 725.834954 756.481569 717.234125 763.081227 
C 708.633297 769.680885 699.609561 775.710363 690.220889 781.13092 
z
" style="fill: #c9d9e8; stroke: #ffffff; stroke-width: 1.5; stroke-linejoin: miter"/>
   </g>
   <g id="patch_23">
    <path d="M 961.191486 961.191219 
C 978.439642 943.943063 994.540098 925.583979 1009.389327 906.232049 
C 1024.238557 886.880119 1037.804784 866.576812 1050.001037 845.4522 
L 781.131128 690.220534 
C 775.71057 699.60925 769.681136 708.632942 763.081479 717.2338 
C 756.481821 725.834658 749.326063 733.99425 741.660216 741.660098 
z
" style="fill: #b6a6e6; stroke: #ffffff; stroke-width: 1.5; stroke-linejoin: miter"/>
   </g>
   <g id="patch_24">
    <path d="M 1050.001037 845.4522 
C 1062.197258 824.327672 1072.997358 802.427141 1082.331921 779.89142 
C 1091.666483 757.355698 1099.51549 734.233103 1105.828711 710.671759 
L 805.943427 630.318115 
C 803.137551 640.789824 799.649104 651.066533 795.500409 661.082409 
C 791.351715 671.098285 786.55167 680.831854 781.131128 690.220534 
z
" style="fill: #c3b8e7; stroke: #ffffff; stroke-width: 1.5; stroke-linejoin: miter"/>
   </g>
   <g id="patch_25">
    <path d="M 1105.828711 710.671759 
C 1112.141899 687.110465 1116.905744 663.161086 1120.089568 638.977327 
C 1123.273392 614.793568 1124.8704 590.427275 1124.8704 566.034836 
L 814.4064 566.035038 
C 814.4064 576.876122 813.696619 587.705586 812.281586 598.453923 
C 810.866553 609.202261 808.749288 619.846429 805.943427 630.318115 
z
" style="fill: #d1c9e8; stroke: #ffffff; stroke-width: 1.5; stroke-linejoin: miter"/>
   </g>
   <g id="patch_26">
    <path d="M 1124.8704 566.034836 
C 1124.870367 492.649286 1110.414918 419.977205 1082.331421 352.177815 
C 1054.247924 284.378424 1013.082582 222.770243 961.191153 170.878847 
L 741.660068 390.410154 
C 764.722925 413.472997 783.018633 440.854411 795.500187 470.987473 
C 807.981741 501.120536 814.406385 533.419238 814.4064 566.035038 
L 1124.8704 566.034836 
z
" style="fill: none"/>
   </g>
   <g id="patch_27">
    <path d="M 961.191153 170.878847 
C 909.299724 118.987452 847.69151 77.822176 779.892086 49.738746 
C 712.092679 21.655315 639.420556 7.2 566.035011 7.2 
L 566.035116 317.664 
C 598.650914 317.664 630.949635 324.088585 661.082705 336.570109 
C 691.215782 349.051634 718.597211 367.347312 741.660068 390.410154 
L 961.191153 170.878847 
z
" style="fill: none"/>
   </g>
   <g id="patch_28">
    <path d="M 566.0352 317.664 
C 533.419393 317.664 501.120733 324.088603 470.987657 336.570132 
C 440.85458 349.051661 413.473099 367.347382 390.41024 390.41024 
L 566.0352 566.0352 
C 566.0352 566.0352 566.0352 566.0352 566.0352 566.0352 
C 566.0352 566.0352 566.0352 566.0352 566.0352 566.0352 
z
" style="fill: #e19f5d; stroke: #ffffff; stroke-width: 1.5; stroke-linejoin: miter"/>
   </g>
   <g id="patch_29">
    <path d="M 390.410243 390.410243 
C 367.347386 413.473101 349.051634 440.854618 336.570109 470.987695 
C 324.088585 501.12078 317.664 533.419409 317.664 566.035222 
L 566.0352 566.0352 
C 566.0352 566.0352 566.0352 566.0352 566.0352 566.0352 
C 566.0352 566.0352 566.0352 566.0352 566.0352 566.0352 
z
" style="fill: #c0e15d; stroke: #ffffff; stroke-width: 1.5; stroke-linejoin: miter"/>
   </g>
   <g id="patch_30">
    <path d="M 317.664 566.035222 
C 317.664 598.651021 324.088614 630.949672 336.570139 661.082742 
C 349.051664 691.215812 367.347371 718.597285 390.410228 741.660142 
L 566.0352 566.0352 
C 566.0352 566.0352 566.0352 566.0352 566.0352 566.0352 
C 566.0352 566.0352 566.0352 566.0352 566.0352 566.0352 
z
" style="fill: #5de15d; stroke: #ffffff; stroke-width: 1.5; stroke-linejoin: miter"/>
   </g>
   <g id="patch_31">
    <path d="M 390.410228 741.660142 
C 413.473086 764.722999 440.854544 783.018722 470.987621 795.500261 
C 501.120698 807.981801 533.41939 814.4064 566.035203 814.4064 
L 566.0352 566.0352 
C 566.0352 566.0352 566.0352 566.0352 566.0352 566.0352 
C 566.0352 566.0352 566.0352 566.0352 566.0352 566.0352 
z
" style="fill: #5de1c0; stroke: #ffffff; stroke-width: 1.5; stroke-linejoin: miter"/>
   </g>
   <g id="patch_32">
    <path d="M 566.035203 814.4064 
C 598.651002 814.4064 630.949716 807.981771 661.082786 795.500246 
C 691.215856 783.018722 718.59727 764.723029 741.660127 741.660186 
L 566.0352 566.0352 
C 566.0352 566.0352 566.0352 566.0352 566.0352 566.0352 
C 566.0352 566.0352 566.0352 566.0352 566.0352 566.0352 
z
" style="fill: #5d9fe1; stroke: #ffffff; stroke-width: 1.5; stroke-linejoin: miter"/>
   </g>
   <g id="patch_33">
    <path d="M 741.660127 741.660186 
C 764.722999 718.597314 783.018736 691.215841 795.500276 661.082742 
C 807.981815 630.94965 814.4064 598.65098 814.4064 566.035157 
L 566.0352 566.0352 
C 566.0352 566.0352 566.0352 566.0352 566.0352 566.0352 
C 566.0352 566.0352 566.0352 566.0352 566.0352 566.0352 
z
" style="fill: #7e5de1; stroke: #ffffff; stroke-width: 1.5; stroke-linejoin: miter"/>
   </g>
   <g id="patch_34">
    <path d="M 814.4064 566.035157 
C 814.4064 533.419357 807.981801 501.120758 795.500276 470.987688 
C 783.018751 440.854618 764.723014 413.473101 741.660157 390.410243 
L 566.0352 566.0352 
C 566.0352 566.0352 566.0352 566.0352 566.0352 566.0352 
C 566.0352 566.0352 566.0352 566.0352 566.0352 566.0352 
z
" style="fill: #e15de1; stroke: #ffffff; stroke-width: 1.5; stroke-linejoin: miter"/>
   </g>
   <g id="patch_35">
    <path d="M 741.660157 390.410243 
C 718.597299 367.347386 691.215782 349.051634 661.082705 336.570109 
C 630.949635 324.088585 598.651032 317.664 566.035235 317.664 
L 566.0352 566.0352 
C 566.0352 566.0352 566.0352 566.0352 566.0352 566.0352 
C 566.0352 566.0352 566.0352 566.0352 566.0352 566.0352 
z
" style="fill: #e15d7e; stroke: #ffffff; stroke-width: 1.5; stroke-linejoin: miter"/>
   </g>
   <g id="matplotlib.axis_1"/>
   <g id="matplotlib.axis_2"/>
   <g id="text_1">
    <!-- 1.0 Human-Human -->
    <g transform="translate(481.26617 374.363706) rotate(-292.5) scale(0.18 -0.18)">
     <defs>
      <path id="DejaVuSans-31" d="M 794 531 
L 1825 531 
L 1825 4091 
L 703 3866 
L 703 4441 
L 1819 4666 
L 2450 4666 
L 2450 531 
L 3481 531 
L 3481 0 
L 794 0 
L 794 531 
z
" transform="scale(0.015625)"/>
      <path id="DejaVuSans-2e" d="M 684 794 
L 1344 794 
L 1344 0 
L 684 0 
L 684 794 
z
" transform="scale(0.015625)"/>
      <path id="DejaVuSans-30" d="M 2034 4250 
Q 1547 4250 1301 3770 
Q 1056 3291 1056 2328 
Q 1056 1369 1301 889 
Q 1547 409 2034 409 
Q 2525 409 2770 889 
Q 3016 1369 3016 2328 
Q 3016 3291 2770 3770 
Q 2525 4250 2034 4250 
z
M 2034 4750 
Q 2819 4750 3233 4129 
Q 3647 3509 3647 2328 
Q 3647 1150 3233 529 
Q 2819 -91 2034 -91 
Q 1250 -91 836 529 
Q 422 1150 422 2328 
Q 422 3509 836 4129 
Q 1250 4750 2034 4750 
z
" transform="scale(0.015625)"/>
      <path id="DejaVuSans-20" transform="scale(0.015625)"/>
      <path id="DejaVuSans-48" d="M 628 4666 
L 1259 4666 
L 1259 2753 
L 3553 2753 
L 3553 4666 
L 4184 4666 
L 4184 0 
L 3553 0 
L 3553 2222 
L 1259 2222 
L 1259 0 
L 628 0 
L 628 4666 
z
" transform="scale(0.015625)"/>
      <path id="DejaVuSans-75" d="M 544 1381 
L 544 3500 
L 1119 3500 
L 1119 1403 
Q 1119 906 1312 657 
Q 1506 409 1894 409 
Q 2359 409 2629 706 
Q 2900 1003 2900 1516 
L 2900 3500 
L 3475 3500 
L 3475 0 
L 2900 0 
L 2900 538 
Q 2691 219 2414 64 
Q 2138 -91 1772 -91 
Q 1169 -91 856 284 
Q 544 659 544 1381 
z
M 1991 3584 
L 1991 3584 
z
" transform="scale(0.015625)"/>
      <path id="DejaVuSans-6d" d="M 3328 2828 
Q 3544 3216 3844 3400 
Q 4144 3584 4550 3584 
Q 5097 3584 5394 3201 
Q 5691 2819 5691 2113 
L 5691 0 
L 5113 0 
L 5113 2094 
Q 5113 2597 4934 2840 
Q 4756 3084 4391 3084 
Q 3944 3084 3684 2787 
Q 3425 2491 3425 1978 
L 3425 0 
L 2847 0 
L 2847 2094 
Q 2847 2600 2669 2842 
Q 2491 3084 2119 3084 
Q 1678 3084 1418 2786 
Q 1159 2488 1159 1978 
L 1159 0 
L 581 0 
L 581 3500 
L 1159 3500 
L 1159 2956 
Q 1356 3278 1631 3431 
Q 1906 3584 2284 3584 
Q 2666 3584 2933 3390 
Q 3200 3197 3328 2828 
z
" transform="scale(0.015625)"/>
      <path id="DejaVuSans-61" d="M 2194 1759 
Q 1497 1759 1228 1600 
Q 959 1441 959 1056 
Q 959 750 1161 570 
Q 1363 391 1709 391 
Q 2188 391 2477 730 
Q 2766 1069 2766 1631 
L 2766 1759 
L 2194 1759 
z
M 3341 1997 
L 3341 0 
L 2766 0 
L 2766 531 
Q 2569 213 2275 61 
Q 1981 -91 1556 -91 
Q 1019 -91 701 211 
Q 384 513 384 1019 
Q 384 1609 779 1909 
Q 1175 2209 1959 2209 
L 2766 2209 
L 2766 2266 
Q 2766 2663 2505 2880 
Q 2244 3097 1772 3097 
Q 1472 3097 1187 3025 
Q 903 2953 641 2809 
L 641 3341 
Q 956 3463 1253 3523 
Q 1550 3584 1831 3584 
Q 2591 3584 2966 3190 
Q 3341 2797 3341 1997 
z
" transform="scale(0.015625)"/>
      <path id="DejaVuSans-6e" d="M 3513 2113 
L 3513 0 
L 2938 0 
L 2938 2094 
Q 2938 2591 2744 2837 
Q 2550 3084 2163 3084 
Q 1697 3084 1428 2787 
Q 1159 2491 1159 1978 
L 1159 0 
L 581 0 
L 581 3500 
L 1159 3500 
L 1159 2956 
Q 1366 3272 1645 3428 
Q 1925 3584 2291 3584 
Q 2894 3584 3203 3211 
Q 3513 2838 3513 2113 
z
" transform="scale(0.015625)"/>
      <path id="DejaVuSans-2d" d="M 313 2009 
L 1997 2009 
L 1997 1497 
L 313 1497 
L 313 2009 
z
" transform="scale(0.015625)"/>
     </defs>
     <use xlink:href="#DejaVuSans-31"/>
     <use xlink:href="#DejaVuSans-2e" transform="translate(63.623047 0)"/>
     <use xlink:href="#DejaVuSans-30" transform="translate(95.410156 0)"/>
     <use xlink:href="#DejaVuSans-20" transform="translate(159.033203 0)"/>
     <use xlink:href="#DejaVuSans-48" transform="translate(190.820312 0)"/>
     <use xlink:href="#DejaVuSans-75" transform="translate(266.015625 0)"/>
     <use xlink:href="#DejaVuSans-6d" transform="translate(329.394531 0)"/>
     <use xlink:href="#DejaVuSans-61" transform="translate(426.806641 0)"/>
     <use xlink:href="#DejaVuSans-6e" transform="translate(488.085938 0)"/>
     <use xlink:href="#DejaVuSans-2d" transform="translate(551.464844 0)"/>
     <use xlink:href="#DejaVuSans-48" transform="translate(587.548828 0)"/>
     <use xlink:href="#DejaVuSans-75" transform="translate(662.744141 0)"/>
     <use xlink:href="#DejaVuSans-6d" transform="translate(726.123047 0)"/>
     <use xlink:href="#DejaVuSans-61" transform="translate(823.535156 0)"/>
     <use xlink:href="#DejaVuSans-6e" transform="translate(884.814453 0)"/>
    </g>
   </g>
   <g id="text_2">
    <!-- 2.0 Human-Object -->
    <g transform="translate(373.238597 491.55233) rotate(-337.5) scale(0.18 -0.18)">
     <defs>
      <path id="DejaVuSans-32" d="M 1228 531 
L 3431 531 
L 3431 0 
L 469 0 
L 469 531 
Q 828 903 1448 1529 
Q 2069 2156 2228 2338 
Q 2531 2678 2651 2914 
Q 2772 3150 2772 3378 
Q 2772 3750 2511 3984 
Q 2250 4219 1831 4219 
Q 1534 4219 1204 4116 
Q 875 4013 500 3803 
L 500 4441 
Q 881 4594 1212 4672 
Q 1544 4750 1819 4750 
Q 2544 4750 2975 4387 
Q 3406 4025 3406 3419 
Q 3406 3131 3298 2873 
Q 3191 2616 2906 2266 
Q 2828 2175 2409 1742 
Q 1991 1309 1228 531 
z
" transform="scale(0.015625)"/>
      <path id="DejaVuSans-4f" d="M 2522 4238 
Q 1834 4238 1429 3725 
Q 1025 3213 1025 2328 
Q 1025 1447 1429 934 
Q 1834 422 2522 422 
Q 3209 422 3611 934 
Q 4013 1447 4013 2328 
Q 4013 3213 3611 3725 
Q 3209 4238 2522 4238 
z
M 2522 4750 
Q 3503 4750 4090 4092 
Q 4678 3434 4678 2328 
Q 4678 1225 4090 567 
Q 3503 -91 2522 -91 
Q 1538 -91 948 565 
Q 359 1222 359 2328 
Q 359 3434 948 4092 
Q 1538 4750 2522 4750 
z
" transform="scale(0.015625)"/>
      <path id="DejaVuSans-62" d="M 3116 1747 
Q 3116 2381 2855 2742 
Q 2594 3103 2138 3103 
Q 1681 3103 1420 2742 
Q 1159 2381 1159 1747 
Q 1159 1113 1420 752 
Q 1681 391 2138 391 
Q 2594 391 2855 752 
Q 3116 1113 3116 1747 
z
M 1159 2969 
Q 1341 3281 1617 3432 
Q 1894 3584 2278 3584 
Q 2916 3584 3314 3078 
Q 3713 2572 3713 1747 
Q 3713 922 3314 415 
Q 2916 -91 2278 -91 
Q 1894 -91 1617 61 
Q 1341 213 1159 525 
L 1159 0 
L 581 0 
L 581 4863 
L 1159 4863 
L 1159 2969 
z
" transform="scale(0.015625)"/>
      <path id="DejaVuSans-6a" d="M 603 3500 
L 1178 3500 
L 1178 -63 
Q 1178 -731 923 -1031 
Q 669 -1331 103 -1331 
L -116 -1331 
L -116 -844 
L 38 -844 
Q 366 -844 484 -692 
Q 603 -541 603 -63 
L 603 3500 
z
M 603 4863 
L 1178 4863 
L 1178 4134 
L 603 4134 
L 603 4863 
z
" transform="scale(0.015625)"/>
      <path id="DejaVuSans-65" d="M 3597 1894 
L 3597 1613 
L 953 1613 
Q 991 1019 1311 708 
Q 1631 397 2203 397 
Q 2534 397 2845 478 
Q 3156 559 3463 722 
L 3463 178 
Q 3153 47 2828 -22 
Q 2503 -91 2169 -91 
Q 1331 -91 842 396 
Q 353 884 353 1716 
Q 353 2575 817 3079 
Q 1281 3584 2069 3584 
Q 2775 3584 3186 3129 
Q 3597 2675 3597 1894 
z
M 3022 2063 
Q 3016 2534 2758 2815 
Q 2500 3097 2075 3097 
Q 1594 3097 1305 2825 
Q 1016 2553 972 2059 
L 3022 2063 
z
" transform="scale(0.015625)"/>
      <path id="DejaVuSans-63" d="M 3122 3366 
L 3122 2828 
Q 2878 2963 2633 3030 
Q 2388 3097 2138 3097 
Q 1578 3097 1268 2742 
Q 959 2388 959 1747 
Q 959 1106 1268 751 
Q 1578 397 2138 397 
Q 2388 397 2633 464 
Q 2878 531 3122 666 
L 3122 134 
Q 2881 22 2623 -34 
Q 2366 -91 2075 -91 
Q 1284 -91 818 406 
Q 353 903 353 1747 
Q 353 2603 823 3093 
Q 1294 3584 2113 3584 
Q 2378 3584 2631 3529 
Q 2884 3475 3122 3366 
z
" transform="scale(0.015625)"/>
      <path id="DejaVuSans-74" d="M 1172 4494 
L 1172 3500 
L 2356 3500 
L 2356 3053 
L 1172 3053 
L 1172 1153 
Q 1172 725 1289 603 
Q 1406 481 1766 481 
L 2356 481 
L 2356 0 
L 1766 0 
Q 1100 0 847 248 
Q 594 497 594 1153 
L 594 3053 
L 172 3053 
L 172 3500 
L 594 3500 
L 594 4494 
L 1172 4494 
z
" transform="scale(0.015625)"/>
     </defs>
     <use xlink:href="#DejaVuSans-32"/>
     <use xlink:href="#DejaVuSans-2e" transform="translate(63.623047 0)"/>
     <use xlink:href="#DejaVuSans-30" transform="translate(95.410156 0)"/>
     <use xlink:href="#DejaVuSans-20" transform="translate(159.033203 0)"/>
     <use xlink:href="#DejaVuSans-48" transform="translate(190.820312 0)"/>
     <use xlink:href="#DejaVuSans-75" transform="translate(266.015625 0)"/>
     <use xlink:href="#DejaVuSans-6d" transform="translate(329.394531 0)"/>
     <use xlink:href="#DejaVuSans-61" transform="translate(426.806641 0)"/>
     <use xlink:href="#DejaVuSans-6e" transform="translate(488.085938 0)"/>
     <use xlink:href="#DejaVuSans-2d" transform="translate(551.464844 0)"/>
     <use xlink:href="#DejaVuSans-4f" transform="translate(590.298828 0)"/>
     <use xlink:href="#DejaVuSans-62" transform="translate(669.009766 0)"/>
     <use xlink:href="#DejaVuSans-6a" transform="translate(732.486328 0)"/>
     <use xlink:href="#DejaVuSans-65" transform="translate(760.269531 0)"/>
     <use xlink:href="#DejaVuSans-63" transform="translate(821.792969 0)"/>
     <use xlink:href="#DejaVuSans-74" transform="translate(876.773438 0)"/>
    </g>
   </g>
   <g id="text_3">
    <!-- 3.0 Human-Animal -->
    <g transform="translate(375.765558 650.223573) rotate(-22.5) scale(0.18 -0.18)">
     <defs>
      <path id="DejaVuSans-33" d="M 2597 2516 
Q 3050 2419 3304 2112 
Q 3559 1806 3559 1356 
Q 3559 666 3084 287 
Q 2609 -91 1734 -91 
Q 1441 -91 1130 -33 
Q 819 25 488 141 
L 488 750 
Q 750 597 1062 519 
Q 1375 441 1716 441 
Q 2309 441 2620 675 
Q 2931 909 2931 1356 
Q 2931 1769 2642 2001 
Q 2353 2234 1838 2234 
L 1294 2234 
L 1294 2753 
L 1863 2753 
Q 2328 2753 2575 2939 
Q 2822 3125 2822 3475 
Q 2822 3834 2567 4026 
Q 2313 4219 1838 4219 
Q 1578 4219 1281 4162 
Q 984 4106 628 3988 
L 628 4550 
Q 988 4650 1302 4700 
Q 1616 4750 1894 4750 
Q 2613 4750 3031 4423 
Q 3450 4097 3450 3541 
Q 3450 3153 3228 2886 
Q 3006 2619 2597 2516 
z
" transform="scale(0.015625)"/>
      <path id="DejaVuSans-41" d="M 2188 4044 
L 1331 1722 
L 3047 1722 
L 2188 4044 
z
M 1831 4666 
L 2547 4666 
L 4325 0 
L 3669 0 
L 3244 1197 
L 1141 1197 
L 716 0 
L 50 0 
L 1831 4666 
z
" transform="scale(0.015625)"/>
      <path id="DejaVuSans-69" d="M 603 3500 
L 1178 3500 
L 1178 0 
L 603 0 
L 603 3500 
z
M 603 4863 
L 1178 4863 
L 1178 4134 
L 603 4134 
L 603 4863 
z
" transform="scale(0.015625)"/>
      <path id="DejaVuSans-6c" d="M 603 4863 
L 1178 4863 
L 1178 0 
L 603 0 
L 603 4863 
z
" transform="scale(0.015625)"/>
     </defs>
     <use xlink:href="#DejaVuSans-33"/>
     <use xlink:href="#DejaVuSans-2e" transform="translate(63.623047 0)"/>
     <use xlink:href="#DejaVuSans-30" transform="translate(95.410156 0)"/>
     <use xlink:href="#DejaVuSans-20" transform="translate(159.033203 0)"/>
     <use xlink:href="#DejaVuSans-48" transform="translate(190.820312 0)"/>
     <use xlink:href="#DejaVuSans-75" transform="translate(266.015625 0)"/>
     <use xlink:href="#DejaVuSans-6d" transform="translate(329.394531 0)"/>
     <use xlink:href="#DejaVuSans-61" transform="translate(426.806641 0)"/>
     <use xlink:href="#DejaVuSans-6e" transform="translate(488.085938 0)"/>
     <use xlink:href="#DejaVuSans-2d" transform="translate(551.464844 0)"/>
     <use xlink:href="#DejaVuSans-41" transform="translate(585.298828 0)"/>
     <use xlink:href="#DejaVuSans-6e" transform="translate(653.707031 0)"/>
     <use xlink:href="#DejaVuSans-69" transform="translate(717.085938 0)"/>
     <use xlink:href="#DejaVuSans-6d" transform="translate(744.869141 0)"/>
     <use xlink:href="#DejaVuSans-61" transform="translate(842.28125 0)"/>
     <use xlink:href="#DejaVuSans-6c" transform="translate(903.560547 0)"/>
    </g>
   </g>
   <g id="text_4">
    <!-- 4.0 Animal-Animal -->
    <g transform="translate(491.527566 758.891566) rotate(-67.5) scale(0.18 -0.18)">
     <defs>
      <path id="DejaVuSans-34" d="M 2419 4116 
L 825 1625 
L 2419 1625 
L 2419 4116 
z
M 2253 4666 
L 3047 4666 
L 3047 1625 
L 3713 1625 
L 3713 1100 
L 3047 1100 
L 3047 0 
L 2419 0 
L 2419 1100 
L 313 1100 
L 313 1709 
L 2253 4666 
z
" transform="scale(0.015625)"/>
     </defs>
     <use xlink:href="#DejaVuSans-34"/>
     <use xlink:href="#DejaVuSans-2e" transform="translate(63.623047 0)"/>
     <use xlink:href="#DejaVuSans-30" transform="translate(95.410156 0)"/>
     <use xlink:href="#DejaVuSans-20" transform="translate(159.033203 0)"/>
     <use xlink:href="#DejaVuSans-41" transform="translate(190.820312 0)"/>
     <use xlink:href="#DejaVuSans-6e" transform="translate(259.228516 0)"/>
     <use xlink:href="#DejaVuSans-69" transform="translate(322.607422 0)"/>
     <use xlink:href="#DejaVuSans-6d" transform="translate(350.390625 0)"/>
     <use xlink:href="#DejaVuSans-61" transform="translate(447.802734 0)"/>
     <use xlink:href="#DejaVuSans-6c" transform="translate(509.082031 0)"/>
     <use xlink:href="#DejaVuSans-2d" transform="translate(536.865234 0)"/>
     <use xlink:href="#DejaVuSans-41" transform="translate(570.699219 0)"/>
     <use xlink:href="#DejaVuSans-6e" transform="translate(639.107422 0)"/>
     <use xlink:href="#DejaVuSans-69" transform="translate(702.486328 0)"/>
     <use xlink:href="#DejaVuSans-6d" transform="translate(730.269531 0)"/>
     <use xlink:href="#DejaVuSans-61" transform="translate(827.681641 0)"/>
     <use xlink:href="#DejaVuSans-6c" transform="translate(888.960938 0)"/>
    </g>
   </g>
   <g id="text_5">
    <!-- 5.0 Animal-Object -->
    <g transform="translate(577.925485 607.719892) rotate(-292.5) scale(0.18 -0.18)">
     <defs>
      <path id="DejaVuSans-35" d="M 691 4666 
L 3169 4666 
L 3169 4134 
L 1269 4134 
L 1269 2991 
Q 1406 3038 1543 3061 
Q 1681 3084 1819 3084 
Q 2600 3084 3056 2656 
Q 3513 2228 3513 1497 
Q 3513 744 3044 326 
Q 2575 -91 1722 -91 
Q 1428 -91 1123 -41 
Q 819 9 494 109 
L 494 744 
Q 775 591 1075 516 
Q 1375 441 1709 441 
Q 2250 441 2565 725 
Q 2881 1009 2881 1497 
Q 2881 1984 2565 2268 
Q 2250 2553 1709 2553 
Q 1456 2553 1204 2497 
Q 953 2441 691 2322 
L 691 4666 
z
" transform="scale(0.015625)"/>
     </defs>
     <use xlink:href="#DejaVuSans-35"/>
     <use xlink:href="#DejaVuSans-2e" transform="translate(63.623047 0)"/>
     <use xlink:href="#DejaVuSans-30" transform="translate(95.410156 0)"/>
     <use xlink:href="#DejaVuSans-20" transform="translate(159.033203 0)"/>
     <use xlink:href="#DejaVuSans-41" transform="translate(190.820312 0)"/>
     <use xlink:href="#DejaVuSans-6e" transform="translate(259.228516 0)"/>
     <use xlink:href="#DejaVuSans-69" transform="translate(322.607422 0)"/>
     <use xlink:href="#DejaVuSans-6d" transform="translate(350.390625 0)"/>
     <use xlink:href="#DejaVuSans-61" transform="translate(447.802734 0)"/>
     <use xlink:href="#DejaVuSans-6c" transform="translate(509.082031 0)"/>
     <use xlink:href="#DejaVuSans-2d" transform="translate(536.865234 0)"/>
     <use xlink:href="#DejaVuSans-4f" transform="translate(575.699219 0)"/>
     <use xlink:href="#DejaVuSans-62" transform="translate(654.410156 0)"/>
     <use xlink:href="#DejaVuSans-6a" transform="translate(717.886719 0)"/>
     <use xlink:href="#DejaVuSans-65" transform="translate(745.669922 0)"/>
     <use xlink:href="#DejaVuSans-63" transform="translate(807.193359 0)"/>
     <use xlink:href="#DejaVuSans-74" transform="translate(862.173828 0)"/>
    </g>
   </g>
   <g id="text_6">
    <!-- 6.0 Object-Object -->
    <g transform="translate(605.608695 587.803181) rotate(-337.5) scale(0.18 -0.18)">
     <defs>
      <path id="DejaVuSans-36" d="M 2113 2584 
Q 1688 2584 1439 2293 
Q 1191 2003 1191 1497 
Q 1191 994 1439 701 
Q 1688 409 2113 409 
Q 2538 409 2786 701 
Q 3034 994 3034 1497 
Q 3034 2003 2786 2293 
Q 2538 2584 2113 2584 
z
M 3366 4563 
L 3366 3988 
Q 3128 4100 2886 4159 
Q 2644 4219 2406 4219 
Q 1781 4219 1451 3797 
Q 1122 3375 1075 2522 
Q 1259 2794 1537 2939 
Q 1816 3084 2150 3084 
Q 2853 3084 3261 2657 
Q 3669 2231 3669 1497 
Q 3669 778 3244 343 
Q 2819 -91 2113 -91 
Q 1303 -91 875 529 
Q 447 1150 447 2328 
Q 447 3434 972 4092 
Q 1497 4750 2381 4750 
Q 2619 4750 2861 4703 
Q 3103 4656 3366 4563 
z
" transform="scale(0.015625)"/>
     </defs>
     <use xlink:href="#DejaVuSans-36"/>
     <use xlink:href="#DejaVuSans-2e" transform="translate(63.623047 0)"/>
     <use xlink:href="#DejaVuSans-30" transform="translate(95.410156 0)"/>
     <use xlink:href="#DejaVuSans-20" transform="translate(159.033203 0)"/>
     <use xlink:href="#DejaVuSans-4f" transform="translate(190.820312 0)"/>
     <use xlink:href="#DejaVuSans-62" transform="translate(269.53125 0)"/>
     <use xlink:href="#DejaVuSans-6a" transform="translate(333.007812 0)"/>
     <use xlink:href="#DejaVuSans-65" transform="translate(360.791016 0)"/>
     <use xlink:href="#DejaVuSans-63" transform="translate(422.314453 0)"/>
     <use xlink:href="#DejaVuSans-74" transform="translate(477.294922 0)"/>
     <use xlink:href="#DejaVuSans-2d" transform="translate(516.503906 0)"/>
     <use xlink:href="#DejaVuSans-4f" transform="translate(555.337891 0)"/>
     <use xlink:href="#DejaVuSans-62" transform="translate(634.048828 0)"/>
     <use xlink:href="#DejaVuSans-6a" transform="translate(697.525391 0)"/>
     <use xlink:href="#DejaVuSans-65" transform="translate(725.308594 0)"/>
     <use xlink:href="#DejaVuSans-63" transform="translate(786.832031 0)"/>
     <use xlink:href="#DejaVuSans-74" transform="translate(841.8125 0)"/>
    </g>
   </g>
   <g id="text_7">
    <!-- 7.0 Human-Self -->
    <g transform="translate(618.183712 549.810704) rotate(-22.5) scale(0.18 -0.18)">
     <defs>
      <path id="DejaVuSans-37" d="M 525 4666 
L 3525 4666 
L 3525 4397 
L 1831 0 
L 1172 0 
L 2766 4134 
L 525 4134 
L 525 4666 
z
" transform="scale(0.015625)"/>
      <path id="DejaVuSans-53" d="M 3425 4513 
L 3425 3897 
Q 3066 4069 2747 4153 
Q 2428 4238 2131 4238 
Q 1616 4238 1336 4038 
Q 1056 3838 1056 3469 
Q 1056 3159 1242 3001 
Q 1428 2844 1947 2747 
L 2328 2669 
Q 3034 2534 3370 2195 
Q 3706 1856 3706 1288 
Q 3706 609 3251 259 
Q 2797 -91 1919 -91 
Q 1588 -91 1214 -16 
Q 841 59 441 206 
L 441 856 
Q 825 641 1194 531 
Q 1563 422 1919 422 
Q 2459 422 2753 634 
Q 3047 847 3047 1241 
Q 3047 1584 2836 1778 
Q 2625 1972 2144 2069 
L 1759 2144 
Q 1053 2284 737 2584 
Q 422 2884 422 3419 
Q 422 4038 858 4394 
Q 1294 4750 2059 4750 
Q 2388 4750 2728 4690 
Q 3069 4631 3425 4513 
z
" transform="scale(0.015625)"/>
      <path id="DejaVuSans-66" d="M 2375 4863 
L 2375 4384 
L 1825 4384 
Q 1516 4384 1395 4259 
Q 1275 4134 1275 3809 
L 1275 3500 
L 2222 3500 
L 2222 3053 
L 1275 3053 
L 1275 0 
L 697 0 
L 697 3053 
L 147 3053 
L 147 3500 
L 697 3500 
L 697 3744 
Q 697 4328 969 4595 
Q 1241 4863 1831 4863 
L 2375 4863 
z
" transform="scale(0.015625)"/>
     </defs>
     <use xlink:href="#DejaVuSans-37"/>
     <use xlink:href="#DejaVuSans-2e" transform="translate(63.623047 0)"/>
     <use xlink:href="#DejaVuSans-30" transform="translate(95.410156 0)"/>
     <use xlink:href="#DejaVuSans-20" transform="translate(159.033203 0)"/>
     <use xlink:href="#DejaVuSans-48" transform="translate(190.820312 0)"/>
     <use xlink:href="#DejaVuSans-75" transform="translate(266.015625 0)"/>
     <use xlink:href="#DejaVuSans-6d" transform="translate(329.394531 0)"/>
     <use xlink:href="#DejaVuSans-61" transform="translate(426.806641 0)"/>
     <use xlink:href="#DejaVuSans-6e" transform="translate(488.085938 0)"/>
     <use xlink:href="#DejaVuSans-2d" transform="translate(551.464844 0)"/>
     <use xlink:href="#DejaVuSans-53" transform="translate(587.548828 0)"/>
     <use xlink:href="#DejaVuSans-65" transform="translate(651.025391 0)"/>
     <use xlink:href="#DejaVuSans-6c" transform="translate(712.548828 0)"/>
     <use xlink:href="#DejaVuSans-66" transform="translate(740.332031 0)"/>
    </g>
   </g>
   <g id="text_8">
    <!-- 8.0 No Interaction -->
    <g transform="translate(587.111642 528.131175) rotate(-67.5) scale(0.18 -0.18)">
     <defs>
      <path id="DejaVuSans-38" d="M 2034 2216 
Q 1584 2216 1326 1975 
Q 1069 1734 1069 1313 
Q 1069 891 1326 650 
Q 1584 409 2034 409 
Q 2484 409 2743 651 
Q 3003 894 3003 1313 
Q 3003 1734 2745 1975 
Q 2488 2216 2034 2216 
z
M 1403 2484 
Q 997 2584 770 2862 
Q 544 3141 544 3541 
Q 544 4100 942 4425 
Q 1341 4750 2034 4750 
Q 2731 4750 3128 4425 
Q 3525 4100 3525 3541 
Q 3525 3141 3298 2862 
Q 3072 2584 2669 2484 
Q 3125 2378 3379 2068 
Q 3634 1759 3634 1313 
Q 3634 634 3220 271 
Q 2806 -91 2034 -91 
Q 1263 -91 848 271 
Q 434 634 434 1313 
Q 434 1759 690 2068 
Q 947 2378 1403 2484 
z
M 1172 3481 
Q 1172 3119 1398 2916 
Q 1625 2713 2034 2713 
Q 2441 2713 2670 2916 
Q 2900 3119 2900 3481 
Q 2900 3844 2670 4047 
Q 2441 4250 2034 4250 
Q 1625 4250 1398 4047 
Q 1172 3844 1172 3481 
z
" transform="scale(0.015625)"/>
      <path id="DejaVuSans-4e" d="M 628 4666 
L 1478 4666 
L 3547 763 
L 3547 4666 
L 4159 4666 
L 4159 0 
L 3309 0 
L 1241 3903 
L 1241 0 
L 628 0 
L 628 4666 
z
" transform="scale(0.015625)"/>
      <path id="DejaVuSans-6f" d="M 1959 3097 
Q 1497 3097 1228 2736 
Q 959 2375 959 1747 
Q 959 1119 1226 758 
Q 1494 397 1959 397 
Q 2419 397 2687 759 
Q 2956 1122 2956 1747 
Q 2956 2369 2687 2733 
Q 2419 3097 1959 3097 
z
M 1959 3584 
Q 2709 3584 3137 3096 
Q 3566 2609 3566 1747 
Q 3566 888 3137 398 
Q 2709 -91 1959 -91 
Q 1206 -91 779 398 
Q 353 888 353 1747 
Q 353 2609 779 3096 
Q 1206 3584 1959 3584 
z
" transform="scale(0.015625)"/>
      <path id="DejaVuSans-49" d="M 628 4666 
L 1259 4666 
L 1259 0 
L 628 0 
L 628 4666 
z
" transform="scale(0.015625)"/>
      <path id="DejaVuSans-72" d="M 2631 2963 
Q 2534 3019 2420 3045 
Q 2306 3072 2169 3072 
Q 1681 3072 1420 2755 
Q 1159 2438 1159 1844 
L 1159 0 
L 581 0 
L 581 3500 
L 1159 3500 
L 1159 2956 
Q 1341 3275 1631 3429 
Q 1922 3584 2338 3584 
Q 2397 3584 2469 3576 
Q 2541 3569 2628 3553 
L 2631 2963 
z
" transform="scale(0.015625)"/>
     </defs>
     <use xlink:href="#DejaVuSans-38"/>
     <use xlink:href="#DejaVuSans-2e" transform="translate(63.623047 0)"/>
     <use xlink:href="#DejaVuSans-30" transform="translate(95.410156 0)"/>
     <use xlink:href="#DejaVuSans-20" transform="translate(159.033203 0)"/>
     <use xlink:href="#DejaVuSans-4e" transform="translate(190.820312 0)"/>
     <use xlink:href="#DejaVuSans-6f" transform="translate(265.625 0)"/>
     <use xlink:href="#DejaVuSans-20" transform="translate(326.806641 0)"/>
     <use xlink:href="#DejaVuSans-49" transform="translate(358.59375 0)"/>
     <use xlink:href="#DejaVuSans-6e" transform="translate(388.085938 0)"/>
     <use xlink:href="#DejaVuSans-74" transform="translate(451.464844 0)"/>
     <use xlink:href="#DejaVuSans-65" transform="translate(490.673828 0)"/>
     <use xlink:href="#DejaVuSans-72" transform="translate(552.197266 0)"/>
     <use xlink:href="#DejaVuSans-61" transform="translate(593.310547 0)"/>
     <use xlink:href="#DejaVuSans-63" transform="translate(654.589844 0)"/>
     <use xlink:href="#DejaVuSans-74" transform="translate(709.570312 0)"/>
     <use xlink:href="#DejaVuSans-69" transform="translate(748.779297 0)"/>
     <use xlink:href="#DejaVuSans-6f" transform="translate(776.5625 0)"/>
     <use xlink:href="#DejaVuSans-6e" transform="translate(837.744141 0)"/>
    </g>
   </g>
   <g id="text_9">
    <!-- 1.1 Cooperative -->
    <g transform="translate(530.587435 96.403099) rotate(-273.75) scale(0.16875 -0.16875)">
     <defs>
      <path id="DejaVuSans-43" d="M 4122 4306 
L 4122 3641 
Q 3803 3938 3442 4084 
Q 3081 4231 2675 4231 
Q 1875 4231 1450 3742 
Q 1025 3253 1025 2328 
Q 1025 1406 1450 917 
Q 1875 428 2675 428 
Q 3081 428 3442 575 
Q 3803 722 4122 1019 
L 4122 359 
Q 3791 134 3420 21 
Q 3050 -91 2638 -91 
Q 1578 -91 968 557 
Q 359 1206 359 2328 
Q 359 3453 968 4101 
Q 1578 4750 2638 4750 
Q 3056 4750 3426 4639 
Q 3797 4528 4122 4306 
z
" transform="scale(0.015625)"/>
      <path id="DejaVuSans-70" d="M 1159 525 
L 1159 -1331 
L 581 -1331 
L 581 3500 
L 1159 3500 
L 1159 2969 
Q 1341 3281 1617 3432 
Q 1894 3584 2278 3584 
Q 2916 3584 3314 3078 
Q 3713 2572 3713 1747 
Q 3713 922 3314 415 
Q 2916 -91 2278 -91 
Q 1894 -91 1617 61 
Q 1341 213 1159 525 
z
M 3116 1747 
Q 3116 2381 2855 2742 
Q 2594 3103 2138 3103 
Q 1681 3103 1420 2742 
Q 1159 2381 1159 1747 
Q 1159 1113 1420 752 
Q 1681 391 2138 391 
Q 2594 391 2855 752 
Q 3116 1113 3116 1747 
z
" transform="scale(0.015625)"/>
      <path id="DejaVuSans-76" d="M 191 3500 
L 800 3500 
L 1894 563 
L 2988 3500 
L 3597 3500 
L 2284 0 
L 1503 0 
L 191 3500 
z
" transform="scale(0.015625)"/>
     </defs>
     <use xlink:href="#DejaVuSans-31"/>
     <use xlink:href="#DejaVuSans-2e" transform="translate(63.623047 0)"/>
     <use xlink:href="#DejaVuSans-31" transform="translate(95.410156 0)"/>
     <use xlink:href="#DejaVuSans-20" transform="translate(159.033203 0)"/>
     <use xlink:href="#DejaVuSans-43" transform="translate(190.820312 0)"/>
     <use xlink:href="#DejaVuSans-6f" transform="translate(260.644531 0)"/>
     <use xlink:href="#DejaVuSans-6f" transform="translate(321.826172 0)"/>
     <use xlink:href="#DejaVuSans-70" transform="translate(383.007812 0)"/>
     <use xlink:href="#DejaVuSans-65" transform="translate(446.484375 0)"/>
     <use xlink:href="#DejaVuSans-72" transform="translate(508.007812 0)"/>
     <use xlink:href="#DejaVuSans-61" transform="translate(549.121094 0)"/>
     <use xlink:href="#DejaVuSans-74" transform="translate(610.400391 0)"/>
     <use xlink:href="#DejaVuSans-69" transform="translate(649.609375 0)"/>
     <use xlink:href="#DejaVuSans-76" transform="translate(677.392578 0)"/>
     <use xlink:href="#DejaVuSans-65" transform="translate(736.572266 0)"/>
    </g>
   </g>
   <g id="text_10">
    <!-- 1.2 Competitive -->
    <g transform="translate(469.578027 104.980411) rotate(-281.25) scale(0.16875 -0.16875)">
     <use xlink:href="#DejaVuSans-31"/>
     <use xlink:href="#DejaVuSans-2e" transform="translate(63.623047 0)"/>
     <use xlink:href="#DejaVuSans-32" transform="translate(95.410156 0)"/>
     <use xlink:href="#DejaVuSans-20" transform="translate(159.033203 0)"/>
     <use xlink:href="#DejaVuSans-43" transform="translate(190.820312 0)"/>
     <use xlink:href="#DejaVuSans-6f" transform="translate(260.644531 0)"/>
     <use xlink:href="#DejaVuSans-6d" transform="translate(321.826172 0)"/>
     <use xlink:href="#DejaVuSans-70" transform="translate(419.238281 0)"/>
     <use xlink:href="#DejaVuSans-65" transform="translate(482.714844 0)"/>
     <use xlink:href="#DejaVuSans-74" transform="translate(544.238281 0)"/>
     <use xlink:href="#DejaVuSans-69" transform="translate(583.447266 0)"/>
     <use xlink:href="#DejaVuSans-74" transform="translate(611.230469 0)"/>
     <use xlink:href="#DejaVuSans-69" transform="translate(650.439453 0)"/>
     <use xlink:href="#DejaVuSans-76" transform="translate(678.222656 0)"/>
     <use xlink:href="#DejaVuSans-65" transform="translate(737.402344 0)"/>
    </g>
   </g>
   <g id="text_11">
    <!-- 1.3 Affective -->
    <g transform="translate(414.799391 134.995216) rotate(-288.75) scale(0.16875 -0.16875)">
     <use xlink:href="#DejaVuSans-31"/>
     <use xlink:href="#DejaVuSans-2e" transform="translate(63.623047 0)"/>
     <use xlink:href="#DejaVuSans-33" transform="translate(95.410156 0)"/>
     <use xlink:href="#DejaVuSans-20" transform="translate(159.033203 0)"/>
     <use xlink:href="#DejaVuSans-41" transform="translate(190.820312 0)"/>
     <use xlink:href="#DejaVuSans-66" transform="translate(255.603516 0)"/>
     <use xlink:href="#DejaVuSans-66" transform="translate(290.808594 0)"/>
     <use xlink:href="#DejaVuSans-65" transform="translate(326.013672 0)"/>
     <use xlink:href="#DejaVuSans-63" transform="translate(387.537109 0)"/>
     <use xlink:href="#DejaVuSans-74" transform="translate(442.517578 0)"/>
     <use xlink:href="#DejaVuSans-69" transform="translate(481.726562 0)"/>
     <use xlink:href="#DejaVuSans-76" transform="translate(509.509766 0)"/>
     <use xlink:href="#DejaVuSans-65" transform="translate(568.689453 0)"/>
    </g>
   </g>
   <g id="text_12">
    <!-- 1.4 Proximity -->
    <g transform="translate(358.838158 156.4094) rotate(-296.25) scale(0.16875 -0.16875)">
     <defs>
      <path id="DejaVuSans-50" d="M 1259 4147 
L 1259 2394 
L 2053 2394 
Q 2494 2394 2734 2622 
Q 2975 2850 2975 3272 
Q 2975 3691 2734 3919 
Q 2494 4147 2053 4147 
L 1259 4147 
z
M 628 4666 
L 2053 4666 
Q 2838 4666 3239 4311 
Q 3641 3956 3641 3272 
Q 3641 2581 3239 2228 
Q 2838 1875 2053 1875 
L 1259 1875 
L 1259 0 
L 628 0 
L 628 4666 
z
" transform="scale(0.015625)"/>
      <path id="DejaVuSans-78" d="M 3513 3500 
L 2247 1797 
L 3578 0 
L 2900 0 
L 1881 1375 
L 863 0 
L 184 0 
L 1544 1831 
L 300 3500 
L 978 3500 
L 1906 2253 
L 2834 3500 
L 3513 3500 
z
" transform="scale(0.015625)"/>
      <path id="DejaVuSans-79" d="M 2059 -325 
Q 1816 -950 1584 -1140 
Q 1353 -1331 966 -1331 
L 506 -1331 
L 506 -850 
L 844 -850 
Q 1081 -850 1212 -737 
Q 1344 -625 1503 -206 
L 1606 56 
L 191 3500 
L 800 3500 
L 1894 763 
L 2988 3500 
L 3597 3500 
L 2059 -325 
z
" transform="scale(0.015625)"/>
     </defs>
     <use xlink:href="#DejaVuSans-31"/>
     <use xlink:href="#DejaVuSans-2e" transform="translate(63.623047 0)"/>
     <use xlink:href="#DejaVuSans-34" transform="translate(95.410156 0)"/>
     <use xlink:href="#DejaVuSans-20" transform="translate(159.033203 0)"/>
     <use xlink:href="#DejaVuSans-50" transform="translate(190.820312 0)"/>
     <use xlink:href="#DejaVuSans-72" transform="translate(249.373047 0)"/>
     <use xlink:href="#DejaVuSans-6f" transform="translate(288.236328 0)"/>
     <use xlink:href="#DejaVuSans-78" transform="translate(346.292969 0)"/>
     <use xlink:href="#DejaVuSans-69" transform="translate(405.472656 0)"/>
     <use xlink:href="#DejaVuSans-6d" transform="translate(433.255859 0)"/>
     <use xlink:href="#DejaVuSans-69" transform="translate(530.667969 0)"/>
     <use xlink:href="#DejaVuSans-74" transform="translate(558.451172 0)"/>
     <use xlink:href="#DejaVuSans-79" transform="translate(597.660156 0)"/>
    </g>
   </g>
   <g id="text_13">
    <!-- 1.5 Observation -->
    <g transform="translate(300.44353 176.930683) rotate(-303.75) scale(0.16875 -0.16875)">
     <defs>
      <path id="DejaVuSans-73" d="M 2834 3397 
L 2834 2853 
Q 2591 2978 2328 3040 
Q 2066 3103 1784 3103 
Q 1356 3103 1142 2972 
Q 928 2841 928 2578 
Q 928 2378 1081 2264 
Q 1234 2150 1697 2047 
L 1894 2003 
Q 2506 1872 2764 1633 
Q 3022 1394 3022 966 
Q 3022 478 2636 193 
Q 2250 -91 1575 -91 
Q 1294 -91 989 -36 
Q 684 19 347 128 
L 347 722 
Q 666 556 975 473 
Q 1284 391 1588 391 
Q 1994 391 2212 530 
Q 2431 669 2431 922 
Q 2431 1156 2273 1281 
Q 2116 1406 1581 1522 
L 1381 1569 
Q 847 1681 609 1914 
Q 372 2147 372 2553 
Q 372 3047 722 3315 
Q 1072 3584 1716 3584 
Q 2034 3584 2315 3537 
Q 2597 3491 2834 3397 
z
" transform="scale(0.015625)"/>
     </defs>
     <use xlink:href="#DejaVuSans-31"/>
     <use xlink:href="#DejaVuSans-2e" transform="translate(63.623047 0)"/>
     <use xlink:href="#DejaVuSans-35" transform="translate(95.410156 0)"/>
     <use xlink:href="#DejaVuSans-20" transform="translate(159.033203 0)"/>
     <use xlink:href="#DejaVuSans-4f" transform="translate(190.820312 0)"/>
     <use xlink:href="#DejaVuSans-62" transform="translate(269.53125 0)"/>
     <use xlink:href="#DejaVuSans-73" transform="translate(333.007812 0)"/>
     <use xlink:href="#DejaVuSans-65" transform="translate(385.107422 0)"/>
     <use xlink:href="#DejaVuSans-72" transform="translate(446.630859 0)"/>
     <use xlink:href="#DejaVuSans-76" transform="translate(487.744141 0)"/>
     <use xlink:href="#DejaVuSans-61" transform="translate(546.923828 0)"/>
     <use xlink:href="#DejaVuSans-74" transform="translate(608.203125 0)"/>
     <use xlink:href="#DejaVuSans-69" transform="translate(647.412109 0)"/>
     <use xlink:href="#DejaVuSans-6f" transform="translate(675.195312 0)"/>
     <use xlink:href="#DejaVuSans-6e" transform="translate(736.376953 0)"/>
    </g>
   </g>
   <g id="text_14">
    <!-- 1.6 Spatial -->
    <g transform="translate(266.65082 231.715063) rotate(-311.25) scale(0.16875 -0.16875)">
     <use xlink:href="#DejaVuSans-31"/>
     <use xlink:href="#DejaVuSans-2e" transform="translate(63.623047 0)"/>
     <use xlink:href="#DejaVuSans-36" transform="translate(95.410156 0)"/>
     <use xlink:href="#DejaVuSans-20" transform="translate(159.033203 0)"/>
     <use xlink:href="#DejaVuSans-53" transform="translate(190.820312 0)"/>
     <use xlink:href="#DejaVuSans-70" transform="translate(254.296875 0)"/>
     <use xlink:href="#DejaVuSans-61" transform="translate(317.773438 0)"/>
     <use xlink:href="#DejaVuSans-74" transform="translate(379.052734 0)"/>
     <use xlink:href="#DejaVuSans-69" transform="translate(418.261719 0)"/>
     <use xlink:href="#DejaVuSans-61" transform="translate(446.044922 0)"/>
     <use xlink:href="#DejaVuSans-6c" transform="translate(507.324219 0)"/>
    </g>
   </g>
   <g id="text_15">
    <!-- 2.1 Active Manipulat -->
    <g transform="translate(179.530121 255.264213) rotate(-320.625) scale(0.18 -0.18)">
     <defs>
      <path id="DejaVuSans-4d" d="M 628 4666 
L 1569 4666 
L 2759 1491 
L 3956 4666 
L 4897 4666 
L 4897 0 
L 4281 0 
L 4281 4097 
L 3078 897 
L 2444 897 
L 1241 4097 
L 1241 0 
L 628 0 
L 628 4666 
z
" transform="scale(0.015625)"/>
     </defs>
     <use xlink:href="#DejaVuSans-32"/>
     <use xlink:href="#DejaVuSans-2e" transform="translate(63.623047 0)"/>
     <use xlink:href="#DejaVuSans-31" transform="translate(95.410156 0)"/>
     <use xlink:href="#DejaVuSans-20" transform="translate(159.033203 0)"/>
     <use xlink:href="#DejaVuSans-41" transform="translate(190.820312 0)"/>
     <use xlink:href="#DejaVuSans-63" transform="translate(257.478516 0)"/>
     <use xlink:href="#DejaVuSans-74" transform="translate(312.458984 0)"/>
     <use xlink:href="#DejaVuSans-69" transform="translate(351.667969 0)"/>
     <use xlink:href="#DejaVuSans-76" transform="translate(379.451172 0)"/>
     <use xlink:href="#DejaVuSans-65" transform="translate(438.630859 0)"/>
     <use xlink:href="#DejaVuSans-20" transform="translate(500.154297 0)"/>
     <use xlink:href="#DejaVuSans-4d" transform="translate(531.941406 0)"/>
     <use xlink:href="#DejaVuSans-61" transform="translate(618.220703 0)"/>
     <use xlink:href="#DejaVuSans-6e" transform="translate(679.5 0)"/>
     <use xlink:href="#DejaVuSans-69" transform="translate(742.878906 0)"/>
     <use xlink:href="#DejaVuSans-70" transform="translate(770.662109 0)"/>
     <use xlink:href="#DejaVuSans-75" transform="translate(834.138672 0)"/>
     <use xlink:href="#DejaVuSans-6c" transform="translate(897.517578 0)"/>
     <use xlink:href="#DejaVuSans-61" transform="translate(925.300781 0)"/>
     <use xlink:href="#DejaVuSans-74" transform="translate(986.580078 0)"/>
    </g>
   </g>
   <g id="text_16">
    <!-- 2.2 Proximity -->
    <g transform="translate(155.613162 352.2921) rotate(-331.875) scale(0.18 -0.18)">
     <use xlink:href="#DejaVuSans-32"/>
     <use xlink:href="#DejaVuSans-2e" transform="translate(63.623047 0)"/>
     <use xlink:href="#DejaVuSans-32" transform="translate(95.410156 0)"/>
     <use xlink:href="#DejaVuSans-20" transform="translate(159.033203 0)"/>
     <use xlink:href="#DejaVuSans-50" transform="translate(190.820312 0)"/>
     <use xlink:href="#DejaVuSans-72" transform="translate(249.373047 0)"/>
     <use xlink:href="#DejaVuSans-6f" transform="translate(288.236328 0)"/>
     <use xlink:href="#DejaVuSans-78" transform="translate(346.292969 0)"/>
     <use xlink:href="#DejaVuSans-69" transform="translate(405.472656 0)"/>
     <use xlink:href="#DejaVuSans-6d" transform="translate(433.255859 0)"/>
     <use xlink:href="#DejaVuSans-69" transform="translate(530.667969 0)"/>
     <use xlink:href="#DejaVuSans-74" transform="translate(558.451172 0)"/>
     <use xlink:href="#DejaVuSans-79" transform="translate(597.660156 0)"/>
    </g>
   </g>
   <g id="text_17">
    <!-- 2.3 Passive -->
    <g transform="translate(130.089611 438.983007) rotate(-343.125) scale(0.18 -0.18)">
     <use xlink:href="#DejaVuSans-32"/>
     <use xlink:href="#DejaVuSans-2e" transform="translate(63.623047 0)"/>
     <use xlink:href="#DejaVuSans-33" transform="translate(95.410156 0)"/>
     <use xlink:href="#DejaVuSans-20" transform="translate(159.033203 0)"/>
     <use xlink:href="#DejaVuSans-50" transform="translate(190.820312 0)"/>
     <use xlink:href="#DejaVuSans-61" transform="translate(246.623047 0)"/>
     <use xlink:href="#DejaVuSans-73" transform="translate(307.902344 0)"/>
     <use xlink:href="#DejaVuSans-73" transform="translate(360.001953 0)"/>
     <use xlink:href="#DejaVuSans-69" transform="translate(412.101562 0)"/>
     <use xlink:href="#DejaVuSans-76" transform="translate(439.884766 0)"/>
     <use xlink:href="#DejaVuSans-65" transform="translate(499.064453 0)"/>
    </g>
   </g>
   <g id="text_18">
    <!-- 2.4 Spatial -->
    <g transform="translate(115.960677 526.69775) rotate(-354.375) scale(0.18 -0.18)">
     <use xlink:href="#DejaVuSans-32"/>
     <use xlink:href="#DejaVuSans-2e" transform="translate(63.623047 0)"/>
     <use xlink:href="#DejaVuSans-34" transform="translate(95.410156 0)"/>
     <use xlink:href="#DejaVuSans-20" transform="translate(159.033203 0)"/>
     <use xlink:href="#DejaVuSans-53" transform="translate(190.820312 0)"/>
     <use xlink:href="#DejaVuSans-70" transform="translate(254.296875 0)"/>
     <use xlink:href="#DejaVuSans-61" transform="translate(317.773438 0)"/>
     <use xlink:href="#DejaVuSans-74" transform="translate(379.052734 0)"/>
     <use xlink:href="#DejaVuSans-69" transform="translate(418.261719 0)"/>
     <use xlink:href="#DejaVuSans-61" transform="translate(446.044922 0)"/>
     <use xlink:href="#DejaVuSans-6c" transform="translate(507.324219 0)"/>
    </g>
   </g>
   <g id="text_19">
    <!-- 3.1 Direct Interacti -->
    <g transform="translate(80.676702 618.829799) rotate(-5.625) scale(0.18 -0.18)">
     <defs>
      <path id="DejaVuSans-44" d="M 1259 4147 
L 1259 519 
L 2022 519 
Q 2988 519 3436 956 
Q 3884 1394 3884 2338 
Q 3884 3275 3436 3711 
Q 2988 4147 2022 4147 
L 1259 4147 
z
M 628 4666 
L 1925 4666 
Q 3281 4666 3915 4102 
Q 4550 3538 4550 2338 
Q 4550 1131 3912 565 
Q 3275 0 1925 0 
L 628 0 
L 628 4666 
z
" transform="scale(0.015625)"/>
     </defs>
     <use xlink:href="#DejaVuSans-33"/>
     <use xlink:href="#DejaVuSans-2e" transform="translate(63.623047 0)"/>
     <use xlink:href="#DejaVuSans-31" transform="translate(95.410156 0)"/>
     <use xlink:href="#DejaVuSans-20" transform="translate(159.033203 0)"/>
     <use xlink:href="#DejaVuSans-44" transform="translate(190.820312 0)"/>
     <use xlink:href="#DejaVuSans-69" transform="translate(267.822266 0)"/>
     <use xlink:href="#DejaVuSans-72" transform="translate(295.605469 0)"/>
     <use xlink:href="#DejaVuSans-65" transform="translate(334.46875 0)"/>
     <use xlink:href="#DejaVuSans-63" transform="translate(395.992188 0)"/>
     <use xlink:href="#DejaVuSans-74" transform="translate(450.972656 0)"/>
     <use xlink:href="#DejaVuSans-20" transform="translate(490.181641 0)"/>
     <use xlink:href="#DejaVuSans-49" transform="translate(521.96875 0)"/>
     <use xlink:href="#DejaVuSans-6e" transform="translate(551.460938 0)"/>
     <use xlink:href="#DejaVuSans-74" transform="translate(614.839844 0)"/>
     <use xlink:href="#DejaVuSans-65" transform="translate(654.048828 0)"/>
     <use xlink:href="#DejaVuSans-72" transform="translate(715.572266 0)"/>
     <use xlink:href="#DejaVuSans-61" transform="translate(756.685547 0)"/>
     <use xlink:href="#DejaVuSans-63" transform="translate(817.964844 0)"/>
     <use xlink:href="#DejaVuSans-74" transform="translate(872.945312 0)"/>
     <use xlink:href="#DejaVuSans-69" transform="translate(912.154297 0)"/>
    </g>
   </g>
   <g id="text_20">
    <!-- 3.2 Observation -->
    <g transform="translate(112.373328 708.842478) rotate(-16.875) scale(0.18 -0.18)">
     <use xlink:href="#DejaVuSans-33"/>
     <use xlink:href="#DejaVuSans-2e" transform="translate(63.623047 0)"/>
     <use xlink:href="#DejaVuSans-32" transform="translate(95.410156 0)"/>
     <use xlink:href="#DejaVuSans-20" transform="translate(159.033203 0)"/>
     <use xlink:href="#DejaVuSans-4f" transform="translate(190.820312 0)"/>
     <use xlink:href="#DejaVuSans-62" transform="translate(269.53125 0)"/>
     <use xlink:href="#DejaVuSans-73" transform="translate(333.007812 0)"/>
     <use xlink:href="#DejaVuSans-65" transform="translate(385.107422 0)"/>
     <use xlink:href="#DejaVuSans-72" transform="translate(446.630859 0)"/>
     <use xlink:href="#DejaVuSans-76" transform="translate(487.744141 0)"/>
     <use xlink:href="#DejaVuSans-61" transform="translate(546.923828 0)"/>
     <use xlink:href="#DejaVuSans-74" transform="translate(608.203125 0)"/>
     <use xlink:href="#DejaVuSans-69" transform="translate(647.412109 0)"/>
     <use xlink:href="#DejaVuSans-6f" transform="translate(675.195312 0)"/>
     <use xlink:href="#DejaVuSans-6e" transform="translate(736.376953 0)"/>
    </g>
   </g>
   <g id="text_21">
    <!-- 3.3 Proximity -->
    <g transform="translate(160.296047 788.539308) rotate(-28.125) scale(0.18 -0.18)">
     <use xlink:href="#DejaVuSans-33"/>
     <use xlink:href="#DejaVuSans-2e" transform="translate(63.623047 0)"/>
     <use xlink:href="#DejaVuSans-33" transform="translate(95.410156 0)"/>
     <use xlink:href="#DejaVuSans-20" transform="translate(159.033203 0)"/>
     <use xlink:href="#DejaVuSans-50" transform="translate(190.820312 0)"/>
     <use xlink:href="#DejaVuSans-72" transform="translate(249.373047 0)"/>
     <use xlink:href="#DejaVuSans-6f" transform="translate(288.236328 0)"/>
     <use xlink:href="#DejaVuSans-78" transform="translate(346.292969 0)"/>
     <use xlink:href="#DejaVuSans-69" transform="translate(405.472656 0)"/>
     <use xlink:href="#DejaVuSans-6d" transform="translate(433.255859 0)"/>
     <use xlink:href="#DejaVuSans-69" transform="translate(530.667969 0)"/>
     <use xlink:href="#DejaVuSans-74" transform="translate(558.451172 0)"/>
     <use xlink:href="#DejaVuSans-79" transform="translate(597.660156 0)"/>
    </g>
   </g>
   <g id="text_22">
    <!-- 3.4 Spatial -->
    <g transform="translate(219.96864 856.470122) rotate(-39.375) scale(0.18 -0.18)">
     <use xlink:href="#DejaVuSans-33"/>
     <use xlink:href="#DejaVuSans-2e" transform="translate(63.623047 0)"/>
     <use xlink:href="#DejaVuSans-34" transform="translate(95.410156 0)"/>
     <use xlink:href="#DejaVuSans-20" transform="translate(159.033203 0)"/>
     <use xlink:href="#DejaVuSans-53" transform="translate(190.820312 0)"/>
     <use xlink:href="#DejaVuSans-70" transform="translate(254.296875 0)"/>
     <use xlink:href="#DejaVuSans-61" transform="translate(317.773438 0)"/>
     <use xlink:href="#DejaVuSans-74" transform="translate(379.052734 0)"/>
     <use xlink:href="#DejaVuSans-69" transform="translate(418.261719 0)"/>
     <use xlink:href="#DejaVuSans-61" transform="translate(446.044922 0)"/>
     <use xlink:href="#DejaVuSans-6c" transform="translate(507.324219 0)"/>
    </g>
   </g>
   <g id="text_23">
    <!-- 4.1 Proximity -->
    <g transform="translate(276.329775 926.8719) rotate(-50.625) scale(0.18 -0.18)">
     <use xlink:href="#DejaVuSans-34"/>
     <use xlink:href="#DejaVuSans-2e" transform="translate(63.623047 0)"/>
     <use xlink:href="#DejaVuSans-31" transform="translate(95.410156 0)"/>
     <use xlink:href="#DejaVuSans-20" transform="translate(159.033203 0)"/>
     <use xlink:href="#DejaVuSans-50" transform="translate(190.820312 0)"/>
     <use xlink:href="#DejaVuSans-72" transform="translate(249.373047 0)"/>
     <use xlink:href="#DejaVuSans-6f" transform="translate(288.236328 0)"/>
     <use xlink:href="#DejaVuSans-78" transform="translate(346.292969 0)"/>
     <use xlink:href="#DejaVuSans-69" transform="translate(405.472656 0)"/>
     <use xlink:href="#DejaVuSans-6d" transform="translate(433.255859 0)"/>
     <use xlink:href="#DejaVuSans-69" transform="translate(530.667969 0)"/>
     <use xlink:href="#DejaVuSans-74" transform="translate(558.451172 0)"/>
     <use xlink:href="#DejaVuSans-79" transform="translate(597.660156 0)"/>
    </g>
   </g>
   <g id="text_24">
    <!-- 4.2 Antagonistic -->
    <g transform="translate(345.667613 988.8505) rotate(-61.875) scale(0.18 -0.18)">
     <defs>
      <path id="DejaVuSans-67" d="M 2906 1791 
Q 2906 2416 2648 2759 
Q 2391 3103 1925 3103 
Q 1463 3103 1205 2759 
Q 947 2416 947 1791 
Q 947 1169 1205 825 
Q 1463 481 1925 481 
Q 2391 481 2648 825 
Q 2906 1169 2906 1791 
z
M 3481 434 
Q 3481 -459 3084 -895 
Q 2688 -1331 1869 -1331 
Q 1566 -1331 1297 -1286 
Q 1028 -1241 775 -1147 
L 775 -588 
Q 1028 -725 1275 -790 
Q 1522 -856 1778 -856 
Q 2344 -856 2625 -561 
Q 2906 -266 2906 331 
L 2906 616 
Q 2728 306 2450 153 
Q 2172 0 1784 0 
Q 1141 0 747 490 
Q 353 981 353 1791 
Q 353 2603 747 3093 
Q 1141 3584 1784 3584 
Q 2172 3584 2450 3431 
Q 2728 3278 2906 2969 
L 2906 3500 
L 3481 3500 
L 3481 434 
z
" transform="scale(0.015625)"/>
     </defs>
     <use xlink:href="#DejaVuSans-34"/>
     <use xlink:href="#DejaVuSans-2e" transform="translate(63.623047 0)"/>
     <use xlink:href="#DejaVuSans-32" transform="translate(95.410156 0)"/>
     <use xlink:href="#DejaVuSans-20" transform="translate(159.033203 0)"/>
     <use xlink:href="#DejaVuSans-41" transform="translate(190.820312 0)"/>
     <use xlink:href="#DejaVuSans-6e" transform="translate(259.228516 0)"/>
     <use xlink:href="#DejaVuSans-74" transform="translate(322.607422 0)"/>
     <use xlink:href="#DejaVuSans-61" transform="translate(361.816406 0)"/>
     <use xlink:href="#DejaVuSans-67" transform="translate(423.095703 0)"/>
     <use xlink:href="#DejaVuSans-6f" transform="translate(486.572266 0)"/>
     <use xlink:href="#DejaVuSans-6e" transform="translate(547.753906 0)"/>
     <use xlink:href="#DejaVuSans-69" transform="translate(611.132812 0)"/>
     <use xlink:href="#DejaVuSans-73" transform="translate(638.916016 0)"/>
     <use xlink:href="#DejaVuSans-74" transform="translate(691.015625 0)"/>
     <use xlink:href="#DejaVuSans-69" transform="translate(730.224609 0)"/>
     <use xlink:href="#DejaVuSans-63" transform="translate(758.007812 0)"/>
    </g>
   </g>
   <g id="text_25">
    <!-- 4.3 Observation -->
    <g transform="translate(432.73428 1022.58077) rotate(-73.125031) scale(0.18 -0.18)">
     <use xlink:href="#DejaVuSans-34"/>
     <use xlink:href="#DejaVuSans-2e" transform="translate(63.623047 0)"/>
     <use xlink:href="#DejaVuSans-33" transform="translate(95.410156 0)"/>
     <use xlink:href="#DejaVuSans-20" transform="translate(159.033203 0)"/>
     <use xlink:href="#DejaVuSans-4f" transform="translate(190.820312 0)"/>
     <use xlink:href="#DejaVuSans-62" transform="translate(269.53125 0)"/>
     <use xlink:href="#DejaVuSans-73" transform="translate(333.007812 0)"/>
     <use xlink:href="#DejaVuSans-65" transform="translate(385.107422 0)"/>
     <use xlink:href="#DejaVuSans-72" transform="translate(446.630859 0)"/>
     <use xlink:href="#DejaVuSans-76" transform="translate(487.744141 0)"/>
     <use xlink:href="#DejaVuSans-61" transform="translate(546.923828 0)"/>
     <use xlink:href="#DejaVuSans-74" transform="translate(608.203125 0)"/>
     <use xlink:href="#DejaVuSans-69" transform="translate(647.412109 0)"/>
     <use xlink:href="#DejaVuSans-6f" transform="translate(675.195312 0)"/>
     <use xlink:href="#DejaVuSans-6e" transform="translate(736.376953 0)"/>
    </g>
   </g>
   <g id="text_26">
    <!-- 4.4 Spatial -->
    <g transform="translate(526.697938 1016.109723) rotate(-84.375031) scale(0.18 -0.18)">
     <use xlink:href="#DejaVuSans-34"/>
     <use xlink:href="#DejaVuSans-2e" transform="translate(63.623047 0)"/>
     <use xlink:href="#DejaVuSans-34" transform="translate(95.410156 0)"/>
     <use xlink:href="#DejaVuSans-20" transform="translate(159.033203 0)"/>
     <use xlink:href="#DejaVuSans-53" transform="translate(190.820312 0)"/>
     <use xlink:href="#DejaVuSans-70" transform="translate(254.296875 0)"/>
     <use xlink:href="#DejaVuSans-61" transform="translate(317.773438 0)"/>
     <use xlink:href="#DejaVuSans-74" transform="translate(379.052734 0)"/>
     <use xlink:href="#DejaVuSans-69" transform="translate(418.261719 0)"/>
     <use xlink:href="#DejaVuSans-61" transform="translate(446.044922 0)"/>
     <use xlink:href="#DejaVuSans-6c" transform="translate(507.324219 0)"/>
    </g>
   </g>
   <g id="text_27">
    <!-- 5.1 Interaction -->
    <g transform="translate(605.176999 901.397506) rotate(-277.500031) scale(0.18 -0.18)">
     <use xlink:href="#DejaVuSans-35"/>
     <use xlink:href="#DejaVuSans-2e" transform="translate(63.623047 0)"/>
     <use xlink:href="#DejaVuSans-31" transform="translate(95.410156 0)"/>
     <use xlink:href="#DejaVuSans-20" transform="translate(159.033203 0)"/>
     <use xlink:href="#DejaVuSans-49" transform="translate(190.820312 0)"/>
     <use xlink:href="#DejaVuSans-6e" transform="translate(220.3125 0)"/>
     <use xlink:href="#DejaVuSans-74" transform="translate(283.691406 0)"/>
     <use xlink:href="#DejaVuSans-65" transform="translate(322.900391 0)"/>
     <use xlink:href="#DejaVuSans-72" transform="translate(384.423828 0)"/>
     <use xlink:href="#DejaVuSans-61" transform="translate(425.537109 0)"/>
     <use xlink:href="#DejaVuSans-63" transform="translate(486.816406 0)"/>
     <use xlink:href="#DejaVuSans-74" transform="translate(541.796875 0)"/>
     <use xlink:href="#DejaVuSans-69" transform="translate(581.005859 0)"/>
     <use xlink:href="#DejaVuSans-6f" transform="translate(608.789062 0)"/>
     <use xlink:href="#DejaVuSans-6e" transform="translate(669.970703 0)"/>
    </g>
   </g>
   <g id="text_28">
    <!-- 5.2 Proximity -->
    <g transform="translate(693.276717 886.201867) rotate(-292.500031) scale(0.18 -0.18)">
     <use xlink:href="#DejaVuSans-35"/>
     <use xlink:href="#DejaVuSans-2e" transform="translate(63.623047 0)"/>
     <use xlink:href="#DejaVuSans-32" transform="translate(95.410156 0)"/>
     <use xlink:href="#DejaVuSans-20" transform="translate(159.033203 0)"/>
     <use xlink:href="#DejaVuSans-50" transform="translate(190.820312 0)"/>
     <use xlink:href="#DejaVuSans-72" transform="translate(249.373047 0)"/>
     <use xlink:href="#DejaVuSans-6f" transform="translate(288.236328 0)"/>
     <use xlink:href="#DejaVuSans-78" transform="translate(346.292969 0)"/>
     <use xlink:href="#DejaVuSans-69" transform="translate(405.472656 0)"/>
     <use xlink:href="#DejaVuSans-6d" transform="translate(433.255859 0)"/>
     <use xlink:href="#DejaVuSans-69" transform="translate(530.667969 0)"/>
     <use xlink:href="#DejaVuSans-74" transform="translate(558.451172 0)"/>
     <use xlink:href="#DejaVuSans-79" transform="translate(597.660156 0)"/>
    </g>
   </g>
   <g id="text_29">
    <!-- 5.3 Spatial -->
    <g transform="translate(778.475093 851.050877) rotate(-307.500031) scale(0.18 -0.18)">
     <use xlink:href="#DejaVuSans-35"/>
     <use xlink:href="#DejaVuSans-2e" transform="translate(63.623047 0)"/>
     <use xlink:href="#DejaVuSans-33" transform="translate(95.410156 0)"/>
     <use xlink:href="#DejaVuSans-20" transform="translate(159.033203 0)"/>
     <use xlink:href="#DejaVuSans-53" transform="translate(190.820312 0)"/>
     <use xlink:href="#DejaVuSans-70" transform="translate(254.296875 0)"/>
     <use xlink:href="#DejaVuSans-61" transform="translate(317.773438 0)"/>
     <use xlink:href="#DejaVuSans-74" transform="translate(379.052734 0)"/>
     <use xlink:href="#DejaVuSans-69" transform="translate(418.261719 0)"/>
     <use xlink:href="#DejaVuSans-61" transform="translate(446.044922 0)"/>
     <use xlink:href="#DejaVuSans-6c" transform="translate(507.324219 0)"/>
    </g>
   </g>
   <g id="text_30">
    <!-- 6.1 Spatial/Movement -->
    <g transform="translate(804.776818 755.488292) rotate(-322.500061) scale(0.18 -0.18)">
     <defs>
      <path id="DejaVuSans-2f" d="M 1625 4666 
L 2156 4666 
L 531 -594 
L 0 -594 
L 1625 4666 
z
" transform="scale(0.015625)"/>
     </defs>
     <use xlink:href="#DejaVuSans-36"/>
     <use xlink:href="#DejaVuSans-2e" transform="translate(63.623047 0)"/>
     <use xlink:href="#DejaVuSans-31" transform="translate(95.410156 0)"/>
     <use xlink:href="#DejaVuSans-20" transform="translate(159.033203 0)"/>
     <use xlink:href="#DejaVuSans-53" transform="translate(190.820312 0)"/>
     <use xlink:href="#DejaVuSans-70" transform="translate(254.296875 0)"/>
     <use xlink:href="#DejaVuSans-61" transform="translate(317.773438 0)"/>
     <use xlink:href="#DejaVuSans-74" transform="translate(379.052734 0)"/>
     <use xlink:href="#DejaVuSans-69" transform="translate(418.261719 0)"/>
     <use xlink:href="#DejaVuSans-61" transform="translate(446.044922 0)"/>
     <use xlink:href="#DejaVuSans-6c" transform="translate(507.324219 0)"/>
     <use xlink:href="#DejaVuSans-2f" transform="translate(535.107422 0)"/>
     <use xlink:href="#DejaVuSans-4d" transform="translate(568.798828 0)"/>
     <use xlink:href="#DejaVuSans-6f" transform="translate(655.078125 0)"/>
     <use xlink:href="#DejaVuSans-76" transform="translate(716.259766 0)"/>
     <use xlink:href="#DejaVuSans-65" transform="translate(775.439453 0)"/>
     <use xlink:href="#DejaVuSans-6d" transform="translate(836.962891 0)"/>
     <use xlink:href="#DejaVuSans-65" transform="translate(934.375 0)"/>
     <use xlink:href="#DejaVuSans-6e" transform="translate(995.898438 0)"/>
     <use xlink:href="#DejaVuSans-74" transform="translate(1059.277344 0)"/>
    </g>
   </g>
   <g id="text_31">
    <!-- 6.2 Proximity -->
    <g transform="translate(882.400611 702.453793) rotate(-337.500061) scale(0.18 -0.18)">
     <use xlink:href="#DejaVuSans-36"/>
     <use xlink:href="#DejaVuSans-2e" transform="translate(63.623047 0)"/>
     <use xlink:href="#DejaVuSans-32" transform="translate(95.410156 0)"/>
     <use xlink:href="#DejaVuSans-20" transform="translate(159.033203 0)"/>
     <use xlink:href="#DejaVuSans-50" transform="translate(190.820312 0)"/>
     <use xlink:href="#DejaVuSans-72" transform="translate(249.373047 0)"/>
     <use xlink:href="#DejaVuSans-6f" transform="translate(288.236328 0)"/>
     <use xlink:href="#DejaVuSans-78" transform="translate(346.292969 0)"/>
     <use xlink:href="#DejaVuSans-69" transform="translate(405.472656 0)"/>
     <use xlink:href="#DejaVuSans-6d" transform="translate(433.255859 0)"/>
     <use xlink:href="#DejaVuSans-69" transform="translate(530.667969 0)"/>
     <use xlink:href="#DejaVuSans-74" transform="translate(558.451172 0)"/>
     <use xlink:href="#DejaVuSans-79" transform="translate(597.660156 0)"/>
    </g>
   </g>
   <g id="text_32">
    <!-- 6.3 Spatial -->
    <g transform="translate(917.789418 617.353937) rotate(-352.500061) scale(0.18 -0.18)">
     <use xlink:href="#DejaVuSans-36"/>
     <use xlink:href="#DejaVuSans-2e" transform="translate(63.623047 0)"/>
     <use xlink:href="#DejaVuSans-33" transform="translate(95.410156 0)"/>
     <use xlink:href="#DejaVuSans-20" transform="translate(159.033203 0)"/>
     <use xlink:href="#DejaVuSans-53" transform="translate(190.820312 0)"/>
     <use xlink:href="#DejaVuSans-70" transform="translate(254.296875 0)"/>
     <use xlink:href="#DejaVuSans-61" transform="translate(317.773438 0)"/>
     <use xlink:href="#DejaVuSans-74" transform="translate(379.052734 0)"/>
     <use xlink:href="#DejaVuSans-69" transform="translate(418.261719 0)"/>
     <use xlink:href="#DejaVuSans-61" transform="translate(446.044922 0)"/>
     <use xlink:href="#DejaVuSans-6c" transform="translate(507.324219 0)"/>
    </g>
   </g>
  </g>
 </g>
</svg>
