<?xml version="1.0" encoding="utf-8" standalone="no"?>
<!DOCTYPE svg PUBLIC "-//W3C//DTD SVG 1.1//EN"
  "http://www.w3.org/Graphics/SVG/1.1/DTD/svg11.dtd">
<svg xmlns:xlink="http://www.w3.org/1999/xlink" width="1007.8848pt" height="1007.8848pt" viewBox="0 0 1007.8848 1007.8848" xmlns="http://www.w3.org/2000/svg" version="1.1">
 <metadata>
  <rdf:RDF xmlns:dc="http://purl.org/dc/elements/1.1/" xmlns:cc="http://creativecommons.org/ns#" xmlns:rdf="http://www.w3.org/1999/02/22-rdf-syntax-ns#">
   <cc:Work>
    <dc:type rdf:resource="http://purl.org/dc/dcmitype/StillImage"/>
    <dc:date>2025-11-05T20:51:10.152320</dc:date>
    <dc:format>image/svg+xml</dc:format>
    <dc:creator>
     <cc:Agent>
      <dc:title>Matplotlib v3.10.6, https://matplotlib.org/</dc:title>
     </cc:Agent>
    </dc:creator>
   </cc:Work>
  </rdf:RDF>
 </metadata>
 <defs>
  <style type="text/css">*{stroke-linejoin: round; stroke-linecap: butt}</style>
 </defs>
 <g id="figure_1">
  <g id="patch_1">
   <path d="M 0 1007.8848 
L 1007.8848 1007.8848 
L 1007.8848 0 
L 0 0 
z
" style="fill: #ffffff"/>
  </g>
  <g id="axes_1">
   <g id="patch_2">
    <path d="M 503.9424 7.2 
C 460.531655 7.2 417.307599 12.890553 375.376038 24.126078 
C 333.444478 35.361603 293.166068 52.045462 255.571257 73.750829 
L 344.275237 227.390676 
C 368.44333 213.437225 394.336593 202.711888 421.292596 195.48905 
C 448.248599 188.266213 476.035492 184.608 503.9424 184.608 
L 503.9424 7.2 
z
" style="fill: none"/>
   </g>
   <g id="patch_3">
    <path d="M 255.571274 73.750811 
C 243.055537 80.97677 230.861093 88.745505 219.022746 97.034782 
C 207.1844 105.324058 195.713431 114.126059 184.642616 123.415588 
L 298.678253 259.318021 
C 305.795205 253.346181 313.1694 247.687752 320.779765 242.358931 
C 328.390131 237.030111 336.229417 232.035923 344.275248 227.390664 
z
" style="fill: #e6c9ac; stroke: #ffffff; stroke-linejoin: miter"/>
   </g>
   <g id="patch_4">
    <path d="M 184.642616 123.415588 
C 173.571802 132.705117 162.911652 142.47335 152.692575 152.692398 
C 142.473498 162.911445 132.705265 173.571624 123.415736 184.642439 
L 259.318116 298.678139 
C 265.289956 291.561187 271.569535 284.708215 278.138941 278.138827 
C 284.708348 271.56944 291.561301 265.289861 298.678253 259.318021 
z
" style="fill: #e7ccb1; stroke: #ffffff; stroke-linejoin: miter"/>
   </g>
   <g id="patch_5">
    <path d="M 123.415736 184.642439 
C 114.126207 195.713253 105.324266 207.184133 97.034989 219.02245 
C 88.745713 230.860767 80.976947 243.055241 73.750989 255.570963 
L 227.390778 344.275048 
C 232.036038 336.229226 237.030244 328.389922 242.359064 320.779575 
C 247.687885 313.169228 253.346276 305.795091 259.318116 298.678139 
z
" style="fill: #e7cfb8; stroke: #ffffff; stroke-linejoin: miter"/>
   </g>
   <g id="patch_6">
    <path d="M 73.750989 255.570963 
C 62.909874 274.348307 53.309785 293.815328 45.012367 313.847065 
C 36.714948 333.878802 29.737934 354.432324 24.126153 375.375726 
L 195.489098 421.292395 
C 199.096672 407.82878 203.581895 394.615801 208.91595 381.738256 
C 214.250005 368.860711 220.42149 356.346197 227.390778 344.275048 
z
" style="fill: #e7d2be; stroke: #ffffff; stroke-linejoin: miter"/>
   </g>
   <g id="patch_7">
    <path d="M 24.126153 375.375726 
C 18.514371 396.319128 14.279843 417.607494 11.449747 439.104206 
C 8.619652 460.600918 7.2 482.25988 7.2 503.942088 
L 184.608 503.9422 
C 184.608 490.003637 185.520633 476.080019 187.33998 462.260704 
C 189.159327 448.441389 191.881524 434.756011 195.489098 421.292395 
z
" style="fill: #e8d6c4; stroke: #ffffff; stroke-linejoin: miter"/>
   </g>
   <g id="patch_8">
    <path d="M 7.2 503.942088 
C 7.2 547.352854 12.89051 590.576881 24.126005 632.508467 
C 35.3615 674.440053 52.045399 714.718557 73.750752 752.313393 
L 227.390626 663.609467 
C 213.437185 639.441358 202.711821 613.548034 195.489003 586.592015 
C 188.266185 559.635995 184.608 531.849121 184.608 503.9422 
L 7.2 503.942088 
z
" style="fill: none"/>
   </g>
   <g id="patch_9">
    <path d="M 73.750752 752.313393 
C 95.456105 789.908228 121.996321 824.496178 152.692368 855.192225 
C 183.388415 885.888271 217.976246 912.428458 255.571052 934.133841 
L 344.275105 780.494041 
C 320.107015 766.54058 297.871981 749.479032 278.138808 729.745859 
C 258.405635 710.012686 241.344067 687.777575 227.390626 663.609467 
L 73.750752 752.313393 
z
" style="fill: none"/>
   </g>
   <g id="patch_10">
    <path d="M 255.571052 934.133841 
C 293.165858 955.839224 333.444258 972.523093 375.375815 983.758647 
C 417.307371 994.994202 460.531424 1000.68477 503.942169 1000.6848 
L 503.942252 823.2768 
C 476.035344 823.276781 448.248453 819.618558 421.292452 812.395702 
C 394.336452 805.172845 368.443194 794.447501 344.275105 780.494041 
L 255.571052 934.133841 
z
" style="fill: none"/>
   </g>
   <g id="patch_11">
    <path d="M 503.942169 1000.6848 
C 547.35288 1000.6848 590.577014 994.994261 632.508541 983.758766 
C 674.440068 972.523271 714.71835 955.83952 752.313156 934.134196 
L 663.609314 780.494269 
C 639.441225 794.447691 613.548044 805.17296 586.592062 812.395778 
C 559.636081 819.618596 531.849137 823.2768 503.942252 823.2768 
L 503.942169 1000.6848 
z
" style="fill: none"/>
   </g>
   <g id="patch_12">
    <path d="M 752.313156 934.134196 
C 789.907991 912.428873 824.495852 885.888686 855.191929 855.192698 
C 885.888005 824.496711 912.428251 789.90888 934.133663 752.314103 
L 780.493926 663.609924 
C 766.540447 687.777994 749.47886 710.013028 729.745668 729.746163 
C 710.012476 749.479298 687.777423 766.540847 663.609314 780.494269 
L 752.313156 934.134196 
z
" style="fill: none"/>
   </g>
   <g id="patch_13">
    <path d="M 934.133663 752.314103 
C 941.359652 739.798366 948.035995 726.973224 954.143653 713.875332 
C 960.251312 700.777439 965.784484 687.419232 970.727358 673.83886 
L 804.018445 613.161553 
C 800.840883 621.891792 797.283844 630.479211 793.357491 638.899285 
C 789.431139 647.319358 785.139205 655.564093 780.493926 663.609924 
z
" style="fill: #c6a6e6; stroke: #ffffff; stroke-linejoin: miter"/>
   </g>
   <g id="patch_14">
    <path d="M 970.727358 673.83886 
C 975.670232 660.258488 980.018101 646.46886 983.758558 632.50937 
C 987.499016 618.549873 990.628509 604.433793 993.138066 590.201413 
L 818.425328 559.394622 
C 816.812041 568.54401 814.800224 577.618633 812.395645 586.592595 
C 809.991065 595.566553 807.196007 604.431314 804.018445 613.161553 
z
" style="fill: #c9ade6; stroke: #ffffff; stroke-linejoin: miter"/>
   </g>
   <g id="patch_15">
    <path d="M 993.138066 590.201413 
C 995.647654 575.968995 997.534937 561.633715 998.794527 547.236731 
C 1000.054117 532.839748 1000.6848 518.394764 1000.6848 503.942787 
L 823.2768 503.942649 
C 823.2768 513.233205 822.871361 522.519266 822.061624 531.77447 
C 821.251888 541.029674 820.038634 550.245211 818.425328 559.394622 
z
" style="fill: #cdb4e7; stroke: #ffffff; stroke-linejoin: miter"/>
   </g>
   <g id="patch_16">
    <path d="M 1000.6848 503.942787 
C 1000.684859 460.532005 994.99432 417.308015 983.758825 375.376407 
C 972.52333 333.444791 955.839431 293.166228 934.134048 255.571378 
L 780.494174 344.275314 
C 794.447634 368.443432 805.172998 394.336794 812.395816 421.292833 
C 819.618634 448.248867 823.276838 476.035717 823.2768 503.942649 
L 1000.6848 503.942787 
z
" style="fill: none"/>
   </g>
   <g id="patch_17">
    <path d="M 934.134048 255.571378 
C 912.428666 217.976542 885.88836 183.388533 855.192314 152.692486 
C 824.496267 121.99644 789.908435 95.456253 752.3136 73.75087 
L 663.6096 227.390702 
C 687.777709 241.344163 710.012743 258.405711 729.745916 278.138884 
C 749.479089 297.872057 766.540714 320.107206 780.494174 344.275314 
L 934.134048 255.571378 
z
" style="fill: none"/>
   </g>
   <g id="patch_18">
    <path d="M 752.3136 73.75087 
C 714.718794 52.045488 674.440394 35.361618 632.508837 24.126094 
C 590.577281 12.890569 547.353217 7.2 503.942469 7.2 
L 503.942444 184.608 
C 531.849354 184.608 559.636252 188.266223 586.592253 195.48906 
C 613.548253 202.711897 639.441511 213.437242 663.6096 227.390702 
L 752.3136 73.75087 
z
" style="fill: none"/>
   </g>
   <g id="patch_19">
    <path d="M 503.9424 184.608 
C 476.035485 184.608 448.248585 188.266215 421.292576 195.489056 
C 394.336566 202.711897 368.443297 213.43724 344.2752 227.390697 
L 415.2384 350.302565 
C 428.665121 342.550644 443.05027 336.59212 458.025831 332.579431 
C 473.001392 328.566742 488.438559 326.5344 503.9424 326.5344 
z
" style="fill: #e3ac75; stroke: #ffffff; stroke-linejoin: miter"/>
   </g>
   <g id="patch_20">
    <path d="M 344.275181 227.390702 
C 320.107091 241.344163 297.872057 258.405711 278.138884 278.138884 
C 258.405711 297.872057 241.344163 320.107091 227.390702 344.275181 
L 350.302568 415.238389 
C 358.05449 401.811673 367.533128 389.458876 378.496002 378.496002 
C 389.458876 367.533128 401.811673 358.05449 415.238389 350.302568 
z
" style="fill: #e3b282; stroke: #ffffff; stroke-linejoin: miter"/>
   </g>
   <g id="patch_21">
    <path d="M 227.390702 344.275181 
C 213.437242 368.44328 202.711897 394.336528 195.48906 421.292547 
C 188.266223 448.248562 184.608 476.035508 184.608 503.942428 
L 326.5344 503.942416 
C 326.5344 488.438571 328.566746 473.001379 332.579433 458.025815 
C 336.592121 443.050249 342.550646 428.665111 350.302568 415.238389 
z
" style="fill: #e4b98e; stroke: #ffffff; stroke-linejoin: miter"/>
   </g>
   <g id="patch_22">
    <path d="M 184.608 503.942428 
C 184.608 531.849349 188.266223 559.636299 195.489079 586.59231 
C 202.711936 613.54832 213.43728 639.441558 227.39074 663.609657 
L 350.302589 592.646432 
C 342.550667 579.21971 336.592142 564.834578 332.579444 549.859016 
C 328.566746 534.883455 326.5344 519.446261 326.5344 503.942416 
z
" style="fill: #e5bf9a; stroke: #ffffff; stroke-linejoin: miter"/>
   </g>
   <g id="patch_23">
    <path d="M 227.39074 663.609657 
C 241.34422 687.777766 258.405787 710.012838 278.138979 729.746011 
C 297.872171 749.479184 320.107244 766.540733 344.275362 780.494193 
L 415.23849 657.582285 
C 401.811758 649.830363 389.45894 640.351724 378.496055 629.388851 
C 367.533171 618.425977 358.054522 606.073159 350.302589 592.646432 
z
" style="fill: #75e3ac; stroke: #ffffff; stroke-linejoin: miter"/>
   </g>
   <g id="patch_24">
    <path d="M 344.275362 780.494193 
C 368.443461 794.447634 394.336728 805.172979 421.292738 812.395797 
C 448.248748 819.618615 476.035648 823.2768 503.942556 823.2768 
L 503.942487 681.3504 
C 488.438649 681.3504 473.001482 679.318075 458.025921 675.305398 
C 443.05036 671.292721 428.665212 665.334197 415.23849 657.582285 
z
" style="fill: #82e3b2; stroke: #ffffff; stroke-linejoin: miter"/>
   </g>
   <g id="patch_25">
    <path d="M 503.942556 823.2768 
C 531.849489 823.276781 559.636338 819.618558 586.592357 812.395702 
C 613.548377 805.172845 639.441729 794.447444 663.609828 780.493965 
L 592.646527 657.582158 
C 579.219805 665.334091 564.834609 671.292647 549.859043 675.305345 
C 534.883476 679.318043 519.446339 681.350389 503.942487 681.3504 
z
" style="fill: #8ee4b9; stroke: #ffffff; stroke-linejoin: miter"/>
   </g>
   <g id="patch_26">
    <path d="M 663.609828 780.493965 
C 687.777937 766.540485 710.013047 749.478841 729.746201 729.74563 
C 749.479355 710.012419 766.540866 687.777385 780.494307 663.609257 
L 657.582348 592.64621 
C 649.830437 606.072947 640.35182 618.425744 629.388956 629.388639 
C 618.426093 640.351534 606.073254 649.830225 592.646527 657.582158 
z
" style="fill: #9ae5bf; stroke: #ffffff; stroke-linejoin: miter"/>
   </g>
   <g id="patch_27">
    <path d="M 780.494307 663.609257 
C 794.447748 639.44113 805.173017 613.547892 812.395835 586.591862 
C 819.618653 559.635828 823.276838 531.848821 823.2768 503.941887 
L 681.3504 503.942115 
C 681.350421 519.445967 679.318096 534.883194 675.305419 549.858768 
C 671.292743 564.83434 665.33426 579.219472 657.582348 592.64621 
z
" style="fill: #ac75e3; stroke: #ffffff; stroke-linejoin: miter"/>
   </g>
   <g id="patch_28">
    <path d="M 823.2768 503.941887 
C 823.276762 476.03498 819.618482 448.248091 812.395607 421.2921 
C 805.172731 394.336109 794.447368 368.442852 780.493869 344.274781 
L 657.582105 415.238167 
C 665.334049 428.664873 671.292584 443.050016 675.305293 458.025567 
C 679.318001 473.001117 681.350379 488.438278 681.3504 503.942115 
z
" style="fill: #b282e3; stroke: #ffffff; stroke-linejoin: miter"/>
   </g>
   <g id="patch_29">
    <path d="M 780.493869 344.274781 
C 766.540371 320.106692 749.478689 297.871581 729.745478 278.138446 
C 710.012267 258.405312 687.777233 241.34382 663.609086 227.390398 
L 592.646114 350.302399 
C 606.072863 358.0543 618.42566 367.532906 629.388554 378.495759 
C 640.351449 389.458612 649.830162 401.811451 657.582105 415.238167 
z
" style="fill: #b98ee4; stroke: #ffffff; stroke-linejoin: miter"/>
   </g>
   <g id="patch_30">
    <path d="M 663.609086 227.390398 
C 639.440949 213.436976 613.547701 202.711707 586.591663 195.488908 
C 559.635624 188.266109 531.848616 184.607924 503.941683 184.608 
L 503.942002 326.5344 
C 519.445853 326.534358 534.88308 328.566683 549.858657 332.579349 
C 564.834234 336.592015 579.219372 342.550498 592.646114 350.302399 
z
" style="fill: #bf9ae5; stroke: #ffffff; stroke-linejoin: miter"/>
   </g>
   <g id="patch_31">
    <path d="M 503.9424 326.5344 
C 472.803106 326.5344 442.205808 334.732922 415.23839 350.302571 
C 388.270971 365.87222 365.872197 388.270999 350.302553 415.23842 
C 334.73291 442.205842 326.534394 472.803141 326.5344 503.942435 
C 326.534406 535.081729 334.732935 565.679025 350.302589 592.646441 
L 503.9424 503.9424 
C 503.9424 503.9424 503.9424 503.9424 503.9424 503.9424 
C 503.9424 503.9424 503.9424 503.9424 503.9424 503.9424 
C 503.9424 503.9424 503.9424 503.9424 503.9424 503.9424 
C 503.9424 503.9424 503.9424 503.9424 503.9424 503.9424 
z
" style="fill: #e19f5d; stroke: #ffffff; stroke-linejoin: miter"/>
   </g>
   <g id="patch_32">
    <path d="M 350.302589 592.646432 
C 365.872238 619.613845 388.270997 642.012604 415.238416 657.582243 
C 442.205835 673.151881 472.803113 681.3504 503.942402 681.3504 
C 535.081692 681.3504 565.67905 673.15186 592.646463 657.5822 
C 619.613877 642.012541 642.012626 619.613782 657.582264 592.646358 
L 503.9424 503.9424 
C 503.9424 503.9424 503.9424 503.9424 503.9424 503.9424 
C 503.9424 503.9424 503.9424 503.9424 503.9424 503.9424 
C 503.9424 503.9424 503.9424 503.9424 503.9424 503.9424 
C 503.9424 503.9424 503.9424 503.9424 503.9424 503.9424 
z
" style="fill: #5de19f; stroke: #ffffff; stroke-linejoin: miter"/>
   </g>
   <g id="patch_33">
    <path d="M 657.582264 592.646358 
C 673.151902 565.678934 681.3504 535.081658 681.3504 503.942369 
C 681.350389 472.803079 673.151849 442.205724 657.58219 415.238315 
C 642.01253 388.270912 619.613761 365.872153 592.646331 350.302526 
C 565.678907 334.732898 535.081629 326.5344 503.94234 326.5344 
L 503.9424 503.9424 
C 503.9424 503.9424 503.9424 503.9424 503.9424 503.9424 
C 503.9424 503.9424 503.9424 503.9424 503.9424 503.9424 
C 503.9424 503.9424 503.9424 503.9424 503.9424 503.9424 
C 503.9424 503.9424 503.9424 503.9424 503.9424 503.9424 
z
" style="fill: #9f5de1; stroke: #ffffff; stroke-linejoin: miter"/>
   </g>
   <g id="matplotlib.axis_1"/>
   <g id="matplotlib.axis_2"/>
   <g id="text_1">
    <!-- 1.0 Spatial Rel -->
    <g transform="translate(368.428044 431.438397) rotate(-330) scale(0.18 -0.18)">
     <defs>
      <path id="DejaVuSans-31" d="M 794 531 
L 1825 531 
L 1825 4091 
L 703 3866 
L 703 4441 
L 1819 4666 
L 2450 4666 
L 2450 531 
L 3481 531 
L 3481 0 
L 794 0 
L 794 531 
z
" transform="scale(0.015625)"/>
      <path id="DejaVuSans-2e" d="M 684 794 
L 1344 794 
L 1344 0 
L 684 0 
L 684 794 
z
" transform="scale(0.015625)"/>
      <path id="DejaVuSans-30" d="M 2034 4250 
Q 1547 4250 1301 3770 
Q 1056 3291 1056 2328 
Q 1056 1369 1301 889 
Q 1547 409 2034 409 
Q 2525 409 2770 889 
Q 3016 1369 3016 2328 
Q 3016 3291 2770 3770 
Q 2525 4250 2034 4250 
z
M 2034 4750 
Q 2819 4750 3233 4129 
Q 3647 3509 3647 2328 
Q 3647 1150 3233 529 
Q 2819 -91 2034 -91 
Q 1250 -91 836 529 
Q 422 1150 422 2328 
Q 422 3509 836 4129 
Q 1250 4750 2034 4750 
z
" transform="scale(0.015625)"/>
      <path id="DejaVuSans-20" transform="scale(0.015625)"/>
      <path id="DejaVuSans-53" d="M 3425 4513 
L 3425 3897 
Q 3066 4069 2747 4153 
Q 2428 4238 2131 4238 
Q 1616 4238 1336 4038 
Q 1056 3838 1056 3469 
Q 1056 3159 1242 3001 
Q 1428 2844 1947 2747 
L 2328 2669 
Q 3034 2534 3370 2195 
Q 3706 1856 3706 1288 
Q 3706 609 3251 259 
Q 2797 -91 1919 -91 
Q 1588 -91 1214 -16 
Q 841 59 441 206 
L 441 856 
Q 825 641 1194 531 
Q 1563 422 1919 422 
Q 2459 422 2753 634 
Q 3047 847 3047 1241 
Q 3047 1584 2836 1778 
Q 2625 1972 2144 2069 
L 1759 2144 
Q 1053 2284 737 2584 
Q 422 2884 422 3419 
Q 422 4038 858 4394 
Q 1294 4750 2059 4750 
Q 2388 4750 2728 4690 
Q 3069 4631 3425 4513 
z
" transform="scale(0.015625)"/>
      <path id="DejaVuSans-70" d="M 1159 525 
L 1159 -1331 
L 581 -1331 
L 581 3500 
L 1159 3500 
L 1159 2969 
Q 1341 3281 1617 3432 
Q 1894 3584 2278 3584 
Q 2916 3584 3314 3078 
Q 3713 2572 3713 1747 
Q 3713 922 3314 415 
Q 2916 -91 2278 -91 
Q 1894 -91 1617 61 
Q 1341 213 1159 525 
z
M 3116 1747 
Q 3116 2381 2855 2742 
Q 2594 3103 2138 3103 
Q 1681 3103 1420 2742 
Q 1159 2381 1159 1747 
Q 1159 1113 1420 752 
Q 1681 391 2138 391 
Q 2594 391 2855 752 
Q 3116 1113 3116 1747 
z
" transform="scale(0.015625)"/>
      <path id="DejaVuSans-61" d="M 2194 1759 
Q 1497 1759 1228 1600 
Q 959 1441 959 1056 
Q 959 750 1161 570 
Q 1363 391 1709 391 
Q 2188 391 2477 730 
Q 2766 1069 2766 1631 
L 2766 1759 
L 2194 1759 
z
M 3341 1997 
L 3341 0 
L 2766 0 
L 2766 531 
Q 2569 213 2275 61 
Q 1981 -91 1556 -91 
Q 1019 -91 701 211 
Q 384 513 384 1019 
Q 384 1609 779 1909 
Q 1175 2209 1959 2209 
L 2766 2209 
L 2766 2266 
Q 2766 2663 2505 2880 
Q 2244 3097 1772 3097 
Q 1472 3097 1187 3025 
Q 903 2953 641 2809 
L 641 3341 
Q 956 3463 1253 3523 
Q 1550 3584 1831 3584 
Q 2591 3584 2966 3190 
Q 3341 2797 3341 1997 
z
" transform="scale(0.015625)"/>
      <path id="DejaVuSans-74" d="M 1172 4494 
L 1172 3500 
L 2356 3500 
L 2356 3053 
L 1172 3053 
L 1172 1153 
Q 1172 725 1289 603 
Q 1406 481 1766 481 
L 2356 481 
L 2356 0 
L 1766 0 
Q 1100 0 847 248 
Q 594 497 594 1153 
L 594 3053 
L 172 3053 
L 172 3500 
L 594 3500 
L 594 4494 
L 1172 4494 
z
" transform="scale(0.015625)"/>
      <path id="DejaVuSans-69" d="M 603 3500 
L 1178 3500 
L 1178 0 
L 603 0 
L 603 3500 
z
M 603 4863 
L 1178 4863 
L 1178 4134 
L 603 4134 
L 603 4863 
z
" transform="scale(0.015625)"/>
      <path id="DejaVuSans-6c" d="M 603 4863 
L 1178 4863 
L 1178 0 
L 603 0 
L 603 4863 
z
" transform="scale(0.015625)"/>
      <path id="DejaVuSans-52" d="M 2841 2188 
Q 3044 2119 3236 1894 
Q 3428 1669 3622 1275 
L 4263 0 
L 3584 0 
L 2988 1197 
Q 2756 1666 2539 1819 
Q 2322 1972 1947 1972 
L 1259 1972 
L 1259 0 
L 628 0 
L 628 4666 
L 2053 4666 
Q 2853 4666 3247 4331 
Q 3641 3997 3641 3322 
Q 3641 2881 3436 2590 
Q 3231 2300 2841 2188 
z
M 1259 4147 
L 1259 2491 
L 2053 2491 
Q 2509 2491 2742 2702 
Q 2975 2913 2975 3322 
Q 2975 3731 2742 3939 
Q 2509 4147 2053 4147 
L 1259 4147 
z
" transform="scale(0.015625)"/>
      <path id="DejaVuSans-65" d="M 3597 1894 
L 3597 1613 
L 953 1613 
Q 991 1019 1311 708 
Q 1631 397 2203 397 
Q 2534 397 2845 478 
Q 3156 559 3463 722 
L 3463 178 
Q 3153 47 2828 -22 
Q 2503 -91 2169 -91 
Q 1331 -91 842 396 
Q 353 884 353 1716 
Q 353 2575 817 3079 
Q 1281 3584 2069 3584 
Q 2775 3584 3186 3129 
Q 3597 2675 3597 1894 
z
M 3022 2063 
Q 3016 2534 2758 2815 
Q 2500 3097 2075 3097 
Q 1594 3097 1305 2825 
Q 1016 2553 972 2059 
L 3022 2063 
z
" transform="scale(0.015625)"/>
     </defs>
     <use xlink:href="#DejaVuSans-31"/>
     <use xlink:href="#DejaVuSans-2e" transform="translate(63.623047 0)"/>
     <use xlink:href="#DejaVuSans-30" transform="translate(95.410156 0)"/>
     <use xlink:href="#DejaVuSans-20" transform="translate(159.033203 0)"/>
     <use xlink:href="#DejaVuSans-53" transform="translate(190.820312 0)"/>
     <use xlink:href="#DejaVuSans-70" transform="translate(254.296875 0)"/>
     <use xlink:href="#DejaVuSans-61" transform="translate(317.773438 0)"/>
     <use xlink:href="#DejaVuSans-74" transform="translate(379.052734 0)"/>
     <use xlink:href="#DejaVuSans-69" transform="translate(418.261719 0)"/>
     <use xlink:href="#DejaVuSans-61" transform="translate(446.044922 0)"/>
     <use xlink:href="#DejaVuSans-6c" transform="translate(507.324219 0)"/>
     <use xlink:href="#DejaVuSans-20" transform="translate(535.107422 0)"/>
     <use xlink:href="#DejaVuSans-52" transform="translate(566.894531 0)"/>
     <use xlink:href="#DejaVuSans-65" transform="translate(631.876953 0)"/>
     <use xlink:href="#DejaVuSans-6c" transform="translate(693.400391 0)"/>
    </g>
   </g>
   <g id="text_2">
    <!-- 2.0 State Chang -->
    <g transform="translate(498.97553 519.868746) rotate(-270.000031) scale(0.18 -0.18)">
     <defs>
      <path id="DejaVuSans-32" d="M 1228 531 
L 3431 531 
L 3431 0 
L 469 0 
L 469 531 
Q 828 903 1448 1529 
Q 2069 2156 2228 2338 
Q 2531 2678 2651 2914 
Q 2772 3150 2772 3378 
Q 2772 3750 2511 3984 
Q 2250 4219 1831 4219 
Q 1534 4219 1204 4116 
Q 875 4013 500 3803 
L 500 4441 
Q 881 4594 1212 4672 
Q 1544 4750 1819 4750 
Q 2544 4750 2975 4387 
Q 3406 4025 3406 3419 
Q 3406 3131 3298 2873 
Q 3191 2616 2906 2266 
Q 2828 2175 2409 1742 
Q 1991 1309 1228 531 
z
" transform="scale(0.015625)"/>
      <path id="DejaVuSans-43" d="M 4122 4306 
L 4122 3641 
Q 3803 3938 3442 4084 
Q 3081 4231 2675 4231 
Q 1875 4231 1450 3742 
Q 1025 3253 1025 2328 
Q 1025 1406 1450 917 
Q 1875 428 2675 428 
Q 3081 428 3442 575 
Q 3803 722 4122 1019 
L 4122 359 
Q 3791 134 3420 21 
Q 3050 -91 2638 -91 
Q 1578 -91 968 557 
Q 359 1206 359 2328 
Q 359 3453 968 4101 
Q 1578 4750 2638 4750 
Q 3056 4750 3426 4639 
Q 3797 4528 4122 4306 
z
" transform="scale(0.015625)"/>
      <path id="DejaVuSans-68" d="M 3513 2113 
L 3513 0 
L 2938 0 
L 2938 2094 
Q 2938 2591 2744 2837 
Q 2550 3084 2163 3084 
Q 1697 3084 1428 2787 
Q 1159 2491 1159 1978 
L 1159 0 
L 581 0 
L 581 4863 
L 1159 4863 
L 1159 2956 
Q 1366 3272 1645 3428 
Q 1925 3584 2291 3584 
Q 2894 3584 3203 3211 
Q 3513 2838 3513 2113 
z
" transform="scale(0.015625)"/>
      <path id="DejaVuSans-6e" d="M 3513 2113 
L 3513 0 
L 2938 0 
L 2938 2094 
Q 2938 2591 2744 2837 
Q 2550 3084 2163 3084 
Q 1697 3084 1428 2787 
Q 1159 2491 1159 1978 
L 1159 0 
L 581 0 
L 581 3500 
L 1159 3500 
L 1159 2956 
Q 1366 3272 1645 3428 
Q 1925 3584 2291 3584 
Q 2894 3584 3203 3211 
Q 3513 2838 3513 2113 
z
" transform="scale(0.015625)"/>
      <path id="DejaVuSans-67" d="M 2906 1791 
Q 2906 2416 2648 2759 
Q 2391 3103 1925 3103 
Q 1463 3103 1205 2759 
Q 947 2416 947 1791 
Q 947 1169 1205 825 
Q 1463 481 1925 481 
Q 2391 481 2648 825 
Q 2906 1169 2906 1791 
z
M 3481 434 
Q 3481 -459 3084 -895 
Q 2688 -1331 1869 -1331 
Q 1566 -1331 1297 -1286 
Q 1028 -1241 775 -1147 
L 775 -588 
Q 1028 -725 1275 -790 
Q 1522 -856 1778 -856 
Q 2344 -856 2625 -561 
Q 2906 -266 2906 331 
L 2906 616 
Q 2728 306 2450 153 
Q 2172 0 1784 0 
Q 1141 0 747 490 
Q 353 981 353 1791 
Q 353 2603 747 3093 
Q 1141 3584 1784 3584 
Q 2172 3584 2450 3431 
Q 2728 3278 2906 2969 
L 2906 3500 
L 3481 3500 
L 3481 434 
z
" transform="scale(0.015625)"/>
     </defs>
     <use xlink:href="#DejaVuSans-32"/>
     <use xlink:href="#DejaVuSans-2e" transform="translate(63.623047 0)"/>
     <use xlink:href="#DejaVuSans-30" transform="translate(95.410156 0)"/>
     <use xlink:href="#DejaVuSans-20" transform="translate(159.033203 0)"/>
     <use xlink:href="#DejaVuSans-53" transform="translate(190.820312 0)"/>
     <use xlink:href="#DejaVuSans-74" transform="translate(254.296875 0)"/>
     <use xlink:href="#DejaVuSans-61" transform="translate(293.505859 0)"/>
     <use xlink:href="#DejaVuSans-74" transform="translate(354.785156 0)"/>
     <use xlink:href="#DejaVuSans-65" transform="translate(393.994141 0)"/>
     <use xlink:href="#DejaVuSans-20" transform="translate(455.517578 0)"/>
     <use xlink:href="#DejaVuSans-43" transform="translate(487.304688 0)"/>
     <use xlink:href="#DejaVuSans-68" transform="translate(557.128906 0)"/>
     <use xlink:href="#DejaVuSans-61" transform="translate(620.507812 0)"/>
     <use xlink:href="#DejaVuSans-6e" transform="translate(681.787109 0)"/>
     <use xlink:href="#DejaVuSans-67" transform="translate(745.166016 0)"/>
    </g>
   </g>
   <g id="text_3">
    <!-- 3.0 Spatio-Temp -->
    <g transform="translate(520.692198 500.007142) rotate(-30.000031) scale(0.18 -0.18)">
     <defs>
      <path id="DejaVuSans-33" d="M 2597 2516 
Q 3050 2419 3304 2112 
Q 3559 1806 3559 1356 
Q 3559 666 3084 287 
Q 2609 -91 1734 -91 
Q 1441 -91 1130 -33 
Q 819 25 488 141 
L 488 750 
Q 750 597 1062 519 
Q 1375 441 1716 441 
Q 2309 441 2620 675 
Q 2931 909 2931 1356 
Q 2931 1769 2642 2001 
Q 2353 2234 1838 2234 
L 1294 2234 
L 1294 2753 
L 1863 2753 
Q 2328 2753 2575 2939 
Q 2822 3125 2822 3475 
Q 2822 3834 2567 4026 
Q 2313 4219 1838 4219 
Q 1578 4219 1281 4162 
Q 984 4106 628 3988 
L 628 4550 
Q 988 4650 1302 4700 
Q 1616 4750 1894 4750 
Q 2613 4750 3031 4423 
Q 3450 4097 3450 3541 
Q 3450 3153 3228 2886 
Q 3006 2619 2597 2516 
z
" transform="scale(0.015625)"/>
      <path id="DejaVuSans-6f" d="M 1959 3097 
Q 1497 3097 1228 2736 
Q 959 2375 959 1747 
Q 959 1119 1226 758 
Q 1494 397 1959 397 
Q 2419 397 2687 759 
Q 2956 1122 2956 1747 
Q 2956 2369 2687 2733 
Q 2419 3097 1959 3097 
z
M 1959 3584 
Q 2709 3584 3137 3096 
Q 3566 2609 3566 1747 
Q 3566 888 3137 398 
Q 2709 -91 1959 -91 
Q 1206 -91 779 398 
Q 353 888 353 1747 
Q 353 2609 779 3096 
Q 1206 3584 1959 3584 
z
" transform="scale(0.015625)"/>
      <path id="DejaVuSans-2d" d="M 313 2009 
L 1997 2009 
L 1997 1497 
L 313 1497 
L 313 2009 
z
" transform="scale(0.015625)"/>
      <path id="DejaVuSans-54" d="M -19 4666 
L 3928 4666 
L 3928 4134 
L 2272 4134 
L 2272 0 
L 1638 0 
L 1638 4134 
L -19 4134 
L -19 4666 
z
" transform="scale(0.015625)"/>
      <path id="DejaVuSans-6d" d="M 3328 2828 
Q 3544 3216 3844 3400 
Q 4144 3584 4550 3584 
Q 5097 3584 5394 3201 
Q 5691 2819 5691 2113 
L 5691 0 
L 5113 0 
L 5113 2094 
Q 5113 2597 4934 2840 
Q 4756 3084 4391 3084 
Q 3944 3084 3684 2787 
Q 3425 2491 3425 1978 
L 3425 0 
L 2847 0 
L 2847 2094 
Q 2847 2600 2669 2842 
Q 2491 3084 2119 3084 
Q 1678 3084 1418 2786 
Q 1159 2488 1159 1978 
L 1159 0 
L 581 0 
L 581 3500 
L 1159 3500 
L 1159 2956 
Q 1356 3278 1631 3431 
Q 1906 3584 2284 3584 
Q 2666 3584 2933 3390 
Q 3200 3197 3328 2828 
z
" transform="scale(0.015625)"/>
     </defs>
     <use xlink:href="#DejaVuSans-33"/>
     <use xlink:href="#DejaVuSans-2e" transform="translate(63.623047 0)"/>
     <use xlink:href="#DejaVuSans-30" transform="translate(95.410156 0)"/>
     <use xlink:href="#DejaVuSans-20" transform="translate(159.033203 0)"/>
     <use xlink:href="#DejaVuSans-53" transform="translate(190.820312 0)"/>
     <use xlink:href="#DejaVuSans-70" transform="translate(254.296875 0)"/>
     <use xlink:href="#DejaVuSans-61" transform="translate(317.773438 0)"/>
     <use xlink:href="#DejaVuSans-74" transform="translate(379.052734 0)"/>
     <use xlink:href="#DejaVuSans-69" transform="translate(418.261719 0)"/>
     <use xlink:href="#DejaVuSans-6f" transform="translate(446.044922 0)"/>
     <use xlink:href="#DejaVuSans-2d" transform="translate(509.101562 0)"/>
     <use xlink:href="#DejaVuSans-54" transform="translate(536.060547 0)"/>
     <use xlink:href="#DejaVuSans-65" transform="translate(580.144531 0)"/>
     <use xlink:href="#DejaVuSans-6d" transform="translate(641.667969 0)"/>
     <use xlink:href="#DejaVuSans-70" transform="translate(739.080078 0)"/>
    </g>
   </g>
   <g id="text_4">
    <!-- 1.1 Relative Po -->
    <g transform="translate(417.537237 200.664471) rotate(-285) scale(0.18 -0.18)">
     <defs>
      <path id="DejaVuSans-76" d="M 191 3500 
L 800 3500 
L 1894 563 
L 2988 3500 
L 3597 3500 
L 2284 0 
L 1503 0 
L 191 3500 
z
" transform="scale(0.015625)"/>
      <path id="DejaVuSans-50" d="M 1259 4147 
L 1259 2394 
L 2053 2394 
Q 2494 2394 2734 2622 
Q 2975 2850 2975 3272 
Q 2975 3691 2734 3919 
Q 2494 4147 2053 4147 
L 1259 4147 
z
M 628 4666 
L 2053 4666 
Q 2838 4666 3239 4311 
Q 3641 3956 3641 3272 
Q 3641 2581 3239 2228 
Q 2838 1875 2053 1875 
L 1259 1875 
L 1259 0 
L 628 0 
L 628 4666 
z
" transform="scale(0.015625)"/>
     </defs>
     <use xlink:href="#DejaVuSans-31"/>
     <use xlink:href="#DejaVuSans-2e" transform="translate(63.623047 0)"/>
     <use xlink:href="#DejaVuSans-31" transform="translate(95.410156 0)"/>
     <use xlink:href="#DejaVuSans-20" transform="translate(159.033203 0)"/>
     <use xlink:href="#DejaVuSans-52" transform="translate(190.820312 0)"/>
     <use xlink:href="#DejaVuSans-65" transform="translate(255.802734 0)"/>
     <use xlink:href="#DejaVuSans-6c" transform="translate(317.326172 0)"/>
     <use xlink:href="#DejaVuSans-61" transform="translate(345.109375 0)"/>
     <use xlink:href="#DejaVuSans-74" transform="translate(406.388672 0)"/>
     <use xlink:href="#DejaVuSans-69" transform="translate(445.597656 0)"/>
     <use xlink:href="#DejaVuSans-76" transform="translate(473.380859 0)"/>
     <use xlink:href="#DejaVuSans-65" transform="translate(532.560547 0)"/>
     <use xlink:href="#DejaVuSans-20" transform="translate(594.083984 0)"/>
     <use xlink:href="#DejaVuSans-50" transform="translate(625.871094 0)"/>
     <use xlink:href="#DejaVuSans-6f" transform="translate(682.548828 0)"/>
    </g>
   </g>
   <g id="text_5">
    <!-- 1.2 Contact: In -->
    <g transform="translate(277.825381 284.849603) rotate(-315) scale(0.18 -0.18)">
     <defs>
      <path id="DejaVuSans-63" d="M 3122 3366 
L 3122 2828 
Q 2878 2963 2633 3030 
Q 2388 3097 2138 3097 
Q 1578 3097 1268 2742 
Q 959 2388 959 1747 
Q 959 1106 1268 751 
Q 1578 397 2138 397 
Q 2388 397 2633 464 
Q 2878 531 3122 666 
L 3122 134 
Q 2881 22 2623 -34 
Q 2366 -91 2075 -91 
Q 1284 -91 818 406 
Q 353 903 353 1747 
Q 353 2603 823 3093 
Q 1294 3584 2113 3584 
Q 2378 3584 2631 3529 
Q 2884 3475 3122 3366 
z
" transform="scale(0.015625)"/>
      <path id="DejaVuSans-3a" d="M 750 794 
L 1409 794 
L 1409 0 
L 750 0 
L 750 794 
z
M 750 3309 
L 1409 3309 
L 1409 2516 
L 750 2516 
L 750 3309 
z
" transform="scale(0.015625)"/>
      <path id="DejaVuSans-49" d="M 628 4666 
L 1259 4666 
L 1259 0 
L 628 0 
L 628 4666 
z
" transform="scale(0.015625)"/>
     </defs>
     <use xlink:href="#DejaVuSans-31"/>
     <use xlink:href="#DejaVuSans-2e" transform="translate(63.623047 0)"/>
     <use xlink:href="#DejaVuSans-32" transform="translate(95.410156 0)"/>
     <use xlink:href="#DejaVuSans-20" transform="translate(159.033203 0)"/>
     <use xlink:href="#DejaVuSans-43" transform="translate(190.820312 0)"/>
     <use xlink:href="#DejaVuSans-6f" transform="translate(260.644531 0)"/>
     <use xlink:href="#DejaVuSans-6e" transform="translate(321.826172 0)"/>
     <use xlink:href="#DejaVuSans-74" transform="translate(385.205078 0)"/>
     <use xlink:href="#DejaVuSans-61" transform="translate(424.414062 0)"/>
     <use xlink:href="#DejaVuSans-63" transform="translate(485.693359 0)"/>
     <use xlink:href="#DejaVuSans-74" transform="translate(540.673828 0)"/>
     <use xlink:href="#DejaVuSans-3a" transform="translate(579.882812 0)"/>
     <use xlink:href="#DejaVuSans-20" transform="translate(613.574219 0)"/>
     <use xlink:href="#DejaVuSans-49" transform="translate(645.361328 0)"/>
     <use xlink:href="#DejaVuSans-6e" transform="translate(674.853516 0)"/>
    </g>
   </g>
   <g id="text_6">
    <!-- 1.3 Perceptual  -->
    <g transform="translate(197.435994 426.956323) rotate(-345) scale(0.18 -0.18)">
     <defs>
      <path id="DejaVuSans-72" d="M 2631 2963 
Q 2534 3019 2420 3045 
Q 2306 3072 2169 3072 
Q 1681 3072 1420 2755 
Q 1159 2438 1159 1844 
L 1159 0 
L 581 0 
L 581 3500 
L 1159 3500 
L 1159 2956 
Q 1341 3275 1631 3429 
Q 1922 3584 2338 3584 
Q 2397 3584 2469 3576 
Q 2541 3569 2628 3553 
L 2631 2963 
z
" transform="scale(0.015625)"/>
      <path id="DejaVuSans-75" d="M 544 1381 
L 544 3500 
L 1119 3500 
L 1119 1403 
Q 1119 906 1312 657 
Q 1506 409 1894 409 
Q 2359 409 2629 706 
Q 2900 1003 2900 1516 
L 2900 3500 
L 3475 3500 
L 3475 0 
L 2900 0 
L 2900 538 
Q 2691 219 2414 64 
Q 2138 -91 1772 -91 
Q 1169 -91 856 284 
Q 544 659 544 1381 
z
M 1991 3584 
L 1991 3584 
z
" transform="scale(0.015625)"/>
     </defs>
     <use xlink:href="#DejaVuSans-31"/>
     <use xlink:href="#DejaVuSans-2e" transform="translate(63.623047 0)"/>
     <use xlink:href="#DejaVuSans-33" transform="translate(95.410156 0)"/>
     <use xlink:href="#DejaVuSans-20" transform="translate(159.033203 0)"/>
     <use xlink:href="#DejaVuSans-50" transform="translate(190.820312 0)"/>
     <use xlink:href="#DejaVuSans-65" transform="translate(247.498047 0)"/>
     <use xlink:href="#DejaVuSans-72" transform="translate(309.021484 0)"/>
     <use xlink:href="#DejaVuSans-63" transform="translate(347.884766 0)"/>
     <use xlink:href="#DejaVuSans-65" transform="translate(402.865234 0)"/>
     <use xlink:href="#DejaVuSans-70" transform="translate(464.388672 0)"/>
     <use xlink:href="#DejaVuSans-74" transform="translate(527.865234 0)"/>
     <use xlink:href="#DejaVuSans-75" transform="translate(567.074219 0)"/>
     <use xlink:href="#DejaVuSans-61" transform="translate(630.453125 0)"/>
     <use xlink:href="#DejaVuSans-6c" transform="translate(691.732422 0)"/>
     <use xlink:href="#DejaVuSans-20" transform="translate(719.515625 0)"/>
    </g>
   </g>
   <g id="text_7">
    <!-- 1.4 Communicati -->
    <g transform="translate(191.042039 592.925897) rotate(-15) scale(0.18 -0.18)">
     <defs>
      <path id="DejaVuSans-34" d="M 2419 4116 
L 825 1625 
L 2419 1625 
L 2419 4116 
z
M 2253 4666 
L 3047 4666 
L 3047 1625 
L 3713 1625 
L 3713 1100 
L 3047 1100 
L 3047 0 
L 2419 0 
L 2419 1100 
L 313 1100 
L 313 1709 
L 2253 4666 
z
" transform="scale(0.015625)"/>
     </defs>
     <use xlink:href="#DejaVuSans-31"/>
     <use xlink:href="#DejaVuSans-2e" transform="translate(63.623047 0)"/>
     <use xlink:href="#DejaVuSans-34" transform="translate(95.410156 0)"/>
     <use xlink:href="#DejaVuSans-20" transform="translate(159.033203 0)"/>
     <use xlink:href="#DejaVuSans-43" transform="translate(190.820312 0)"/>
     <use xlink:href="#DejaVuSans-6f" transform="translate(260.644531 0)"/>
     <use xlink:href="#DejaVuSans-6d" transform="translate(321.826172 0)"/>
     <use xlink:href="#DejaVuSans-6d" transform="translate(419.238281 0)"/>
     <use xlink:href="#DejaVuSans-75" transform="translate(516.650391 0)"/>
     <use xlink:href="#DejaVuSans-6e" transform="translate(580.029297 0)"/>
     <use xlink:href="#DejaVuSans-69" transform="translate(643.408203 0)"/>
     <use xlink:href="#DejaVuSans-63" transform="translate(671.191406 0)"/>
     <use xlink:href="#DejaVuSans-61" transform="translate(726.171875 0)"/>
     <use xlink:href="#DejaVuSans-74" transform="translate(787.451172 0)"/>
     <use xlink:href="#DejaVuSans-69" transform="translate(826.660156 0)"/>
    </g>
   </g>
   <g id="text_8">
    <!-- 2.1 Actor State -->
    <g transform="translate(284.072108 730.837113) rotate(-45.000031) scale(0.18 -0.18)">
     <defs>
      <path id="DejaVuSans-41" d="M 2188 4044 
L 1331 1722 
L 3047 1722 
L 2188 4044 
z
M 1831 4666 
L 2547 4666 
L 4325 0 
L 3669 0 
L 3244 1197 
L 1141 1197 
L 716 0 
L 50 0 
L 1831 4666 
z
" transform="scale(0.015625)"/>
     </defs>
     <use xlink:href="#DejaVuSans-32"/>
     <use xlink:href="#DejaVuSans-2e" transform="translate(63.623047 0)"/>
     <use xlink:href="#DejaVuSans-31" transform="translate(95.410156 0)"/>
     <use xlink:href="#DejaVuSans-20" transform="translate(159.033203 0)"/>
     <use xlink:href="#DejaVuSans-41" transform="translate(190.820312 0)"/>
     <use xlink:href="#DejaVuSans-63" transform="translate(257.478516 0)"/>
     <use xlink:href="#DejaVuSans-74" transform="translate(312.458984 0)"/>
     <use xlink:href="#DejaVuSans-6f" transform="translate(351.667969 0)"/>
     <use xlink:href="#DejaVuSans-72" transform="translate(412.849609 0)"/>
     <use xlink:href="#DejaVuSans-20" transform="translate(453.962891 0)"/>
     <use xlink:href="#DejaVuSans-53" transform="translate(485.75 0)"/>
     <use xlink:href="#DejaVuSans-74" transform="translate(549.226562 0)"/>
     <use xlink:href="#DejaVuSans-61" transform="translate(588.435547 0)"/>
     <use xlink:href="#DejaVuSans-74" transform="translate(649.714844 0)"/>
     <use xlink:href="#DejaVuSans-65" transform="translate(688.923828 0)"/>
    </g>
   </g>
   <g id="text_9">
    <!-- 2.2 Object Stat -->
    <g transform="translate(426.952503 810.463796) rotate(-75.000031) scale(0.18 -0.18)">
     <defs>
      <path id="DejaVuSans-4f" d="M 2522 4238 
Q 1834 4238 1429 3725 
Q 1025 3213 1025 2328 
Q 1025 1447 1429 934 
Q 1834 422 2522 422 
Q 3209 422 3611 934 
Q 4013 1447 4013 2328 
Q 4013 3213 3611 3725 
Q 3209 4238 2522 4238 
z
M 2522 4750 
Q 3503 4750 4090 4092 
Q 4678 3434 4678 2328 
Q 4678 1225 4090 567 
Q 3503 -91 2522 -91 
Q 1538 -91 948 565 
Q 359 1222 359 2328 
Q 359 3434 948 4092 
Q 1538 4750 2522 4750 
z
" transform="scale(0.015625)"/>
      <path id="DejaVuSans-62" d="M 3116 1747 
Q 3116 2381 2855 2742 
Q 2594 3103 2138 3103 
Q 1681 3103 1420 2742 
Q 1159 2381 1159 1747 
Q 1159 1113 1420 752 
Q 1681 391 2138 391 
Q 2594 391 2855 752 
Q 3116 1113 3116 1747 
z
M 1159 2969 
Q 1341 3281 1617 3432 
Q 1894 3584 2278 3584 
Q 2916 3584 3314 3078 
Q 3713 2572 3713 1747 
Q 3713 922 3314 415 
Q 2916 -91 2278 -91 
Q 1894 -91 1617 61 
Q 1341 213 1159 525 
L 1159 0 
L 581 0 
L 581 4863 
L 1159 4863 
L 1159 2969 
z
" transform="scale(0.015625)"/>
      <path id="DejaVuSans-6a" d="M 603 3500 
L 1178 3500 
L 1178 -63 
Q 1178 -731 923 -1031 
Q 669 -1331 103 -1331 
L -116 -1331 
L -116 -844 
L 38 -844 
Q 366 -844 484 -692 
Q 603 -541 603 -63 
L 603 3500 
z
M 603 4863 
L 1178 4863 
L 1178 4134 
L 603 4134 
L 603 4863 
z
" transform="scale(0.015625)"/>
     </defs>
     <use xlink:href="#DejaVuSans-32"/>
     <use xlink:href="#DejaVuSans-2e" transform="translate(63.623047 0)"/>
     <use xlink:href="#DejaVuSans-32" transform="translate(95.410156 0)"/>
     <use xlink:href="#DejaVuSans-20" transform="translate(159.033203 0)"/>
     <use xlink:href="#DejaVuSans-4f" transform="translate(190.820312 0)"/>
     <use xlink:href="#DejaVuSans-62" transform="translate(269.53125 0)"/>
     <use xlink:href="#DejaVuSans-6a" transform="translate(333.007812 0)"/>
     <use xlink:href="#DejaVuSans-65" transform="translate(360.791016 0)"/>
     <use xlink:href="#DejaVuSans-63" transform="translate(422.314453 0)"/>
     <use xlink:href="#DejaVuSans-74" transform="translate(477.294922 0)"/>
     <use xlink:href="#DejaVuSans-20" transform="translate(516.503906 0)"/>
     <use xlink:href="#DejaVuSans-53" transform="translate(548.291016 0)"/>
     <use xlink:href="#DejaVuSans-74" transform="translate(611.767578 0)"/>
     <use xlink:href="#DejaVuSans-61" transform="translate(650.976562 0)"/>
     <use xlink:href="#DejaVuSans-74" transform="translate(712.255859 0)"/>
    </g>
   </g>
   <g id="text_10">
    <!-- 2.3 Sequential  -->
    <g transform="translate(545.831534 679.464696) rotate(-285.000061) scale(0.18 -0.18)">
     <defs>
      <path id="DejaVuSans-71" d="M 947 1747 
Q 947 1113 1208 752 
Q 1469 391 1925 391 
Q 2381 391 2643 752 
Q 2906 1113 2906 1747 
Q 2906 2381 2643 2742 
Q 2381 3103 1925 3103 
Q 1469 3103 1208 2742 
Q 947 2381 947 1747 
z
M 2906 525 
Q 2725 213 2448 61 
Q 2172 -91 1784 -91 
Q 1150 -91 751 415 
Q 353 922 353 1747 
Q 353 2572 751 3078 
Q 1150 3584 1784 3584 
Q 2172 3584 2448 3432 
Q 2725 3281 2906 2969 
L 2906 3500 
L 3481 3500 
L 3481 -1331 
L 2906 -1331 
L 2906 525 
z
" transform="scale(0.015625)"/>
     </defs>
     <use xlink:href="#DejaVuSans-32"/>
     <use xlink:href="#DejaVuSans-2e" transform="translate(63.623047 0)"/>
     <use xlink:href="#DejaVuSans-33" transform="translate(95.410156 0)"/>
     <use xlink:href="#DejaVuSans-20" transform="translate(159.033203 0)"/>
     <use xlink:href="#DejaVuSans-53" transform="translate(190.820312 0)"/>
     <use xlink:href="#DejaVuSans-65" transform="translate(254.296875 0)"/>
     <use xlink:href="#DejaVuSans-71" transform="translate(315.820312 0)"/>
     <use xlink:href="#DejaVuSans-75" transform="translate(379.296875 0)"/>
     <use xlink:href="#DejaVuSans-65" transform="translate(442.675781 0)"/>
     <use xlink:href="#DejaVuSans-6e" transform="translate(504.199219 0)"/>
     <use xlink:href="#DejaVuSans-74" transform="translate(567.578125 0)"/>
     <use xlink:href="#DejaVuSans-69" transform="translate(606.787109 0)"/>
     <use xlink:href="#DejaVuSans-61" transform="translate(634.570312 0)"/>
     <use xlink:href="#DejaVuSans-6c" transform="translate(695.849609 0)"/>
     <use xlink:href="#DejaVuSans-20" transform="translate(723.632812 0)"/>
    </g>
   </g>
   <g id="text_11">
    <!-- 2.4 Durational  -->
    <g transform="translate(628.582184 635.606222) rotate(-315.000061) scale(0.18 -0.18)">
     <defs>
      <path id="DejaVuSans-44" d="M 1259 4147 
L 1259 519 
L 2022 519 
Q 2988 519 3436 956 
Q 3884 1394 3884 2338 
Q 3884 3275 3436 3711 
Q 2988 4147 2022 4147 
L 1259 4147 
z
M 628 4666 
L 1925 4666 
Q 3281 4666 3915 4102 
Q 4550 3538 4550 2338 
Q 4550 1131 3912 565 
Q 3275 0 1925 0 
L 628 0 
L 628 4666 
z
" transform="scale(0.015625)"/>
     </defs>
     <use xlink:href="#DejaVuSans-32"/>
     <use xlink:href="#DejaVuSans-2e" transform="translate(63.623047 0)"/>
     <use xlink:href="#DejaVuSans-34" transform="translate(95.410156 0)"/>
     <use xlink:href="#DejaVuSans-20" transform="translate(159.033203 0)"/>
     <use xlink:href="#DejaVuSans-44" transform="translate(190.820312 0)"/>
     <use xlink:href="#DejaVuSans-75" transform="translate(267.822266 0)"/>
     <use xlink:href="#DejaVuSans-72" transform="translate(331.201172 0)"/>
     <use xlink:href="#DejaVuSans-61" transform="translate(372.314453 0)"/>
     <use xlink:href="#DejaVuSans-74" transform="translate(433.59375 0)"/>
     <use xlink:href="#DejaVuSans-69" transform="translate(472.802734 0)"/>
     <use xlink:href="#DejaVuSans-6f" transform="translate(500.585938 0)"/>
     <use xlink:href="#DejaVuSans-6e" transform="translate(561.767578 0)"/>
     <use xlink:href="#DejaVuSans-61" transform="translate(625.146484 0)"/>
     <use xlink:href="#DejaVuSans-6c" transform="translate(686.425781 0)"/>
     <use xlink:href="#DejaVuSans-20" transform="translate(714.208984 0)"/>
    </g>
   </g>
   <g id="text_12">
    <!-- 3.1 Relative Mo -->
    <g transform="translate(675.335755 555.008972) rotate(-345.000061) scale(0.18 -0.18)">
     <defs>
      <path id="DejaVuSans-4d" d="M 628 4666 
L 1569 4666 
L 2759 1491 
L 3956 4666 
L 4897 4666 
L 4897 0 
L 4281 0 
L 4281 4097 
L 3078 897 
L 2444 897 
L 1241 4097 
L 1241 0 
L 628 0 
L 628 4666 
z
" transform="scale(0.015625)"/>
     </defs>
     <use xlink:href="#DejaVuSans-33"/>
     <use xlink:href="#DejaVuSans-2e" transform="translate(63.623047 0)"/>
     <use xlink:href="#DejaVuSans-31" transform="translate(95.410156 0)"/>
     <use xlink:href="#DejaVuSans-20" transform="translate(159.033203 0)"/>
     <use xlink:href="#DejaVuSans-52" transform="translate(190.820312 0)"/>
     <use xlink:href="#DejaVuSans-65" transform="translate(255.802734 0)"/>
     <use xlink:href="#DejaVuSans-6c" transform="translate(317.326172 0)"/>
     <use xlink:href="#DejaVuSans-61" transform="translate(345.109375 0)"/>
     <use xlink:href="#DejaVuSans-74" transform="translate(406.388672 0)"/>
     <use xlink:href="#DejaVuSans-69" transform="translate(445.597656 0)"/>
     <use xlink:href="#DejaVuSans-76" transform="translate(473.380859 0)"/>
     <use xlink:href="#DejaVuSans-65" transform="translate(532.560547 0)"/>
     <use xlink:href="#DejaVuSans-20" transform="translate(594.083984 0)"/>
     <use xlink:href="#DejaVuSans-4d" transform="translate(625.871094 0)"/>
     <use xlink:href="#DejaVuSans-6f" transform="translate(712.150391 0)"/>
    </g>
   </g>
   <g id="text_13">
    <!-- 3.2 Object Tran -->
    <g transform="translate(679.032716 462.168894) rotate(-15.000092) scale(0.18 -0.18)">
     <use xlink:href="#DejaVuSans-33"/>
     <use xlink:href="#DejaVuSans-2e" transform="translate(63.623047 0)"/>
     <use xlink:href="#DejaVuSans-32" transform="translate(95.410156 0)"/>
     <use xlink:href="#DejaVuSans-20" transform="translate(159.033203 0)"/>
     <use xlink:href="#DejaVuSans-4f" transform="translate(190.820312 0)"/>
     <use xlink:href="#DejaVuSans-62" transform="translate(269.53125 0)"/>
     <use xlink:href="#DejaVuSans-6a" transform="translate(333.007812 0)"/>
     <use xlink:href="#DejaVuSans-65" transform="translate(360.791016 0)"/>
     <use xlink:href="#DejaVuSans-63" transform="translate(422.314453 0)"/>
     <use xlink:href="#DejaVuSans-74" transform="translate(477.294922 0)"/>
     <use xlink:href="#DejaVuSans-20" transform="translate(516.503906 0)"/>
     <use xlink:href="#DejaVuSans-54" transform="translate(548.291016 0)"/>
     <use xlink:href="#DejaVuSans-72" transform="translate(594.625 0)"/>
     <use xlink:href="#DejaVuSans-61" transform="translate(635.738281 0)"/>
     <use xlink:href="#DejaVuSans-6e" transform="translate(697.017578 0)"/>
    </g>
   </g>
   <g id="text_14">
    <!-- 3.3 Instantaneo -->
    <g transform="translate(633.044586 381.863972) rotate(-45.000122) scale(0.18 -0.18)">
     <defs>
      <path id="DejaVuSans-73" d="M 2834 3397 
L 2834 2853 
Q 2591 2978 2328 3040 
Q 2066 3103 1784 3103 
Q 1356 3103 1142 2972 
Q 928 2841 928 2578 
Q 928 2378 1081 2264 
Q 1234 2150 1697 2047 
L 1894 2003 
Q 2506 1872 2764 1633 
Q 3022 1394 3022 966 
Q 3022 478 2636 193 
Q 2250 -91 1575 -91 
Q 1294 -91 989 -36 
Q 684 19 347 128 
L 347 722 
Q 666 556 975 473 
Q 1284 391 1588 391 
Q 1994 391 2212 530 
Q 2431 669 2431 922 
Q 2431 1156 2273 1281 
Q 2116 1406 1581 1522 
L 1381 1569 
Q 847 1681 609 1914 
Q 372 2147 372 2553 
Q 372 3047 722 3315 
Q 1072 3584 1716 3584 
Q 2034 3584 2315 3537 
Q 2597 3491 2834 3397 
z
" transform="scale(0.015625)"/>
     </defs>
     <use xlink:href="#DejaVuSans-33"/>
     <use xlink:href="#DejaVuSans-2e" transform="translate(63.623047 0)"/>
     <use xlink:href="#DejaVuSans-33" transform="translate(95.410156 0)"/>
     <use xlink:href="#DejaVuSans-20" transform="translate(159.033203 0)"/>
     <use xlink:href="#DejaVuSans-49" transform="translate(190.820312 0)"/>
     <use xlink:href="#DejaVuSans-6e" transform="translate(220.3125 0)"/>
     <use xlink:href="#DejaVuSans-73" transform="translate(283.691406 0)"/>
     <use xlink:href="#DejaVuSans-74" transform="translate(335.791016 0)"/>
     <use xlink:href="#DejaVuSans-61" transform="translate(375 0)"/>
     <use xlink:href="#DejaVuSans-6e" transform="translate(436.279297 0)"/>
     <use xlink:href="#DejaVuSans-74" transform="translate(499.658203 0)"/>
     <use xlink:href="#DejaVuSans-61" transform="translate(538.867188 0)"/>
     <use xlink:href="#DejaVuSans-6e" transform="translate(600.146484 0)"/>
     <use xlink:href="#DejaVuSans-65" transform="translate(663.525391 0)"/>
     <use xlink:href="#DejaVuSans-6f" transform="translate(725.048828 0)"/>
    </g>
   </g>
   <g id="text_15">
    <!-- 3.4 Composite A -->
    <g transform="translate(553.812439 337.01384) rotate(-75.000122) scale(0.18 -0.18)">
     <use xlink:href="#DejaVuSans-33"/>
     <use xlink:href="#DejaVuSans-2e" transform="translate(63.623047 0)"/>
     <use xlink:href="#DejaVuSans-34" transform="translate(95.410156 0)"/>
     <use xlink:href="#DejaVuSans-20" transform="translate(159.033203 0)"/>
     <use xlink:href="#DejaVuSans-43" transform="translate(190.820312 0)"/>
     <use xlink:href="#DejaVuSans-6f" transform="translate(260.644531 0)"/>
     <use xlink:href="#DejaVuSans-6d" transform="translate(321.826172 0)"/>
     <use xlink:href="#DejaVuSans-70" transform="translate(419.238281 0)"/>
     <use xlink:href="#DejaVuSans-6f" transform="translate(482.714844 0)"/>
     <use xlink:href="#DejaVuSans-73" transform="translate(543.896484 0)"/>
     <use xlink:href="#DejaVuSans-69" transform="translate(595.996094 0)"/>
     <use xlink:href="#DejaVuSans-74" transform="translate(623.779297 0)"/>
     <use xlink:href="#DejaVuSans-65" transform="translate(662.988281 0)"/>
     <use xlink:href="#DejaVuSans-20" transform="translate(724.511719 0)"/>
     <use xlink:href="#DejaVuSans-41" transform="translate(756.298828 0)"/>
    </g>
   </g>
   <g id="text_16">
    <!-- 1.2.1 Supportiv -->
    <g transform="translate(226.160408 115.887935) rotate(-305) scale(0.18 -0.18)">
     <use xlink:href="#DejaVuSans-31"/>
     <use xlink:href="#DejaVuSans-2e" transform="translate(63.623047 0)"/>
     <use xlink:href="#DejaVuSans-32" transform="translate(95.410156 0)"/>
     <use xlink:href="#DejaVuSans-2e" transform="translate(159.033203 0)"/>
     <use xlink:href="#DejaVuSans-31" transform="translate(190.820312 0)"/>
     <use xlink:href="#DejaVuSans-20" transform="translate(254.443359 0)"/>
     <use xlink:href="#DejaVuSans-53" transform="translate(286.230469 0)"/>
     <use xlink:href="#DejaVuSans-75" transform="translate(349.707031 0)"/>
     <use xlink:href="#DejaVuSans-70" transform="translate(413.085938 0)"/>
     <use xlink:href="#DejaVuSans-70" transform="translate(476.5625 0)"/>
     <use xlink:href="#DejaVuSans-6f" transform="translate(540.039062 0)"/>
     <use xlink:href="#DejaVuSans-72" transform="translate(601.220703 0)"/>
     <use xlink:href="#DejaVuSans-74" transform="translate(642.333984 0)"/>
     <use xlink:href="#DejaVuSans-69" transform="translate(681.542969 0)"/>
     <use xlink:href="#DejaVuSans-76" transform="translate(709.326172 0)"/>
    </g>
   </g>
   <g id="text_17">
    <!-- 1.2.2 Manipulat -->
    <g transform="translate(162.260774 169.284848) rotate(-315) scale(0.18 -0.18)">
     <use xlink:href="#DejaVuSans-31"/>
     <use xlink:href="#DejaVuSans-2e" transform="translate(63.623047 0)"/>
     <use xlink:href="#DejaVuSans-32" transform="translate(95.410156 0)"/>
     <use xlink:href="#DejaVuSans-2e" transform="translate(159.033203 0)"/>
     <use xlink:href="#DejaVuSans-32" transform="translate(190.820312 0)"/>
     <use xlink:href="#DejaVuSans-20" transform="translate(254.443359 0)"/>
     <use xlink:href="#DejaVuSans-4d" transform="translate(286.230469 0)"/>
     <use xlink:href="#DejaVuSans-61" transform="translate(372.509766 0)"/>
     <use xlink:href="#DejaVuSans-6e" transform="translate(433.789062 0)"/>
     <use xlink:href="#DejaVuSans-69" transform="translate(497.167969 0)"/>
     <use xlink:href="#DejaVuSans-70" transform="translate(524.951172 0)"/>
     <use xlink:href="#DejaVuSans-75" transform="translate(588.427734 0)"/>
     <use xlink:href="#DejaVuSans-6c" transform="translate(651.806641 0)"/>
     <use xlink:href="#DejaVuSans-61" transform="translate(679.589844 0)"/>
     <use xlink:href="#DejaVuSans-74" transform="translate(740.869141 0)"/>
    </g>
   </g>
   <g id="text_18">
    <!-- 1.2.3 Social/Af -->
    <g transform="translate(114.033204 236.988188) rotate(-324.999969) scale(0.18 -0.18)">
     <defs>
      <path id="DejaVuSans-2f" d="M 1625 4666 
L 2156 4666 
L 531 -594 
L 0 -594 
L 1625 4666 
z
" transform="scale(0.015625)"/>
      <path id="DejaVuSans-66" d="M 2375 4863 
L 2375 4384 
L 1825 4384 
Q 1516 4384 1395 4259 
Q 1275 4134 1275 3809 
L 1275 3500 
L 2222 3500 
L 2222 3053 
L 1275 3053 
L 1275 0 
L 697 0 
L 697 3053 
L 147 3053 
L 147 3500 
L 697 3500 
L 697 3744 
Q 697 4328 969 4595 
Q 1241 4863 1831 4863 
L 2375 4863 
z
" transform="scale(0.015625)"/>
     </defs>
     <use xlink:href="#DejaVuSans-31"/>
     <use xlink:href="#DejaVuSans-2e" transform="translate(63.623047 0)"/>
     <use xlink:href="#DejaVuSans-32" transform="translate(95.410156 0)"/>
     <use xlink:href="#DejaVuSans-2e" transform="translate(159.033203 0)"/>
     <use xlink:href="#DejaVuSans-33" transform="translate(190.820312 0)"/>
     <use xlink:href="#DejaVuSans-20" transform="translate(254.443359 0)"/>
     <use xlink:href="#DejaVuSans-53" transform="translate(286.230469 0)"/>
     <use xlink:href="#DejaVuSans-6f" transform="translate(349.707031 0)"/>
     <use xlink:href="#DejaVuSans-63" transform="translate(410.888672 0)"/>
     <use xlink:href="#DejaVuSans-69" transform="translate(465.869141 0)"/>
     <use xlink:href="#DejaVuSans-61" transform="translate(493.652344 0)"/>
     <use xlink:href="#DejaVuSans-6c" transform="translate(554.931641 0)"/>
     <use xlink:href="#DejaVuSans-2f" transform="translate(582.714844 0)"/>
     <use xlink:href="#DejaVuSans-41" transform="translate(616.40625 0)"/>
     <use xlink:href="#DejaVuSans-66" transform="translate(681.189453 0)"/>
    </g>
   </g>
   <g id="text_19">
    <!-- 1.3.1 Gaze -->
    <g transform="translate(80.246017 333.817459) rotate(-337.499969) scale(0.18 -0.18)">
     <defs>
      <path id="DejaVuSans-47" d="M 3809 666 
L 3809 1919 
L 2778 1919 
L 2778 2438 
L 4434 2438 
L 4434 434 
Q 4069 175 3628 42 
Q 3188 -91 2688 -91 
Q 1594 -91 976 548 
Q 359 1188 359 2328 
Q 359 3472 976 4111 
Q 1594 4750 2688 4750 
Q 3144 4750 3555 4637 
Q 3966 4525 4313 4306 
L 4313 3634 
Q 3963 3931 3569 4081 
Q 3175 4231 2741 4231 
Q 1884 4231 1454 3753 
Q 1025 3275 1025 2328 
Q 1025 1384 1454 906 
Q 1884 428 2741 428 
Q 3075 428 3337 486 
Q 3600 544 3809 666 
z
" transform="scale(0.015625)"/>
      <path id="DejaVuSans-7a" d="M 353 3500 
L 3084 3500 
L 3084 2975 
L 922 459 
L 3084 459 
L 3084 0 
L 275 0 
L 275 525 
L 2438 3041 
L 353 3041 
L 353 3500 
z
" transform="scale(0.015625)"/>
     </defs>
     <use xlink:href="#DejaVuSans-31"/>
     <use xlink:href="#DejaVuSans-2e" transform="translate(63.623047 0)"/>
     <use xlink:href="#DejaVuSans-33" transform="translate(95.410156 0)"/>
     <use xlink:href="#DejaVuSans-2e" transform="translate(159.033203 0)"/>
     <use xlink:href="#DejaVuSans-31" transform="translate(190.820312 0)"/>
     <use xlink:href="#DejaVuSans-20" transform="translate(254.443359 0)"/>
     <use xlink:href="#DejaVuSans-47" transform="translate(286.230469 0)"/>
     <use xlink:href="#DejaVuSans-61" transform="translate(363.720703 0)"/>
     <use xlink:href="#DejaVuSans-7a" transform="translate(425 0)"/>
     <use xlink:href="#DejaVuSans-65" transform="translate(477.490234 0)"/>
    </g>
   </g>
   <g id="text_20">
    <!-- 1.3.2 Indicativ -->
    <g transform="translate(35.143655 447.233323) rotate(-352.499969) scale(0.18 -0.18)">
     <defs>
      <path id="DejaVuSans-64" d="M 2906 2969 
L 2906 4863 
L 3481 4863 
L 3481 0 
L 2906 0 
L 2906 525 
Q 2725 213 2448 61 
Q 2172 -91 1784 -91 
Q 1150 -91 751 415 
Q 353 922 353 1747 
Q 353 2572 751 3078 
Q 1150 3584 1784 3584 
Q 2172 3584 2448 3432 
Q 2725 3281 2906 2969 
z
M 947 1747 
Q 947 1113 1208 752 
Q 1469 391 1925 391 
Q 2381 391 2643 752 
Q 2906 1113 2906 1747 
Q 2906 2381 2643 2742 
Q 2381 3103 1925 3103 
Q 1469 3103 1208 2742 
Q 947 2381 947 1747 
z
" transform="scale(0.015625)"/>
     </defs>
     <use xlink:href="#DejaVuSans-31"/>
     <use xlink:href="#DejaVuSans-2e" transform="translate(63.623047 0)"/>
     <use xlink:href="#DejaVuSans-33" transform="translate(95.410156 0)"/>
     <use xlink:href="#DejaVuSans-2e" transform="translate(159.033203 0)"/>
     <use xlink:href="#DejaVuSans-32" transform="translate(190.820312 0)"/>
     <use xlink:href="#DejaVuSans-20" transform="translate(254.443359 0)"/>
     <use xlink:href="#DejaVuSans-49" transform="translate(286.230469 0)"/>
     <use xlink:href="#DejaVuSans-6e" transform="translate(315.722656 0)"/>
     <use xlink:href="#DejaVuSans-64" transform="translate(379.101562 0)"/>
     <use xlink:href="#DejaVuSans-69" transform="translate(442.578125 0)"/>
     <use xlink:href="#DejaVuSans-63" transform="translate(470.361328 0)"/>
     <use xlink:href="#DejaVuSans-61" transform="translate(525.341797 0)"/>
     <use xlink:href="#DejaVuSans-74" transform="translate(586.621094 0)"/>
     <use xlink:href="#DejaVuSans-69" transform="translate(625.830078 0)"/>
     <use xlink:href="#DejaVuSans-76" transform="translate(653.613281 0)"/>
    </g>
   </g>
   <g id="text_21">
    <!-- 3.1.1 Approach  -->
    <g transform="translate(806.963224 650.724105) rotate(-334.999939) scale(0.18 -0.18)">
     <use xlink:href="#DejaVuSans-33"/>
     <use xlink:href="#DejaVuSans-2e" transform="translate(63.623047 0)"/>
     <use xlink:href="#DejaVuSans-31" transform="translate(95.410156 0)"/>
     <use xlink:href="#DejaVuSans-2e" transform="translate(159.033203 0)"/>
     <use xlink:href="#DejaVuSans-31" transform="translate(190.820312 0)"/>
     <use xlink:href="#DejaVuSans-20" transform="translate(254.443359 0)"/>
     <use xlink:href="#DejaVuSans-41" transform="translate(286.230469 0)"/>
     <use xlink:href="#DejaVuSans-70" transform="translate(354.638672 0)"/>
     <use xlink:href="#DejaVuSans-70" transform="translate(418.115234 0)"/>
     <use xlink:href="#DejaVuSans-72" transform="translate(481.591797 0)"/>
     <use xlink:href="#DejaVuSans-6f" transform="translate(520.455078 0)"/>
     <use xlink:href="#DejaVuSans-61" transform="translate(581.636719 0)"/>
     <use xlink:href="#DejaVuSans-63" transform="translate(642.916016 0)"/>
     <use xlink:href="#DejaVuSans-68" transform="translate(697.896484 0)"/>
     <use xlink:href="#DejaVuSans-20" transform="translate(761.275391 0)"/>
    </g>
   </g>
   <g id="text_22">
    <!-- 3.1.2 Passing &amp; -->
    <g transform="translate(829.688572 596.368346) rotate(-344.999939) scale(0.18 -0.18)">
     <defs>
      <path id="DejaVuSans-26" d="M 1556 2509 
Q 1272 2256 1139 2004 
Q 1006 1753 1006 1478 
Q 1006 1022 1337 719 
Q 1669 416 2169 416 
Q 2466 416 2725 514 
Q 2984 613 3213 813 
L 1556 2509 
z
M 1997 2859 
L 3584 1234 
Q 3769 1513 3872 1830 
Q 3975 2147 3994 2503 
L 4575 2503 
Q 4538 2091 4375 1687 
Q 4213 1284 3922 891 
L 4794 0 
L 4006 0 
L 3559 459 
Q 3234 181 2878 45 
Q 2522 -91 2113 -91 
Q 1359 -91 881 339 
Q 403 769 403 1441 
Q 403 1841 612 2192 
Q 822 2544 1241 2853 
Q 1091 3050 1012 3245 
Q 934 3441 934 3628 
Q 934 4134 1281 4442 
Q 1628 4750 2203 4750 
Q 2463 4750 2720 4694 
Q 2978 4638 3244 4525 
L 3244 3956 
Q 2972 4103 2725 4179 
Q 2478 4256 2266 4256 
Q 1938 4256 1733 4082 
Q 1528 3909 1528 3634 
Q 1528 3475 1620 3314 
Q 1713 3153 1997 2859 
z
" transform="scale(0.015625)"/>
     </defs>
     <use xlink:href="#DejaVuSans-33"/>
     <use xlink:href="#DejaVuSans-2e" transform="translate(63.623047 0)"/>
     <use xlink:href="#DejaVuSans-31" transform="translate(95.410156 0)"/>
     <use xlink:href="#DejaVuSans-2e" transform="translate(159.033203 0)"/>
     <use xlink:href="#DejaVuSans-32" transform="translate(190.820312 0)"/>
     <use xlink:href="#DejaVuSans-20" transform="translate(254.443359 0)"/>
     <use xlink:href="#DejaVuSans-50" transform="translate(286.230469 0)"/>
     <use xlink:href="#DejaVuSans-61" transform="translate(342.033203 0)"/>
     <use xlink:href="#DejaVuSans-73" transform="translate(403.3125 0)"/>
     <use xlink:href="#DejaVuSans-73" transform="translate(455.412109 0)"/>
     <use xlink:href="#DejaVuSans-69" transform="translate(507.511719 0)"/>
     <use xlink:href="#DejaVuSans-6e" transform="translate(535.294922 0)"/>
     <use xlink:href="#DejaVuSans-67" transform="translate(598.673828 0)"/>
     <use xlink:href="#DejaVuSans-20" transform="translate(662.150391 0)"/>
     <use xlink:href="#DejaVuSans-26" transform="translate(693.9375 0)"/>
    </g>
   </g>
   <g id="text_23">
    <!-- 3.1.3 Following -->
    <g transform="translate(842.351366 538.535627) rotate(-354.999939) scale(0.18 -0.18)">
     <defs>
      <path id="DejaVuSans-46" d="M 628 4666 
L 3309 4666 
L 3309 4134 
L 1259 4134 
L 1259 2759 
L 3109 2759 
L 3109 2228 
L 1259 2228 
L 1259 0 
L 628 0 
L 628 4666 
z
" transform="scale(0.015625)"/>
      <path id="DejaVuSans-77" d="M 269 3500 
L 844 3500 
L 1563 769 
L 2278 3500 
L 2956 3500 
L 3675 769 
L 4391 3500 
L 4966 3500 
L 4050 0 
L 3372 0 
L 2619 2869 
L 1863 0 
L 1184 0 
L 269 3500 
z
" transform="scale(0.015625)"/>
     </defs>
     <use xlink:href="#DejaVuSans-33"/>
     <use xlink:href="#DejaVuSans-2e" transform="translate(63.623047 0)"/>
     <use xlink:href="#DejaVuSans-31" transform="translate(95.410156 0)"/>
     <use xlink:href="#DejaVuSans-2e" transform="translate(159.033203 0)"/>
     <use xlink:href="#DejaVuSans-33" transform="translate(190.820312 0)"/>
     <use xlink:href="#DejaVuSans-20" transform="translate(254.443359 0)"/>
     <use xlink:href="#DejaVuSans-46" transform="translate(286.230469 0)"/>
     <use xlink:href="#DejaVuSans-6f" transform="translate(340.125 0)"/>
     <use xlink:href="#DejaVuSans-6c" transform="translate(401.306641 0)"/>
     <use xlink:href="#DejaVuSans-6c" transform="translate(429.089844 0)"/>
     <use xlink:href="#DejaVuSans-6f" transform="translate(456.873047 0)"/>
     <use xlink:href="#DejaVuSans-77" transform="translate(518.054688 0)"/>
     <use xlink:href="#DejaVuSans-69" transform="translate(599.841797 0)"/>
     <use xlink:href="#DejaVuSans-6e" transform="translate(627.625 0)"/>
     <use xlink:href="#DejaVuSans-67" transform="translate(691.003906 0)"/>
    </g>
   </g>
  </g>
 </g>
</svg>
