<?xml version="1.0" encoding="utf-8" standalone="no"?>
<!DOCTYPE svg PUBLIC "-//W3C//DTD SVG 1.1//EN"
  "http://www.w3.org/Graphics/SVG/1.1/DTD/svg11.dtd">
<svg xmlns:xlink="http://www.w3.org/1999/xlink" width="1007.882629pt" height="1007.884787pt" viewBox="0 0 1007.882629 1007.884787" xmlns="http://www.w3.org/2000/svg" version="1.1">
 <metadata>
  <rdf:RDF xmlns:dc="http://purl.org/dc/elements/1.1/" xmlns:cc="http://creativecommons.org/ns#" xmlns:rdf="http://www.w3.org/1999/02/22-rdf-syntax-ns#">
   <cc:Work>
    <dc:type rdf:resource="http://purl.org/dc/dcmitype/StillImage"/>
    <dc:date>2025-11-05T20:24:26.358145</dc:date>
    <dc:format>image/svg+xml</dc:format>
    <dc:creator>
     <cc:Agent>
      <dc:title>Matplotlib v3.10.6, https://matplotlib.org/</dc:title>
     </cc:Agent>
    </dc:creator>
   </cc:Work>
  </rdf:RDF>
 </metadata>
 <defs>
  <style type="text/css">*{stroke-linejoin: round; stroke-linecap: butt}</style>
 </defs>
 <g id="figure_1">
  <g id="patch_1">
   <path d="M 0 1007.884787 
L 1007.882629 1007.884787 
L 1007.882629 0 
L 0 0 
z
" style="fill: #ffffff"/>
  </g>
  <g id="axes_1">
   <g id="patch_2">
    <path d="M 503.942398 7.2 
C 415.897491 7.2 329.415386 30.608226 253.390704 75.017161 
C 177.366022 119.426095 114.497649 183.259215 71.25155 259.951331 
C 28.005451 336.643446 5.916868 423.471978 7.257595 511.506677 
C 8.598322 599.541376 33.320764 685.656998 78.882235 760.996616 
L 230.689436 669.191539 
C 201.399919 620.758927 185.506921 565.398884 184.645025 508.80515 
C 183.783129 452.211415 197.982932 396.393073 225.783996 347.090998 
C 253.58506 297.788924 294.000442 256.753347 342.873452 228.204746 
C 391.746462 199.656146 447.3421 184.608 503.942398 184.608 
L 503.942398 7.2 
z
" style="fill: none"/>
   </g>
   <g id="patch_3">
    <path d="M 78.882228 760.996606 
C 87.430635 775.132131 96.67886 788.832386 106.592411 802.046387 
C 116.505961 815.260388 127.07246 827.971642 138.252588 840.132777 
L 268.856091 720.064785 
C 261.668866 712.246913 254.876117 704.075392 248.503121 695.580677 
C 242.130124 687.085963 236.184836 678.278656 230.689432 669.191532 
z
" style="fill: #e6c9ac; stroke: #ffffff; stroke-linejoin: miter"/>
   </g>
   <g id="patch_4">
    <path d="M 138.252588 840.132777 
C 169.618312 874.250727 205.604862 903.811864 245.164198 927.955211 
C 284.723535 952.098559 327.46785 970.58743 372.151825 982.883164 
L 419.219887 811.832891 
C 390.494474 803.928491 363.015986 792.042788 337.584984 776.522064 
C 312.153982 761.001341 289.019771 741.997753 268.856091 720.064785 
z
" style="fill: #e7ccb1; stroke: #ffffff; stroke-linejoin: miter"/>
   </g>
   <g id="patch_5">
    <path d="M 372.151825 982.883164 
C 384.998152 986.418111 397.981498 989.434738 411.070367 991.92579 
C 424.159237 994.416843 437.343045 996.380278 450.589774 997.811329 
L 469.644282 821.429568 
C 461.128528 820.509607 452.653223 819.247399 444.23895 817.646008 
C 435.824677 816.044617 427.47824 814.105357 419.219887 811.832891 
z
" style="fill: #e7cfb8; stroke: #ffffff; stroke-linejoin: miter"/>
   </g>
   <g id="patch_6">
    <path d="M 450.589774 997.811329 
C 466.344609 999.513324 482.17175 1000.460429 498.017124 1000.649448 
C 513.862497 1000.838466 529.707967 1000.269161 545.498919 998.943485 
L 530.657305 822.157383 
C 520.505978 823.009603 510.319605 823.375585 500.133293 823.254074 
C 489.946981 823.132562 479.772391 822.523708 469.644282 821.429568 
z
" style="fill: #e7d2be; stroke: #ffffff; stroke-linejoin: miter"/>
   </g>
   <g id="patch_7">
    <path d="M 545.498919 998.943485 
C 549.979914 998.567284 554.455712 998.130268 558.924841 997.632525 
C 563.393969 997.134782 567.856018 996.576432 572.30998 995.957532 
L 547.892987 820.237842 
C 545.029725 820.635706 542.161265 820.994646 539.288254 821.314623 
C 536.415243 821.634601 533.537944 821.91554 530.657305 822.157383 
z
" style="fill: #e8d6c4; stroke: #ffffff; stroke-linejoin: miter"/>
   </g>
   <g id="patch_8">
    <path d="M 572.30998 995.957532 
C 582.966954 994.47671 593.572995 992.650035 604.111336 990.480379 
C 614.649678 988.310723 625.114747 985.799271 635.489977 982.94996 
L 588.508699 811.875831 
C 581.838908 813.707531 575.111364 815.322036 568.336716 816.716815 
C 561.562067 818.111594 554.743899 819.285885 547.892987 820.237842 
L 572.30998 995.957532 
z
" style="fill: none"/>
   </g>
   <g id="patch_9">
    <path d="M 635.489977 982.94996 
C 645.216626 980.278771 654.859779 977.311916 664.405789 974.053568 
C 673.951798 970.79522 683.396237 967.24692 692.726181 963.413493 
L 625.303401 799.316674 
C 619.30558 801.78102 613.234155 804.06207 607.097435 806.156722 
C 600.960715 808.251374 594.761544 810.158639 588.508699 811.875831 
L 635.489977 982.94996 
z
" style="fill: none"/>
   </g>
   <g id="patch_10">
    <path d="M 692.726181 963.413493 
C 693.309299 963.173904 693.892076 962.933189 694.474276 962.69138 
C 695.056476 962.44957 695.638113 962.206724 696.219381 961.962693 
L 627.54903 798.384017 
C 627.175358 798.540894 626.801448 798.697009 626.427177 798.852458 
C 626.052905 799.007907 625.678263 799.162652 625.303401 799.316674 
L 692.726181 963.413493 
z
" style="fill: none"/>
   </g>
   <g id="patch_11">
    <path d="M 696.219381 961.962693 
C 698.118092 961.165612 700.011815 960.356717 701.900475 959.536098 
C 703.789135 958.715478 705.672672 957.883074 707.550969 957.039035 
L 634.833622 795.218808 
C 633.626146 795.761405 632.4153 796.296522 631.201162 796.824063 
C 629.987023 797.351604 628.76963 797.871608 627.54903 798.384017 
L 696.219381 961.962693 
z
" style="fill: none"/>
   </g>
   <g id="patch_12">
    <path d="M 707.550969 957.039035 
C 713.761057 954.248407 719.913128 951.330375 726.003259 948.286835 
C 732.09339 945.243294 738.120322 942.074866 744.080207 938.783565 
L 658.316704 783.483149 
C 654.485349 785.598986 650.610893 787.635832 646.695809 789.592394 
C 642.780725 791.548956 638.825822 793.424833 634.833622 795.218808 
L 707.550969 957.039035 
z
" style="fill: none"/>
   </g>
   <g id="patch_13">
    <path d="M 744.080207 938.783565 
C 835.684417 888.195813 909.00226 809.932549 953.511488 715.225745 
C 998.020716 620.518934 1011.485261 514.126769 991.972806 411.317642 
L 817.676232 444.397913 
C 830.219953 510.489494 821.564174 578.884457 792.951099 639.767407 
C 764.338024 700.650353 717.205124 750.962451 658.316704 783.483149 
z
" style="fill: #c6a6e6; stroke: #ffffff; stroke-linejoin: miter"/>
   </g>
   <g id="patch_14">
    <path d="M 991.972806 411.317642 
C 988.508297 393.063504 984.022336 375.018104 978.536122 357.26655 
C 973.049909 339.514996 966.572059 322.085223 959.133099 305.059409 
L 796.564992 376.089049 
C 801.34718 387.034215 805.511512 398.239069 809.038364 409.650782 
C 812.565215 421.062495 815.449047 432.66311 817.676232 444.397913 
z
" style="fill: #c9ade6; stroke: #ffffff; stroke-linejoin: miter"/>
   </g>
   <g id="patch_15">
    <path d="M 959.133099 305.059409 
C 957.366351 301.015823 955.545805 296.995939 953.671964 293.000866 
C 951.798123 289.005794 949.871106 285.035873 947.891475 281.092141 
L 789.338233 360.681519 
C 790.610853 363.216776 791.84965 365.768867 793.054262 368.337128 
C 794.258874 370.905389 795.429225 373.489601 796.564992 376.089049 
z
" style="fill: #cdb4e7; stroke: #ffffff; stroke-linejoin: miter"/>
   </g>
   <g id="patch_16">
    <path d="M 947.891475 281.092141 
C 941.34828 268.057151 934.234063 255.31654 926.569696 242.907585 
C 918.905329 230.49863 910.698245 218.433337 901.97213 206.746613 
L 759.818654 312.887966 
C 765.4283 320.400859 770.704282 328.157119 775.631375 336.134305 
C 780.558468 344.11149 785.131894 352.301883 789.338233 360.681519 
L 947.891475 281.092141 
z
" style="fill: none"/>
   </g>
   <g id="patch_17">
    <path d="M 901.97213 206.746613 
C 873.082032 168.054559 838.703886 133.781018 799.923984 105.008939 
C 761.144082 76.23686 718.375251 53.272598 672.968867 36.8417 
L 612.602271 203.663379 
C 641.792089 214.226098 669.286338 228.988838 694.216275 247.485175 
C 719.146212 265.981512 741.246449 288.014502 759.818654 312.887966 
L 901.97213 206.746613 
z
" style="fill: none"/>
   </g>
   <g id="patch_18">
    <path d="M 672.968867 36.8417 
C 645.922025 27.054458 618.076126 19.634833 589.745253 14.666525 
C 561.414379 9.698218 532.705441 7.2 503.94223 7.2 
L 503.94229 184.608 
C 522.432926 184.608 540.888672 186.213997 559.101376 189.407909 
C 577.31408 192.601821 595.215016 197.37158 612.602271 203.663379 
L 672.968867 36.8417 
z
" style="fill: none"/>
   </g>
   <g id="patch_19">
    <path d="M 503.942398 184.608 
C 447.3421 184.608 391.746462 199.656146 342.873452 228.204746 
C 294.000442 256.753347 253.58506 297.788924 225.783996 347.090998 
C 197.982932 396.393073 183.783129 452.211415 184.645025 508.80515 
C 185.506921 565.398884 201.399919 620.758927 230.689436 669.191539 
L 352.135197 595.747477 
C 335.863243 568.840471 327.0338 538.084891 326.554968 506.643928 
C 326.076137 475.202964 333.964917 444.192774 349.409952 416.802732 
C 364.854988 389.412691 387.307978 366.615148 414.45965 350.754815 
C 441.611322 334.894481 472.497788 326.5344 503.942398 326.5344 
z
" style="fill: #e3ac75; stroke: #ffffff; stroke-linejoin: miter"/>
   </g>
   <g id="patch_20">
    <path d="M 230.689432 669.191532 
C 256.118702 711.240919 290.914264 746.85857 332.35847 773.262676 
C 373.802677 799.666782 420.787788 816.151587 469.64413 821.429549 
L 484.887805 680.32415 
C 457.745392 677.391948 431.642553 668.233723 408.617994 653.564776 
C 385.593435 638.895828 366.262567 619.108244 352.135195 595.747473 
z
" style="fill: #e3b282; stroke: #ffffff; stroke-linejoin: miter"/>
   </g>
   <g id="patch_21">
    <path d="M 469.64413 821.429549 
C 482.6484 822.834397 495.726708 823.438968 508.805125 823.239779 
C 521.883541 823.040609 534.937376 822.038079 547.892834 820.237861 
L 528.359307 679.662101 
C 521.161831 680.662222 513.9097 681.219183 506.643913 681.329833 
C 499.378126 681.440493 492.112399 681.104621 484.887805 680.32415 
z
" style="fill: #e4b98e; stroke: #ffffff; stroke-linejoin: miter"/>
   </g>
   <g id="patch_22">
    <path d="M 547.892834 820.237861 
C 554.743746 819.285904 561.56192 818.111594 568.336568 816.716834 
C 575.111216 815.322074 581.838756 813.70755 588.508547 811.875869 
L 550.923592 675.01655 
C 547.218152 676.03415 543.48063 676.931108 539.716937 677.705975 
C 535.953244 678.480841 532.165369 679.133236 528.359307 679.662101 
z
" style="fill: #e5bf9a; stroke: #ffffff; stroke-linejoin: miter"/>
   </g>
   <g id="patch_23">
    <path d="M 588.508547 811.875869 
C 594.761421 810.158677 600.960543 808.251432 607.097292 806.156779 
C 613.234041 804.062127 619.305552 801.78102 625.303401 799.316674 
L 571.365178 668.039219 
C 568.033039 669.4083 564.659978 670.675582 561.250673 671.839277 
C 557.841368 673.002973 554.397411 674.062554 550.923592 675.01655 
z
" style="fill: #75e3ac; stroke: #ffffff; stroke-linejoin: miter"/>
   </g>
   <g id="patch_24">
    <path d="M 625.303401 799.316674 
C 625.678234 799.162671 626.052782 799.007945 626.427034 798.852515 
C 626.801286 798.697085 627.175234 798.540932 627.548887 798.384074 
L 572.61267 667.521108 
C 572.405085 667.608251 572.197336 667.695003 571.989418 667.781353 
C 571.7815 667.867703 571.573418 667.953662 571.365178 668.039219 
z
" style="fill: #82e3b2; stroke: #ffffff; stroke-linejoin: miter"/>
   </g>
   <g id="patch_25">
    <path d="M 627.548887 798.384074 
C 628.769487 797.871665 629.98689 797.351661 631.201028 796.82412 
C 632.415167 796.296579 633.626003 795.761462 634.83348 795.218865 
L 576.659666 665.762658 
C 575.988845 666.064101 575.316159 666.361388 574.641637 666.654467 
C 573.967116 666.947545 573.290781 667.236436 572.61267 667.521108 
z
" style="fill: #8ee4b9; stroke: #ffffff; stroke-linejoin: miter"/>
   </g>
   <g id="patch_26">
    <path d="M 634.83348 795.218865 
C 638.825689 793.42489 642.780582 791.549032 646.695676 789.59247 
C 650.610769 787.635908 654.485216 785.599062 658.316571 783.483225 
L 589.705827 659.242858 
C 587.577297 660.418323 585.424827 661.549905 583.249775 662.636883 
C 581.074723 663.723862 578.87756 664.766006 576.659666 665.762658 
z
" style="fill: #9ae5bf; stroke: #ffffff; stroke-linejoin: miter"/>
   </g>
   <g id="patch_27">
    <path d="M 658.316571 783.483225 
C 730.526909 743.605654 784.549345 677.259338 808.966511 598.466212 
C 833.383677 519.67309 826.345125 434.404608 789.338367 360.681786 
L 662.495714 424.35317 
C 683.055024 465.310294 686.965331 512.681672 673.400239 556.455629 
C 659.835146 600.229588 629.822682 637.088652 589.705827 659.242858 
z
" style="fill: #ac75e3; stroke: #ffffff; stroke-linejoin: miter"/>
   </g>
   <g id="patch_28">
    <path d="M 789.338367 360.681786 
C 785.132027 352.30214 780.558621 344.111757 775.631547 336.134571 
C 770.704473 328.157386 765.428471 320.401126 759.818844 312.888213 
L 646.095979 397.801185 
C 649.212439 401.975025 652.143551 406.284059 654.880814 410.715828 
C 657.618077 415.147598 660.158859 419.697811 662.495714 424.35317 
z
" style="fill: #b282e3; stroke: #ffffff; stroke-linejoin: miter"/>
   </g>
   <g id="patch_29">
    <path d="M 759.818844 312.888213 
C 741.246677 288.01475 719.146421 265.981702 694.216522 247.485365 
C 669.286623 228.989029 641.79247 214.22627 612.602699 203.663531 
L 564.309232 337.120806 
C 580.525771 342.988994 595.800301 351.190527 609.650245 361.46627 
C 623.500189 371.742012 635.778109 383.982594 646.095979 397.801185 
z
" style="fill: #b98ee4; stroke: #ffffff; stroke-linejoin: miter"/>
   </g>
   <g id="patch_30">
    <path d="M 612.602699 203.663531 
C 595.215425 197.371695 577.314399 192.601897 559.101676 189.407966 
C 540.888953 186.214035 522.433254 184.608019 503.942595 184.608 
L 503.942507 326.5344 
C 514.215096 326.534411 524.468262 327.426642 534.586441 329.201048 
C 544.704621 330.975454 554.649635 333.625341 564.309232 337.120806 
z
" style="fill: #bf9ae5; stroke: #ffffff; stroke-linejoin: miter"/>
   </g>
   <g id="patch_31">
    <path d="M 503.942398 326.5344 
C 478.643569 326.5344 453.634959 331.945915 430.599293 342.404827 
C 407.563628 352.863739 387.029419 368.130087 370.378329 387.17666 
C 353.72724 406.223234 341.3413 428.613043 334.053907 452.839571 
C 326.766515 477.066099 324.744867 502.57351 328.124991 527.645516 
C 331.505115 552.717522 340.209461 576.778891 353.652349 598.210631 
C 367.095236 619.642372 384.968243 637.952771 406.068768 651.909798 
C 427.169292 665.866825 451.013221 675.15026 475.996193 679.13546 
C 500.979166 683.120659 526.527993 681.716189 550.923599 675.016551 
L 503.942398 503.9424 
C 503.942398 503.9424 503.942398 503.9424 503.942398 503.9424 
C 503.942398 503.9424 503.942398 503.9424 503.942398 503.9424 
C 503.942398 503.9424 503.942398 503.9424 503.942398 503.9424 
C 503.942398 503.9424 503.942398 503.9424 503.942398 503.9424 
C 503.942398 503.9424 503.942398 503.9424 503.942398 503.9424 
C 503.942398 503.9424 503.942398 503.9424 503.942398 503.9424 
C 503.942398 503.9424 503.942398 503.9424 503.942398 503.9424 
C 503.942398 503.9424 503.942398 503.9424 503.942398 503.9424 
z
" style="fill: #e19f5d; stroke: #ffffff; stroke-linejoin: miter"/>
   </g>
   <g id="patch_32">
    <path d="M 550.923592 675.01655 
C 557.670026 673.163809 564.300968 670.913621 570.781654 668.277765 
C 577.26234 665.64191 583.581439 662.624998 589.705827 659.242858 
L 503.942398 503.9424 
C 503.942398 503.9424 503.942398 503.9424 503.942398 503.9424 
C 503.942398 503.9424 503.942398 503.9424 503.942398 503.9424 
z
" style="fill: #5de19f; stroke: #ffffff; stroke-linejoin: miter"/>
   </g>
   <g id="patch_33">
    <path d="M 589.705827 659.242858 
C 624.139397 640.22719 651.28981 610.289032 666.860072 574.16655 
C 682.430334 538.04407 685.553255 497.749088 675.73463 459.658922 
C 665.915995 421.568756 643.702636 387.804795 612.610151 363.710737 
C 581.517666 339.616678 543.27773 326.534411 503.942423 326.5344 
L 503.942398 503.9424 
C 503.942398 503.9424 503.942398 503.9424 503.942398 503.9424 
C 503.942398 503.9424 503.942398 503.9424 503.942398 503.9424 
C 503.942398 503.9424 503.942398 503.9424 503.942398 503.9424 
C 503.942398 503.9424 503.942398 503.9424 503.942398 503.9424 
z
" style="fill: #9f5de1; stroke: #ffffff; stroke-linejoin: miter"/>
   </g>
   <g id="matplotlib.axis_1"/>
   <g id="matplotlib.axis_2"/>
   <g id="text_1">
    <!-- 1.0 Spatial Relation -->
    <g transform="translate(344.190491 529.656133) rotate(-7.678131) scale(0.15 -0.15)">
     <defs>
      <path id="DejaVuSans-31" d="M 794 531 
L 1825 531 
L 1825 4091 
L 703 3866 
L 703 4441 
L 1819 4666 
L 2450 4666 
L 2450 531 
L 3481 531 
L 3481 0 
L 794 0 
L 794 531 
z
" transform="scale(0.015625)"/>
      <path id="DejaVuSans-2e" d="M 684 794 
L 1344 794 
L 1344 0 
L 684 0 
L 684 794 
z
" transform="scale(0.015625)"/>
      <path id="DejaVuSans-30" d="M 2034 4250 
Q 1547 4250 1301 3770 
Q 1056 3291 1056 2328 
Q 1056 1369 1301 889 
Q 1547 409 2034 409 
Q 2525 409 2770 889 
Q 3016 1369 3016 2328 
Q 3016 3291 2770 3770 
Q 2525 4250 2034 4250 
z
M 2034 4750 
Q 2819 4750 3233 4129 
Q 3647 3509 3647 2328 
Q 3647 1150 3233 529 
Q 2819 -91 2034 -91 
Q 1250 -91 836 529 
Q 422 1150 422 2328 
Q 422 3509 836 4129 
Q 1250 4750 2034 4750 
z
" transform="scale(0.015625)"/>
      <path id="DejaVuSans-20" transform="scale(0.015625)"/>
      <path id="DejaVuSans-53" d="M 3425 4513 
L 3425 3897 
Q 3066 4069 2747 4153 
Q 2428 4238 2131 4238 
Q 1616 4238 1336 4038 
Q 1056 3838 1056 3469 
Q 1056 3159 1242 3001 
Q 1428 2844 1947 2747 
L 2328 2669 
Q 3034 2534 3370 2195 
Q 3706 1856 3706 1288 
Q 3706 609 3251 259 
Q 2797 -91 1919 -91 
Q 1588 -91 1214 -16 
Q 841 59 441 206 
L 441 856 
Q 825 641 1194 531 
Q 1563 422 1919 422 
Q 2459 422 2753 634 
Q 3047 847 3047 1241 
Q 3047 1584 2836 1778 
Q 2625 1972 2144 2069 
L 1759 2144 
Q 1053 2284 737 2584 
Q 422 2884 422 3419 
Q 422 4038 858 4394 
Q 1294 4750 2059 4750 
Q 2388 4750 2728 4690 
Q 3069 4631 3425 4513 
z
" transform="scale(0.015625)"/>
      <path id="DejaVuSans-70" d="M 1159 525 
L 1159 -1331 
L 581 -1331 
L 581 3500 
L 1159 3500 
L 1159 2969 
Q 1341 3281 1617 3432 
Q 1894 3584 2278 3584 
Q 2916 3584 3314 3078 
Q 3713 2572 3713 1747 
Q 3713 922 3314 415 
Q 2916 -91 2278 -91 
Q 1894 -91 1617 61 
Q 1341 213 1159 525 
z
M 3116 1747 
Q 3116 2381 2855 2742 
Q 2594 3103 2138 3103 
Q 1681 3103 1420 2742 
Q 1159 2381 1159 1747 
Q 1159 1113 1420 752 
Q 1681 391 2138 391 
Q 2594 391 2855 752 
Q 3116 1113 3116 1747 
z
" transform="scale(0.015625)"/>
      <path id="DejaVuSans-61" d="M 2194 1759 
Q 1497 1759 1228 1600 
Q 959 1441 959 1056 
Q 959 750 1161 570 
Q 1363 391 1709 391 
Q 2188 391 2477 730 
Q 2766 1069 2766 1631 
L 2766 1759 
L 2194 1759 
z
M 3341 1997 
L 3341 0 
L 2766 0 
L 2766 531 
Q 2569 213 2275 61 
Q 1981 -91 1556 -91 
Q 1019 -91 701 211 
Q 384 513 384 1019 
Q 384 1609 779 1909 
Q 1175 2209 1959 2209 
L 2766 2209 
L 2766 2266 
Q 2766 2663 2505 2880 
Q 2244 3097 1772 3097 
Q 1472 3097 1187 3025 
Q 903 2953 641 2809 
L 641 3341 
Q 956 3463 1253 3523 
Q 1550 3584 1831 3584 
Q 2591 3584 2966 3190 
Q 3341 2797 3341 1997 
z
" transform="scale(0.015625)"/>
      <path id="DejaVuSans-74" d="M 1172 4494 
L 1172 3500 
L 2356 3500 
L 2356 3053 
L 1172 3053 
L 1172 1153 
Q 1172 725 1289 603 
Q 1406 481 1766 481 
L 2356 481 
L 2356 0 
L 1766 0 
Q 1100 0 847 248 
Q 594 497 594 1153 
L 594 3053 
L 172 3053 
L 172 3500 
L 594 3500 
L 594 4494 
L 1172 4494 
z
" transform="scale(0.015625)"/>
      <path id="DejaVuSans-69" d="M 603 3500 
L 1178 3500 
L 1178 0 
L 603 0 
L 603 3500 
z
M 603 4863 
L 1178 4863 
L 1178 4134 
L 603 4134 
L 603 4863 
z
" transform="scale(0.015625)"/>
      <path id="DejaVuSans-6c" d="M 603 4863 
L 1178 4863 
L 1178 0 
L 603 0 
L 603 4863 
z
" transform="scale(0.015625)"/>
      <path id="DejaVuSans-52" d="M 2841 2188 
Q 3044 2119 3236 1894 
Q 3428 1669 3622 1275 
L 4263 0 
L 3584 0 
L 2988 1197 
Q 2756 1666 2539 1819 
Q 2322 1972 1947 1972 
L 1259 1972 
L 1259 0 
L 628 0 
L 628 4666 
L 2053 4666 
Q 2853 4666 3247 4331 
Q 3641 3997 3641 3322 
Q 3641 2881 3436 2590 
Q 3231 2300 2841 2188 
z
M 1259 4147 
L 1259 2491 
L 2053 2491 
Q 2509 2491 2742 2702 
Q 2975 2913 2975 3322 
Q 2975 3731 2742 3939 
Q 2509 4147 2053 4147 
L 1259 4147 
z
" transform="scale(0.015625)"/>
      <path id="DejaVuSans-65" d="M 3597 1894 
L 3597 1613 
L 953 1613 
Q 991 1019 1311 708 
Q 1631 397 2203 397 
Q 2534 397 2845 478 
Q 3156 559 3463 722 
L 3463 178 
Q 3153 47 2828 -22 
Q 2503 -91 2169 -91 
Q 1331 -91 842 396 
Q 353 884 353 1716 
Q 353 2575 817 3079 
Q 1281 3584 2069 3584 
Q 2775 3584 3186 3129 
Q 3597 2675 3597 1894 
z
M 3022 2063 
Q 3016 2534 2758 2815 
Q 2500 3097 2075 3097 
Q 1594 3097 1305 2825 
Q 1016 2553 972 2059 
L 3022 2063 
z
" transform="scale(0.015625)"/>
      <path id="DejaVuSans-6f" d="M 1959 3097 
Q 1497 3097 1228 2736 
Q 959 2375 959 1747 
Q 959 1119 1226 758 
Q 1494 397 1959 397 
Q 2419 397 2687 759 
Q 2956 1122 2956 1747 
Q 2956 2369 2687 2733 
Q 2419 3097 1959 3097 
z
M 1959 3584 
Q 2709 3584 3137 3096 
Q 3566 2609 3566 1747 
Q 3566 888 3137 398 
Q 2709 -91 1959 -91 
Q 1206 -91 779 398 
Q 353 888 353 1747 
Q 353 2609 779 3096 
Q 1206 3584 1959 3584 
z
" transform="scale(0.015625)"/>
      <path id="DejaVuSans-6e" d="M 3513 2113 
L 3513 0 
L 2938 0 
L 2938 2094 
Q 2938 2591 2744 2837 
Q 2550 3084 2163 3084 
Q 1697 3084 1428 2787 
Q 1159 2491 1159 1978 
L 1159 0 
L 581 0 
L 581 3500 
L 1159 3500 
L 1159 2956 
Q 1366 3272 1645 3428 
Q 1925 3584 2291 3584 
Q 2894 3584 3203 3211 
Q 3513 2838 3513 2113 
z
" transform="scale(0.015625)"/>
     </defs>
     <use xlink:href="#DejaVuSans-31"/>
     <use xlink:href="#DejaVuSans-2e" transform="translate(63.623047 0)"/>
     <use xlink:href="#DejaVuSans-30" transform="translate(95.410156 0)"/>
     <use xlink:href="#DejaVuSans-20" transform="translate(159.033203 0)"/>
     <use xlink:href="#DejaVuSans-53" transform="translate(190.820312 0)"/>
     <use xlink:href="#DejaVuSans-70" transform="translate(254.296875 0)"/>
     <use xlink:href="#DejaVuSans-61" transform="translate(317.773438 0)"/>
     <use xlink:href="#DejaVuSans-74" transform="translate(379.052734 0)"/>
     <use xlink:href="#DejaVuSans-69" transform="translate(418.261719 0)"/>
     <use xlink:href="#DejaVuSans-61" transform="translate(446.044922 0)"/>
     <use xlink:href="#DejaVuSans-6c" transform="translate(507.324219 0)"/>
     <use xlink:href="#DejaVuSans-20" transform="translate(535.107422 0)"/>
     <use xlink:href="#DejaVuSans-52" transform="translate(566.894531 0)"/>
     <use xlink:href="#DejaVuSans-65" transform="translate(631.876953 0)"/>
     <use xlink:href="#DejaVuSans-6c" transform="translate(693.400391 0)"/>
     <use xlink:href="#DejaVuSans-61" transform="translate(721.183594 0)"/>
     <use xlink:href="#DejaVuSans-74" transform="translate(782.462891 0)"/>
     <use xlink:href="#DejaVuSans-69" transform="translate(821.671875 0)"/>
     <use xlink:href="#DejaVuSans-6f" transform="translate(849.455078 0)"/>
     <use xlink:href="#DejaVuSans-6e" transform="translate(910.636719 0)"/>
    </g>
   </g>
   <g id="text_2">
    <!-- 2.0 State Changes &amp;  -->
    <g transform="translate(503.468262 513.762726) rotate(-292.132812) scale(0.15 -0.15)">
     <defs>
      <path id="DejaVuSans-32" d="M 1228 531 
L 3431 531 
L 3431 0 
L 469 0 
L 469 531 
Q 828 903 1448 1529 
Q 2069 2156 2228 2338 
Q 2531 2678 2651 2914 
Q 2772 3150 2772 3378 
Q 2772 3750 2511 3984 
Q 2250 4219 1831 4219 
Q 1534 4219 1204 4116 
Q 875 4013 500 3803 
L 500 4441 
Q 881 4594 1212 4672 
Q 1544 4750 1819 4750 
Q 2544 4750 2975 4387 
Q 3406 4025 3406 3419 
Q 3406 3131 3298 2873 
Q 3191 2616 2906 2266 
Q 2828 2175 2409 1742 
Q 1991 1309 1228 531 
z
" transform="scale(0.015625)"/>
      <path id="DejaVuSans-43" d="M 4122 4306 
L 4122 3641 
Q 3803 3938 3442 4084 
Q 3081 4231 2675 4231 
Q 1875 4231 1450 3742 
Q 1025 3253 1025 2328 
Q 1025 1406 1450 917 
Q 1875 428 2675 428 
Q 3081 428 3442 575 
Q 3803 722 4122 1019 
L 4122 359 
Q 3791 134 3420 21 
Q 3050 -91 2638 -91 
Q 1578 -91 968 557 
Q 359 1206 359 2328 
Q 359 3453 968 4101 
Q 1578 4750 2638 4750 
Q 3056 4750 3426 4639 
Q 3797 4528 4122 4306 
z
" transform="scale(0.015625)"/>
      <path id="DejaVuSans-68" d="M 3513 2113 
L 3513 0 
L 2938 0 
L 2938 2094 
Q 2938 2591 2744 2837 
Q 2550 3084 2163 3084 
Q 1697 3084 1428 2787 
Q 1159 2491 1159 1978 
L 1159 0 
L 581 0 
L 581 4863 
L 1159 4863 
L 1159 2956 
Q 1366 3272 1645 3428 
Q 1925 3584 2291 3584 
Q 2894 3584 3203 3211 
Q 3513 2838 3513 2113 
z
" transform="scale(0.015625)"/>
      <path id="DejaVuSans-67" d="M 2906 1791 
Q 2906 2416 2648 2759 
Q 2391 3103 1925 3103 
Q 1463 3103 1205 2759 
Q 947 2416 947 1791 
Q 947 1169 1205 825 
Q 1463 481 1925 481 
Q 2391 481 2648 825 
Q 2906 1169 2906 1791 
z
M 3481 434 
Q 3481 -459 3084 -895 
Q 2688 -1331 1869 -1331 
Q 1566 -1331 1297 -1286 
Q 1028 -1241 775 -1147 
L 775 -588 
Q 1028 -725 1275 -790 
Q 1522 -856 1778 -856 
Q 2344 -856 2625 -561 
Q 2906 -266 2906 331 
L 2906 616 
Q 2728 306 2450 153 
Q 2172 0 1784 0 
Q 1141 0 747 490 
Q 353 981 353 1791 
Q 353 2603 747 3093 
Q 1141 3584 1784 3584 
Q 2172 3584 2450 3431 
Q 2728 3278 2906 2969 
L 2906 3500 
L 3481 3500 
L 3481 434 
z
" transform="scale(0.015625)"/>
      <path id="DejaVuSans-73" d="M 2834 3397 
L 2834 2853 
Q 2591 2978 2328 3040 
Q 2066 3103 1784 3103 
Q 1356 3103 1142 2972 
Q 928 2841 928 2578 
Q 928 2378 1081 2264 
Q 1234 2150 1697 2047 
L 1894 2003 
Q 2506 1872 2764 1633 
Q 3022 1394 3022 966 
Q 3022 478 2636 193 
Q 2250 -91 1575 -91 
Q 1294 -91 989 -36 
Q 684 19 347 128 
L 347 722 
Q 666 556 975 473 
Q 1284 391 1588 391 
Q 1994 391 2212 530 
Q 2431 669 2431 922 
Q 2431 1156 2273 1281 
Q 2116 1406 1581 1522 
L 1381 1569 
Q 847 1681 609 1914 
Q 372 2147 372 2553 
Q 372 3047 722 3315 
Q 1072 3584 1716 3584 
Q 2034 3584 2315 3537 
Q 2597 3491 2834 3397 
z
" transform="scale(0.015625)"/>
      <path id="DejaVuSans-26" d="M 1556 2509 
Q 1272 2256 1139 2004 
Q 1006 1753 1006 1478 
Q 1006 1022 1337 719 
Q 1669 416 2169 416 
Q 2466 416 2725 514 
Q 2984 613 3213 813 
L 1556 2509 
z
M 1997 2859 
L 3584 1234 
Q 3769 1513 3872 1830 
Q 3975 2147 3994 2503 
L 4575 2503 
Q 4538 2091 4375 1687 
Q 4213 1284 3922 891 
L 4794 0 
L 4006 0 
L 3559 459 
Q 3234 181 2878 45 
Q 2522 -91 2113 -91 
Q 1359 -91 881 339 
Q 403 769 403 1441 
Q 403 1841 612 2192 
Q 822 2544 1241 2853 
Q 1091 3050 1012 3245 
Q 934 3441 934 3628 
Q 934 4134 1281 4442 
Q 1628 4750 2203 4750 
Q 2463 4750 2720 4694 
Q 2978 4638 3244 4525 
L 3244 3956 
Q 2972 4103 2725 4179 
Q 2478 4256 2266 4256 
Q 1938 4256 1733 4082 
Q 1528 3909 1528 3634 
Q 1528 3475 1620 3314 
Q 1713 3153 1997 2859 
z
" transform="scale(0.015625)"/>
     </defs>
     <use xlink:href="#DejaVuSans-32"/>
     <use xlink:href="#DejaVuSans-2e" transform="translate(63.623047 0)"/>
     <use xlink:href="#DejaVuSans-30" transform="translate(95.410156 0)"/>
     <use xlink:href="#DejaVuSans-20" transform="translate(159.033203 0)"/>
     <use xlink:href="#DejaVuSans-53" transform="translate(190.820312 0)"/>
     <use xlink:href="#DejaVuSans-74" transform="translate(254.296875 0)"/>
     <use xlink:href="#DejaVuSans-61" transform="translate(293.505859 0)"/>
     <use xlink:href="#DejaVuSans-74" transform="translate(354.785156 0)"/>
     <use xlink:href="#DejaVuSans-65" transform="translate(393.994141 0)"/>
     <use xlink:href="#DejaVuSans-20" transform="translate(455.517578 0)"/>
     <use xlink:href="#DejaVuSans-43" transform="translate(487.304688 0)"/>
     <use xlink:href="#DejaVuSans-68" transform="translate(557.128906 0)"/>
     <use xlink:href="#DejaVuSans-61" transform="translate(620.507812 0)"/>
     <use xlink:href="#DejaVuSans-6e" transform="translate(681.787109 0)"/>
     <use xlink:href="#DejaVuSans-67" transform="translate(745.166016 0)"/>
     <use xlink:href="#DejaVuSans-65" transform="translate(808.642578 0)"/>
     <use xlink:href="#DejaVuSans-73" transform="translate(870.166016 0)"/>
     <use xlink:href="#DejaVuSans-20" transform="translate(922.265625 0)"/>
     <use xlink:href="#DejaVuSans-26" transform="translate(954.052734 0)"/>
     <use xlink:href="#DejaVuSans-20" transform="translate(1032.03125 0)"/>
    </g>
   </g>
   <g id="text_3">
    <!-- 3.0 Spatio-Temporal  -->
    <g transform="translate(516.379054 505.010916) rotate(-14.454651) scale(0.15 -0.15)">
     <defs>
      <path id="DejaVuSans-33" d="M 2597 2516 
Q 3050 2419 3304 2112 
Q 3559 1806 3559 1356 
Q 3559 666 3084 287 
Q 2609 -91 1734 -91 
Q 1441 -91 1130 -33 
Q 819 25 488 141 
L 488 750 
Q 750 597 1062 519 
Q 1375 441 1716 441 
Q 2309 441 2620 675 
Q 2931 909 2931 1356 
Q 2931 1769 2642 2001 
Q 2353 2234 1838 2234 
L 1294 2234 
L 1294 2753 
L 1863 2753 
Q 2328 2753 2575 2939 
Q 2822 3125 2822 3475 
Q 2822 3834 2567 4026 
Q 2313 4219 1838 4219 
Q 1578 4219 1281 4162 
Q 984 4106 628 3988 
L 628 4550 
Q 988 4650 1302 4700 
Q 1616 4750 1894 4750 
Q 2613 4750 3031 4423 
Q 3450 4097 3450 3541 
Q 3450 3153 3228 2886 
Q 3006 2619 2597 2516 
z
" transform="scale(0.015625)"/>
      <path id="DejaVuSans-2d" d="M 313 2009 
L 1997 2009 
L 1997 1497 
L 313 1497 
L 313 2009 
z
" transform="scale(0.015625)"/>
      <path id="DejaVuSans-54" d="M -19 4666 
L 3928 4666 
L 3928 4134 
L 2272 4134 
L 2272 0 
L 1638 0 
L 1638 4134 
L -19 4134 
L -19 4666 
z
" transform="scale(0.015625)"/>
      <path id="DejaVuSans-6d" d="M 3328 2828 
Q 3544 3216 3844 3400 
Q 4144 3584 4550 3584 
Q 5097 3584 5394 3201 
Q 5691 2819 5691 2113 
L 5691 0 
L 5113 0 
L 5113 2094 
Q 5113 2597 4934 2840 
Q 4756 3084 4391 3084 
Q 3944 3084 3684 2787 
Q 3425 2491 3425 1978 
L 3425 0 
L 2847 0 
L 2847 2094 
Q 2847 2600 2669 2842 
Q 2491 3084 2119 3084 
Q 1678 3084 1418 2786 
Q 1159 2488 1159 1978 
L 1159 0 
L 581 0 
L 581 3500 
L 1159 3500 
L 1159 2956 
Q 1356 3278 1631 3431 
Q 1906 3584 2284 3584 
Q 2666 3584 2933 3390 
Q 3200 3197 3328 2828 
z
" transform="scale(0.015625)"/>
      <path id="DejaVuSans-72" d="M 2631 2963 
Q 2534 3019 2420 3045 
Q 2306 3072 2169 3072 
Q 1681 3072 1420 2755 
Q 1159 2438 1159 1844 
L 1159 0 
L 581 0 
L 581 3500 
L 1159 3500 
L 1159 2956 
Q 1341 3275 1631 3429 
Q 1922 3584 2338 3584 
Q 2397 3584 2469 3576 
Q 2541 3569 2628 3553 
L 2631 2963 
z
" transform="scale(0.015625)"/>
     </defs>
     <use xlink:href="#DejaVuSans-33"/>
     <use xlink:href="#DejaVuSans-2e" transform="translate(63.623047 0)"/>
     <use xlink:href="#DejaVuSans-30" transform="translate(95.410156 0)"/>
     <use xlink:href="#DejaVuSans-20" transform="translate(159.033203 0)"/>
     <use xlink:href="#DejaVuSans-53" transform="translate(190.820312 0)"/>
     <use xlink:href="#DejaVuSans-70" transform="translate(254.296875 0)"/>
     <use xlink:href="#DejaVuSans-61" transform="translate(317.773438 0)"/>
     <use xlink:href="#DejaVuSans-74" transform="translate(379.052734 0)"/>
     <use xlink:href="#DejaVuSans-69" transform="translate(418.261719 0)"/>
     <use xlink:href="#DejaVuSans-6f" transform="translate(446.044922 0)"/>
     <use xlink:href="#DejaVuSans-2d" transform="translate(509.101562 0)"/>
     <use xlink:href="#DejaVuSans-54" transform="translate(536.060547 0)"/>
     <use xlink:href="#DejaVuSans-65" transform="translate(580.144531 0)"/>
     <use xlink:href="#DejaVuSans-6d" transform="translate(641.667969 0)"/>
     <use xlink:href="#DejaVuSans-70" transform="translate(739.080078 0)"/>
     <use xlink:href="#DejaVuSans-6f" transform="translate(802.556641 0)"/>
     <use xlink:href="#DejaVuSans-72" transform="translate(863.738281 0)"/>
     <use xlink:href="#DejaVuSans-61" transform="translate(904.851562 0)"/>
     <use xlink:href="#DejaVuSans-6c" transform="translate(966.130859 0)"/>
     <use xlink:href="#DejaVuSans-20" transform="translate(993.914062 0)"/>
    </g>
   </g>
   <g id="text_4">
    <!-- 1.1 Relative Positio -->
    <g transform="translate(223.384777 350.489859) rotate(-330.581665) scale(0.15 -0.15)">
     <defs>
      <path id="DejaVuSans-76" d="M 191 3500 
L 800 3500 
L 1894 563 
L 2988 3500 
L 3597 3500 
L 2284 0 
L 1503 0 
L 191 3500 
z
" transform="scale(0.015625)"/>
      <path id="DejaVuSans-50" d="M 1259 4147 
L 1259 2394 
L 2053 2394 
Q 2494 2394 2734 2622 
Q 2975 2850 2975 3272 
Q 2975 3691 2734 3919 
Q 2494 4147 2053 4147 
L 1259 4147 
z
M 628 4666 
L 2053 4666 
Q 2838 4666 3239 4311 
Q 3641 3956 3641 3272 
Q 3641 2581 3239 2228 
Q 2838 1875 2053 1875 
L 1259 1875 
L 1259 0 
L 628 0 
L 628 4666 
z
" transform="scale(0.015625)"/>
     </defs>
     <use xlink:href="#DejaVuSans-31"/>
     <use xlink:href="#DejaVuSans-2e" transform="translate(63.623047 0)"/>
     <use xlink:href="#DejaVuSans-31" transform="translate(95.410156 0)"/>
     <use xlink:href="#DejaVuSans-20" transform="translate(159.033203 0)"/>
     <use xlink:href="#DejaVuSans-52" transform="translate(190.820312 0)"/>
     <use xlink:href="#DejaVuSans-65" transform="translate(255.802734 0)"/>
     <use xlink:href="#DejaVuSans-6c" transform="translate(317.326172 0)"/>
     <use xlink:href="#DejaVuSans-61" transform="translate(345.109375 0)"/>
     <use xlink:href="#DejaVuSans-74" transform="translate(406.388672 0)"/>
     <use xlink:href="#DejaVuSans-69" transform="translate(445.597656 0)"/>
     <use xlink:href="#DejaVuSans-76" transform="translate(473.380859 0)"/>
     <use xlink:href="#DejaVuSans-65" transform="translate(532.560547 0)"/>
     <use xlink:href="#DejaVuSans-20" transform="translate(594.083984 0)"/>
     <use xlink:href="#DejaVuSans-50" transform="translate(625.871094 0)"/>
     <use xlink:href="#DejaVuSans-6f" transform="translate(682.548828 0)"/>
     <use xlink:href="#DejaVuSans-73" transform="translate(743.730469 0)"/>
     <use xlink:href="#DejaVuSans-69" transform="translate(795.830078 0)"/>
     <use xlink:href="#DejaVuSans-74" transform="translate(823.613281 0)"/>
     <use xlink:href="#DejaVuSans-69" transform="translate(862.822266 0)"/>
     <use xlink:href="#DejaVuSans-6f" transform="translate(890.605469 0)"/>
    </g>
   </g>
   <g id="text_5">
    <!-- 1.2 Contact: Interac -->
    <g transform="translate(333.828188 778.658958) rotate(-57.498779) scale(0.15 -0.15)">
     <defs>
      <path id="DejaVuSans-63" d="M 3122 3366 
L 3122 2828 
Q 2878 2963 2633 3030 
Q 2388 3097 2138 3097 
Q 1578 3097 1268 2742 
Q 959 2388 959 1747 
Q 959 1106 1268 751 
Q 1578 397 2138 397 
Q 2388 397 2633 464 
Q 2878 531 3122 666 
L 3122 134 
Q 2881 22 2623 -34 
Q 2366 -91 2075 -91 
Q 1284 -91 818 406 
Q 353 903 353 1747 
Q 353 2603 823 3093 
Q 1294 3584 2113 3584 
Q 2378 3584 2631 3529 
Q 2884 3475 3122 3366 
z
" transform="scale(0.015625)"/>
      <path id="DejaVuSans-3a" d="M 750 794 
L 1409 794 
L 1409 0 
L 750 0 
L 750 794 
z
M 750 3309 
L 1409 3309 
L 1409 2516 
L 750 2516 
L 750 3309 
z
" transform="scale(0.015625)"/>
      <path id="DejaVuSans-49" d="M 628 4666 
L 1259 4666 
L 1259 0 
L 628 0 
L 628 4666 
z
" transform="scale(0.015625)"/>
     </defs>
     <use xlink:href="#DejaVuSans-31"/>
     <use xlink:href="#DejaVuSans-2e" transform="translate(63.623047 0)"/>
     <use xlink:href="#DejaVuSans-32" transform="translate(95.410156 0)"/>
     <use xlink:href="#DejaVuSans-20" transform="translate(159.033203 0)"/>
     <use xlink:href="#DejaVuSans-43" transform="translate(190.820312 0)"/>
     <use xlink:href="#DejaVuSans-6f" transform="translate(260.644531 0)"/>
     <use xlink:href="#DejaVuSans-6e" transform="translate(321.826172 0)"/>
     <use xlink:href="#DejaVuSans-74" transform="translate(385.205078 0)"/>
     <use xlink:href="#DejaVuSans-61" transform="translate(424.414062 0)"/>
     <use xlink:href="#DejaVuSans-63" transform="translate(485.693359 0)"/>
     <use xlink:href="#DejaVuSans-74" transform="translate(540.673828 0)"/>
     <use xlink:href="#DejaVuSans-3a" transform="translate(579.882812 0)"/>
     <use xlink:href="#DejaVuSans-20" transform="translate(613.574219 0)"/>
     <use xlink:href="#DejaVuSans-49" transform="translate(645.361328 0)"/>
     <use xlink:href="#DejaVuSans-6e" transform="translate(674.853516 0)"/>
     <use xlink:href="#DejaVuSans-74" transform="translate(738.232422 0)"/>
     <use xlink:href="#DejaVuSans-65" transform="translate(777.441406 0)"/>
     <use xlink:href="#DejaVuSans-72" transform="translate(838.964844 0)"/>
     <use xlink:href="#DejaVuSans-61" transform="translate(880.078125 0)"/>
     <use xlink:href="#DejaVuSans-63" transform="translate(941.357422 0)"/>
    </g>
   </g>
   <g id="text_6">
    <!-- 1.3 Perceptual &amp; Ind -->
    <g transform="translate(502.423869 676.050046) rotate(-270.872498) scale(0.15 -0.15)">
     <defs>
      <path id="DejaVuSans-75" d="M 544 1381 
L 544 3500 
L 1119 3500 
L 1119 1403 
Q 1119 906 1312 657 
Q 1506 409 1894 409 
Q 2359 409 2629 706 
Q 2900 1003 2900 1516 
L 2900 3500 
L 3475 3500 
L 3475 0 
L 2900 0 
L 2900 538 
Q 2691 219 2414 64 
Q 2138 -91 1772 -91 
Q 1169 -91 856 284 
Q 544 659 544 1381 
z
M 1991 3584 
L 1991 3584 
z
" transform="scale(0.015625)"/>
      <path id="DejaVuSans-64" d="M 2906 2969 
L 2906 4863 
L 3481 4863 
L 3481 0 
L 2906 0 
L 2906 525 
Q 2725 213 2448 61 
Q 2172 -91 1784 -91 
Q 1150 -91 751 415 
Q 353 922 353 1747 
Q 353 2572 751 3078 
Q 1150 3584 1784 3584 
Q 2172 3584 2448 3432 
Q 2725 3281 2906 2969 
z
M 947 1747 
Q 947 1113 1208 752 
Q 1469 391 1925 391 
Q 2381 391 2643 752 
Q 2906 1113 2906 1747 
Q 2906 2381 2643 2742 
Q 2381 3103 1925 3103 
Q 1469 3103 1208 2742 
Q 947 2381 947 1747 
z
" transform="scale(0.015625)"/>
     </defs>
     <use xlink:href="#DejaVuSans-31"/>
     <use xlink:href="#DejaVuSans-2e" transform="translate(63.623047 0)"/>
     <use xlink:href="#DejaVuSans-33" transform="translate(95.410156 0)"/>
     <use xlink:href="#DejaVuSans-20" transform="translate(159.033203 0)"/>
     <use xlink:href="#DejaVuSans-50" transform="translate(190.820312 0)"/>
     <use xlink:href="#DejaVuSans-65" transform="translate(247.498047 0)"/>
     <use xlink:href="#DejaVuSans-72" transform="translate(309.021484 0)"/>
     <use xlink:href="#DejaVuSans-63" transform="translate(347.884766 0)"/>
     <use xlink:href="#DejaVuSans-65" transform="translate(402.865234 0)"/>
     <use xlink:href="#DejaVuSans-70" transform="translate(464.388672 0)"/>
     <use xlink:href="#DejaVuSans-74" transform="translate(527.865234 0)"/>
     <use xlink:href="#DejaVuSans-75" transform="translate(567.074219 0)"/>
     <use xlink:href="#DejaVuSans-61" transform="translate(630.453125 0)"/>
     <use xlink:href="#DejaVuSans-6c" transform="translate(691.732422 0)"/>
     <use xlink:href="#DejaVuSans-20" transform="translate(719.515625 0)"/>
     <use xlink:href="#DejaVuSans-26" transform="translate(751.302734 0)"/>
     <use xlink:href="#DejaVuSans-20" transform="translate(829.28125 0)"/>
     <use xlink:href="#DejaVuSans-49" transform="translate(861.068359 0)"/>
     <use xlink:href="#DejaVuSans-6e" transform="translate(890.560547 0)"/>
     <use xlink:href="#DejaVuSans-64" transform="translate(953.939453 0)"/>
    </g>
   </g>
   <g id="text_7">
    <!-- 1.4 Communicative Ac -->
    <g transform="translate(532.904503 665.142626) rotate(-281.633545) scale(0.15 -0.15)">
     <defs>
      <path id="DejaVuSans-34" d="M 2419 4116 
L 825 1625 
L 2419 1625 
L 2419 4116 
z
M 2253 4666 
L 3047 4666 
L 3047 1625 
L 3713 1625 
L 3713 1100 
L 3047 1100 
L 3047 0 
L 2419 0 
L 2419 1100 
L 313 1100 
L 313 1709 
L 2253 4666 
z
" transform="scale(0.015625)"/>
      <path id="DejaVuSans-41" d="M 2188 4044 
L 1331 1722 
L 3047 1722 
L 2188 4044 
z
M 1831 4666 
L 2547 4666 
L 4325 0 
L 3669 0 
L 3244 1197 
L 1141 1197 
L 716 0 
L 50 0 
L 1831 4666 
z
" transform="scale(0.015625)"/>
     </defs>
     <use xlink:href="#DejaVuSans-31"/>
     <use xlink:href="#DejaVuSans-2e" transform="translate(63.623047 0)"/>
     <use xlink:href="#DejaVuSans-34" transform="translate(95.410156 0)"/>
     <use xlink:href="#DejaVuSans-20" transform="translate(159.033203 0)"/>
     <use xlink:href="#DejaVuSans-43" transform="translate(190.820312 0)"/>
     <use xlink:href="#DejaVuSans-6f" transform="translate(260.644531 0)"/>
     <use xlink:href="#DejaVuSans-6d" transform="translate(321.826172 0)"/>
     <use xlink:href="#DejaVuSans-6d" transform="translate(419.238281 0)"/>
     <use xlink:href="#DejaVuSans-75" transform="translate(516.650391 0)"/>
     <use xlink:href="#DejaVuSans-6e" transform="translate(580.029297 0)"/>
     <use xlink:href="#DejaVuSans-69" transform="translate(643.408203 0)"/>
     <use xlink:href="#DejaVuSans-63" transform="translate(671.191406 0)"/>
     <use xlink:href="#DejaVuSans-61" transform="translate(726.171875 0)"/>
     <use xlink:href="#DejaVuSans-74" transform="translate(787.451172 0)"/>
     <use xlink:href="#DejaVuSans-69" transform="translate(826.660156 0)"/>
     <use xlink:href="#DejaVuSans-76" transform="translate(854.443359 0)"/>
     <use xlink:href="#DejaVuSans-65" transform="translate(913.623047 0)"/>
     <use xlink:href="#DejaVuSans-20" transform="translate(975.146484 0)"/>
     <use xlink:href="#DejaVuSans-41" transform="translate(1006.933594 0)"/>
     <use xlink:href="#DejaVuSans-63" transform="translate(1073.591797 0)"/>
    </g>
   </g>
   <g id="text_8">
    <!-- 2.1 Actor State Chan -->
    <g transform="translate(555.058527 666.511226) rotate(-288.846313) scale(0.15 -0.15)">
     <use xlink:href="#DejaVuSans-32"/>
     <use xlink:href="#DejaVuSans-2e" transform="translate(63.623047 0)"/>
     <use xlink:href="#DejaVuSans-31" transform="translate(95.410156 0)"/>
     <use xlink:href="#DejaVuSans-20" transform="translate(159.033203 0)"/>
     <use xlink:href="#DejaVuSans-41" transform="translate(190.820312 0)"/>
     <use xlink:href="#DejaVuSans-63" transform="translate(257.478516 0)"/>
     <use xlink:href="#DejaVuSans-74" transform="translate(312.458984 0)"/>
     <use xlink:href="#DejaVuSans-6f" transform="translate(351.667969 0)"/>
     <use xlink:href="#DejaVuSans-72" transform="translate(412.849609 0)"/>
     <use xlink:href="#DejaVuSans-20" transform="translate(453.962891 0)"/>
     <use xlink:href="#DejaVuSans-53" transform="translate(485.75 0)"/>
     <use xlink:href="#DejaVuSans-74" transform="translate(549.226562 0)"/>
     <use xlink:href="#DejaVuSans-61" transform="translate(588.435547 0)"/>
     <use xlink:href="#DejaVuSans-74" transform="translate(649.714844 0)"/>
     <use xlink:href="#DejaVuSans-65" transform="translate(688.923828 0)"/>
     <use xlink:href="#DejaVuSans-20" transform="translate(750.447266 0)"/>
     <use xlink:href="#DejaVuSans-43" transform="translate(782.234375 0)"/>
     <use xlink:href="#DejaVuSans-68" transform="translate(852.058594 0)"/>
     <use xlink:href="#DejaVuSans-61" transform="translate(915.4375 0)"/>
     <use xlink:href="#DejaVuSans-6e" transform="translate(976.716797 0)"/>
    </g>
   </g>
   <g id="text_9">
    <!-- 2.3 Sequential Actio -->
    <g transform="translate(584.872764 695.740454) rotate(-293.485199) scale(0.08 -0.08)">
     <defs>
      <path id="DejaVuSans-71" d="M 947 1747 
Q 947 1113 1208 752 
Q 1469 391 1925 391 
Q 2381 391 2643 752 
Q 2906 1113 2906 1747 
Q 2906 2381 2643 2742 
Q 2381 3103 1925 3103 
Q 1469 3103 1208 2742 
Q 947 2381 947 1747 
z
M 2906 525 
Q 2725 213 2448 61 
Q 2172 -91 1784 -91 
Q 1150 -91 751 415 
Q 353 922 353 1747 
Q 353 2572 751 3078 
Q 1150 3584 1784 3584 
Q 2172 3584 2448 3432 
Q 2725 3281 2906 2969 
L 2906 3500 
L 3481 3500 
L 3481 -1331 
L 2906 -1331 
L 2906 525 
z
" transform="scale(0.015625)"/>
     </defs>
     <use xlink:href="#DejaVuSans-32"/>
     <use xlink:href="#DejaVuSans-2e" transform="translate(63.623047 0)"/>
     <use xlink:href="#DejaVuSans-33" transform="translate(95.410156 0)"/>
     <use xlink:href="#DejaVuSans-20" transform="translate(159.033203 0)"/>
     <use xlink:href="#DejaVuSans-53" transform="translate(190.820312 0)"/>
     <use xlink:href="#DejaVuSans-65" transform="translate(254.296875 0)"/>
     <use xlink:href="#DejaVuSans-71" transform="translate(315.820312 0)"/>
     <use xlink:href="#DejaVuSans-75" transform="translate(379.296875 0)"/>
     <use xlink:href="#DejaVuSans-65" transform="translate(442.675781 0)"/>
     <use xlink:href="#DejaVuSans-6e" transform="translate(504.199219 0)"/>
     <use xlink:href="#DejaVuSans-74" transform="translate(567.578125 0)"/>
     <use xlink:href="#DejaVuSans-69" transform="translate(606.787109 0)"/>
     <use xlink:href="#DejaVuSans-61" transform="translate(634.570312 0)"/>
     <use xlink:href="#DejaVuSans-6c" transform="translate(695.849609 0)"/>
     <use xlink:href="#DejaVuSans-20" transform="translate(723.632812 0)"/>
     <use xlink:href="#DejaVuSans-41" transform="translate(755.419922 0)"/>
     <use xlink:href="#DejaVuSans-63" transform="translate(822.078125 0)"/>
     <use xlink:href="#DejaVuSans-74" transform="translate(877.058594 0)"/>
     <use xlink:href="#DejaVuSans-69" transform="translate(916.267578 0)"/>
     <use xlink:href="#DejaVuSans-6f" transform="translate(944.050781 0)"/>
    </g>
   </g>
   <g id="text_10">
    <!-- 2.4 Durational State -->
    <g transform="translate(579.553158 663.964764) rotate(-296.553528) scale(0.141347 -0.141347)">
     <defs>
      <path id="DejaVuSans-44" d="M 1259 4147 
L 1259 519 
L 2022 519 
Q 2988 519 3436 956 
Q 3884 1394 3884 2338 
Q 3884 3275 3436 3711 
Q 2988 4147 2022 4147 
L 1259 4147 
z
M 628 4666 
L 1925 4666 
Q 3281 4666 3915 4102 
Q 4550 3538 4550 2338 
Q 4550 1131 3912 565 
Q 3275 0 1925 0 
L 628 0 
L 628 4666 
z
" transform="scale(0.015625)"/>
     </defs>
     <use xlink:href="#DejaVuSans-32"/>
     <use xlink:href="#DejaVuSans-2e" transform="translate(63.623047 0)"/>
     <use xlink:href="#DejaVuSans-34" transform="translate(95.410156 0)"/>
     <use xlink:href="#DejaVuSans-20" transform="translate(159.033203 0)"/>
     <use xlink:href="#DejaVuSans-44" transform="translate(190.820312 0)"/>
     <use xlink:href="#DejaVuSans-75" transform="translate(267.822266 0)"/>
     <use xlink:href="#DejaVuSans-72" transform="translate(331.201172 0)"/>
     <use xlink:href="#DejaVuSans-61" transform="translate(372.314453 0)"/>
     <use xlink:href="#DejaVuSans-74" transform="translate(433.59375 0)"/>
     <use xlink:href="#DejaVuSans-69" transform="translate(472.802734 0)"/>
     <use xlink:href="#DejaVuSans-6f" transform="translate(500.585938 0)"/>
     <use xlink:href="#DejaVuSans-6e" transform="translate(561.767578 0)"/>
     <use xlink:href="#DejaVuSans-61" transform="translate(625.146484 0)"/>
     <use xlink:href="#DejaVuSans-6c" transform="translate(686.425781 0)"/>
     <use xlink:href="#DejaVuSans-20" transform="translate(714.208984 0)"/>
     <use xlink:href="#DejaVuSans-53" transform="translate(745.996094 0)"/>
     <use xlink:href="#DejaVuSans-74" transform="translate(809.472656 0)"/>
     <use xlink:href="#DejaVuSans-61" transform="translate(848.681641 0)"/>
     <use xlink:href="#DejaVuSans-74" transform="translate(909.960938 0)"/>
     <use xlink:href="#DejaVuSans-65" transform="translate(949.169922 0)"/>
    </g>
   </g>
   <g id="text_11">
    <!-- 3.1 Relative Motion: -->
    <g transform="translate(668.42103 559.245887) rotate(-342.782349) scale(0.15 -0.15)">
     <defs>
      <path id="DejaVuSans-4d" d="M 628 4666 
L 1569 4666 
L 2759 1491 
L 3956 4666 
L 4897 4666 
L 4897 0 
L 4281 0 
L 4281 4097 
L 3078 897 
L 2444 897 
L 1241 4097 
L 1241 0 
L 628 0 
L 628 4666 
z
" transform="scale(0.015625)"/>
     </defs>
     <use xlink:href="#DejaVuSans-33"/>
     <use xlink:href="#DejaVuSans-2e" transform="translate(63.623047 0)"/>
     <use xlink:href="#DejaVuSans-31" transform="translate(95.410156 0)"/>
     <use xlink:href="#DejaVuSans-20" transform="translate(159.033203 0)"/>
     <use xlink:href="#DejaVuSans-52" transform="translate(190.820312 0)"/>
     <use xlink:href="#DejaVuSans-65" transform="translate(255.802734 0)"/>
     <use xlink:href="#DejaVuSans-6c" transform="translate(317.326172 0)"/>
     <use xlink:href="#DejaVuSans-61" transform="translate(345.109375 0)"/>
     <use xlink:href="#DejaVuSans-74" transform="translate(406.388672 0)"/>
     <use xlink:href="#DejaVuSans-69" transform="translate(445.597656 0)"/>
     <use xlink:href="#DejaVuSans-76" transform="translate(473.380859 0)"/>
     <use xlink:href="#DejaVuSans-65" transform="translate(532.560547 0)"/>
     <use xlink:href="#DejaVuSans-20" transform="translate(594.083984 0)"/>
     <use xlink:href="#DejaVuSans-4d" transform="translate(625.871094 0)"/>
     <use xlink:href="#DejaVuSans-6f" transform="translate(712.150391 0)"/>
     <use xlink:href="#DejaVuSans-74" transform="translate(773.332031 0)"/>
     <use xlink:href="#DejaVuSans-69" transform="translate(812.541016 0)"/>
     <use xlink:href="#DejaVuSans-6f" transform="translate(840.324219 0)"/>
     <use xlink:href="#DejaVuSans-6e" transform="translate(901.505859 0)"/>
     <use xlink:href="#DejaVuSans-3a" transform="translate(964.884766 0)"/>
    </g>
   </g>
   <g id="text_12">
    <!-- 3.2 Object Transfere -->
    <g transform="translate(653.008231 416.737458) rotate(-31.701385) scale(0.15 -0.15)">
     <defs>
      <path id="DejaVuSans-4f" d="M 2522 4238 
Q 1834 4238 1429 3725 
Q 1025 3213 1025 2328 
Q 1025 1447 1429 934 
Q 1834 422 2522 422 
Q 3209 422 3611 934 
Q 4013 1447 4013 2328 
Q 4013 3213 3611 3725 
Q 3209 4238 2522 4238 
z
M 2522 4750 
Q 3503 4750 4090 4092 
Q 4678 3434 4678 2328 
Q 4678 1225 4090 567 
Q 3503 -91 2522 -91 
Q 1538 -91 948 565 
Q 359 1222 359 2328 
Q 359 3434 948 4092 
Q 1538 4750 2522 4750 
z
" transform="scale(0.015625)"/>
      <path id="DejaVuSans-62" d="M 3116 1747 
Q 3116 2381 2855 2742 
Q 2594 3103 2138 3103 
Q 1681 3103 1420 2742 
Q 1159 2381 1159 1747 
Q 1159 1113 1420 752 
Q 1681 391 2138 391 
Q 2594 391 2855 752 
Q 3116 1113 3116 1747 
z
M 1159 2969 
Q 1341 3281 1617 3432 
Q 1894 3584 2278 3584 
Q 2916 3584 3314 3078 
Q 3713 2572 3713 1747 
Q 3713 922 3314 415 
Q 2916 -91 2278 -91 
Q 1894 -91 1617 61 
Q 1341 213 1159 525 
L 1159 0 
L 581 0 
L 581 4863 
L 1159 4863 
L 1159 2969 
z
" transform="scale(0.015625)"/>
      <path id="DejaVuSans-6a" d="M 603 3500 
L 1178 3500 
L 1178 -63 
Q 1178 -731 923 -1031 
Q 669 -1331 103 -1331 
L -116 -1331 
L -116 -844 
L 38 -844 
Q 366 -844 484 -692 
Q 603 -541 603 -63 
L 603 3500 
z
M 603 4863 
L 1178 4863 
L 1178 4134 
L 603 4134 
L 603 4863 
z
" transform="scale(0.015625)"/>
      <path id="DejaVuSans-66" d="M 2375 4863 
L 2375 4384 
L 1825 4384 
Q 1516 4384 1395 4259 
Q 1275 4134 1275 3809 
L 1275 3500 
L 2222 3500 
L 2222 3053 
L 1275 3053 
L 1275 0 
L 697 0 
L 697 3053 
L 147 3053 
L 147 3500 
L 697 3500 
L 697 3744 
Q 697 4328 969 4595 
Q 1241 4863 1831 4863 
L 2375 4863 
z
" transform="scale(0.015625)"/>
     </defs>
     <use xlink:href="#DejaVuSans-33"/>
     <use xlink:href="#DejaVuSans-2e" transform="translate(63.623047 0)"/>
     <use xlink:href="#DejaVuSans-32" transform="translate(95.410156 0)"/>
     <use xlink:href="#DejaVuSans-20" transform="translate(159.033203 0)"/>
     <use xlink:href="#DejaVuSans-4f" transform="translate(190.820312 0)"/>
     <use xlink:href="#DejaVuSans-62" transform="translate(269.53125 0)"/>
     <use xlink:href="#DejaVuSans-6a" transform="translate(333.007812 0)"/>
     <use xlink:href="#DejaVuSans-65" transform="translate(360.791016 0)"/>
     <use xlink:href="#DejaVuSans-63" transform="translate(422.314453 0)"/>
     <use xlink:href="#DejaVuSans-74" transform="translate(477.294922 0)"/>
     <use xlink:href="#DejaVuSans-20" transform="translate(516.503906 0)"/>
     <use xlink:href="#DejaVuSans-54" transform="translate(548.291016 0)"/>
     <use xlink:href="#DejaVuSans-72" transform="translate(594.625 0)"/>
     <use xlink:href="#DejaVuSans-61" transform="translate(635.738281 0)"/>
     <use xlink:href="#DejaVuSans-6e" transform="translate(697.017578 0)"/>
     <use xlink:href="#DejaVuSans-73" transform="translate(760.396484 0)"/>
     <use xlink:href="#DejaVuSans-66" transform="translate(812.496094 0)"/>
     <use xlink:href="#DejaVuSans-65" transform="translate(847.701172 0)"/>
     <use xlink:href="#DejaVuSans-72" transform="translate(909.224609 0)"/>
     <use xlink:href="#DejaVuSans-65" transform="translate(948.087891 0)"/>
    </g>
   </g>
   <g id="text_13">
    <!-- 3.3 Instantaneous Mo -->
    <g transform="translate(606.952096 372.049563) rotate(-53.427002) scale(0.15 -0.15)">
     <use xlink:href="#DejaVuSans-33"/>
     <use xlink:href="#DejaVuSans-2e" transform="translate(63.623047 0)"/>
     <use xlink:href="#DejaVuSans-33" transform="translate(95.410156 0)"/>
     <use xlink:href="#DejaVuSans-20" transform="translate(159.033203 0)"/>
     <use xlink:href="#DejaVuSans-49" transform="translate(190.820312 0)"/>
     <use xlink:href="#DejaVuSans-6e" transform="translate(220.3125 0)"/>
     <use xlink:href="#DejaVuSans-73" transform="translate(283.691406 0)"/>
     <use xlink:href="#DejaVuSans-74" transform="translate(335.791016 0)"/>
     <use xlink:href="#DejaVuSans-61" transform="translate(375 0)"/>
     <use xlink:href="#DejaVuSans-6e" transform="translate(436.279297 0)"/>
     <use xlink:href="#DejaVuSans-74" transform="translate(499.658203 0)"/>
     <use xlink:href="#DejaVuSans-61" transform="translate(538.867188 0)"/>
     <use xlink:href="#DejaVuSans-6e" transform="translate(600.146484 0)"/>
     <use xlink:href="#DejaVuSans-65" transform="translate(663.525391 0)"/>
     <use xlink:href="#DejaVuSans-6f" transform="translate(725.048828 0)"/>
     <use xlink:href="#DejaVuSans-75" transform="translate(786.230469 0)"/>
     <use xlink:href="#DejaVuSans-73" transform="translate(849.609375 0)"/>
     <use xlink:href="#DejaVuSans-20" transform="translate(901.708984 0)"/>
     <use xlink:href="#DejaVuSans-4d" transform="translate(933.496094 0)"/>
     <use xlink:href="#DejaVuSans-6f" transform="translate(1019.775391 0)"/>
    </g>
   </g>
   <g id="text_14">
    <!-- 3.4 Composite Action -->
    <g transform="translate(537.065941 339.025124) rotate(-80.053284) scale(0.15 -0.15)">
     <use xlink:href="#DejaVuSans-33"/>
     <use xlink:href="#DejaVuSans-2e" transform="translate(63.623047 0)"/>
     <use xlink:href="#DejaVuSans-34" transform="translate(95.410156 0)"/>
     <use xlink:href="#DejaVuSans-20" transform="translate(159.033203 0)"/>
     <use xlink:href="#DejaVuSans-43" transform="translate(190.820312 0)"/>
     <use xlink:href="#DejaVuSans-6f" transform="translate(260.644531 0)"/>
     <use xlink:href="#DejaVuSans-6d" transform="translate(321.826172 0)"/>
     <use xlink:href="#DejaVuSans-70" transform="translate(419.238281 0)"/>
     <use xlink:href="#DejaVuSans-6f" transform="translate(482.714844 0)"/>
     <use xlink:href="#DejaVuSans-73" transform="translate(543.896484 0)"/>
     <use xlink:href="#DejaVuSans-69" transform="translate(595.996094 0)"/>
     <use xlink:href="#DejaVuSans-74" transform="translate(623.779297 0)"/>
     <use xlink:href="#DejaVuSans-65" transform="translate(662.988281 0)"/>
     <use xlink:href="#DejaVuSans-20" transform="translate(724.511719 0)"/>
     <use xlink:href="#DejaVuSans-41" transform="translate(756.298828 0)"/>
     <use xlink:href="#DejaVuSans-63" transform="translate(822.957031 0)"/>
     <use xlink:href="#DejaVuSans-74" transform="translate(877.9375 0)"/>
     <use xlink:href="#DejaVuSans-69" transform="translate(917.146484 0)"/>
     <use xlink:href="#DejaVuSans-6f" transform="translate(944.929688 0)"/>
     <use xlink:href="#DejaVuSans-6e" transform="translate(1006.111328 0)"/>
    </g>
   </g>
   <g id="text_15">
    <!-- 1.2.1 Supportive Con -->
    <g transform="translate(116.665593 799.663614) rotate(-36.878357) scale(0.15 -0.15)">
     <use xlink:href="#DejaVuSans-31"/>
     <use xlink:href="#DejaVuSans-2e" transform="translate(63.623047 0)"/>
     <use xlink:href="#DejaVuSans-32" transform="translate(95.410156 0)"/>
     <use xlink:href="#DejaVuSans-2e" transform="translate(159.033203 0)"/>
     <use xlink:href="#DejaVuSans-31" transform="translate(190.820312 0)"/>
     <use xlink:href="#DejaVuSans-20" transform="translate(254.443359 0)"/>
     <use xlink:href="#DejaVuSans-53" transform="translate(286.230469 0)"/>
     <use xlink:href="#DejaVuSans-75" transform="translate(349.707031 0)"/>
     <use xlink:href="#DejaVuSans-70" transform="translate(413.085938 0)"/>
     <use xlink:href="#DejaVuSans-70" transform="translate(476.5625 0)"/>
     <use xlink:href="#DejaVuSans-6f" transform="translate(540.039062 0)"/>
     <use xlink:href="#DejaVuSans-72" transform="translate(601.220703 0)"/>
     <use xlink:href="#DejaVuSans-74" transform="translate(642.333984 0)"/>
     <use xlink:href="#DejaVuSans-69" transform="translate(681.542969 0)"/>
     <use xlink:href="#DejaVuSans-76" transform="translate(709.326172 0)"/>
     <use xlink:href="#DejaVuSans-65" transform="translate(768.505859 0)"/>
     <use xlink:href="#DejaVuSans-20" transform="translate(830.029297 0)"/>
     <use xlink:href="#DejaVuSans-43" transform="translate(861.816406 0)"/>
     <use xlink:href="#DejaVuSans-6f" transform="translate(931.640625 0)"/>
     <use xlink:href="#DejaVuSans-6e" transform="translate(992.822266 0)"/>
    </g>
   </g>
   <g id="text_16">
    <!-- 1.2.2 Manipulative C -->
    <g transform="translate(254.657706 920.345586) rotate(-58.604004) scale(0.15 -0.15)">
     <use xlink:href="#DejaVuSans-31"/>
     <use xlink:href="#DejaVuSans-2e" transform="translate(63.623047 0)"/>
     <use xlink:href="#DejaVuSans-32" transform="translate(95.410156 0)"/>
     <use xlink:href="#DejaVuSans-2e" transform="translate(159.033203 0)"/>
     <use xlink:href="#DejaVuSans-32" transform="translate(190.820312 0)"/>
     <use xlink:href="#DejaVuSans-20" transform="translate(254.443359 0)"/>
     <use xlink:href="#DejaVuSans-4d" transform="translate(286.230469 0)"/>
     <use xlink:href="#DejaVuSans-61" transform="translate(372.509766 0)"/>
     <use xlink:href="#DejaVuSans-6e" transform="translate(433.789062 0)"/>
     <use xlink:href="#DejaVuSans-69" transform="translate(497.167969 0)"/>
     <use xlink:href="#DejaVuSans-70" transform="translate(524.951172 0)"/>
     <use xlink:href="#DejaVuSans-75" transform="translate(588.427734 0)"/>
     <use xlink:href="#DejaVuSans-6c" transform="translate(651.806641 0)"/>
     <use xlink:href="#DejaVuSans-61" transform="translate(679.589844 0)"/>
     <use xlink:href="#DejaVuSans-74" transform="translate(740.869141 0)"/>
     <use xlink:href="#DejaVuSans-69" transform="translate(780.078125 0)"/>
     <use xlink:href="#DejaVuSans-76" transform="translate(807.861328 0)"/>
     <use xlink:href="#DejaVuSans-65" transform="translate(867.041016 0)"/>
     <use xlink:href="#DejaVuSans-20" transform="translate(928.564453 0)"/>
     <use xlink:href="#DejaVuSans-43" transform="translate(960.351562 0)"/>
    </g>
   </g>
   <g id="text_17">
    <!-- 1.2.3 Social/Affecti -->
    <g transform="translate(418.608716 974.455134) rotate(-79.224457) scale(0.15 -0.15)">
     <defs>
      <path id="DejaVuSans-2f" d="M 1625 4666 
L 2156 4666 
L 531 -594 
L 0 -594 
L 1625 4666 
z
" transform="scale(0.015625)"/>
     </defs>
     <use xlink:href="#DejaVuSans-31"/>
     <use xlink:href="#DejaVuSans-2e" transform="translate(63.623047 0)"/>
     <use xlink:href="#DejaVuSans-32" transform="translate(95.410156 0)"/>
     <use xlink:href="#DejaVuSans-2e" transform="translate(159.033203 0)"/>
     <use xlink:href="#DejaVuSans-33" transform="translate(190.820312 0)"/>
     <use xlink:href="#DejaVuSans-20" transform="translate(254.443359 0)"/>
     <use xlink:href="#DejaVuSans-53" transform="translate(286.230469 0)"/>
     <use xlink:href="#DejaVuSans-6f" transform="translate(349.707031 0)"/>
     <use xlink:href="#DejaVuSans-63" transform="translate(410.888672 0)"/>
     <use xlink:href="#DejaVuSans-69" transform="translate(465.869141 0)"/>
     <use xlink:href="#DejaVuSans-61" transform="translate(493.652344 0)"/>
     <use xlink:href="#DejaVuSans-6c" transform="translate(554.931641 0)"/>
     <use xlink:href="#DejaVuSans-2f" transform="translate(582.714844 0)"/>
     <use xlink:href="#DejaVuSans-41" transform="translate(616.40625 0)"/>
     <use xlink:href="#DejaVuSans-66" transform="translate(681.189453 0)"/>
     <use xlink:href="#DejaVuSans-66" transform="translate(716.394531 0)"/>
     <use xlink:href="#DejaVuSans-65" transform="translate(751.599609 0)"/>
     <use xlink:href="#DejaVuSans-63" transform="translate(813.123047 0)"/>
     <use xlink:href="#DejaVuSans-74" transform="translate(868.103516 0)"/>
     <use xlink:href="#DejaVuSans-69" transform="translate(907.3125 0)"/>
    </g>
   </g>
   <g id="text_18">
    <!-- 1.3.1 Gaze -->
    <g transform="translate(502.731787 952.423228) rotate(-89.316559) scale(0.15 -0.15)">
     <defs>
      <path id="DejaVuSans-47" d="M 3809 666 
L 3809 1919 
L 2778 1919 
L 2778 2438 
L 4434 2438 
L 4434 434 
Q 4069 175 3628 42 
Q 3188 -91 2688 -91 
Q 1594 -91 976 548 
Q 359 1188 359 2328 
Q 359 3472 976 4111 
Q 1594 4750 2688 4750 
Q 3144 4750 3555 4637 
Q 3966 4525 4313 4306 
L 4313 3634 
Q 3963 3931 3569 4081 
Q 3175 4231 2741 4231 
Q 1884 4231 1454 3753 
Q 1025 3275 1025 2328 
Q 1025 1384 1454 906 
Q 1884 428 2741 428 
Q 3075 428 3337 486 
Q 3600 544 3809 666 
z
" transform="scale(0.015625)"/>
      <path id="DejaVuSans-7a" d="M 353 3500 
L 3084 3500 
L 3084 2975 
L 922 459 
L 3084 459 
L 3084 0 
L 275 0 
L 275 525 
L 2438 3041 
L 353 3041 
L 353 3500 
z
" transform="scale(0.015625)"/>
     </defs>
     <use xlink:href="#DejaVuSans-31"/>
     <use xlink:href="#DejaVuSans-2e" transform="translate(63.623047 0)"/>
     <use xlink:href="#DejaVuSans-33" transform="translate(95.410156 0)"/>
     <use xlink:href="#DejaVuSans-2e" transform="translate(159.033203 0)"/>
     <use xlink:href="#DejaVuSans-31" transform="translate(190.820312 0)"/>
     <use xlink:href="#DejaVuSans-20" transform="translate(254.443359 0)"/>
     <use xlink:href="#DejaVuSans-47" transform="translate(286.230469 0)"/>
     <use xlink:href="#DejaVuSans-61" transform="translate(363.720703 0)"/>
     <use xlink:href="#DejaVuSans-7a" transform="translate(425 0)"/>
     <use xlink:href="#DejaVuSans-65" transform="translate(477.490234 0)"/>
    </g>
   </g>
   <g id="text_19">
    <!-- 1.3.2 Indicative Ges -->
    <g transform="translate(541.393849 863.495034) rotate(-276.354858) scale(0.093359 -0.093359)">
     <use xlink:href="#DejaVuSans-31"/>
     <use xlink:href="#DejaVuSans-2e" transform="translate(63.623047 0)"/>
     <use xlink:href="#DejaVuSans-33" transform="translate(95.410156 0)"/>
     <use xlink:href="#DejaVuSans-2e" transform="translate(159.033203 0)"/>
     <use xlink:href="#DejaVuSans-32" transform="translate(190.820312 0)"/>
     <use xlink:href="#DejaVuSans-20" transform="translate(254.443359 0)"/>
     <use xlink:href="#DejaVuSans-49" transform="translate(286.230469 0)"/>
     <use xlink:href="#DejaVuSans-6e" transform="translate(315.722656 0)"/>
     <use xlink:href="#DejaVuSans-64" transform="translate(379.101562 0)"/>
     <use xlink:href="#DejaVuSans-69" transform="translate(442.578125 0)"/>
     <use xlink:href="#DejaVuSans-63" transform="translate(470.361328 0)"/>
     <use xlink:href="#DejaVuSans-61" transform="translate(525.341797 0)"/>
     <use xlink:href="#DejaVuSans-74" transform="translate(586.621094 0)"/>
     <use xlink:href="#DejaVuSans-69" transform="translate(625.830078 0)"/>
     <use xlink:href="#DejaVuSans-76" transform="translate(653.613281 0)"/>
     <use xlink:href="#DejaVuSans-65" transform="translate(712.792969 0)"/>
     <use xlink:href="#DejaVuSans-20" transform="translate(774.316406 0)"/>
     <use xlink:href="#DejaVuSans-47" transform="translate(806.103516 0)"/>
     <use xlink:href="#DejaVuSans-65" transform="translate(883.59375 0)"/>
     <use xlink:href="#DejaVuSans-73" transform="translate(945.117188 0)"/>
    </g>
   </g>
   <g id="text_20">
    <!-- 3.1.1 Approach &amp; Dep -->
    <g transform="translate(796.476651 645.997665) rotate(-334.827942) scale(0.15 -0.15)">
     <use xlink:href="#DejaVuSans-33"/>
     <use xlink:href="#DejaVuSans-2e" transform="translate(63.623047 0)"/>
     <use xlink:href="#DejaVuSans-31" transform="translate(95.410156 0)"/>
     <use xlink:href="#DejaVuSans-2e" transform="translate(159.033203 0)"/>
     <use xlink:href="#DejaVuSans-31" transform="translate(190.820312 0)"/>
     <use xlink:href="#DejaVuSans-20" transform="translate(254.443359 0)"/>
     <use xlink:href="#DejaVuSans-41" transform="translate(286.230469 0)"/>
     <use xlink:href="#DejaVuSans-70" transform="translate(354.638672 0)"/>
     <use xlink:href="#DejaVuSans-70" transform="translate(418.115234 0)"/>
     <use xlink:href="#DejaVuSans-72" transform="translate(481.591797 0)"/>
     <use xlink:href="#DejaVuSans-6f" transform="translate(520.455078 0)"/>
     <use xlink:href="#DejaVuSans-61" transform="translate(581.636719 0)"/>
     <use xlink:href="#DejaVuSans-63" transform="translate(642.916016 0)"/>
     <use xlink:href="#DejaVuSans-68" transform="translate(697.896484 0)"/>
     <use xlink:href="#DejaVuSans-20" transform="translate(761.275391 0)"/>
     <use xlink:href="#DejaVuSans-26" transform="translate(793.0625 0)"/>
     <use xlink:href="#DejaVuSans-20" transform="translate(871.041016 0)"/>
     <use xlink:href="#DejaVuSans-44" transform="translate(902.828125 0)"/>
     <use xlink:href="#DejaVuSans-65" transform="translate(979.830078 0)"/>
     <use xlink:href="#DejaVuSans-70" transform="translate(1041.353516 0)"/>
    </g>
   </g>
   <g id="text_21">
    <!-- 3.1.2 Passing &amp; Cros -->
    <g transform="translate(821.516212 410.126687) rotate(-17.174072) scale(0.15 -0.15)">
     <use xlink:href="#DejaVuSans-33"/>
     <use xlink:href="#DejaVuSans-2e" transform="translate(63.623047 0)"/>
     <use xlink:href="#DejaVuSans-31" transform="translate(95.410156 0)"/>
     <use xlink:href="#DejaVuSans-2e" transform="translate(159.033203 0)"/>
     <use xlink:href="#DejaVuSans-32" transform="translate(190.820312 0)"/>
     <use xlink:href="#DejaVuSans-20" transform="translate(254.443359 0)"/>
     <use xlink:href="#DejaVuSans-50" transform="translate(286.230469 0)"/>
     <use xlink:href="#DejaVuSans-61" transform="translate(342.033203 0)"/>
     <use xlink:href="#DejaVuSans-73" transform="translate(403.3125 0)"/>
     <use xlink:href="#DejaVuSans-73" transform="translate(455.412109 0)"/>
     <use xlink:href="#DejaVuSans-69" transform="translate(507.511719 0)"/>
     <use xlink:href="#DejaVuSans-6e" transform="translate(535.294922 0)"/>
     <use xlink:href="#DejaVuSans-67" transform="translate(598.673828 0)"/>
     <use xlink:href="#DejaVuSans-20" transform="translate(662.150391 0)"/>
     <use xlink:href="#DejaVuSans-26" transform="translate(693.9375 0)"/>
     <use xlink:href="#DejaVuSans-20" transform="translate(771.916016 0)"/>
     <use xlink:href="#DejaVuSans-43" transform="translate(803.703125 0)"/>
     <use xlink:href="#DejaVuSans-72" transform="translate(873.527344 0)"/>
     <use xlink:href="#DejaVuSans-6f" transform="translate(912.390625 0)"/>
     <use xlink:href="#DejaVuSans-73" transform="translate(973.572266 0)"/>
    </g>
   </g>
   <g id="text_22">
    <!-- 3.1.3 Following &amp; Le -->
    <g transform="translate(832.48734 352.633838) rotate(-25.128479) scale(0.091614 -0.091614)">
     <defs>
      <path id="DejaVuSans-46" d="M 628 4666 
L 3309 4666 
L 3309 4134 
L 1259 4134 
L 1259 2759 
L 3109 2759 
L 3109 2228 
L 1259 2228 
L 1259 0 
L 628 0 
L 628 4666 
z
" transform="scale(0.015625)"/>
      <path id="DejaVuSans-77" d="M 269 3500 
L 844 3500 
L 1563 769 
L 2278 3500 
L 2956 3500 
L 3675 769 
L 4391 3500 
L 4966 3500 
L 4050 0 
L 3372 0 
L 2619 2869 
L 1863 0 
L 1184 0 
L 269 3500 
z
" transform="scale(0.015625)"/>
      <path id="DejaVuSans-4c" d="M 628 4666 
L 1259 4666 
L 1259 531 
L 3531 531 
L 3531 0 
L 628 0 
L 628 4666 
z
" transform="scale(0.015625)"/>
     </defs>
     <use xlink:href="#DejaVuSans-33"/>
     <use xlink:href="#DejaVuSans-2e" transform="translate(63.623047 0)"/>
     <use xlink:href="#DejaVuSans-31" transform="translate(95.410156 0)"/>
     <use xlink:href="#DejaVuSans-2e" transform="translate(159.033203 0)"/>
     <use xlink:href="#DejaVuSans-33" transform="translate(190.820312 0)"/>
     <use xlink:href="#DejaVuSans-20" transform="translate(254.443359 0)"/>
     <use xlink:href="#DejaVuSans-46" transform="translate(286.230469 0)"/>
     <use xlink:href="#DejaVuSans-6f" transform="translate(340.125 0)"/>
     <use xlink:href="#DejaVuSans-6c" transform="translate(401.306641 0)"/>
     <use xlink:href="#DejaVuSans-6c" transform="translate(429.089844 0)"/>
     <use xlink:href="#DejaVuSans-6f" transform="translate(456.873047 0)"/>
     <use xlink:href="#DejaVuSans-77" transform="translate(518.054688 0)"/>
     <use xlink:href="#DejaVuSans-69" transform="translate(599.841797 0)"/>
     <use xlink:href="#DejaVuSans-6e" transform="translate(627.625 0)"/>
     <use xlink:href="#DejaVuSans-67" transform="translate(691.003906 0)"/>
     <use xlink:href="#DejaVuSans-20" transform="translate(754.480469 0)"/>
     <use xlink:href="#DejaVuSans-26" transform="translate(786.267578 0)"/>
     <use xlink:href="#DejaVuSans-20" transform="translate(864.246094 0)"/>
     <use xlink:href="#DejaVuSans-4c" transform="translate(896.033203 0)"/>
     <use xlink:href="#DejaVuSans-65" transform="translate(949.996094 0)"/>
    </g>
   </g>
  </g>
 </g>
</svg>
